<?xml version="1.0" encoding="utf-8"?>
<!-- Generator: Adobe Illustrator 26.0.1, SVG Export Plug-In . SVG Version: 6.00 Build 0)  -->
<svg version="1.1" id="BACKGROUND" xmlns="http://www.w3.org/2000/svg" xmlns:xlink="http://www.w3.org/1999/xlink" x="0px" y="0px"
	 viewBox="0 0 750 500" style="enable-background:new 0 0 750 500;" xml:space="preserve">
<style type="text/css">
	.st0{clip-path:url(#SVGID_00000034776182809966664610000001355181577305939079_);}
	.st1{fill:#00FFFF;}
	.st2{fill:none;stroke:#000000;stroke-miterlimit:10;}
	.st3{fill:none;stroke:#BBB9BA;stroke-miterlimit:10;}
	.st4{fill:none;stroke:#00FFFF;stroke-miterlimit:10;}
</style>
<g>
	<defs>
		<rect id="SVGID_1_" x="19.15" width="750" height="500"/>
	</defs>
	<clipPath id="SVGID_00000169537133759359541700000011976028137432728994_">
		<use xlink:href="#SVGID_1_"  style="overflow:visible;"/>
	</clipPath>
	<g style="clip-path:url(#SVGID_00000169537133759359541700000011976028137432728994_);">
	</g>
	<g style="clip-path:url(#SVGID_00000169537133759359541700000011976028137432728994_);">
		<rect x="646.37" y="346.63" class="st1" width="76.81" height="76.81"/>
	</g>
	<g style="clip-path:url(#SVGID_00000169537133759359541700000011976028137432728994_);">
		<rect x="117.39" y="44.18" class="st1" width="38.76" height="38.76"/>
		<rect x="482.51" y="110.57" width="38.76" height="38.76"/>
	</g>
	<g style="clip-path:url(#SVGID_00000169537133759359541700000011976028137432728994_);">
		<g>
			<g>
				<path class="st2" d="M502.69,501.71c4.68,0,4.68,5.05,9.36,5.05c4.68,0,4.68-5.05,9.36-5.05c4.68,0,4.68,5.05,9.36,5.05
					c4.68,0,4.68-5.05,9.36-5.05c4.68,0,4.68,5.05,9.36,5.05c4.68,0,4.68-5.05,9.36-5.05c4.68,0,4.68,5.05,9.36,5.05
					c4.68,0,4.68-5.05,9.37-5.05s4.68,5.05,9.37,5.05"/>
			</g>
			<g>
				<path class="st2" d="M502.69,510.23c4.68,0,4.68,5.05,9.36,5.05c4.68,0,4.68-5.05,9.36-5.05c4.68,0,4.68,5.05,9.36,5.05
					c4.68,0,4.68-5.05,9.36-5.05c4.68,0,4.68,5.05,9.36,5.05c4.68,0,4.68-5.05,9.36-5.05c4.68,0,4.68,5.05,9.36,5.05
					c4.68,0,4.68-5.05,9.37-5.05s4.68,5.05,9.37,5.05"/>
			</g>
			<g>
				<path class="st2" d="M502.69,518.75c4.68,0,4.68,5.05,9.36,5.05c4.68,0,4.68-5.05,9.36-5.05c4.68,0,4.68,5.05,9.36,5.05
					c4.68,0,4.68-5.05,9.36-5.05c4.68,0,4.68,5.05,9.36,5.05c4.68,0,4.68-5.05,9.36-5.05c4.68,0,4.68,5.05,9.36,5.05
					c4.68,0,4.68-5.05,9.37-5.05s4.68,5.05,9.37,5.05"/>
			</g>
		</g>
		<g>
			<g>
				<path class="st3" d="M468.11,34.07c0,4.68-5.05,4.68-5.05,9.36c0,4.68,5.05,4.68,5.05,9.36c0,4.68-5.05,4.68-5.05,9.36
					c0,4.68,5.05,4.68,5.05,9.36c0,4.68-5.05,4.68-5.05,9.36c0,4.68,5.05,4.68,5.05,9.36c0,4.68-5.05,4.68-5.05,9.36
					c0,4.68,5.05,4.68,5.05,9.37s-5.05,4.68-5.05,9.37"/>
			</g>
			<g>
				<path class="st3" d="M459.59,34.07c0,4.68-5.05,4.68-5.05,9.36c0,4.68,5.05,4.68,5.05,9.36c0,4.68-5.05,4.68-5.05,9.36
					c0,4.68,5.05,4.68,5.05,9.36c0,4.68-5.05,4.68-5.05,9.36c0,4.68,5.05,4.68,5.05,9.36c0,4.68-5.05,4.68-5.05,9.36
					c0,4.68,5.05,4.68,5.05,9.37s-5.05,4.68-5.05,9.37"/>
			</g>
			<g>
				<path class="st3" d="M451.07,34.07c0,4.68-5.05,4.68-5.05,9.36c0,4.68,5.05,4.68,5.05,9.36c0,4.68-5.05,4.68-5.05,9.36
					c0,4.68,5.05,4.68,5.05,9.36c0,4.68-5.05,4.68-5.05,9.36c0,4.68,5.05,4.68,5.05,9.36c0,4.68-5.05,4.68-5.05,9.36
					c0,4.68,5.05,4.68,5.05,9.37s-5.05,4.68-5.05,9.37"/>
			</g>
		</g>
		<g>
			<g>
				<path class="st3" d="M414.41,426.48c-4.68,0-4.68-5.05-9.36-5.05c-4.68,0-4.68,5.05-9.36,5.05c-4.68,0-4.68-5.05-9.36-5.05
					c-4.68,0-4.68,5.05-9.36,5.05c-4.68,0-4.68-5.05-9.36-5.05c-4.68,0-4.68,5.05-9.36,5.05c-4.68,0-4.68-5.05-9.36-5.05
					c-4.68,0-4.68,5.05-9.37,5.05s-4.68-5.05-9.37-5.05"/>
			</g>
			<g>
				<path class="st3" d="M414.41,417.96c-4.68,0-4.68-5.05-9.36-5.05c-4.68,0-4.68,5.05-9.36,5.05c-4.68,0-4.68-5.05-9.36-5.05
					c-4.68,0-4.68,5.05-9.36,5.05c-4.68,0-4.68-5.05-9.36-5.05c-4.68,0-4.68,5.05-9.36,5.05c-4.68,0-4.68-5.05-9.36-5.05
					c-4.68,0-4.68,5.05-9.37,5.05s-4.68-5.05-9.37-5.05"/>
			</g>
			<g>
				<path class="st3" d="M414.41,409.44c-4.68,0-4.68-5.05-9.36-5.05c-4.68,0-4.68,5.05-9.36,5.05c-4.68,0-4.68-5.05-9.36-5.05
					c-4.68,0-4.68,5.05-9.36,5.05c-4.68,0-4.68-5.05-9.36-5.05c-4.68,0-4.68,5.05-9.36,5.05c-4.68,0-4.68-5.05-9.36-5.05
					c-4.68,0-4.68,5.05-9.37,5.05s-4.68-5.05-9.37-5.05"/>
			</g>
		</g>
		<g>
			<g>
				<path class="st4" d="M397.94,212.03c-4.68,0-4.68-5.05-9.36-5.05c-4.68,0-4.68,5.05-9.36,5.05c-4.68,0-4.68-5.05-9.36-5.05
					c-4.68,0-4.68,5.05-9.36,5.05c-4.68,0-4.68-5.05-9.36-5.05c-4.68,0-4.68,5.05-9.36,5.05c-4.68,0-4.68-5.05-9.36-5.05
					c-4.68,0-4.68,5.05-9.37,5.05c-4.68,0-4.68-5.05-9.37-5.05"/>
			</g>
			<g>
				<path class="st4" d="M397.94,203.51c-4.68,0-4.68-5.05-9.36-5.05c-4.68,0-4.68,5.05-9.36,5.05c-4.68,0-4.68-5.05-9.36-5.05
					c-4.68,0-4.68,5.05-9.36,5.05c-4.68,0-4.68-5.05-9.36-5.05c-4.68,0-4.68,5.05-9.36,5.05c-4.68,0-4.68-5.05-9.36-5.05
					c-4.68,0-4.68,5.05-9.37,5.05c-4.68,0-4.68-5.05-9.37-5.05"/>
			</g>
			<g>
				<path class="st4" d="M397.94,194.99c-4.68,0-4.68-5.05-9.36-5.05c-4.68,0-4.68,5.05-9.36,5.05c-4.68,0-4.68-5.05-9.36-5.05
					c-4.68,0-4.68,5.05-9.36,5.05c-4.68,0-4.68-5.05-9.36-5.05c-4.68,0-4.68,5.05-9.36,5.05c-4.68,0-4.68-5.05-9.36-5.05
					c-4.68,0-4.68,5.05-9.37,5.05c-4.68,0-4.68-5.05-9.37-5.05"/>
			</g>
		</g>
		<g>
			<g>
				<path class="st2" d="M54.83,186.06c0,4.68-5.05,4.68-5.05,9.36c0,4.68,5.05,4.68,5.05,9.36c0,4.68-5.05,4.68-5.05,9.36
					c0,4.68,5.05,4.68,5.05,9.36c0,4.68-5.05,4.68-5.05,9.36c0,4.68,5.05,4.68,5.05,9.36c0,4.68-5.05,4.68-5.05,9.36
					c0,4.68,5.05,4.68,5.05,9.37c0,4.68-5.05,4.68-5.05,9.37"/>
			</g>
			<g>
				<path class="st2" d="M46.31,186.06c0,4.68-5.05,4.68-5.05,9.36c0,4.68,5.05,4.68,5.05,9.36c0,4.68-5.05,4.68-5.05,9.36
					c0,4.68,5.05,4.68,5.05,9.36c0,4.68-5.05,4.68-5.05,9.36c0,4.68,5.05,4.68,5.05,9.36c0,4.68-5.05,4.68-5.05,9.36
					c0,4.68,5.05,4.68,5.05,9.37c0,4.68-5.05,4.68-5.05,9.37"/>
			</g>
			<g>
				<path class="st2" d="M37.79,186.06c0,4.68-5.05,4.68-5.05,9.36c0,4.68,5.05,4.68,5.05,9.36c0,4.68-5.05,4.68-5.05,9.36
					c0,4.68,5.05,4.68,5.05,9.36c0,4.68-5.05,4.68-5.05,9.36c0,4.68,5.05,4.68,5.05,9.36c0,4.68-5.05,4.68-5.05,9.36
					c0,4.68,5.05,4.68,5.05,9.37c0,4.68-5.05,4.68-5.05,9.37"/>
			</g>
		</g>
	</g>
	<g style="clip-path:url(#SVGID_00000169537133759359541700000011976028137432728994_);">
		<g>
			<line class="st3" x1="532.92" y1="319.75" x2="532.92" y2="245.24"/>
			<line class="st3" x1="526.14" y1="319.75" x2="526.14" y2="245.24"/>
			<line class="st3" x1="519.37" y1="319.75" x2="519.37" y2="245.24"/>
			<line class="st3" x1="512.59" y1="319.75" x2="512.59" y2="245.24"/>
			<line class="st3" x1="505.82" y1="319.75" x2="505.82" y2="245.24"/>
			<line class="st3" x1="499.05" y1="319.75" x2="499.05" y2="245.24"/>
			<line class="st3" x1="492.27" y1="319.75" x2="492.27" y2="245.24"/>
			<line class="st3" x1="485.5" y1="319.75" x2="485.5" y2="245.24"/>
			<line class="st3" x1="478.72" y1="319.75" x2="478.72" y2="245.24"/>
			<line class="st3" x1="471.95" y1="319.75" x2="471.95" y2="245.24"/>
			<line class="st3" x1="465.17" y1="319.75" x2="465.17" y2="245.24"/>
			<line class="st3" x1="458.4" y1="319.75" x2="458.4" y2="245.24"/>
		</g>
		
			<rect x="478.72" y="220.09" transform="matrix(-1 -1.224647e-16 1.224647e-16 -1 1034.2537 516.9914)" class="st4" width="76.81" height="76.81"/>
	</g>
</g>
</svg>
