<?xml version="1.0" encoding="utf-8"?>
<!-- Generator: Adobe Illustrator 26.0.1, SVG Export Plug-In . SVG Version: 6.00 Build 0)  -->
<svg version="1.1" xmlns="http://www.w3.org/2000/svg" xmlns:xlink="http://www.w3.org/1999/xlink" x="0px" y="0px"
	 viewBox="0 0 500 500" style="enable-background:new 0 0 500 500;" xml:space="preserve">
<style type="text/css">
	.st0{fill:#00D7D7;}
	.st1{opacity:0.7;fill:#FFFFFF;}
	.st2{fill:none;stroke:#263238;stroke-linecap:round;stroke-linejoin:round;stroke-miterlimit:10;stroke-dasharray:4;}
	.st3{opacity:0.5;fill:#FFFFFF;}
	.st4{fill:#FFFFFF;stroke:#263238;stroke-linecap:round;stroke-linejoin:round;stroke-miterlimit:10;}
	.st5{fill:#263238;}
	.st6{opacity:0.2;fill:#FFFFFF;}
	.st7{fill:#00D7D7;stroke:#263238;stroke-miterlimit:10;}
	.st8{fill:none;stroke:#263238;stroke-miterlimit:10;}
	.st9{opacity:0.2;}
	.st10{fill:#FFFFFF;stroke:#222221;stroke-miterlimit:10;}
	.st11{fill:#FFFFFF;}
	.st12{fill:none;stroke:#263238;stroke-linecap:round;stroke-linejoin:round;stroke-miterlimit:10;}
	.st13{fill:none;stroke:#263238;stroke-width:2;stroke-linecap:round;stroke-linejoin:round;stroke-miterlimit:10;}
	.st14{opacity:0.2;fill:none;stroke:#FFFFFF;stroke-linecap:round;stroke-linejoin:round;stroke-miterlimit:10;}
	.st15{fill:none;stroke:#FFFFFF;stroke-linecap:round;stroke-linejoin:round;stroke-miterlimit:10;}
</style>
<g id="Background_Simple">
	<g>
		<path class="st0" d="M40.2,265.82c0,0.36,0,0.72,0,1.08c-0.08,48.52,11.86,116.23,84.86,127.68
			c95.62,14.99,145.22-101.79,193.57-96.95c24.76,2.48,53.15,5.77,75.96-3.25c21.75-8.59,39.11-24.45,49.9-41.54
			c38.55-61,0.29-127.86-70.13-163.43c-93.94-47.46-228.76-44.16-288.95,34.8C53.93,165.51,40.48,217.41,40.2,265.82z"/>
		<path class="st1" d="M40.2,265.82c0,0.36,0,0.72,0,1.08c-0.08,48.52,11.86,116.23,84.86,127.68
			c95.62,14.99,145.22-101.79,193.57-96.95c24.76,2.48,53.15,5.77,75.96-3.25c21.75-8.59,39.11-24.45,49.9-41.54
			c38.55-61,0.29-127.86-70.13-163.43c-93.94-47.46-228.76-44.16-288.95,34.8C53.93,165.51,40.48,217.41,40.2,265.82z"/>
	</g>
</g>
<g id="Lines">
	<g>
		<path class="st2" d="M94.25,218.78h-4.91c-10.98,0-19.88,8.9-19.88,19.88v109.09c0,10.98,8.9,19.88,19.88,19.88h67.41
			c10.98,0,19.88-8.9,19.88-19.88l0,0"/>
		<path class="st2" d="M171.1,115.84V94.29c0-6.72,5.45-12.18,12.18-12.18h87.66c6.72,0,12.18,5.45,12.18,12.18l0,0"/>
	</g>
</g>
<g id="Shadow">
	<g>
		<ellipse class="st0" cx="250" cy="424.76" rx="167.99" ry="24.26"/>
		<ellipse class="st3" cx="250" cy="424.76" rx="167.99" ry="24.26"/>
	</g>
</g>
<g id="Window">
	<g>
		<path class="st4" d="M413.67,144.75v163.23c0,11.11-9.01,20.12-20.12,20.12H106.46c-11.11,0-20.12-9.01-20.12-20.12V144.75
			c0-0.48,0.02-0.95,0.06-1.42c0.72-10.45,9.43-18.71,20.06-18.71h287.09c10.63,0,19.34,8.26,20.06,18.71
			C413.64,143.8,413.67,144.27,413.67,144.75z"/>
		<path class="st5" d="M386.04,320.52H114.98c-10.41,0-18.86-8.44-18.86-18.86V150.88H404.9v150.78
			C404.9,312.07,396.46,320.52,386.04,320.52z"/>
		<path class="st6" d="M404.9,150.87v150.79c0,10.41-8.35,18.85-18.65,18.85H114.77c-10.29,0-18.65-8.44-18.65-18.85V150.87H404.9z"
			/>
		<path class="st7" d="M413.61,143.33H86.39c0.72-10.45,9.43-18.71,20.06-18.71h287.09C404.17,124.62,412.89,132.88,413.61,143.33z"
			/>
		<path class="st5" d="M126.6,133.98c0,1.97-1.6,3.56-3.56,3.56c-1.97,0-3.56-1.6-3.56-3.56c0-1.97,1.6-3.56,3.56-3.56
			C125.01,130.42,126.6,132.01,126.6,133.98z"/>
		<path class="st5" d="M141.67,133.98c0,1.97-1.6,3.56-3.56,3.56c-1.97,0-3.56-1.6-3.56-3.56c0-1.97,1.6-3.56,3.56-3.56
			C140.08,130.42,141.67,132.01,141.67,133.98z"/>
		<path class="st5" d="M156.74,133.98c0,1.97-1.6,3.56-3.56,3.56c-1.97,0-3.56-1.6-3.56-3.56c0-1.97,1.6-3.56,3.56-3.56
			C155.15,130.42,156.74,132.01,156.74,133.98z"/>
		<path class="st8" d="M404.9,150.88v150.78c0,10.41-8.44,18.86-18.86,18.86H114.98c-9.16,0-16.79-6.54-18.49-15.2l-0.01-0.01v-0.04
			c-0.23-1.17-0.35-2.38-0.35-3.61V150.88H404.9z"/>
		<path class="st5" d="M404.61,174.2c-1.32-0.74-2.73-1.32-4.19-1.73l-1.69-7.57h-7.2l-1.68,7.57c-1.47,0.4-2.88,0.99-4.2,1.73
			l-6.5-4.16l-5.09,5.09l4.09,6.5c-0.75,1.33-1.33,2.74-1.73,4.2l-7.57,1.68v7.2l7.57,1.69c0.4,1.48,0.98,2.9,1.73,4.23l-4.16,6.54
			l5.09,5.09l6.54-4.16c1.32,0.75,2.73,1.33,4.2,1.74l1.68,7.56h7.2l1.69-7.56c1.46-0.41,2.87-1,4.19-1.74l0.33,0.21v-34.3
			L404.61,174.2z M395.15,200.45c-5.14,0-9.3-4.16-9.3-9.3c0-5.13,4.16-9.3,9.3-9.3c5.14,0,9.3,4.17,9.3,9.3
			C404.45,196.29,400.29,200.45,395.15,200.45z"/>
		<path class="st5" d="M274.89,181.49v-15.18l-15.96-3.54c-0.87-3.08-2.09-6.06-3.65-8.86l1.93-3.04h-75.33l1.86,2.96
			c-1.57,2.79-2.79,5.76-3.64,8.85l-15.96,3.55v15.18l15.96,3.56c0.85,3.11,2.07,6.11,3.64,8.92l-8.77,13.79l10.74,10.73l13.78-8.77
			c2.8,1.57,5.77,2.8,8.86,3.67l3.54,15.94h15.18l3.57-15.94c3.08-0.87,6.04-2.11,8.83-3.67l13.79,8.77l10.73-10.73l-8.71-13.79
			c1.55-2.8,2.78-5.76,3.65-8.84L274.89,181.49z M219.59,193.51c-10.83,0-19.61-8.78-19.61-19.61c0-10.83,8.78-19.61,19.61-19.61
			c10.83,0,19.61,8.78,19.61,19.61C239.2,184.73,230.41,193.51,219.59,193.51z"/>
		<path class="st5" d="M174.2,285.73l0.64-12.04l-12.48-3.52c-0.58-2.47-1.44-4.88-2.56-7.16l7.54-10.59l-8.08-8.97l-11.3,6.39
			c-2.16-1.35-4.46-2.46-6.88-3.29l-2.16-12.8l-12.04-0.64l-3.48,12.52c-2.48,0.55-4.88,1.41-7.16,2.54l-10.58-7.54l-8.98,8.08
			l6.4,11.31c-1.38,2.15-2.48,4.45-3.3,6.87l-3.65,0.6v16.31l2.65,0.75c0.56,2.49,1.42,4.9,2.56,7.18l-5.21,7.29l0.35,6.25v0.04
			l0.01,0.01l5.37,5.96l11.32-6.39c2.16,1.39,4.48,2.51,6.9,3.33l2.06,12.29v0.01l0.1,0.51l12.04,0.64l0.32-1.15v-0.01l3.16-11.36
			c2.5-0.56,4.9-1.41,7.2-2.54l10.56,7.53l8.98-8.07l-6.38-11.32c1.36-2.15,2.46-4.45,3.26-6.86L174.2,285.73z M142.22,266.92
			c-5.76-6.4-15.62-6.92-22.02-1.16c-6.4,5.76-6.92,15.62-1.16,22.02s15.62,6.91,22.02,1.15
			C147.46,283.17,147.98,273.32,142.22,266.92z"/>
		<path class="st5" d="M270.49,267.74c0.47-1.86,0.71-3.78,0.73-5.7l8.66-4.55l-2.39-8.78l-9.77,0.46
			c-0.99-1.65-2.17-3.17-3.51-4.54l2.9-9.35l-7.89-4.52l-6.6,7.2c-1.86-0.46-3.76-0.69-5.68-0.72l-4.57-8.66l-8.77,2.39l0.46,9.78
			c-1.65,0.99-3.17,2.17-4.55,3.51l-9.35-2.89l-4.53,7.88l7.24,6.58c-0.47,1.86-0.71,3.77-0.71,5.69l-8.67,4.57l2.39,8.78l9.78-0.46
			c0.98,1.65,2.15,3.18,3.5,4.54l-2.91,9.3l7.89,4.52l6.57-7.14c1.86,0.47,3.77,0.71,5.7,0.72l4.56,8.67l8.77-2.39l-0.38-8.36
			l-0.07-1.43c1.67-0.98,3.2-2.16,4.59-3.51l9.34,2.9l3.86-6.75l0.66-1.14L270.49,267.74z M249.75,273.07
			c-6.27,1.71-12.72-1.99-14.42-8.25c-1.71-6.27,1.99-12.72,8.25-14.42c6.27-1.71,12.72,1.99,14.42,8.25
			C259.71,264.92,256.01,271.37,249.75,273.07z"/>
		<path class="st5" d="M370.86,283.18l2-12.05l-12.2-4.91c-0.28-2.57-0.87-5.09-1.75-7.52l8.78-9.78l-7.11-9.94l-12.11,5.14
			c-2.01-1.61-4.2-2.97-6.54-4.06l-0.71-13.14l-12.06-1.99l-4.94,12.15c-2.56,0.3-5.07,0.89-7.49,1.76l-9.81-8.78l-9.93,7.11
			l5.15,12.1c-1.42,1.78-2.65,3.68-3.67,5.7c-0.14,0.28-0.28,0.56-0.41,0.84l-13.13,0.73l-2,12.04l1.98,0.8l10.22,4.12
			c0.28,2.55,0.86,5.07,1.75,7.49l-8.78,9.81l7.11,9.93l12.11-5.16c2,1.63,4.2,3,6.53,4.09l0.68,13.08l12.05,1.99l4.93-12.06
			c2.57-0.28,5.09-0.87,7.51-1.76l9.79,8.79l9.94-7.12l-5.15-12.11c1.64-2.01,3.03-4.22,4.13-6.57L370.86,283.18z M337.05,282.64
			c-7.09,5.07-16.95,3.44-22.02-3.65c-5.08-7.08-3.44-16.94,3.64-22.01c7.09-5.08,16.95-3.44,22.02,3.64
			C345.77,267.71,344.12,277.57,337.05,282.64z"/>
	</g>
</g>
<g id="Graphics">
	<g>
		<g>
			<path class="st7" d="M207.46,348.96h-94.8c-6.56,0-11.88-5.32-11.88-11.88V205.81c0-6.56,5.32-11.88,11.88-11.88h94.8
				c6.56,0,11.88,5.32,11.88,11.88v131.26C219.35,343.64,214.03,348.96,207.46,348.96z"/>
			<path class="st9" d="M207.46,348.96h-94.8c-6.56,0-11.88-5.32-11.88-11.88V205.81c0-6.56,5.32-11.88,11.88-11.88h94.8
				c6.56,0,11.88,5.32,11.88,11.88v131.26C219.35,343.64,214.03,348.96,207.46,348.96z"/>
			<g>
				<path class="st4" d="M230.38,217.52v131.26c0,6.57-5.32,11.89-11.89,11.89h-94.8c-6.56,0-11.88-5.32-11.88-11.89V217.52
					c0-6.56,5.32-11.88,11.88-11.88h94.8C225.06,205.64,230.38,210.96,230.38,217.52z"/>
				<path class="st7" d="M230.38,217.52v7.03H111.81v-7.03c0-6.56,5.32-11.88,11.88-11.88h94.8
					C225.06,205.64,230.38,210.96,230.38,217.52z"/>
				<rect x="122.96" y="232.7" class="st0" width="29.17" height="4.89"/>
				<rect x="122.96" y="276.56" class="st0" width="29.17" height="4.89"/>
				<rect x="122.96" y="316.34" class="st0" width="29.17" height="4.89"/>
				<g>
					<rect x="122.96" y="244.81" class="st5" width="82.85" height="3.59"/>
					<rect x="122.96" y="251.68" class="st5" width="67.91" height="3.5"/>
					<rect x="122.96" y="258.43" class="st5" width="76.8" height="3.5"/>
					<rect x="122.96" y="265.18" class="st5" width="76.8" height="3.5"/>
				</g>
				<g>
					<rect x="122.96" y="284.59" class="st5" width="82.85" height="3.59"/>
					<rect x="122.96" y="291.46" class="st5" width="67.91" height="3.5"/>
					<rect x="122.96" y="298.21" class="st5" width="76.8" height="3.5"/>
				</g>
				<g>
					<rect x="122.96" y="328.27" class="st5" width="82.85" height="3.59"/>
					<rect x="122.96" y="335.14" class="st5" width="67.91" height="3.5"/>
					<rect x="122.96" y="341.89" class="st5" width="76.8" height="3.5"/>
				</g>
			</g>
		</g>
		<g>
			<path class="st10" d="M364.01,114.63v53.05c0,7.83-6.34,14.17-14.17,14.17H227.65c-7.82,0-14.17-6.34-14.17-14.17v-53.05
				c0-7.83,6.35-14.18,14.17-14.18h122.19C357.67,100.45,364.01,106.8,364.01,114.63z"/>
			<path class="st7" d="M364.01,114.63v1.21H213.48v-1.21c0-7.83,6.35-14.18,14.17-14.18h122.19
				C357.67,100.45,364.01,106.8,364.01,114.63z"/>
			<circle class="st5" cx="234.06" cy="109.14" r="2.17"/>
			<circle class="st5" cx="244.14" cy="109.14" r="2.17"/>
			<circle class="st5" cx="254.22" cy="109.14" r="2.17"/>
			<rect x="223.08" y="125.6" class="st2" width="49.2" height="42.53"/>
			<g>
				<rect x="279.88" y="125.6" class="st5" width="56.63" height="2.99"/>
				<rect x="279.88" y="131.79" class="st5" width="43.44" height="2.99"/>
				<rect x="279.88" y="137.95" class="st5" width="64.68" height="3.02"/>
				<rect x="279.88" y="143.97" class="st5" width="55.08" height="3.02"/>
			</g>
		</g>
	</g>
</g>
<g id="Character">
	<g>
		<path class="st0" d="M292.48,423.01c0,0-26.29,7.54-29.96,8.84c-3.34,1.18-12.39,4.35-19.18,3.37c-0.67-0.1-1.32-0.24-1.94-0.42
			c-6.88-2.05-9.97-3.96-10.87-8.29c-0.91-4.34,2.52-7.51,5.82-9.55c3.3-2.04,21.2-4.17,21.2-4.17l4.32,1.27h0.01L292.48,423.01z"/>
		<path class="st11" d="M243.34,435.22c-0.67-0.1-1.32-0.24-1.94-0.42c-6.88-2.05-9.97-3.96-10.87-8.29
			c-0.91-4.34,2.52-7.51,5.82-9.55c3.3-2.04,21.2-4.17,21.2-4.17l4.32,1.27c-3.91,1.8-18.49,2.8-21.67,4.63
			c-3.18,1.83-4.72,5.28-2.84,9.94C238.36,431.11,241.04,433.51,243.34,435.22z"/>
		<path class="st12" d="M288.53,424.08c0,0-19.74,5.12-27.57,8.39c-7.83,3.27-22.77,4.71-28.09-2.05
			c-5.32-6.75-0.61-12.56,4.71-13.85c5.32-1.29,16.08-3.34,21.95-2.52"/>
		<path class="st12" d="M243.74,434.86c0,0-10.05-5.51-6.71-13.23c2.46-5.7,15.86-4.46,22.5-7.58"/>
		<path class="st0" d="M372.55,436.44c-0.27,2.69-1.22,5.27-3.94,6.87c-1.81,1.07-4.39,1.71-8.08,1.67
			c-9.22-0.12-26.55-6.71-26.55-6.71l-16.23-8.97l8.44-13.36l2.31-3.66l5.97,1.34c0,0,4.94,2.8,9.91,5.03
			c4.97,2.23,17.03,2.7,21.28,6.14C369.91,428.22,373.01,431.96,372.55,436.44z"/>
		<path class="st11" d="M372.55,436.44c-0.27,2.69-1.22,5.27-3.94,6.87c0.51-2.09,0.93-4.98-0.46-8.1
			c-1.8-4.07-7.71-7.66-15.47-8.26c-7.75-0.6-13.7-4.23-16.81-5.85c-2.43-1.26-7.55-4.01-9.68-5.16l2.31-3.66l5.97,1.34
			c0,0,4.94,2.8,9.91,5.03c4.97,2.23,17.03,2.7,21.28,6.14C369.91,428.22,373.01,431.96,372.55,436.44z"/>
		<path class="st12" d="M321.35,431.81c11.55,6.62,24.77,11.38,37.99,12.98c2.95,0.36,6.39,0.4,8.36-1.81
			c1.1-1.24,1.5-2.99,1.36-4.64c-0.36-4.17-3.86-7.47-7.7-9.12c-3.84-1.65-8.08-2.05-12.17-2.96c-4.06-0.91-8.01-2.35-11.7-4.28
			c-2.93-1.53-5.77-3.39-9.01-4.07c-3.24-0.69-7.09,0.15-8.82,2.97"/>
		<path class="st12" d="M366.62,444.1c2.99-1.53,5.44-4.35,5.94-7.67c0.59-3.93-1.65-7.87-4.8-10.29
			c-3.15-2.42-7.09-3.55-10.98-4.36c-3.89-0.81-7.86-1.35-11.56-2.8c-5.69-2.22-11.3-6.61-17.2-5.05"/>
		<path class="st0" d="M339.66,291.38l-27.46-10.45l-0.34-0.13c0,0,0.1-0.73,0.18-1.79c0.17-2.19,0.26-5.76-0.77-6.97
			c-1.53-1.79-5.87-0.29-10.1-2.23c-4.23-1.94-12.06,1.53-12.06,1.53s-5.65-1.04-8.14,3.04c-1.27,3.29-0.83,8.19-0.83,8.19
			s-0.18,0.07-0.52,0.19c-3.27,1.22-21.07,7.92-24.84,10.61c-4.16,2.95-8.76,33.2-10.24,42.08c-1.48,8.89-4.11,16.89-2.77,19.95
			c1.33,3.05,20.46,17.78,31.46,21.58c11,3.81,50.03,2.69,50.03,2.69s0.64-0.17,1.77-0.53c6.6-2.12,30.02-10.85,42.44-31.44
			C367.47,347.7,355.44,308.24,339.66,291.38z M265.47,342.26c-2.02,1.43-0.94,6.98-0.94,6.98l-3.44-3.03l8.63-21.22l3.68,16.29
			C273.4,341.28,267.49,340.84,265.47,342.26z M334.51,355.74c-0.95,0.49,2.73-9.71,0.98-12.02c-1.75-2.32-6.99-2.09-6.99-2.09
			l0.45-2.79c0.06-0.31,3.11-15.95,3.11-15.95l1.03-1.23c0,0,10.68,18.31,12.59,24.76C345.68,346.42,334.04,355.74,334.51,355.74z"
			/>
		<path class="st11" d="M287.82,225.19l-14.17,15.05c0,0-1.95,1.73-1.18,6.09c0.78,4.37,2.59,8.11,3.95,8.41
			c1.37,0.29,3.28,0.29,3.28,0.29s3.04,6.58,5.19,9.17c0,0,0.75,10.16,0.35,12.98c0,0,5.09,4.45,9.89,5.01
			c4.8,0.57,12.21-6.78,12.21-6.78l1.84-9c0,0,4.35-6.6,4.64-8.36c0.3-1.76,2.28-1.31,3.26-2.17s3.24-4.74,3.61-8.41
			s0.4-7.87-3.85-6.63c-3.69-0.99-1.38-8.78-1.38-8.78l-6.48-5.72L287.82,225.19z"/>
		<path class="st3" d="M312.2,280.93c-0.22,0.58-0.46,1.13-0.73,1.64c-2.34,4.41-12.53,12.81-12.53,12.81l-3.08-9.47l-1.69,9.47
			c-3.4-1.48-13.77-10.47-13.77-10.47s-0.35-0.84-0.78-2.15c0.34-0.12,0.52-0.19,0.52-0.19s-0.44-4.9,0.83-8.19
			c2.49-4.08,8.14-3.04,8.14-3.04s7.83-3.47,12.06-1.53c4.23,1.94,8.57,0.44,10.1,2.23c1.53,1.79,0.59,8.76,0.59,8.76L312.2,280.93z
			"/>
		<path class="st9" d="M339.66,291.38l-27.46-10.45l-0.34-0.13c0,0,0.1-0.73,0.18-1.79l-0.57,3.56l-4.06,5.52
			c0,0,6.87,2.48,12.67,5.58c4.04,2.16,6.35,6.55,5.82,11.1l-5.06,43.28l-2.07,24.58l6.26,6.5c6.6-2.12,30.02-10.85,42.44-31.44
			C367.47,347.7,355.44,308.24,339.66,291.38z M334.51,355.74c-0.95,0.49,2.73-9.71,0.98-12.02c-1.75-2.32-6.99-2.09-6.99-2.09
			l0.45-2.79c0.06-0.31,3.11-15.95,3.11-15.95l1.03-1.23c0,0,10.68,18.31,12.59,24.76C345.68,346.42,334.04,355.74,334.51,355.74z"
			/>
		<path class="st9" d="M275.26,343.72l-4.27-14.27c0,0-7.66-26.11-12.91-32.55l1.38,18.36c0,0-4.5,21.94-8.67,28.46
			c-4.17,6.51-5.07,8.14,0,8.14c5.08,0,17.4,9.83,17.4,9.83l-0.95-8.2L275.26,343.72z M264.53,349.24l-3.44-3.03l8.63-21.22
			l3.68,16.29c0,0-5.91-0.44-7.93,0.98C263.45,343.69,264.53,349.24,264.53,349.24z"/>
		<path class="st12" d="M284.89,264.2c0,0,0.79,7.69,0,11.21"/>
		<path class="st12" d="M308.12,274.38c0,0-0.04-3.75,0.86-7.35"/>
		<path class="st12" d="M310.18,230.93c0,0,4.66,5.85,4.42,10.27c-0.24,4.42-0.6,9.67-0.48,14.8c0.12,5.13-8.24,15.88-12.53,16.83
			c-4.3,0.95-8,1.19-10.74-1.55c-2.75-2.75-5.49-6.57-9.07-11.46c-3.58-4.89-2.75-15.64-2.75-15.64"/>
		<path class="st12" d="M298.97,248.27c-0.28,1.6-0.41,3.24-0.36,4.87c0.04,1.36,0.24,2.84,1.19,3.81c0.51,0.52,1.26,0.94,1.36,1.67
			c0.09,0.65-0.41,1.23-0.96,1.58c-0.55,0.35-1.19,0.57-1.68,1"/>
		<path class="st12" d="M291.58,261.77c0,0,0.54,3.47,5.19,4.2"/>
		<path class="st5" d="M292.06,250.92c0,1-0.43,1.82-0.97,1.82c-0.53,0-0.97-0.81-0.97-1.82c0-1,0.43-1.82,0.97-1.82
			C291.63,249.1,292.06,249.91,292.06,250.92z"/>
		<path class="st5" d="M305.94,251.35c0,1-0.43,1.82-0.97,1.82c-0.53,0-0.97-0.81-0.97-1.82c0-1,0.43-1.82,0.97-1.82
			C305.51,249.54,305.94,250.35,305.94,251.35z"/>
		<path class="st13" d="M303.14,246.96c0,0,4.51-4.51,8.33,0.52"/>
		<path class="st13" d="M293.6,247.04c0,0-2.86-3.21-7.38,0"/>
		<path class="st5" d="M285.24,268.43c0,0,2.76,7.62,8.94,9.78c6.17,2.16,14.37-9.05,14.37-9.05l-0.43-1.46
			c0,0-5.37,6.98-11.35,5.79c-5.97-1.19-11.88-9.28-11.88-9.28L285.24,268.43z"/>
		<path class="st12" d="M279.7,254.74c0,0-3.68,1.3-4.66-1.57c-0.98-2.87-4.33-10.41-1.4-12.93c2.94-2.52,5.29,3.32,5.29,3.32"/>
		<path class="st12" d="M314.11,256.3c0,0,3.42,0.69,4.4-2.18c0.98-2.87,4.33-10.41,1.4-12.93c-2.94-2.52-5.29,3.32-5.29,3.32"/>
		<path class="st5" d="M278.94,250.92c1.02-0.05,2.69-1.04,3.23-1.91c0.54-0.87,0.76-1.89,0.94-2.89c0.33-1.93,0.51-3.88,0.51-5.83
			c0-0.76-0.02-1.54,0.21-2.27c0.23-0.76,0.71-1.42,1.23-2.02c1.28-1.5,2.83-2.78,4.05-4.33s2.12-3.53,1.79-5.48
			c0,0,8.34,7.63,20.37,5.27c6.48-1.27,12.69-6.95,11.93-14.1c-0.27-2.54-2.14-4.37-4.56-4.97c-3.2-0.8-6.08,0.91-8.98,2
			c-5.29,1.99-10.46-1.43-15.8-2c-4.57-0.49-10.18,0.08-12.56,4.62c0,0-8.21,0.96-11.8,7.7c-3.59,6.74,3.24,16.07,3.24,16.07
			s2.75-3.33,6.28,3.41L278.94,250.92z"/>
		<path class="st5" d="M310.69,229.2c0,0-2.12,11.06,3.42,16.41c0,0,1.21-3.32,2.44-4.14c0,0,3.08-5.84-0.97-12.28
			C311.53,222.77,310.69,229.2,310.69,229.2z"/>
		<path class="st14" d="M320.84,216.62c-0.82,3.05-3.4,5.41-6.32,6.6c-7.69,3.13-15.15-0.34-22.85-1.02
			c-6.29-0.56-13.22,5.11-13.66,11.57"/>
		<path class="st14" d="M273.23,232.06c0.12-5.08,3.47-9.95,8.19-11.86"/>
		<path class="st12" d="M283.12,274.38c0,0,5.06,5.58,11.97,8.19c0,0,9.2-2.67,13.89-9.08"/>
		<circle class="st12" cx="289.11" cy="250.92" r="8.14"/>
		<circle class="st12" cx="307.31" cy="250.92" r="8.14"/>
		<path class="st12" d="M284.89,271.34c0,0-2.48,0.5-3.92,3.04c-1.44,2.54-0.57,10.52-0.57,10.52s7.44,7.36,13.78,10.47l1.87-10.51
			l2.9,10.51c0,0,9.81-6.94,12.53-12.8c0,0,0.89-6.84,0-9.08c-0.89-2.25-2.93-2.14-2.93-2.14"/>
		<path class="st12" d="M273.23,341.63c0,0-2.9-19.49-6.78-27.44"/>
		<path class="st12" d="M258.09,296.89c0,0,3.68,5.15,6.02,10.07"/>
		<path class="st12" d="M334.51,311.44c1.02-3.88,2.11-7.29,3.2-9.51"/>
		<path class="st12" d="M328.5,341.63c0,0,2.1-13.36,4.6-24.37"/>
		<path class="st12" d="M332.06,322.88c2-2.67,4.9-4.65,8.11-5.54"/>
		<path class="st12" d="M311.87,280.8c0,0,16.9,6.75,27.8,10.58c0,0,13.42,12.62,27.8,56.32c0,0-13.19,22.17-38.26,29.28"/>
		<path class="st12" d="M333.57,356.53l12.11-10.11c0,0,6.41-4.87,13.07-1.54"/>
		<path class="st12" d="M333.1,321.66c0,0,10.02,14.76,12.58,24.76"/>
		<path class="st12" d="M264.64,349.8l-3.55-3.38c0,0-5.26-0.92-11.22,3.07"/>
		<path class="st12" d="M261.1,346.42c0,0,4.4-14.46,8.75-21.93"/>
		<path class="st12" d="M280.14,282.57c0,0-24.3,9.12-26.69,11.78c-2.38,2.66-11.44,53.66-11.68,59.5
			c-0.21,5.22,18.72,16.94,28.07,21.88"/>
		<path class="st4" d="M368.13,274.38h-27.7c-3.27,0-5.92-2.65-5.92-5.92v-16.25c0-3.27,2.65-5.92,5.92-5.92h27.7
			c3.27,0,5.92,2.65,5.92,5.92v16.25C374.05,271.73,371.4,274.38,368.13,274.38z"/>
		<polyline class="st12" points="347.27,254.74 339.67,259.51 346.72,265.77 		"/>
		<polyline class="st12" points="361.12,266.22 367.96,260.4 360.07,255.23 		"/>
		<line class="st12" x1="350.97" y1="269.8" x2="356.58" y2="252.2"/>
		<path class="st5" d="M298.31,299.8c0,0.88-0.72,1.6-1.6,1.6c-0.88,0-1.6-0.72-1.6-1.6c0-0.88,0.72-1.6,1.6-1.6
			C297.6,298.2,298.31,298.92,298.31,299.8z"/>
		<g>
			<path class="st5" d="M326.44,385.21h-55.31c-0.72,0-1.3-0.58-1.3-1.3l0,0c0-0.72,0.58-1.3,1.3-1.3h55.31c0.72,0,1.3,0.58,1.3,1.3
				l0,0C327.74,384.63,327.15,385.21,326.44,385.21z"/>
			<path class="st4" d="M328.37,380.91l7.41-34.81c0.49-2.3-1.27-4.48-3.62-4.48h-64.63c-2.33,0-4.09,2.13-3.63,4.42l6.65,33.65
				c0.34,1.7,1.81,2.95,3.55,2.99l50.57,1.16C326.45,383.89,328,382.66,328.37,380.91z"/>
			<path class="st5" d="M304.79,361.69c0,2.85-2.31,5.16-5.16,5.16c-2.85,0-5.16-2.31-5.16-5.16s2.31-5.16,5.16-5.16
				C302.48,356.53,304.79,358.84,304.79,361.69z"/>
			<line class="st12" x1="314.93" y1="344.93" x2="322.61" y2="344.93"/>
			<line class="st12" x1="278.26" y1="344.93" x2="307.41" y2="344.93"/>
		</g>
		<path class="st5" d="M328.5,417.84l-5.89,15.46c0,0-15.02-3.79-34.27-7.73c-20.13-4.12-41.15-9.46-52.06-28.6
			c-1.33-2.33-2.21-5.09-1.59-7.7c1.57-6.61,10.17-8.4,15.84-9.06c3.56-0.42,7.15-0.55,10.72-0.6c1.82-0.03,7.84-0.98,9.3,0.09
			c0,0,3.78,2.78,6.99,4.14c3.22,1.37,50.19-1.23,50.19-1.23s1.4-2.95,1.48-5.64c7.38-3.75,24.48-6.93,31.71-5.53
			c11.36,2.21,17.99,8.84,16.73,15.78C376.38,394.17,351.31,412.79,328.5,417.84z"/>
		<path class="st15" d="M328.5,417.84c0,0-14.29-3.79-25.97-11.68c-11.68-7.89-20.8-17.04-37.07-15.15"/>
		<path class="st15" d="M299.85,404.31c7.38-2.12,12.79-6.89,18.71-11.47c6.27-4.85,12.9-9.55,20.03-13.16"/>
		<line class="st12" x1="297.26" y1="252.2" x2="299.42" y2="252.2"/>
	</g>
</g>
</svg>
