<?xml version="1.0" encoding="utf-8"?>
<!-- Generator: Adobe Illustrator 26.0.1, SVG Export Plug-In . SVG Version: 6.00 Build 0)  -->
<svg version="1.1" id="BACKGROUND" xmlns="http://www.w3.org/2000/svg" xmlns:xlink="http://www.w3.org/1999/xlink" x="0px" y="0px"
	 viewBox="0 0 750 500" style="enable-background:new 0 0 750 500;" xml:space="preserve">
<style type="text/css">
	.st0{clip-path:url(#SVGID_00000016072839968416859930000011071473561954226855_);}
	.st1{fill:#00CCB3;}
	.st2{fill:#BBB9BA;}
	.st3{fill:none;stroke:#000000;stroke-miterlimit:10;}
	.st4{fill:none;stroke:#BBB9BA;stroke-miterlimit:10;}
	.st5{fill:none;stroke:#00CCB3;stroke-miterlimit:10;}
	.st6{fill:none;stroke:#000000;stroke-miterlimit:10;stroke-dasharray:13,22,0,0,46;}
	.st7{fill:none;stroke:#000000;stroke-width:5;stroke-miterlimit:10;}
</style>
<g>
	<defs>
		<rect id="SVGID_1_" width="750" height="500"/>
	</defs>
	<clipPath id="SVGID_00000084506021398711709260000018436372674831066508_">
		<use xlink:href="#SVGID_1_"  style="overflow:visible;"/>
	</clipPath>
	<g style="clip-path:url(#SVGID_00000084506021398711709260000018436372674831066508_);">
		<g>
			<circle cx="221.23" cy="396.2" r="2.2"/>
			<circle cx="235.96" cy="396.2" r="2.2"/>
			<circle cx="250.68" cy="396.2" r="2.2"/>
			<path d="M265.41,394c-1.22,0-2.2,0.99-2.2,2.2c0,1.22,0.99,2.2,2.2,2.2c1.22,0,2.2-0.99,2.2-2.2
				C267.61,394.99,266.63,394,265.41,394z"/>
			<path d="M280.14,394c-1.22,0-2.2,0.99-2.2,2.2c0,1.22,0.99,2.2,2.2,2.2c1.22,0,2.2-0.99,2.2-2.2
				C282.34,394.99,281.35,394,280.14,394z"/>
			<circle cx="294.86" cy="396.2" r="2.2"/>
			<circle cx="221.23" cy="384.32" r="2.2"/>
			<circle cx="235.96" cy="384.32" r="2.2"/>
			<circle cx="250.68" cy="384.32" r="2.2"/>
			<path d="M265.41,382.12c-1.22,0-2.2,0.99-2.2,2.2c0,1.22,0.99,2.2,2.2,2.2c1.22,0,2.2-0.99,2.2-2.2
				C267.61,383.11,266.63,382.12,265.41,382.12z"/>
			<path d="M280.14,382.12c-1.22,0-2.2,0.99-2.2,2.2c0,1.22,0.99,2.2,2.2,2.2c1.22,0,2.2-0.99,2.2-2.2
				C282.34,383.11,281.35,382.12,280.14,382.12z"/>
			<circle cx="294.86" cy="384.32" r="2.2"/>
			<path d="M221.23,370.24c-1.22,0-2.2,0.99-2.2,2.2c0,1.22,0.99,2.2,2.2,2.2c1.22,0,2.2-0.99,2.2-2.2
				C223.43,371.22,222.44,370.24,221.23,370.24z"/>
			<path d="M235.96,370.24c-1.22,0-2.2,0.99-2.2,2.2c0,1.22,0.99,2.2,2.2,2.2s2.2-0.99,2.2-2.2
				C238.16,371.22,237.17,370.24,235.96,370.24z"/>
			<path d="M250.68,370.24c-1.22,0-2.2,0.99-2.2,2.2c0,1.22,0.99,2.2,2.2,2.2c1.22,0,2.2-0.99,2.2-2.2
				C252.88,371.22,251.9,370.24,250.68,370.24z"/>
			<path d="M265.41,370.24c-1.22,0-2.2,0.99-2.2,2.2c0,1.22,0.99,2.2,2.2,2.2c1.22,0,2.2-0.99,2.2-2.2
				C267.61,371.22,266.63,370.24,265.41,370.24z"/>
			<path d="M280.14,370.24c-1.22,0-2.2,0.99-2.2,2.2c0,1.22,0.99,2.2,2.2,2.2c1.22,0,2.2-0.99,2.2-2.2
				C282.34,371.22,281.35,370.24,280.14,370.24z"/>
			<path d="M294.86,370.24c-1.22,0-2.2,0.99-2.2,2.2c0,1.22,0.99,2.2,2.2,2.2s2.2-0.99,2.2-2.2
				C297.07,371.22,296.08,370.24,294.86,370.24z"/>
			<circle cx="221.23" cy="360.56" r="2.2"/>
			<circle cx="235.96" cy="360.56" r="2.2"/>
			<circle cx="250.68" cy="360.56" r="2.2"/>
			<path d="M265.41,358.36c-1.22,0-2.2,0.99-2.2,2.2c0,1.22,0.99,2.2,2.2,2.2c1.22,0,2.2-0.99,2.2-2.2
				C267.61,359.34,266.63,358.36,265.41,358.36z"/>
			<path d="M280.14,358.36c-1.22,0-2.2,0.99-2.2,2.2c0,1.22,0.99,2.2,2.2,2.2c1.22,0,2.2-0.99,2.2-2.2
				C282.34,359.34,281.35,358.36,280.14,358.36z"/>
			<circle cx="294.86" cy="360.56" r="2.2"/>
			<circle cx="221.23" cy="348.68" r="2.2"/>
			<circle cx="235.96" cy="348.68" r="2.2"/>
			<circle cx="250.68" cy="348.68" r="2.2"/>
			<path d="M265.41,346.47c-1.22,0-2.2,0.99-2.2,2.2s0.99,2.2,2.2,2.2c1.22,0,2.2-0.99,2.2-2.2S266.63,346.47,265.41,346.47z"/>
			<path d="M280.14,346.47c-1.22,0-2.2,0.99-2.2,2.2s0.99,2.2,2.2,2.2c1.22,0,2.2-0.99,2.2-2.2S281.35,346.47,280.14,346.47z"/>
			<circle cx="294.86" cy="348.68" r="2.2"/>
			<path d="M221.23,334.59c-1.22,0-2.2,0.99-2.2,2.2c0,1.22,0.99,2.2,2.2,2.2c1.22,0,2.2-0.99,2.2-2.2
				C223.43,335.58,222.44,334.59,221.23,334.59z"/>
			<path d="M235.96,334.59c-1.22,0-2.2,0.99-2.2,2.2c0,1.22,0.99,2.2,2.2,2.2s2.2-0.99,2.2-2.2
				C238.16,335.58,237.17,334.59,235.96,334.59z"/>
			<path d="M250.68,334.59c-1.22,0-2.2,0.99-2.2,2.2c0,1.22,0.99,2.2,2.2,2.2c1.22,0,2.2-0.99,2.2-2.2
				C252.88,335.58,251.9,334.59,250.68,334.59z"/>
			<path d="M265.41,334.59c-1.22,0-2.2,0.99-2.2,2.2c0,1.22,0.99,2.2,2.2,2.2c1.22,0,2.2-0.99,2.2-2.2
				C267.61,335.58,266.63,334.59,265.41,334.59z"/>
			<path d="M280.14,334.59c-1.22,0-2.2,0.99-2.2,2.2c0,1.22,0.99,2.2,2.2,2.2c1.22,0,2.2-0.99,2.2-2.2
				C282.34,335.58,281.35,334.59,280.14,334.59z"/>
			<path d="M294.86,334.59c-1.22,0-2.2,0.99-2.2,2.2c0,1.22,0.99,2.2,2.2,2.2s2.2-0.99,2.2-2.2
				C297.07,335.58,296.08,334.59,294.86,334.59z"/>
		</g>
		<g>
			<path class="st1" d="M433.44,180.36c-1.22,0-2.2,0.99-2.2,2.2c0,1.22,0.99,2.2,2.2,2.2c1.22,0,2.2-0.99,2.2-2.2
				C435.64,181.34,434.66,180.36,433.44,180.36z"/>
			<path class="st1" d="M448.17,180.36c-1.22,0-2.2,0.99-2.2,2.2c0,1.22,0.99,2.2,2.2,2.2c1.22,0,2.2-0.99,2.2-2.2
				C450.37,181.34,449.38,180.36,448.17,180.36z"/>
			<path class="st1" d="M462.89,180.36c-1.22,0-2.2,0.99-2.2,2.2c0,1.22,0.99,2.2,2.2,2.2s2.2-0.99,2.2-2.2
				C465.1,181.34,464.11,180.36,462.89,180.36z"/>
			<path class="st1" d="M477.62,180.36c-1.22,0-2.2,0.99-2.2,2.2c0,1.22,0.99,2.2,2.2,2.2c1.22,0,2.2-0.99,2.2-2.2
				C479.82,181.34,478.84,180.36,477.62,180.36z"/>
			<path class="st1" d="M492.35,180.36c-1.22,0-2.2,0.99-2.2,2.2c0,1.22,0.99,2.2,2.2,2.2c1.22,0,2.2-0.99,2.2-2.2
				C494.55,181.34,493.56,180.36,492.35,180.36z"/>
			<path class="st1" d="M507.07,180.36c-1.22,0-2.2,0.99-2.2,2.2c0,1.22,0.99,2.2,2.2,2.2c1.22,0,2.2-0.99,2.2-2.2
				C509.28,181.34,508.29,180.36,507.07,180.36z"/>
			<path class="st1" d="M433.44,168.48c-1.22,0-2.2,0.99-2.2,2.2s0.99,2.2,2.2,2.2c1.22,0,2.2-0.99,2.2-2.2
				S434.66,168.48,433.44,168.48z"/>
			<circle class="st1" cx="448.17" cy="170.68" r="2.2"/>
			<circle class="st1" cx="462.89" cy="170.68" r="2.2"/>
			<circle class="st1" cx="477.62" cy="170.68" r="2.2"/>
			<path class="st1" d="M492.35,168.48c-1.22,0-2.2,0.99-2.2,2.2s0.99,2.2,2.2,2.2c1.22,0,2.2-0.99,2.2-2.2
				S493.56,168.48,492.35,168.48z"/>
			<path class="st1" d="M507.07,168.48c-1.22,0-2.2,0.99-2.2,2.2s0.99,2.2,2.2,2.2c1.22,0,2.2-0.99,2.2-2.2
				S508.29,168.48,507.07,168.48z"/>
			<path class="st1" d="M433.44,156.6c-1.22,0-2.2,0.99-2.2,2.2c0,1.22,0.99,2.2,2.2,2.2c1.22,0,2.2-0.99,2.2-2.2
				C435.64,157.58,434.66,156.6,433.44,156.6z"/>
			<circle class="st1" cx="448.17" cy="158.8" r="2.2"/>
			<circle class="st1" cx="462.89" cy="158.8" r="2.2"/>
			<circle class="st1" cx="477.62" cy="158.8" r="2.2"/>
			<path class="st1" d="M492.35,156.6c-1.22,0-2.2,0.99-2.2,2.2c0,1.22,0.99,2.2,2.2,2.2c1.22,0,2.2-0.99,2.2-2.2
				C494.55,157.58,493.56,156.6,492.35,156.6z"/>
			<path class="st1" d="M507.07,156.6c-1.22,0-2.2,0.99-2.2,2.2c0,1.22,0.99,2.2,2.2,2.2c1.22,0,2.2-0.99,2.2-2.2
				C509.28,157.58,508.29,156.6,507.07,156.6z"/>
			<path class="st1" d="M433.44,144.71c-1.22,0-2.2,0.99-2.2,2.2c0,1.22,0.99,2.2,2.2,2.2c1.22,0,2.2-0.99,2.2-2.2
				C435.64,145.7,434.66,144.71,433.44,144.71z"/>
			<path class="st1" d="M448.17,144.71c-1.22,0-2.2,0.99-2.2,2.2c0,1.22,0.99,2.2,2.2,2.2c1.22,0,2.2-0.99,2.2-2.2
				C450.37,145.7,449.38,144.71,448.17,144.71z"/>
			<path class="st1" d="M462.89,144.71c-1.22,0-2.2,0.99-2.2,2.2c0,1.22,0.99,2.2,2.2,2.2s2.2-0.99,2.2-2.2
				C465.1,145.7,464.11,144.71,462.89,144.71z"/>
			<path class="st1" d="M477.62,144.71c-1.22,0-2.2,0.99-2.2,2.2c0,1.22,0.99,2.2,2.2,2.2c1.22,0,2.2-0.99,2.2-2.2
				C479.82,145.7,478.84,144.71,477.62,144.71z"/>
			<path class="st1" d="M492.35,144.71c-1.22,0-2.2,0.99-2.2,2.2c0,1.22,0.99,2.2,2.2,2.2c1.22,0,2.2-0.99,2.2-2.2
				C494.55,145.7,493.56,144.71,492.35,144.71z"/>
			<path class="st1" d="M507.07,144.71c-1.22,0-2.2,0.99-2.2,2.2c0,1.22,0.99,2.2,2.2,2.2c1.22,0,2.2-0.99,2.2-2.2
				C509.28,145.7,508.29,144.71,507.07,144.71z"/>
			<path class="st1" d="M433.44,132.83c-1.22,0-2.2,0.99-2.2,2.2s0.99,2.2,2.2,2.2c1.22,0,2.2-0.99,2.2-2.2
				S434.66,132.83,433.44,132.83z"/>
			<circle class="st1" cx="448.17" cy="135.03" r="2.2"/>
			<circle class="st1" cx="462.89" cy="135.03" r="2.2"/>
			<circle class="st1" cx="477.62" cy="135.03" r="2.2"/>
			<path class="st1" d="M492.35,132.83c-1.22,0-2.2,0.99-2.2,2.2s0.99,2.2,2.2,2.2c1.22,0,2.2-0.99,2.2-2.2
				S493.56,132.83,492.35,132.83z"/>
			<path class="st1" d="M507.07,132.83c-1.22,0-2.2,0.99-2.2,2.2s0.99,2.2,2.2,2.2c1.22,0,2.2-0.99,2.2-2.2
				S508.29,132.83,507.07,132.83z"/>
			<path class="st1" d="M433.44,120.95c-1.22,0-2.2,0.99-2.2,2.2c0,1.22,0.99,2.2,2.2,2.2c1.22,0,2.2-0.99,2.2-2.2
				C435.64,121.94,434.66,120.95,433.44,120.95z"/>
			<circle class="st1" cx="448.17" cy="123.15" r="2.2"/>
			<circle class="st1" cx="462.89" cy="123.15" r="2.2"/>
			<circle class="st1" cx="477.62" cy="123.15" r="2.2"/>
			<path class="st1" d="M492.35,120.95c-1.22,0-2.2,0.99-2.2,2.2c0,1.22,0.99,2.2,2.2,2.2c1.22,0,2.2-0.99,2.2-2.2
				C494.55,121.94,493.56,120.95,492.35,120.95z"/>
			<path class="st1" d="M507.07,120.95c-1.22,0-2.2,0.99-2.2,2.2c0,1.22,0.99,2.2,2.2,2.2c1.22,0,2.2-0.99,2.2-2.2
				C509.28,121.94,508.29,120.95,507.07,120.95z"/>
		</g>
		<g>
			<circle class="st2" cx="224.8" cy="113.86" r="2.2"/>
			<circle class="st2" cx="224.8" cy="99.14" r="2.2"/>
			<circle class="st2" cx="224.8" cy="84.41" r="2.2"/>
			<path class="st2" d="M222.59,69.68c0,1.22,0.99,2.2,2.2,2.2s2.2-0.99,2.2-2.2c0-1.22-0.99-2.2-2.2-2.2S222.59,68.47,222.59,69.68
				z"/>
			<path class="st2" d="M222.59,54.96c0,1.22,0.99,2.2,2.2,2.2s2.2-0.99,2.2-2.2c0-1.22-0.99-2.2-2.2-2.2S222.59,53.74,222.59,54.96
				z"/>
			<circle class="st2" cx="224.8" cy="40.23" r="2.2"/>
			<circle class="st2" cx="212.91" cy="113.86" r="2.2"/>
			<circle class="st2" cx="212.91" cy="99.14" r="2.2"/>
			<circle class="st2" cx="212.91" cy="84.41" r="2.2"/>
			<path class="st2" d="M210.71,69.68c0,1.22,0.99,2.2,2.2,2.2c1.22,0,2.2-0.99,2.2-2.2c0-1.22-0.99-2.2-2.2-2.2
				C211.7,67.48,210.71,68.47,210.71,69.68z"/>
			<path class="st2" d="M210.71,54.96c0,1.22,0.99,2.2,2.2,2.2c1.22,0,2.2-0.99,2.2-2.2c0-1.22-0.99-2.2-2.2-2.2
				C211.7,52.75,210.71,53.74,210.71,54.96z"/>
			<circle class="st2" cx="212.91" cy="40.23" r="2.2"/>
			<path class="st2" d="M198.83,113.86c0,1.22,0.99,2.2,2.2,2.2c1.22,0,2.2-0.99,2.2-2.2c0-1.22-0.99-2.2-2.2-2.2
				C199.82,111.66,198.83,112.65,198.83,113.86z"/>
			<path class="st2" d="M198.83,99.14c0,1.22,0.99,2.2,2.2,2.2c1.22,0,2.2-0.99,2.2-2.2c0-1.22-0.99-2.2-2.2-2.2
				C199.82,96.94,198.83,97.92,198.83,99.14z"/>
			<path class="st2" d="M198.83,84.41c0,1.22,0.99,2.2,2.2,2.2c1.22,0,2.2-0.99,2.2-2.2c0-1.22-0.99-2.2-2.2-2.2
				C199.82,82.21,198.83,83.19,198.83,84.41z"/>
			<path class="st2" d="M198.83,69.68c0,1.22,0.99,2.2,2.2,2.2c1.22,0,2.2-0.99,2.2-2.2c0-1.22-0.99-2.2-2.2-2.2
				C199.82,67.48,198.83,68.47,198.83,69.68z"/>
			<path class="st2" d="M198.83,54.96c0,1.22,0.99,2.2,2.2,2.2c1.22,0,2.2-0.99,2.2-2.2c0-1.22-0.99-2.2-2.2-2.2
				C199.82,52.75,198.83,53.74,198.83,54.96z"/>
			<path class="st2" d="M198.83,40.23c0,1.22,0.99,2.2,2.2,2.2c1.22,0,2.2-0.99,2.2-2.2c0-1.22-0.99-2.2-2.2-2.2
				C199.82,38.03,198.83,39.01,198.83,40.23z"/>
			<circle class="st2" cx="189.15" cy="113.86" r="2.2"/>
			<circle class="st2" cx="189.15" cy="99.14" r="2.2"/>
			<circle class="st2" cx="189.15" cy="84.41" r="2.2"/>
			<path class="st2" d="M186.95,69.68c0,1.22,0.99,2.2,2.2,2.2c1.22,0,2.2-0.99,2.2-2.2c0-1.22-0.99-2.2-2.2-2.2
				C187.93,67.48,186.95,68.47,186.95,69.68z"/>
			<path class="st2" d="M186.95,54.96c0,1.22,0.99,2.2,2.2,2.2c1.22,0,2.2-0.99,2.2-2.2c0-1.22-0.99-2.2-2.2-2.2
				C187.93,52.75,186.95,53.74,186.95,54.96z"/>
			<circle class="st2" cx="189.15" cy="40.23" r="2.2"/>
			<circle class="st2" cx="177.27" cy="113.86" r="2.2"/>
			<circle class="st2" cx="177.27" cy="99.14" r="2.2"/>
			<circle class="st2" cx="177.27" cy="84.41" r="2.2"/>
			<path class="st2" d="M175.07,69.68c0,1.22,0.99,2.2,2.2,2.2c1.22,0,2.2-0.99,2.2-2.2c0-1.22-0.99-2.2-2.2-2.2
				C176.05,67.48,175.07,68.47,175.07,69.68z"/>
			<path class="st2" d="M175.07,54.96c0,1.22,0.99,2.2,2.2,2.2c1.22,0,2.2-0.99,2.2-2.2c0-1.22-0.99-2.2-2.2-2.2
				C176.05,52.75,175.07,53.74,175.07,54.96z"/>
			<circle class="st2" cx="177.27" cy="40.23" r="2.2"/>
			<path class="st2" d="M163.18,113.86c0,1.22,0.99,2.2,2.2,2.2c1.22,0,2.2-0.99,2.2-2.2c0-1.22-0.99-2.2-2.2-2.2
				C164.17,111.66,163.18,112.65,163.18,113.86z"/>
			<path class="st2" d="M163.18,99.14c0,1.22,0.99,2.2,2.2,2.2c1.22,0,2.2-0.99,2.2-2.2c0-1.22-0.99-2.2-2.2-2.2
				C164.17,96.94,163.18,97.92,163.18,99.14z"/>
			<path class="st2" d="M163.18,84.41c0,1.22,0.99,2.2,2.2,2.2c1.22,0,2.2-0.99,2.2-2.2c0-1.22-0.99-2.2-2.2-2.2
				C164.17,82.21,163.18,83.19,163.18,84.41z"/>
			<path class="st2" d="M163.18,69.68c0,1.22,0.99,2.2,2.2,2.2c1.22,0,2.2-0.99,2.2-2.2c0-1.22-0.99-2.2-2.2-2.2
				C164.17,67.48,163.18,68.47,163.18,69.68z"/>
			<path class="st2" d="M163.18,54.96c0,1.22,0.99,2.2,2.2,2.2c1.22,0,2.2-0.99,2.2-2.2c0-1.22-0.99-2.2-2.2-2.2
				C164.17,52.75,163.18,53.74,163.18,54.96z"/>
			<path class="st2" d="M163.18,40.23c0,1.22,0.99,2.2,2.2,2.2c1.22,0,2.2-0.99,2.2-2.2c0-1.22-0.99-2.2-2.2-2.2
				C164.17,38.03,163.18,39.01,163.18,40.23z"/>
		</g>
		<g>
			<circle class="st2" cx="569.03" cy="254.83" r="2.2"/>
			<circle class="st2" cx="569.03" cy="269.55" r="2.2"/>
			<path class="st2" d="M571.23,284.28c0-1.22-0.99-2.2-2.2-2.2c-1.22,0-2.2,0.99-2.2,2.2c0,1.22,0.99,2.2,2.2,2.2
				C570.25,286.48,571.23,285.5,571.23,284.28z"/>
			<path class="st2" d="M571.23,299.01c0-1.22-0.99-2.2-2.2-2.2c-1.22,0-2.2,0.99-2.2,2.2c0,1.22,0.99,2.2,2.2,2.2
				C570.25,301.21,571.23,300.22,571.23,299.01z"/>
			<circle class="st2" cx="569.03" cy="313.73" r="2.2"/>
			<circle class="st2" cx="569.03" cy="328.46" r="2.2"/>
			<circle class="st2" cx="580.91" cy="254.83" r="2.2"/>
			<circle class="st2" cx="580.91" cy="269.55" r="2.2"/>
			<path class="st2" d="M583.11,284.28c0-1.22-0.99-2.2-2.2-2.2c-1.22,0-2.2,0.99-2.2,2.2c0,1.22,0.99,2.2,2.2,2.2
				C582.13,286.48,583.11,285.5,583.11,284.28z"/>
			<path class="st2" d="M583.11,299.01c0-1.22-0.99-2.2-2.2-2.2c-1.22,0-2.2,0.99-2.2,2.2c0,1.22,0.99,2.2,2.2,2.2
				C582.13,301.21,583.11,300.22,583.11,299.01z"/>
			<circle class="st2" cx="580.91" cy="313.73" r="2.2"/>
			<circle class="st2" cx="580.91" cy="328.46" r="2.2"/>
			<path class="st2" d="M595,254.83c0-1.22-0.99-2.2-2.2-2.2c-1.22,0-2.2,0.99-2.2,2.2s0.99,2.2,2.2,2.2
				C594.01,257.03,595,256.04,595,254.83z"/>
			<path class="st2" d="M595,269.55c0-1.22-0.99-2.2-2.2-2.2c-1.22,0-2.2,0.99-2.2,2.2c0,1.22,0.99,2.2,2.2,2.2
				C594.01,271.75,595,270.77,595,269.55z"/>
			<path class="st2" d="M595,284.28c0-1.22-0.99-2.2-2.2-2.2c-1.22,0-2.2,0.99-2.2,2.2c0,1.22,0.99,2.2,2.2,2.2
				C594.01,286.48,595,285.5,595,284.28z"/>
			<path class="st2" d="M595,299.01c0-1.22-0.99-2.2-2.2-2.2c-1.22,0-2.2,0.99-2.2,2.2c0,1.22,0.99,2.2,2.2,2.2
				C594.01,301.21,595,300.22,595,299.01z"/>
			<path class="st2" d="M595,313.73c0-1.22-0.99-2.2-2.2-2.2c-1.22,0-2.2,0.99-2.2,2.2s0.99,2.2,2.2,2.2
				C594.01,315.94,595,314.95,595,313.73z"/>
			<path class="st2" d="M595,328.46c0-1.22-0.99-2.2-2.2-2.2c-1.22,0-2.2,0.99-2.2,2.2c0,1.22,0.99,2.2,2.2,2.2
				C594.01,330.66,595,329.68,595,328.46z"/>
			<circle class="st2" cx="604.68" cy="254.83" r="2.2"/>
			<circle class="st2" cx="604.68" cy="269.55" r="2.2"/>
			<path class="st2" d="M606.88,284.28c0-1.22-0.99-2.2-2.2-2.2c-1.22,0-2.2,0.99-2.2,2.2c0,1.22,0.99,2.2,2.2,2.2
				C605.89,286.48,606.88,285.5,606.88,284.28z"/>
			<path class="st2" d="M606.88,299.01c0-1.22-0.99-2.2-2.2-2.2c-1.22,0-2.2,0.99-2.2,2.2c0,1.22,0.99,2.2,2.2,2.2
				C605.89,301.21,606.88,300.22,606.88,299.01z"/>
			<circle class="st2" cx="604.68" cy="313.73" r="2.2"/>
			<circle class="st2" cx="604.68" cy="328.46" r="2.2"/>
			<circle class="st2" cx="616.56" cy="254.83" r="2.2"/>
			<circle class="st2" cx="616.56" cy="269.55" r="2.2"/>
			<path class="st2" d="M618.76,284.28c0-1.22-0.99-2.2-2.2-2.2c-1.22,0-2.2,0.99-2.2,2.2c0,1.22,0.99,2.2,2.2,2.2
				C617.77,286.48,618.76,285.5,618.76,284.28z"/>
			<path class="st2" d="M618.76,299.01c0-1.22-0.99-2.2-2.2-2.2c-1.22,0-2.2,0.99-2.2,2.2c0,1.22,0.99,2.2,2.2,2.2
				C617.77,301.21,618.76,300.22,618.76,299.01z"/>
			<circle class="st2" cx="616.56" cy="313.73" r="2.2"/>
			<circle class="st2" cx="616.56" cy="328.46" r="2.2"/>
			<path class="st2" d="M630.64,254.83c0-1.22-0.99-2.2-2.2-2.2c-1.22,0-2.2,0.99-2.2,2.2s0.99,2.2,2.2,2.2
				C629.66,257.03,630.64,256.04,630.64,254.83z"/>
			<path class="st2" d="M630.64,269.55c0-1.22-0.99-2.2-2.2-2.2c-1.22,0-2.2,0.99-2.2,2.2c0,1.22,0.99,2.2,2.2,2.2
				C629.66,271.75,630.64,270.77,630.64,269.55z"/>
			<path class="st2" d="M630.64,284.28c0-1.22-0.99-2.2-2.2-2.2c-1.22,0-2.2,0.99-2.2,2.2c0,1.22,0.99,2.2,2.2,2.2
				C629.66,286.48,630.64,285.5,630.64,284.28z"/>
			<path class="st2" d="M630.64,299.01c0-1.22-0.99-2.2-2.2-2.2c-1.22,0-2.2,0.99-2.2,2.2c0,1.22,0.99,2.2,2.2,2.2
				C629.66,301.21,630.64,300.22,630.64,299.01z"/>
			<path class="st2" d="M630.64,313.73c0-1.22-0.99-2.2-2.2-2.2c-1.22,0-2.2,0.99-2.2,2.2s0.99,2.2,2.2,2.2
				C629.66,315.94,630.64,314.95,630.64,313.73z"/>
			<path class="st2" d="M630.64,328.46c0-1.22-0.99-2.2-2.2-2.2c-1.22,0-2.2,0.99-2.2,2.2c0,1.22,0.99,2.2,2.2,2.2
				C629.66,330.66,630.64,329.68,630.64,328.46z"/>
		</g>
	</g>
	<g style="clip-path:url(#SVGID_00000084506021398711709260000018436372674831066508_);">
		<rect x="40.06" y="321.36" class="st1" width="76.81" height="76.81"/>
		<rect x="584.76" y="58.2" class="st1" width="76.81" height="76.81"/>
	</g>
	<g style="clip-path:url(#SVGID_00000084506021398711709260000018436372674831066508_);">
		<rect x="243.94" y="120.34" class="st1" width="38.76" height="38.76"/>
		<rect x="609.06" y="186.74" width="38.76" height="38.76"/>
	</g>
	<g style="clip-path:url(#SVGID_00000084506021398711709260000018436372674831066508_);">
		<g>
			<g>
				<path class="st3" d="M501.16,456.52c4.68,0,4.68,5.05,9.36,5.05c4.68,0,4.68-5.05,9.36-5.05c4.68,0,4.68,5.05,9.36,5.05
					c4.68,0,4.68-5.05,9.36-5.05c4.68,0,4.68,5.05,9.36,5.05c4.68,0,4.68-5.05,9.36-5.05c4.68,0,4.68,5.05,9.36,5.05
					c4.68,0,4.68-5.05,9.37-5.05s4.68,5.05,9.37,5.05"/>
			</g>
			<g>
				<path class="st3" d="M501.16,465.04c4.68,0,4.68,5.05,9.36,5.05c4.68,0,4.68-5.05,9.36-5.05c4.68,0,4.68,5.05,9.36,5.05
					c4.68,0,4.68-5.05,9.36-5.05c4.68,0,4.68,5.05,9.36,5.05c4.68,0,4.68-5.05,9.36-5.05c4.68,0,4.68,5.05,9.36,5.05
					c4.68,0,4.68-5.05,9.37-5.05s4.68,5.05,9.37,5.05"/>
			</g>
			<g>
				<path class="st3" d="M501.16,473.56c4.68,0,4.68,5.05,9.36,5.05c4.68,0,4.68-5.05,9.36-5.05c4.68,0,4.68,5.05,9.36,5.05
					c4.68,0,4.68-5.05,9.36-5.05c4.68,0,4.68,5.05,9.36,5.05c4.68,0,4.68-5.05,9.36-5.05c4.68,0,4.68,5.05,9.36,5.05
					c4.68,0,4.68-5.05,9.37-5.05s4.68,5.05,9.37,5.05"/>
			</g>
		</g>
		<g>
			<g>
				<path class="st4" d="M466.58-11.12c0,4.68-5.05,4.68-5.05,9.36c0,4.68,5.05,4.68,5.05,9.36c0,4.68-5.05,4.68-5.05,9.36
					c0,4.68,5.05,4.68,5.05,9.36c0,4.68-5.05,4.68-5.05,9.36c0,4.68,5.05,4.68,5.05,9.36c0,4.68-5.05,4.68-5.05,9.36
					c0,4.68,5.05,4.68,5.05,9.37s-5.05,4.68-5.05,9.37"/>
			</g>
			<g>
				<path class="st4" d="M458.06-11.12c0,4.68-5.05,4.68-5.05,9.36c0,4.68,5.05,4.68,5.05,9.36c0,4.68-5.05,4.68-5.05,9.36
					c0,4.68,5.05,4.68,5.05,9.36c0,4.68-5.05,4.68-5.05,9.36c0,4.68,5.05,4.68,5.05,9.36c0,4.68-5.05,4.68-5.05,9.36
					c0,4.68,5.05,4.68,5.05,9.37S453,68.44,453,73.12"/>
			</g>
			<g>
				<path class="st4" d="M449.54-11.12c0,4.68-5.05,4.68-5.05,9.36c0,4.68,5.05,4.68,5.05,9.36c0,4.68-5.05,4.68-5.05,9.36
					c0,4.68,5.05,4.68,5.05,9.36c0,4.68-5.05,4.68-5.05,9.36c0,4.68,5.05,4.68,5.05,9.36c0,4.68-5.05,4.68-5.05,9.36
					c0,4.68,5.05,4.68,5.05,9.37s-5.05,4.68-5.05,9.37"/>
			</g>
		</g>
		<g>
			<g>
				<path class="st4" d="M412.88,381.28c-4.68,0-4.68-5.05-9.36-5.05c-4.68,0-4.68,5.05-9.36,5.05c-4.68,0-4.68-5.05-9.36-5.05
					c-4.68,0-4.68,5.05-9.36,5.05c-4.68,0-4.68-5.05-9.36-5.05c-4.68,0-4.68,5.05-9.36,5.05c-4.68,0-4.68-5.05-9.36-5.05
					c-4.68,0-4.68,5.05-9.37,5.05s-4.68-5.05-9.37-5.05"/>
			</g>
			<g>
				<path class="st4" d="M412.88,372.77c-4.68,0-4.68-5.05-9.36-5.05c-4.68,0-4.68,5.05-9.36,5.05c-4.68,0-4.68-5.05-9.36-5.05
					c-4.68,0-4.68,5.05-9.36,5.05c-4.68,0-4.68-5.05-9.36-5.05c-4.68,0-4.68,5.05-9.36,5.05c-4.68,0-4.68-5.05-9.36-5.05
					c-4.68,0-4.68,5.05-9.37,5.05s-4.68-5.05-9.37-5.05"/>
			</g>
			<g>
				<path class="st4" d="M412.88,364.25c-4.68,0-4.68-5.05-9.36-5.05c-4.68,0-4.68,5.05-9.36,5.05c-4.68,0-4.68-5.05-9.36-5.05
					c-4.68,0-4.68,5.05-9.36,5.05c-4.68,0-4.68-5.05-9.36-5.05c-4.68,0-4.68,5.05-9.36,5.05c-4.68,0-4.68-5.05-9.36-5.05
					c-4.68,0-4.68,5.05-9.37,5.05s-4.68-5.05-9.37-5.05"/>
			</g>
		</g>
		<g>
			<g>
				<path class="st5" d="M256.97,423.91c0,4.68-5.05,4.68-5.05,9.36c0,4.68,5.05,4.68,5.05,9.36c0,4.68-5.05,4.68-5.05,9.36
					c0,4.68,5.05,4.68,5.05,9.36c0,4.68-5.05,4.68-5.05,9.36c0,4.68,5.05,4.68,5.05,9.36c0,4.68-5.05,4.68-5.05,9.36
					c0,4.68,5.05,4.68,5.05,9.37c0,4.68-5.05,4.68-5.05,9.37"/>
			</g>
			<g>
				<path class="st5" d="M248.45,423.91c0,4.68-5.05,4.68-5.05,9.36c0,4.68,5.05,4.68,5.05,9.36c0,4.68-5.05,4.68-5.05,9.36
					c0,4.68,5.05,4.68,5.05,9.36c0,4.68-5.05,4.68-5.05,9.36c0,4.68,5.05,4.68,5.05,9.36c0,4.68-5.05,4.68-5.05,9.36
					c0,4.68,5.05,4.68,5.05,9.37c0,4.68-5.05,4.68-5.05,9.37"/>
			</g>
			<g>
				<path class="st5" d="M239.93,423.91c0,4.68-5.05,4.68-5.05,9.36c0,4.68,5.05,4.68,5.05,9.36c0,4.68-5.05,4.68-5.05,9.36
					c0,4.68,5.05,4.68,5.05,9.36c0,4.68-5.05,4.68-5.05,9.36c0,4.68,5.05,4.68,5.05,9.36c0,4.68-5.05,4.68-5.05,9.36
					c0,4.68,5.05,4.68,5.05,9.37c0,4.68-5.05,4.68-5.05,9.37"/>
			</g>
		</g>
		<g>
			<g>
				<path class="st5" d="M396.41,166.84c-4.68,0-4.68-5.05-9.36-5.05c-4.68,0-4.68,5.05-9.36,5.05c-4.68,0-4.68-5.05-9.36-5.05
					c-4.68,0-4.68,5.05-9.36,5.05c-4.68,0-4.68-5.05-9.36-5.05c-4.68,0-4.68,5.05-9.36,5.05c-4.68,0-4.68-5.05-9.36-5.05
					c-4.68,0-4.68,5.05-9.37,5.05c-4.68,0-4.68-5.05-9.37-5.05"/>
			</g>
			<g>
				<path class="st5" d="M396.41,158.32c-4.68,0-4.68-5.05-9.36-5.05c-4.68,0-4.68,5.05-9.36,5.05c-4.68,0-4.68-5.05-9.36-5.05
					c-4.68,0-4.68,5.05-9.36,5.05c-4.68,0-4.68-5.05-9.36-5.05c-4.68,0-4.68,5.05-9.36,5.05c-4.68,0-4.68-5.05-9.36-5.05
					c-4.68,0-4.68,5.05-9.37,5.05c-4.68,0-4.68-5.05-9.37-5.05"/>
			</g>
			<g>
				<path class="st5" d="M396.41,149.8c-4.68,0-4.68-5.05-9.36-5.05c-4.68,0-4.68,5.05-9.36,5.05c-4.68,0-4.68-5.05-9.36-5.05
					c-4.68,0-4.68,5.05-9.36,5.05c-4.68,0-4.68-5.05-9.36-5.05c-4.68,0-4.68,5.05-9.36,5.05c-4.68,0-4.68-5.05-9.36-5.05
					c-4.68,0-4.68,5.05-9.37,5.05c-4.68,0-4.68-5.05-9.37-5.05"/>
			</g>
		</g>
		<g>
			<g>
				<path class="st3" d="M53.29,140.87c0,4.68-5.05,4.68-5.05,9.36c0,4.68,5.05,4.68,5.05,9.36c0,4.68-5.05,4.68-5.05,9.36
					c0,4.68,5.05,4.68,5.05,9.36c0,4.68-5.05,4.68-5.05,9.36c0,4.68,5.05,4.68,5.05,9.36c0,4.68-5.05,4.68-5.05,9.36
					c0,4.68,5.05,4.68,5.05,9.37s-5.05,4.68-5.05,9.37"/>
			</g>
			<g>
				<path class="st3" d="M44.78,140.87c0,4.68-5.05,4.68-5.05,9.36c0,4.68,5.05,4.68,5.05,9.36c0,4.68-5.05,4.68-5.05,9.36
					c0,4.68,5.05,4.68,5.05,9.36c0,4.68-5.05,4.68-5.05,9.36c0,4.68,5.05,4.68,5.05,9.36c0,4.68-5.05,4.68-5.05,9.36
					c0,4.68,5.05,4.68,5.05,9.37s-5.05,4.68-5.05,9.37"/>
			</g>
			<g>
				<path class="st3" d="M36.26,140.87c0,4.68-5.05,4.68-5.05,9.36c0,4.68,5.05,4.68,5.05,9.36c0,4.68-5.05,4.68-5.05,9.36
					c0,4.68,5.05,4.68,5.05,9.36c0,4.68-5.05,4.68-5.05,9.36c0,4.68,5.05,4.68,5.05,9.36c0,4.68-5.05,4.68-5.05,9.36
					c0,4.68,5.05,4.68,5.05,9.37c0,4.68-5.05,4.68-5.05,9.37"/>
			</g>
		</g>
	</g>
	<g style="clip-path:url(#SVGID_00000084506021398711709260000018436372674831066508_);">
		<g>
			<polygon class="st2" points="460.56,471.6 444.45,471.6 452.51,458.46 			"/>
			<polygon class="st2" points="460.56,444.89 444.45,444.89 452.51,431.75 			"/>
			<polygon class="st2" points="460.56,418.17 444.45,418.17 452.51,405.03 			"/>
			<polygon class="st2" points="460.56,391.46 444.45,391.46 452.51,378.32 			"/>
			<polygon class="st2" points="460.56,364.74 444.45,364.74 452.51,351.6 			"/>
		</g>
		<g>
			<polygon points="420.96,68.99 420.96,85.1 407.82,77.05 			"/>
			<polygon points="394.24,68.99 394.24,85.1 381.1,77.05 			"/>
			<polygon points="367.53,68.99 367.53,85.1 354.39,77.05 			"/>
			<polygon points="340.82,68.99 340.82,85.1 327.67,77.05 			"/>
			<polygon points="314.1,68.99 314.1,85.1 300.96,77.05 			"/>
		</g>
		<g>
			<polygon class="st1" points="40.06,295.14 40.06,279.03 53.2,287.08 			"/>
			<polygon class="st1" points="66.77,295.14 66.77,279.03 79.92,287.08 			"/>
			<polygon class="st1" points="93.49,295.14 93.49,279.03 106.63,287.08 			"/>
			<polygon class="st1" points="120.2,295.14 120.2,279.03 133.34,287.08 			"/>
			<polygon class="st1" points="146.92,295.14 146.92,279.03 160.06,287.08 			"/>
		</g>
		<g>
			<polygon class="st1" points="696.71,106.43 712.82,106.43 704.76,119.58 			"/>
			<polygon class="st1" points="696.71,133.15 712.82,133.15 704.76,146.29 			"/>
			<polygon class="st1" points="696.71,159.86 712.82,159.86 704.76,173.01 			"/>
			<polygon class="st1" points="696.71,186.58 712.82,186.58 704.76,199.72 			"/>
			<polygon class="st1" points="696.71,213.29 712.82,213.29 704.76,226.43 			"/>
		</g>
	</g>
	<g style="clip-path:url(#SVGID_00000084506021398711709260000018436372674831066508_);">
		<g>
			<line class="st3" x1="556.93" y1="59.72" x2="556.93" y2="48.65"/>
			<line class="st3" x1="551.36" y1="68.98" x2="551.36" y2="48.65"/>
			<line class="st3" x1="545.8" y1="79.25" x2="545.8" y2="48.65"/>
			<line class="st3" x1="540.24" y1="89.96" x2="540.24" y2="48.65"/>
			<line class="st3" x1="534.68" y1="98.81" x2="534.68" y2="48.65"/>
			<line class="st3" x1="529.11" y1="105.94" x2="529.11" y2="48.65"/>
			<line class="st3" x1="523.55" y1="105.94" x2="523.55" y2="48.65"/>
			<line class="st3" x1="517.99" y1="98.81" x2="517.99" y2="48.65"/>
			<line class="st3" x1="512.42" y1="89.96" x2="512.42" y2="48.65"/>
			<line class="st3" x1="506.86" y1="79.25" x2="506.86" y2="48.65"/>
			<line class="st3" x1="501.3" y1="68.98" x2="501.3" y2="48.65"/>
			<line class="st3" x1="495.74" y1="59.72" x2="495.74" y2="48.65"/>
		</g>
		<g>
			<line class="st5" x1="118.95" y1="465.13" x2="118.95" y2="476.2"/>
			<line class="st5" x1="124.51" y1="455.87" x2="124.51" y2="476.2"/>
			<line class="st5" x1="130.08" y1="445.6" x2="130.08" y2="476.2"/>
			<line class="st5" x1="135.64" y1="434.89" x2="135.64" y2="476.2"/>
			<line class="st5" x1="141.2" y1="426.04" x2="141.2" y2="476.2"/>
			<line class="st5" x1="146.76" y1="418.91" x2="146.76" y2="476.2"/>
			<line class="st5" x1="152.33" y1="418.91" x2="152.33" y2="476.2"/>
			<line class="st5" x1="157.89" y1="426.04" x2="157.89" y2="476.2"/>
			<line class="st5" x1="163.45" y1="434.89" x2="163.45" y2="476.2"/>
			<line class="st5" x1="169.02" y1="445.6" x2="169.02" y2="476.2"/>
			<line class="st5" x1="174.58" y1="455.87" x2="174.58" y2="476.2"/>
			<line class="st5" x1="180.14" y1="465.13" x2="180.14" y2="476.2"/>
		</g>
		<g>
			<line class="st5" x1="261.52" y1="286.29" x2="272.58" y2="286.29"/>
			<line class="st5" x1="252.26" y1="280.72" x2="272.58" y2="280.72"/>
			<line class="st5" x1="241.99" y1="275.16" x2="272.58" y2="275.16"/>
			<line class="st5" x1="231.28" y1="269.6" x2="272.58" y2="269.6"/>
			<line class="st5" x1="222.43" y1="264.04" x2="272.58" y2="264.04"/>
			<line class="st5" x1="215.3" y1="258.47" x2="272.58" y2="258.47"/>
			<line class="st5" x1="215.3" y1="252.91" x2="272.58" y2="252.91"/>
			<line class="st5" x1="222.43" y1="247.35" x2="272.58" y2="247.35"/>
			<line class="st5" x1="231.28" y1="241.79" x2="272.58" y2="241.79"/>
			<line class="st5" x1="241.99" y1="236.22" x2="272.58" y2="236.22"/>
			<line class="st5" x1="252.26" y1="230.66" x2="272.58" y2="230.66"/>
			<line class="st5" x1="261.52" y1="225.1" x2="272.58" y2="225.1"/>
		</g>
		<g>
			<line class="st4" x1="660.48" y1="322.36" x2="660.48" y2="333.42"/>
			<line class="st4" x1="666.04" y1="313.09" x2="666.04" y2="333.42"/>
			<line class="st4" x1="671.61" y1="302.82" x2="671.61" y2="333.42"/>
			<line class="st4" x1="677.17" y1="292.11" x2="677.17" y2="333.42"/>
			<line class="st4" x1="682.73" y1="283.27" x2="682.73" y2="333.42"/>
			<line class="st4" x1="688.29" y1="276.13" x2="688.29" y2="333.42"/>
			<line class="st4" x1="693.86" y1="276.13" x2="693.86" y2="333.42"/>
			<line class="st4" x1="699.42" y1="283.27" x2="699.42" y2="333.42"/>
			<line class="st4" x1="704.98" y1="292.11" x2="704.98" y2="333.42"/>
			<line class="st4" x1="710.54" y1="302.82" x2="710.54" y2="333.42"/>
			<line class="st4" x1="716.11" y1="313.09" x2="716.11" y2="333.42"/>
			<line class="st4" x1="721.67" y1="322.36" x2="721.67" y2="333.42"/>
		</g>
	</g>
	<g style="clip-path:url(#SVGID_00000084506021398711709260000018436372674831066508_);">
		<line class="st6" x1="689.82" y1="84.13" x2="595.48" y2="178.47"/>
		<line class="st6" x1="159.88" y1="370.59" x2="65.54" y2="464.93"/>
		<line class="st6" x1="333.6" y1="-4.38" x2="239.26" y2="89.96"/>
		<line class="st6" x1="414.7" y1="418.86" x2="320.36" y2="513.2"/>
	</g>
	<g style="clip-path:url(#SVGID_00000084506021398711709260000018436372674831066508_);">
		<g>
			
				<ellipse transform="matrix(0.9742 -0.2255 0.2255 0.9742 10.5186 145.6125)" class="st3" cx="642.65" cy="26.76" rx="43.88" ry="43.88"/>
			
				<ellipse transform="matrix(0.946 -0.3243 0.3243 0.946 26.0497 209.8458)" class="st3" cx="642.65" cy="26.76" rx="36.75" ry="36.75"/>
			
				<ellipse transform="matrix(0.8568 -0.5156 0.5156 0.8568 78.2218 335.2038)" class="st3" cx="642.65" cy="26.76" rx="29.61" ry="29.61"/>
			
				<ellipse transform="matrix(0.6238 -0.7815 0.7815 0.6238 220.8187 512.3267)" class="st3" cx="642.65" cy="26.76" rx="22.47" ry="22.47"/>
			
				<ellipse transform="matrix(0.3863 -0.9224 0.9224 0.3863 369.7137 609.1876)" class="st3" cx="642.65" cy="26.76" rx="15.34" ry="15.34"/>
		</g>
		<g>
			
				<ellipse transform="matrix(0.5257 -0.8507 0.8507 0.5257 -331.0869 211.2401)" class="st3" cx="23.9" cy="402.54" rx="43.88" ry="43.88"/>
			
				<ellipse transform="matrix(0.5257 -0.8507 0.8507 0.5257 -331.0869 211.2401)" class="st3" cx="23.9" cy="402.54" rx="36.75" ry="36.75"/>
			
				<ellipse transform="matrix(0.5257 -0.8507 0.8507 0.5257 -331.0869 211.2401)" class="st3" cx="23.9" cy="402.54" rx="29.61" ry="29.61"/>
			<circle class="st3" cx="23.9" cy="402.54" r="22.47"/>
			<circle class="st3" cx="23.9" cy="402.54" r="15.34"/>
		</g>
		<g>
			<circle class="st4" cx="375" cy="250" r="43.88"/>
			
				<ellipse transform="matrix(0.3534 -0.9355 0.9355 0.3534 8.6206 512.4713)" class="st4" cx="375" cy="250" rx="36.75" ry="36.75"/>
			
				<ellipse transform="matrix(0.3534 -0.9355 0.9355 0.3534 8.6207 512.4713)" class="st4" cx="375" cy="250" rx="29.61" ry="29.61"/>
			
				<ellipse transform="matrix(0.3534 -0.9355 0.9355 0.3534 8.6207 512.4713)" class="st4" cx="375" cy="250" rx="22.47" ry="22.47"/>
			
				<ellipse transform="matrix(0.3534 -0.9355 0.9355 0.3534 8.6207 512.4713)" class="st4" cx="375" cy="250" rx="15.34" ry="15.34"/>
		</g>
		<g>
			
				<ellipse transform="matrix(0.7071 -0.7071 0.7071 0.7071 -117.1158 496.0589)" class="st5" cx="540.24" cy="389.4" rx="43.88" ry="43.88"/>
			
				<ellipse transform="matrix(0.7071 -0.7071 0.7071 0.7071 -117.1158 496.0589)" class="st5" cx="540.24" cy="389.4" rx="36.75" ry="36.75"/>
			
				<ellipse transform="matrix(0.7071 -0.7071 0.7071 0.7071 -117.1158 496.0589)" class="st5" cx="540.24" cy="389.4" rx="29.61" ry="29.61"/>
			
				<ellipse transform="matrix(0.7071 -0.7071 0.7071 0.7071 -117.1158 496.0589)" class="st5" cx="540.24" cy="389.4" rx="22.47" ry="22.47"/>
			
				<ellipse transform="matrix(0.7071 -0.7071 0.7071 0.7071 -117.1158 496.0589)" class="st5" cx="540.24" cy="389.4" rx="15.34" ry="15.34"/>
		</g>
		<g>
			
				<ellipse transform="matrix(0.7071 -0.7071 0.7071 0.7071 -32.5908 62.6137)" class="st5" cx="59.29" cy="70.65" rx="43.88" ry="43.88"/>
			
				<ellipse transform="matrix(0.7071 -0.7071 0.7071 0.7071 -32.5908 62.6137)" class="st5" cx="59.29" cy="70.65" rx="36.75" ry="36.75"/>
			
				<ellipse transform="matrix(0.5969 -0.8023 0.8023 0.5969 -32.7835 76.0406)" class="st5" cx="59.29" cy="70.65" rx="29.61" ry="29.61"/>
			
				<ellipse transform="matrix(0.4068 -0.9135 0.9135 0.4068 -29.3702 96.0631)" class="st5" cx="59.29" cy="70.65" rx="22.47" ry="22.47"/>
			<circle class="st5" cx="59.29" cy="70.65" r="15.34"/>
		</g>
	</g>
	<g style="clip-path:url(#SVGID_00000084506021398711709260000018436372674831066508_);">
		<g>
			<line class="st5" x1="93.09" y1="210.09" x2="167.61" y2="210.09"/>
			<line class="st5" x1="93.09" y1="203.31" x2="167.61" y2="203.31"/>
			<line class="st5" x1="93.09" y1="196.54" x2="167.61" y2="196.54"/>
			<line class="st5" x1="93.09" y1="189.76" x2="167.61" y2="189.76"/>
			<line class="st5" x1="93.09" y1="182.99" x2="167.61" y2="182.99"/>
			<line class="st5" x1="93.09" y1="176.22" x2="167.61" y2="176.22"/>
			<line class="st5" x1="93.09" y1="169.44" x2="167.61" y2="169.44"/>
			<line class="st5" x1="93.09" y1="162.67" x2="167.61" y2="162.67"/>
			<line class="st5" x1="93.09" y1="155.89" x2="167.61" y2="155.89"/>
			<line class="st5" x1="93.09" y1="149.12" x2="167.61" y2="149.12"/>
			<line class="st5" x1="93.09" y1="142.34" x2="167.61" y2="142.34"/>
			<line class="st5" x1="93.09" y1="135.57" x2="167.61" y2="135.57"/>
		</g>
		
			<rect x="115.94" y="155.89" transform="matrix(6.123234e-17 -1 1 6.123234e-17 -39.9506 348.6437)" class="st3" width="76.81" height="76.81"/>
	</g>
	<g style="clip-path:url(#SVGID_00000084506021398711709260000018436372674831066508_);">
		<g>
			<line class="st4" x1="513.77" y1="319.75" x2="513.77" y2="245.24"/>
			<line class="st4" x1="506.99" y1="319.75" x2="506.99" y2="245.24"/>
			<line class="st4" x1="500.22" y1="319.75" x2="500.22" y2="245.24"/>
			<line class="st4" x1="493.45" y1="319.75" x2="493.45" y2="245.24"/>
			<line class="st4" x1="486.67" y1="319.75" x2="486.67" y2="245.24"/>
			<line class="st4" x1="479.9" y1="319.75" x2="479.9" y2="245.24"/>
			<line class="st4" x1="473.12" y1="319.75" x2="473.12" y2="245.24"/>
			<line class="st4" x1="466.35" y1="319.75" x2="466.35" y2="245.24"/>
			<line class="st4" x1="459.57" y1="319.75" x2="459.57" y2="245.24"/>
			<line class="st4" x1="452.8" y1="319.75" x2="452.8" y2="245.24"/>
			<line class="st4" x1="446.02" y1="319.75" x2="446.02" y2="245.24"/>
			<line class="st4" x1="439.25" y1="319.75" x2="439.25" y2="245.24"/>
		</g>
		
			<rect x="459.57" y="220.09" transform="matrix(-1 -1.224647e-16 1.224647e-16 -1 995.9557 516.9914)" class="st5" width="76.81" height="76.81"/>
	</g>
	<g style="clip-path:url(#SVGID_00000084506021398711709260000018436372674831066508_);">
		<g>
			<line class="st5" x1="616.56" y1="446.62" x2="691.07" y2="446.62"/>
			<line class="st5" x1="616.56" y1="439.84" x2="691.07" y2="439.84"/>
			<line class="st5" x1="616.56" y1="433.07" x2="691.07" y2="433.07"/>
			<line class="st5" x1="616.56" y1="426.29" x2="691.07" y2="426.29"/>
			<line class="st5" x1="616.56" y1="419.52" x2="691.07" y2="419.52"/>
			<line class="st5" x1="616.56" y1="412.75" x2="691.07" y2="412.75"/>
			<line class="st5" x1="616.56" y1="405.97" x2="691.07" y2="405.97"/>
			<line class="st5" x1="616.56" y1="399.2" x2="691.07" y2="399.2"/>
			<line class="st5" x1="616.56" y1="392.42" x2="691.07" y2="392.42"/>
			<line class="st5" x1="616.56" y1="385.65" x2="691.07" y2="385.65"/>
			<line class="st5" x1="616.56" y1="378.87" x2="691.07" y2="378.87"/>
			<line class="st5" x1="616.56" y1="372.1" x2="691.07" y2="372.1"/>
		</g>
		
			<rect x="639.41" y="392.42" transform="matrix(6.123234e-17 -1 1 6.123234e-17 246.9887 1108.6423)" class="st3" width="76.81" height="76.81"/>
	</g>
	<g style="clip-path:url(#SVGID_00000084506021398711709260000018436372674831066508_);">
		<g>
			<line class="st7" x1="171.28" y1="316.43" x2="189" y2="334.15"/>
			<line class="st7" x1="189" y1="316.43" x2="171.28" y2="334.15"/>
		</g>
		<g>
			<line class="st7" x1="542.5" y1="140.26" x2="560.22" y2="157.98"/>
			<line class="st7" x1="560.22" y1="140.26" x2="542.5" y2="157.98"/>
		</g>
		<g>
			<line class="st7" x1="319.78" y1="437.56" x2="337.5" y2="455.28"/>
			<line class="st7" x1="337.5" y1="437.56" x2="319.78" y2="455.28"/>
		</g>
		<g>
			<line class="st7" x1="115.65" y1="27.19" x2="133.37" y2="44.91"/>
			<line class="st7" x1="133.37" y1="27.19" x2="115.65" y2="44.91"/>
		</g>
	</g>
	<g style="clip-path:url(#SVGID_00000084506021398711709260000018436372674831066508_);">
		<g>
			<circle class="st1" cx="309.84" cy="232.36" r="4.63"/>
			<circle class="st1" cx="309.84" cy="251.06" r="4.63"/>
			<circle class="st1" cx="309.84" cy="269.76" r="4.63"/>
			<path class="st1" d="M309.84,293.1c2.56,0,4.63-2.08,4.63-4.63c0-2.56-2.08-4.63-4.63-4.63s-4.63,2.08-4.63,4.63
				C305.21,291.02,307.28,293.1,309.84,293.1z"/>
			<path class="st1" d="M309.84,311.8c2.56,0,4.63-2.08,4.63-4.63c0-2.56-2.08-4.63-4.63-4.63s-4.63,2.08-4.63,4.63
				C305.21,309.72,307.28,311.8,309.84,311.8z"/>
		</g>
		<g>
			<ellipse transform="matrix(0.9869 -0.1616 0.1616 0.9869 5.3154 118.4569)" cx="730.94" cy="26.55" rx="4.63" ry="4.63"/>
			<ellipse transform="matrix(0.9869 -0.1616 0.1616 0.9869 2.2935 118.7026)" cx="730.94" cy="45.25" rx="4.63" ry="4.63"/>
			<path d="M730.94,68.59c2.56,0,4.63-2.08,4.63-4.63c0-2.56-2.07-4.63-4.63-4.63c-2.56,0-4.63,2.08-4.63,4.63
				C726.3,66.51,728.38,68.59,730.94,68.59z"/>
			<path d="M730.94,87.29c2.56,0,4.63-2.08,4.63-4.63c0-2.56-2.07-4.63-4.63-4.63c-2.56,0-4.63,2.08-4.63,4.63
				C726.3,85.21,728.38,87.29,730.94,87.29z"/>
			<ellipse transform="matrix(0.9869 -0.1616 0.1616 0.9869 -6.7721 119.4399)" cx="730.94" cy="101.36" rx="4.63" ry="4.63"/>
		</g>
		<g>
			<path class="st2" d="M71.93,180.52c2.56,0,4.63-2.08,4.63-4.63c0-2.56-2.08-4.63-4.63-4.63c-2.56,0-4.63,2.08-4.63,4.63
				C67.29,178.45,69.37,180.52,71.93,180.52z"/>
			
				<ellipse transform="matrix(0.0985 -0.9951 0.9951 0.0985 -128.8031 246.9942)" class="st2" cx="71.93" cy="194.59" rx="4.63" ry="4.63"/>
			
				<ellipse transform="matrix(0.0985 -0.9951 0.9951 0.0985 -147.4137 263.853)" class="st2" cx="71.93" cy="213.29" rx="4.63" ry="4.63"/>
			
				<ellipse transform="matrix(0.0985 -0.9951 0.9951 0.0985 -166.0242 280.7118)" class="st2" cx="71.93" cy="231.99" rx="4.63" ry="4.63"/>
			
				<ellipse transform="matrix(0.0985 -0.9951 0.9951 0.0985 -184.6348 297.5706)" class="st2" cx="71.93" cy="250.7" rx="4.63" ry="4.63"/>
		</g>
	</g>
</g>
</svg>
