<?xml version="1.0" encoding="utf-8"?>
<!-- Generator: Adobe Illustrator 26.0.1, SVG Export Plug-In . SVG Version: 6.00 Build 0)  -->
<svg version="1.1" id="Layer_1" xmlns="http://www.w3.org/2000/svg" xmlns:xlink="http://www.w3.org/1999/xlink" x="0px" y="0px"
	 viewBox="0 0 561.6 288" style="enable-background:new 0 0 561.6 288;" xml:space="preserve">
<style type="text/css">
	.st0{fill:#2C3742;}
	.st1{fill:#00FFFF;}
</style>
<g>
	<g>
		<path class="st0" d="M983.47,305.18c-0.12,0-0.24-0.02-0.37-0.06c-0.56-0.2-0.85-0.82-0.65-1.38l16.12-44.86
			c0.2-0.56,0.82-0.85,1.38-0.65c0.56,0.2,0.85,0.82,0.65,1.38l-16.12,44.86C984.33,304.91,983.91,305.18,983.47,305.18z"/>
	</g>
	<g>
		<path class="st0" d="M472.92,567.61c-0.45,0-0.87-0.28-1.02-0.73l-5.79-16.89c-0.19-0.57,0.11-1.18,0.67-1.37
			c0.56-0.2,1.18,0.11,1.37,0.67l5.79,16.89c0.19,0.57-0.11,1.18-0.67,1.37C473.16,567.59,473.04,567.61,472.92,567.61z"/>
	</g>
	<g>
		<path class="st0" d="M963.63-206.44c-0.4,0-0.79-0.23-0.98-0.62c-0.26-0.54-0.03-1.19,0.51-1.44l22.43-10.67
			c0.53-0.26,1.19-0.03,1.44,0.51c0.26,0.54,0.03,1.19-0.51,1.44l-22.43,10.67C963.95-206.47,963.79-206.44,963.63-206.44z"/>
	</g>
	<g>
		<path class="st0" d="M259.05-304.34c-0.33,0-0.67-0.16-0.88-0.45l-13.28-18.38c-0.35-0.48-0.24-1.16,0.24-1.51
			c0.48-0.35,1.16-0.24,1.51,0.24l13.28,18.38c0.35,0.48,0.24,1.16-0.24,1.51C259.5-304.4,259.27-304.34,259.05-304.34z"/>
	</g>
	<g>
		<path class="st0" d="M883.99,614.92c-0.01,0-0.02,0-0.03,0c-0.6-0.02-1.07-0.52-1.05-1.12l2.17-67.65c0.02-0.59,0.51-1,1.12-1.05
			c0.6,0.02,1.07,0.52,1.05,1.12l-2.17,67.65C885.06,614.46,884.58,614.92,883.99,614.92z"/>
	</g>
	<g>
		<path class="st0" d="M1128.94-358.71c-0.55,0-1.02-0.42-1.08-0.98l-2.21-22.56c-0.06-0.59,0.38-1.12,0.97-1.18
			c0.61-0.02,1.12,0.38,1.18,0.97l2.21,22.56c0.06,0.59-0.38,1.12-0.97,1.18C1129.01-358.71,1128.97-358.71,1128.94-358.71z"/>
	</g>
	<g>
		<path class="st0" d="M-55.75,534.34c-0.16,0-0.33-0.04-0.49-0.12c-0.53-0.27-0.75-0.92-0.48-1.45l9.95-19.71
			c0.27-0.53,0.92-0.75,1.45-0.48c0.53,0.27,0.75,0.92,0.48,1.45l-9.95,19.71C-54.97,534.12-55.35,534.34-55.75,534.34z"/>
	</g>
	<g>
		<path class="st0" d="M272.24,353.27c-0.02,0-0.04,0-0.05,0l-64.89-3.32c-0.6-0.03-1.06-0.54-1.02-1.13
			c0.03-0.6,0.47-1.08,1.13-1.02l64.89,3.32c0.6,0.03,1.06,0.54,1.02,1.13C273.29,352.82,272.81,353.27,272.24,353.27z"/>
	</g>
	<g>
		<path class="st0" d="M786.42,602.97c-0.38,0-0.74-0.2-0.94-0.55c-0.3-0.52-0.11-1.18,0.41-1.48l48.47-27.53
			c0.52-0.3,1.18-0.12,1.47,0.41c0.3,0.52,0.11,1.18-0.41,1.47l-48.47,27.53C786.79,602.93,786.6,602.97,786.42,602.97z"/>
	</g>
	<g>
		<path class="st0" d="M536.26,199.83c-0.18,0-0.36-0.04-0.53-0.14l-12.82-7.13c-0.52-0.29-0.71-0.95-0.42-1.47
			c0.29-0.53,0.95-0.71,1.47-0.42l12.82,7.13c0.52,0.29,0.71,0.95,0.42,1.47C537,199.62,536.63,199.83,536.26,199.83z"/>
	</g>
	<g>
		<path class="st0" d="M279.04-260.17c-0.5,0-0.96-0.35-1.06-0.87c-0.12-0.59,0.26-1.16,0.85-1.28l18.04-3.66
			c0.59-0.12,1.16,0.26,1.28,0.85c0.12,0.59-0.26,1.16-0.85,1.28l-18.04,3.66C279.18-260.18,279.11-260.17,279.04-260.17z"/>
	</g>
	<g>
		<path class="st0" d="M647.33,269.77c-0.19,0-0.38-0.05-0.55-0.15c-0.52-0.3-0.69-0.97-0.38-1.48l11.76-20.02
			c0.3-0.52,0.97-0.69,1.48-0.38c0.52,0.3,0.69,0.97,0.38,1.48l-11.76,20.02C648.06,269.58,647.7,269.77,647.33,269.77z"/>
	</g>
	<g>
		<path class="st0" d="M947.11,554.1c-0.19,0-0.39-0.05-0.57-0.16c-0.51-0.31-0.67-0.98-0.36-1.49l33.85-55.11
			c0.31-0.51,0.97-0.67,1.49-0.36c0.51,0.31,0.67,0.98,0.35,1.49l-33.85,55.11C947.83,553.92,947.48,554.1,947.11,554.1z"/>
	</g>
	<g>
		<path class="st0" d="M486.56,368.79c-0.2,0-0.4-0.05-0.58-0.17c-0.5-0.32-0.65-0.99-0.33-1.49l34.83-54.81
			c0.32-0.5,0.99-0.65,1.49-0.33c0.5,0.32,0.65,0.99,0.33,1.49l-34.83,54.81C487.27,368.61,486.92,368.79,486.56,368.79z"/>
	</g>
	<g>
		<path class="st0" d="M31.12-266.46c-0.13,0-0.27-0.02-0.4-0.08c-0.56-0.22-0.83-0.85-0.61-1.4l18.85-47.77
			c0.22-0.56,0.85-0.84,1.4-0.61c0.56,0.22,0.83,0.85,0.61,1.4l-18.85,47.77C31.96-266.72,31.56-266.46,31.12-266.46z"/>
	</g>
	<g>
		<path class="st0" d="M757.96,139.85c-0.29,0-0.58-0.12-0.79-0.35c-0.41-0.44-0.38-1.12,0.06-1.53l12.94-11.96
			c0.44-0.41,1.12-0.38,1.53,0.06c0.41,0.44,0.38,1.12-0.06,1.53l-12.94,11.96C758.48,139.75,758.22,139.85,757.96,139.85z"/>
	</g>
	<g>
		<path class="st0" d="M749.09-331.12c-0.24,0-0.47-0.08-0.67-0.23l-42.08-33.46c-0.47-0.37-0.55-1.05-0.17-1.52
			c0.37-0.47,1.05-0.54,1.52-0.17l42.08,33.46c0.47,0.37,0.55,1.05,0.17,1.52C749.72-331.26,749.41-331.12,749.09-331.12z"/>
	</g>
	<g>
		<path class="st0" d="M570.72-374.85c-0.1,0-0.21-0.01-0.31-0.05c-0.57-0.17-0.9-0.77-0.72-1.35l5.31-17.74
			c0.17-0.57,0.77-0.9,1.35-0.72c0.57,0.17,0.9,0.77,0.72,1.35l-5.31,17.74C571.62-375.15,571.19-374.85,570.72-374.85z"/>
	</g>
	<g>
		<path class="st0" d="M1127.14,247.38c-0.4,0-0.78-0.22-0.97-0.59l-14.94-29.52c-0.27-0.53-0.05-1.18,0.48-1.45
			c0.53-0.27,1.18-0.06,1.45,0.48l14.94,29.52c0.27,0.53,0.05,1.18-0.48,1.45C1127.47,247.34,1127.3,247.38,1127.14,247.38z"/>
	</g>
	<g>
		<path class="st0" d="M862.92-214.01c-0.26,0-0.52-0.1-0.73-0.29c-0.44-0.41-0.47-1.09-0.06-1.53l14.6-15.87
			c0.41-0.44,1.09-0.46,1.53-0.06c0.44,0.41,0.47,1.09,0.06,1.53l-14.6,15.87C863.5-214.13,863.21-214.01,862.92-214.01z"/>
	</g>
	<g>
		<path class="st0" d="M897.69,792.73c-0.29,0-0.58-0.12-0.8-0.35l-54.71-59.57c-0.4-0.44-0.38-1.12,0.07-1.53
			c0.44-0.4,1.12-0.37,1.53,0.07l54.71,59.57c0.4,0.44,0.38,1.12-0.07,1.53C898.21,792.63,897.95,792.73,897.69,792.73z"/>
	</g>
	<g>
		<path class="st0" d="M902.99,698.66c-0.23,0-0.45-0.07-0.65-0.21l-64.05-47.72c-0.48-0.36-0.58-1.04-0.22-1.52
			c0.36-0.48,1.04-0.57,1.52-0.22l64.05,47.72c0.48,0.36,0.58,1.04,0.22,1.52C903.65,698.51,903.32,698.66,902.99,698.66z"/>
	</g>
	<g>
		<path class="st0" d="M-22.32-305.01c-0.11,0-0.23-0.02-0.35-0.06l-39.81-13.42c-0.57-0.19-0.87-0.81-0.68-1.37
			c0.19-0.56,0.8-0.86,1.37-0.68l39.81,13.42c0.57,0.19,0.87,0.8,0.68,1.37C-21.45-305.3-21.87-305.01-22.32-305.01z"/>
	</g>
	<g>
		<path class="st0" d="M424.17,799.29c-0.16,0-0.32-0.04-0.47-0.11c-0.54-0.26-0.76-0.91-0.5-1.45l29.91-61.44
			c0.26-0.54,0.92-0.75,1.45-0.5c0.54,0.26,0.76,0.91,0.5,1.45l-29.91,61.44C424.96,799.07,424.57,799.29,424.17,799.29z"/>
	</g>
	<g>
		<path class="st0" d="M614.08,233.37c-0.46,0-0.89-0.29-1.03-0.75l-16.58-52.14c-0.18-0.57,0.13-1.18,0.7-1.36
			c0.57-0.18,1.18,0.14,1.36,0.7l16.58,52.14c0.18,0.57-0.13,1.18-0.7,1.36C614.3,233.36,614.19,233.37,614.08,233.37z"/>
	</g>
	<g>
		<path class="st0" d="M780.01,540.46c-0.06,0-0.11,0-0.17-0.01c-0.59-0.09-0.99-0.65-0.9-1.24l3.14-19.62
			c0.09-0.59,0.63-0.99,1.24-0.9c0.59,0.1,0.99,0.65,0.9,1.24l-3.14,19.62C780.99,540.09,780.53,540.46,780.01,540.46z"/>
	</g>
	<g>
		<path class="st0" d="M85.17-370.49c-0.46,0-0.89-0.3-1.04-0.77l-4.34-14.37c-0.17-0.57,0.15-1.18,0.72-1.35
			c0.57-0.17,1.18,0.15,1.35,0.72l4.34,14.37c0.17,0.57-0.15,1.17-0.72,1.35C85.38-370.51,85.27-370.49,85.17-370.49z"/>
	</g>
	<g>
		<path class="st0" d="M839.02,167.32c-0.56,0-1.04-0.43-1.08-1l-6.21-83.34c-0.04-0.6,0.4-1.12,1-1.16c0.6-0.06,1.12,0.4,1.16,1
			l6.21,83.34c0.04,0.6-0.4,1.12-1,1.16C839.07,167.32,839.04,167.32,839.02,167.32z"/>
	</g>
	<g>
		<path class="st0" d="M748.2,208.2c-0.53,0-0.99-0.39-1.07-0.93c-0.08-0.59,0.33-1.14,0.92-1.23l59.08-8.52
			c0.58-0.08,1.14,0.32,1.23,0.92c0.08,0.59-0.33,1.14-0.92,1.23l-59.08,8.52C748.3,208.2,748.25,208.2,748.2,208.2z"/>
	</g>
	<g>
		<path class="st0" d="M558.99-137.83c-0.25,0-0.51-0.09-0.71-0.27l-46.59-40.95c-0.45-0.4-0.49-1.08-0.1-1.53
			c0.4-0.45,1.08-0.49,1.53-0.1l46.59,40.95c0.45,0.4,0.49,1.08,0.1,1.53C559.58-137.95,559.29-137.83,558.99-137.83z"/>
	</g>
	<g>
		<path class="st0" d="M230.7,488.69c-0.59,0-1.07-0.47-1.08-1.06c-0.01-0.6,0.46-1.09,1.06-1.1l30.99-0.57
			c0.53-0.07,1.09,0.47,1.1,1.06c0.01,0.6-0.46,1.09-1.06,1.1l-30.99,0.57C230.71,488.69,230.7,488.69,230.7,488.69z"/>
	</g>
	<g>
		<path class="st0" d="M1021.37,110.78c-0.39,0-0.76-0.21-0.96-0.57l-8.18-15.45c-0.28-0.53-0.08-1.18,0.45-1.46
			c0.53-0.29,1.19-0.08,1.46,0.45l8.18,15.45c0.28,0.53,0.08,1.18-0.45,1.46C1021.71,110.74,1021.54,110.78,1021.37,110.78z"/>
	</g>
	<g>
		<path class="st0" d="M196.86,425.78c-0.42,0-0.83-0.25-1-0.67c-0.23-0.55,0.03-1.19,0.59-1.41l15.02-6.21
			c0.56-0.23,1.19,0.03,1.41,0.59c0.23,0.55-0.03,1.19-0.59,1.41l-15.02,6.21C197.14,425.75,196.99,425.78,196.86,425.78z"/>
	</g>
	<g>
		<path class="st0" d="M1032.71-65.23c-0.2,0-0.4-0.05-0.58-0.17l-71.85-46.04c-0.5-0.32-0.65-0.99-0.33-1.49
			c0.33-0.51,1-0.65,1.49-0.33l71.85,46.04c0.5,0.32,0.65,0.99,0.33,1.49C1033.42-65.4,1033.07-65.23,1032.71-65.23z"/>
	</g>
	<g>
		<path class="st0" d="M374.44-54.27c-0.14,0-0.28-0.03-0.41-0.08l-24.62-10.12c-0.55-0.23-0.82-0.86-0.59-1.41
			c0.23-0.55,0.86-0.81,1.41-0.59l24.62,10.12c0.55,0.23,0.82,0.86,0.59,1.41C375.27-54.52,374.87-54.27,374.44-54.27z"/>
	</g>
	<g>
		<path class="st0" d="M1125.88,622.89c-0.13,0-0.26-0.02-0.38-0.07l-16.25-6.14c-0.56-0.21-0.84-0.83-0.63-1.39
			c0.21-0.56,0.83-0.84,1.39-0.63l16.26,6.14c0.56,0.21,0.84,0.83,0.63,1.39C1126.73,622.62,1126.31,622.89,1125.88,622.89z"/>
	</g>
	<g>
		<path class="st0" d="M269.76,206.15c-0.25,0-0.49-0.08-0.7-0.26c-0.46-0.39-0.51-1.07-0.13-1.53l12.31-14.55
			c0.39-0.45,1.07-0.51,1.53-0.13c0.46,0.39,0.51,1.07,0.13,1.53l-12.31,14.55C270.37,206.01,270.07,206.15,269.76,206.15z"/>
	</g>
	<g>
		<path class="st0" d="M1049.67,47.01c-0.39,0-0.76-0.21-0.96-0.58l-16.95-32.34c-0.28-0.53-0.07-1.18,0.46-1.46
			c0.53-0.27,1.19-0.07,1.46,0.46l16.95,32.35c0.28,0.53,0.07,1.18-0.46,1.46C1050.01,46.97,1049.84,47.01,1049.67,47.01z"/>
	</g>
	<g>
		<path class="st0" d="M1067.14,746.73c-0.57,0-1.05-0.44-1.08-1.02l-3.05-51.34c-0.04-0.6,0.42-1.11,1.02-1.14
			c0.62-0.05,1.11,0.42,1.14,1.02l3.05,51.34c0.04,0.6-0.42,1.11-1.02,1.14C1067.19,746.73,1067.16,746.73,1067.14,746.73z"/>
	</g>
	<g>
		<path class="st0" d="M835.91,289.52c-0.2,0-0.41-0.06-0.59-0.18l-46.44-30.26c-0.5-0.33-0.64-1-0.32-1.5c0.33-0.5,1-0.64,1.5-0.32
			l46.44,30.26c0.5,0.33,0.64,1,0.31,1.5C836.61,289.35,836.27,289.52,835.91,289.52z"/>
	</g>
	<g>
		<path class="st0" d="M-48.55,600.92c-0.26,0-0.51-0.09-0.72-0.27l-13.16-11.64c-0.45-0.4-0.49-1.08-0.1-1.53
			c0.4-0.45,1.08-0.49,1.53-0.09l13.16,11.64c0.45,0.4,0.49,1.08,0.09,1.53C-47.96,600.8-48.25,600.92-48.55,600.92z"/>
	</g>
	<g>
		<path class="st0" d="M619.39,49.4c-0.44,0-0.86-0.27-1.02-0.71l-9.43-25.97c-0.2-0.56,0.08-1.18,0.65-1.39
			c0.57-0.21,1.18,0.08,1.39,0.65l9.43,25.97c0.2,0.56-0.08,1.18-0.65,1.39C619.64,49.38,619.51,49.4,619.39,49.4z"/>
	</g>
	<g>
		<path class="st0" d="M700.6,726.93c-0.14,0-0.28-0.03-0.41-0.08l-34.6-14.32c-0.55-0.23-0.81-0.86-0.59-1.41
			c0.23-0.55,0.86-0.81,1.41-0.59l34.6,14.32c0.55,0.23,0.81,0.86,0.59,1.41C701.43,726.68,701.02,726.93,700.6,726.93z"/>
	</g>
	<g>
		<path class="st0" d="M811.94-329c-0.08,0-0.16-0.01-0.23-0.03c-0.58-0.13-0.95-0.71-0.82-1.29l11.76-53.02
			c0.13-0.58,0.7-0.95,1.29-0.82c0.58,0.13,0.95,0.71,0.82,1.29L813-329.85C812.89-329.34,812.44-329,811.94-329z"/>
	</g>
	<g>
		<path class="st0" d="M138.85-203.22c-0.36,0-0.71-0.18-0.92-0.51c-0.32-0.51-0.16-1.17,0.34-1.49l13.51-8.43
			c0.51-0.32,1.18-0.16,1.49,0.34c0.32,0.51,0.16,1.18-0.34,1.49l-13.51,8.43C139.24-203.27,139.04-203.22,138.85-203.22z"/>
	</g>
	<g>
		<path class="st0" d="M1057.22,179.57c-0.25,0-0.49-0.08-0.7-0.26l-12.71-10.74c-0.46-0.38-0.52-1.07-0.13-1.52
			c0.39-0.46,1.07-0.51,1.52-0.13l12.71,10.74c0.46,0.38,0.52,1.07,0.13,1.52C1057.83,179.44,1057.53,179.57,1057.22,179.57z"/>
	</g>
	<g>
		<path class="st0" d="M924.38,643.61c-0.3,0-0.61-0.13-0.82-0.38c-0.39-0.45-0.34-1.14,0.11-1.53l53.46-45.96
			c0.46-0.39,1.14-0.34,1.53,0.11c0.39,0.45,0.34,1.14-0.11,1.53l-53.46,45.96C924.88,643.52,924.63,643.61,924.38,643.61z"/>
	</g>
	<g>
		<path class="st0" d="M485.5,429.28c-0.48,0-0.92-0.32-1.05-0.81c-0.15-0.58,0.19-1.17,0.77-1.32l18.46-4.82
			c0.58-0.16,1.17,0.19,1.32,0.77c0.15,0.58-0.19,1.17-0.77,1.32l-18.46,4.82C485.68,429.27,485.59,429.28,485.5,429.28z"/>
	</g>
	<g>
		<path class="st0" d="M463.41,498.65c-0.41,0-0.81-0.24-0.99-0.64c-0.24-0.55,0-1.19,0.55-1.43l14.51-6.46
			c0.53-0.24,1.19,0,1.43,0.55c0.24,0.55,0,1.19-0.55,1.43l-14.51,6.46C463.7,498.62,463.56,498.65,463.41,498.65z"/>
	</g>
	<g>
		<path class="st0" d="M951.85,791.65c-0.49,0-0.94-0.34-1.05-0.83l-10.54-45.03c-0.14-0.58,0.23-1.16,0.81-1.3
			c0.6-0.13,1.16,0.23,1.3,0.81l10.54,45.03c0.14,0.58-0.23,1.16-0.81,1.3C952.01,791.64,951.93,791.65,951.85,791.65z"/>
	</g>
	<g>
		<path class="st0" d="M163.75-14.81c-0.2,0-0.4-0.05-0.58-0.17L145.45-26.3c-0.5-0.32-0.65-0.99-0.33-1.5
			c0.33-0.51,0.99-0.65,1.5-0.33l17.73,11.32c0.5,0.32,0.65,0.99,0.33,1.5C164.46-14.99,164.11-14.81,163.75-14.81z"/>
	</g>
	<g>
		<path class="st0" d="M657.45,661.8c-0.37,0-0.73-0.19-0.93-0.53c-0.3-0.52-0.13-1.18,0.38-1.48l47.44-28.06
			c0.51-0.31,1.17-0.14,1.48,0.38c0.3,0.52,0.13,1.18-0.38,1.48L658,661.65C657.82,661.75,657.63,661.8,657.45,661.8z"/>
	</g>
	<g>
		<path class="st0" d="M804.62-245.95c-0.27,0-0.55-0.1-0.76-0.31c-0.42-0.42-0.43-1.1-0.01-1.53l19.6-19.83
			c0.42-0.42,1.1-0.43,1.53-0.01c0.42,0.42,0.43,1.1,0.01,1.53l-19.6,19.83C805.18-246.06,804.9-245.95,804.62-245.95z"/>
	</g>
	<g>
		<path class="st0" d="M390.33,149.6c-0.19,0-0.38-0.05-0.56-0.16c-0.51-0.31-0.67-0.98-0.37-1.49l7.61-12.55
			c0.32-0.51,0.98-0.67,1.49-0.37c0.51,0.31,0.67,0.98,0.37,1.49l-7.61,12.55C391.05,149.41,390.7,149.6,390.33,149.6z"/>
	</g>
	<g>
		<path class="st0" d="M455.5,193.52c-0.11,0-0.22-0.02-0.34-0.05l-15.2-4.97c-0.57-0.19-0.88-0.8-0.69-1.37
			c0.19-0.57,0.79-0.87,1.37-0.69l15.2,4.97c0.57,0.19,0.88,0.8,0.69,1.37C456.38,193.23,455.95,193.52,455.5,193.52z"/>
	</g>
	<g>
		<path class="st0" d="M165.14,798.8c-0.19,0-0.38-0.05-0.55-0.15l-12.75-7.61c-0.51-0.31-0.68-0.97-0.38-1.48
			c0.3-0.52,0.97-0.68,1.48-0.38l12.75,7.61c0.51,0.31,0.68,0.97,0.38,1.48C165.87,798.61,165.51,798.8,165.14,798.8z"/>
	</g>
	<g>
		<path class="st0" d="M642.54-22.74c-0.06,0-0.12,0-0.19-0.02c-0.59-0.1-0.98-0.66-0.88-1.25l4.49-25.83c0.1-0.59,0.67-1,1.25-0.88
			c0.59,0.1,0.98,0.66,0.88,1.25l-4.49,25.83C643.51-23.11,643.06-22.74,642.54-22.74z"/>
	</g>
	<g>
		<path class="st0" d="M669.49,590.49c-0.26,0-0.51-0.09-0.72-0.27c-0.45-0.4-0.49-1.08-0.09-1.53l43.33-48.95
			c0.4-0.45,1.08-0.49,1.53-0.09c0.45,0.4,0.49,1.08,0.09,1.53l-43.33,48.95C670.08,590.37,669.79,590.49,669.49,590.49z"/>
	</g>
	<g>
		<path class="st0" d="M765.23-390.16c-0.05,0-0.09,0-0.14-0.01l-15.67-1.97c-0.59-0.07-1.01-0.61-0.94-1.21
			c0.08-0.6,0.61-1.02,1.21-0.94l15.67,1.97c0.59,0.07,1.01,0.61,0.94,1.21C766.23-390.56,765.76-390.16,765.23-390.16z"/>
	</g>
	<g>
		<path class="st0" d="M1106.58,338.91c-0.13,0-0.26-0.02-0.39-0.07L1028.69,309c-0.56-0.22-0.83-0.84-0.62-1.4
			c0.22-0.56,0.83-0.83,1.4-0.62l77.49,29.84c0.56,0.22,0.83,0.84,0.62,1.4C1107.42,338.64,1107.01,338.91,1106.58,338.91z"/>
	</g>
	<g>
		<path class="st0" d="M574.78,797.33c-0.24,0-0.49-0.08-0.7-0.25l-22.38-18.76c-0.46-0.38-0.52-1.07-0.13-1.52
			c0.38-0.46,1.07-0.52,1.52-0.13l22.38,18.76c0.46,0.38,0.52,1.07,0.13,1.52C575.39,797.19,575.08,797.33,574.78,797.33z"/>
	</g>
	<g>
		<path class="st0" d="M813.18-18.95c-0.04,0-0.08,0-0.13-0.01l-47.29-5.47c-0.59-0.07-1.02-0.61-0.95-1.2
			c0.07-0.59,0.63-1.02,1.2-0.95l47.29,5.47c0.59,0.07,1.02,0.61,0.95,1.2C814.19-19.36,813.72-18.95,813.18-18.95z"/>
	</g>
	<g>
		<path class="st0" d="M445.76-57.43c-0.49,0-0.93-0.33-1.05-0.82l-20.81-82.9c-0.14-0.58,0.21-1.17,0.79-1.31
			c0.59-0.15,1.17,0.21,1.31,0.79l20.81,82.9c0.14,0.58-0.21,1.17-0.79,1.31C445.94-57.44,445.85-57.43,445.76-57.43z"/>
	</g>
	<g>
		<path class="st0" d="M80.57,191.91c-0.32,0-0.64-0.14-0.85-0.41l-42.33-53.85c-0.37-0.47-0.29-1.15,0.18-1.52
			c0.46-0.37,1.15-0.29,1.52,0.18l42.33,53.85c0.37,0.47,0.29,1.15-0.18,1.52C81.05,191.83,80.81,191.91,80.57,191.91z"/>
	</g>
	<g>
		<path class="st0" d="M17.84-9.08c-0.1,0-0.21-0.01-0.31-0.04c-0.57-0.17-0.9-0.77-0.73-1.34l5.83-19.73
			c0.17-0.58,0.78-0.89,1.34-0.73c0.57,0.17,0.9,0.77,0.73,1.34L18.87-9.86C18.73-9.39,18.3-9.08,17.84-9.08z"/>
	</g>
	<g>
		<path class="st0" d="M311.06-343c-0.27,0-0.54-0.1-0.75-0.3l-45.74-44.24c-0.43-0.42-0.44-1.1-0.03-1.53
			c0.41-0.43,1.1-0.44,1.53-0.03l45.74,44.24c0.43,0.42,0.44,1.1,0.03,1.53C311.62-343.11,311.34-343,311.06-343z"/>
	</g>
	<g>
		<path class="st0" d="M650.1-148.98c-0.15,0-0.3-0.03-0.45-0.1l-47.48-21.6c-0.54-0.25-0.78-0.89-0.54-1.43
			c0.25-0.55,0.89-0.78,1.43-0.54l47.48,21.6c0.54,0.25,0.78,0.89,0.54,1.43C650.9-149.21,650.51-148.98,650.1-148.98z"/>
	</g>
	<g>
		<path class="st0" d="M150.24-369c-0.45,0-0.88-0.29-1.03-0.74l-5.26-15.87c-0.19-0.57,0.12-1.18,0.69-1.37
			c0.56-0.19,1.18,0.12,1.37,0.69l5.26,15.87c0.19,0.57-0.12,1.18-0.69,1.37C150.46-369.02,150.35-369,150.24-369z"/>
	</g>
	<g>
		<path class="st0" d="M1030.01-139.4c-0.52,0-0.98-0.38-1.07-0.91c-0.09-0.59,0.31-1.15,0.9-1.24l15.01-2.33
			c0.62-0.09,1.15,0.32,1.24,0.9c0.09,0.59-0.31,1.15-0.9,1.24l-15.01,2.33C1030.12-139.4,1030.06-139.4,1030.01-139.4z"/>
	</g>
	<g>
		<path class="st0" d="M-1.03,727.41c-0.51,0-0.96-0.36-1.06-0.88c-0.11-0.59,0.27-1.15,0.86-1.27l21.91-4.23
			c0.58-0.11,1.15,0.27,1.27,0.86c0.11,0.59-0.27,1.15-0.86,1.27l-21.91,4.23C-0.89,727.4-0.96,727.41-1.03,727.41z"/>
	</g>
	<g>
		<path class="st0" d="M628.33,553.95c-0.33,0-0.65-0.15-0.87-0.44l-11.75-15.77c-0.36-0.48-0.26-1.16,0.22-1.52
			c0.48-0.36,1.15-0.26,1.52,0.22l11.75,15.77c0.36,0.48,0.26,1.16-0.22,1.52C628.78,553.88,628.56,553.95,628.33,553.95z"/>
	</g>
	<g>
		<path class="st0" d="M935.36,345.87c-0.46,0-0.89-0.29-1.03-0.76c-0.18-0.57,0.14-1.18,0.71-1.36l16.26-5.13
			c0.57-0.18,1.18,0.14,1.36,0.71c0.18,0.57-0.14,1.18-0.71,1.36l-16.25,5.13C935.58,345.85,935.47,345.87,935.36,345.87z"/>
	</g>
	<g>
		<path class="st0" d="M797.85,350.26c-0.48,0-0.91-0.32-1.04-0.8l-6.64-24.34c-0.16-0.58,0.18-1.17,0.76-1.33
			c0.58-0.15,1.17,0.19,1.33,0.76l6.64,24.34c0.16,0.58-0.18,1.17-0.76,1.33C798.04,350.24,797.95,350.26,797.85,350.26z"/>
	</g>
	<g>
		<path class="st0" d="M825.16,800.73c-0.03,0-0.05,0-0.08,0l-28.23-2.13c-0.6-0.05-1.04-0.57-1-1.16c0.04-0.6,0.56-1.05,1.16-1
			l28.23,2.13c0.6,0.05,1.04,0.57,1,1.16C826.19,800.3,825.72,800.73,825.16,800.73z"/>
	</g>
	<g>
		<path class="st0" d="M598.25-87.38c-0.06,0-0.12,0-0.18-0.02c-0.59-0.1-0.99-0.65-0.89-1.24l3.36-20.42c0.1-0.59,0.66-1,1.24-0.89
			c0.59,0.1,0.99,0.65,0.89,1.24l-3.36,20.42C599.23-87.76,598.77-87.38,598.25-87.38z"/>
	</g>
	<g>
		<path class="st0" d="M1131.71-75.19c-0.16,0-0.33-0.04-0.48-0.11l-59.47-29.7c-0.53-0.27-0.75-0.92-0.48-1.45
			c0.27-0.53,0.91-0.75,1.45-0.48l59.47,29.7c0.53,0.27,0.75,0.92,0.48,1.45C1132.49-75.41,1132.11-75.19,1131.71-75.19z"/>
	</g>
	<g>
		<path class="st0" d="M625.69,799.22c-0.3,0-0.61-0.13-0.82-0.38c-0.39-0.45-0.34-1.14,0.12-1.53l31.81-27.19
			c0.46-0.39,1.14-0.33,1.53,0.12c0.39,0.45,0.34,1.14-0.12,1.53l-31.81,27.19C626.18,799.14,625.93,799.22,625.69,799.22z"/>
	</g>
	<g>
		<path class="st0" d="M809.97,691.25c-0.16,0-0.32-0.03-0.47-0.11l-15.6-7.5c-0.54-0.26-0.77-0.9-0.51-1.44
			c0.26-0.54,0.91-0.77,1.44-0.51l15.6,7.5c0.54,0.26,0.77,0.9,0.51,1.44C810.76,691.03,810.37,691.25,809.97,691.25z"/>
	</g>
	<g>
		<path class="st0" d="M-60.88-119.84c-0.55,0-1.02-0.42-1.08-0.98c-0.05-0.6,0.39-1.12,0.98-1.18l15.33-1.38
			c0.58-0.05,1.12,0.38,1.18,0.98c0.05,0.6-0.39,1.12-0.98,1.18l-15.33,1.38C-60.82-119.84-60.85-119.84-60.88-119.84z"/>
	</g>
	<g>
		<path class="st0" d="M1043.87,386.58c-0.55,0-1.02-0.42-1.08-0.98c-0.05-0.6,0.39-1.12,0.98-1.18l25.96-2.32
			c0.59-0.04,1.12,0.38,1.18,0.98c0.05,0.6-0.39,1.12-0.98,1.18l-25.96,2.32C1043.94,386.58,1043.91,386.58,1043.87,386.58z"/>
	</g>
	<g>
		<path class="st0" d="M1019.96,685.9c-0.56,0-1.03-0.43-1.08-0.99l-5-60.51c-0.05-0.6,0.39-1.12,0.99-1.17
			c0.55-0.07,1.12,0.39,1.17,0.99l5,60.51c0.05,0.6-0.39,1.12-0.99,1.17C1020.02,685.89,1019.99,685.9,1019.96,685.9z"/>
	</g>
	<g>
		<path class="st0" d="M805.76-171.69c-0.45,0-0.87-0.28-1.02-0.72l-7.06-20.24c-0.2-0.56,0.1-1.18,0.66-1.38
			c0.57-0.2,1.18,0.1,1.38,0.66l7.06,20.24c0.2,0.56-0.1,1.18-0.66,1.38C806-171.71,805.88-171.69,805.76-171.69z"/>
	</g>
	<g>
		<path class="st0" d="M1089.56-235.78c-0.31,0-0.62-0.13-0.83-0.39l-15.95-19.2c-0.38-0.46-0.32-1.14,0.14-1.52
			c0.46-0.38,1.14-0.32,1.52,0.14l15.95,19.2c0.38,0.46,0.32,1.14-0.14,1.52C1090.05-235.87,1089.81-235.78,1089.56-235.78z"/>
	</g>
	<g>
		<path class="st0" d="M613.83,638.85c-0.39,0-0.76-0.21-0.96-0.58l-33.52-63.7c-0.28-0.53-0.08-1.18,0.45-1.46
			c0.53-0.28,1.18-0.08,1.46,0.45l33.52,63.7c0.28,0.53,0.08,1.18-0.45,1.46C614.17,638.81,614,638.85,613.83,638.85z"/>
	</g>
	<g>
		<path class="st0" d="M630.4-244.38c-0.44,0-0.85-0.27-1.02-0.71c-0.21-0.56,0.08-1.18,0.64-1.39l13.48-4.96
			c0.56-0.2,1.18,0.08,1.39,0.64c0.21,0.56-0.08,1.18-0.64,1.39l-13.48,4.96C630.65-244.4,630.52-244.38,630.4-244.38z"/>
	</g>
	<g>
		<path class="st0" d="M539.8-74.19c-0.16,0-0.33-0.04-0.48-0.11l-37.02-18.26c-0.54-0.26-0.76-0.91-0.49-1.45
			c0.26-0.53,0.93-0.75,1.45-0.49l37.02,18.26c0.53,0.26,0.75,0.91,0.49,1.45C540.59-74.41,540.2-74.19,539.8-74.19z"/>
	</g>
	<g>
		<path class="st0" d="M573.14-206.97c-0.29,0-0.58-0.12-0.79-0.35c-0.41-0.44-0.38-1.12,0.06-1.53l11.33-10.45
			c0.44-0.4,1.12-0.38,1.53,0.06c0.41,0.44,0.38,1.12-0.06,1.53l-11.33,10.45C573.66-207.06,573.4-206.97,573.14-206.97z"/>
	</g>
	<g>
		<path class="st0" d="M231.87,807.6c-0.34,0-0.68-0.16-0.89-0.47l-14.3-21c-0.34-0.49-0.21-1.17,0.29-1.5
			c0.49-0.33,1.17-0.21,1.5,0.29l14.3,21c0.34,0.49,0.21,1.17-0.29,1.5C232.29,807.53,232.08,807.6,231.87,807.6z"/>
	</g>
	<g>
		<path class="st0" d="M7.65,581.33c-0.08,0-0.16-0.01-0.24-0.03c-0.58-0.13-0.95-0.71-0.82-1.29l17.47-77.6
			c0.13-0.58,0.72-0.94,1.29-0.82c0.58,0.13,0.95,0.71,0.82,1.29l-17.47,77.6C8.59,580.99,8.15,581.33,7.65,581.33z"/>
	</g>
	<g>
		<path class="st0" d="M-53.99,339.13c-0.32,0-0.64-0.14-0.85-0.41l-9.74-12.39c-0.37-0.47-0.29-1.15,0.18-1.52
			c0.46-0.37,1.15-0.29,1.52,0.18l9.74,12.39c0.37,0.47,0.29,1.15-0.18,1.52C-53.52,339.06-53.75,339.13-53.99,339.13z"/>
	</g>
	<g>
		<path class="st0" d="M-51.85,752.29c-0.49,0-0.93-0.33-1.05-0.83l-12.74-52.47c-0.14-0.58,0.22-1.17,0.8-1.31
			c0.59-0.12,1.17,0.22,1.31,0.8l12.74,52.47c0.14,0.58-0.22,1.17-0.8,1.31C-51.68,752.28-51.77,752.29-51.85,752.29z"/>
	</g>
	<g>
		<path class="st0" d="M376.23-357c-0.32,0-0.63-0.14-0.85-0.41l-26.36-33c-0.37-0.47-0.3-1.15,0.17-1.52
			c0.47-0.37,1.15-0.3,1.52,0.17l26.36,33c0.37,0.47,0.3,1.15-0.17,1.52C376.7-357.08,376.46-357,376.23-357z"/>
	</g>
	<g>
		<path class="st1" d="M166.53,81.38c-0.07,0-0.15,0-0.23,0c-6.65-0.06-12.87-2.7-17.53-7.44c-4.66-4.74-7.19-11.01-7.13-17.66
			c0.06-6.65,2.7-12.87,7.44-17.53c4.74-4.66,11.12-7.16,17.66-7.13c13.72,0.12,24.79,11.38,24.67,25.1
			c-0.06,6.65-2.7,12.87-7.44,17.53C179.28,78.86,173.1,81.38,166.53,81.38z M166.52,33.78c-6,0-11.64,2.31-15.92,6.52
			c-4.33,4.25-6.74,9.94-6.79,16.01c-0.05,6.07,2.26,11.8,6.51,16.12c4.25,4.33,9.94,6.74,16.01,6.79c0.07,0,0.14,0,0.21,0
			c5.99,0,11.64-2.31,15.92-6.51c4.33-4.25,6.74-9.94,6.79-16.01l1.08,0.01l-1.08-0.01c0.05-6.07-2.26-11.8-6.52-16.13
			c-4.25-4.33-9.94-6.74-16.01-6.79C166.65,33.78,166.58,33.78,166.52,33.78z"/>
	</g>
	<g>
		<path class="st0" d="M868.67,404.43c-6.47,0-12.65-2.3-17.58-6.59c-5.42-4.71-8.68-11.24-9.19-18.41
			c-0.5-7.16,1.81-14.09,6.52-19.51c4.71-5.42,11.24-8.68,18.41-9.19c14.78-1.05,27.66,10.14,28.7,24.93
			c1.04,14.78-10.14,27.66-24.93,28.7C869.96,404.4,869.31,404.43,868.67,404.43z M868.73,352.83c-0.58,0-1.16,0.02-1.75,0.06
			c-6.58,0.46-12.59,3.46-16.92,8.45c-4.33,4.98-6.46,11.36-5.99,17.94c0.46,6.58,3.46,12.59,8.45,16.92
			c4.98,4.33,11.35,6.47,17.94,5.99c13.59-0.96,23.88-12.8,22.92-26.39C892.45,362.8,881.57,352.83,868.73,352.83z"/>
	</g>
	<g>
		<path class="st0" d="M950.55,24.9c-3.02,0-5.8-2.01-6.64-5.06c-1-3.66,1.16-7.45,4.81-8.46c1.78-0.49,3.63-0.25,5.23,0.66
			c1.6,0.91,2.74,2.39,3.23,4.16l0,0c0.49,1.77,0.26,3.63-0.65,5.23c-0.91,1.6-2.39,2.74-4.16,3.23
			C951.76,24.82,951.15,24.9,950.55,24.9z M950.55,13.3c-0.42,0-0.84,0.06-1.26,0.17c-2.51,0.69-3.99,3.29-3.3,5.79
			c0.69,2.51,3.31,3.98,5.8,3.3c1.21-0.33,2.23-1.12,2.85-2.21c0.62-1.09,0.78-2.36,0.45-3.58l0,0c-0.33-1.22-1.12-2.23-2.21-2.85
			C952.15,13.51,951.36,13.3,950.55,13.3z"/>
	</g>
	<g>
		<path class="st0" d="M1067.78-25.5c-2.89,0-5.77-1.16-7.88-3.46c-3.99-4.34-3.7-11.12,0.65-15.1c2.1-1.93,4.83-2.93,7.69-2.81
			c2.85,0.12,5.49,1.35,7.41,3.45c1.93,2.1,2.93,4.83,2.81,7.68c-0.12,2.85-1.35,5.49-3.45,7.42
			C1072.96-26.43,1070.36-25.5,1067.78-25.5z M1067.77-44.71c-2.14,0-4.17,0.79-5.76,2.24c-1.68,1.54-2.65,3.64-2.75,5.91
			c-0.1,2.28,0.7,4.45,2.24,6.13c1.54,1.68,3.64,2.65,5.92,2.75c2.27,0.11,4.45-0.7,6.13-2.24c1.68-1.54,2.65-3.64,2.75-5.92
			c0.1-2.27-0.7-4.45-2.24-6.13c-1.54-1.68-3.64-2.65-5.91-2.75C1068.02-44.7,1067.89-44.71,1067.77-44.71z"/>
	</g>
	<g>
		<path class="st0" d="M16.71,659.44c-0.77,0-1.54-0.08-2.31-0.23c-3.05-0.61-5.67-2.37-7.39-4.96c-3.56-5.34-2.11-12.57,3.23-16.13
			c2.58-1.72,5.69-2.34,8.73-1.72c3.05,0.61,5.67,2.37,7.39,4.96c1.72,2.59,2.34,5.69,1.73,8.73c-0.61,3.05-2.37,5.67-4.96,7.4
			C21.2,658.77,18.98,659.44,16.71,659.44z M16.67,638.34c-1.8,0-3.62,0.51-5.23,1.58c-2.1,1.4-3.54,3.54-4.03,6.02
			c-0.5,2.48,0,5,1.4,7.11l0,0c2.89,4.34,8.78,5.52,13.13,2.63c2.1-1.4,3.54-3.54,4.03-6.02c0.5-2.48,0-5-1.4-7.11
			C22.74,639.82,19.73,638.34,16.67,638.34z"/>
	</g>
	<g>
		<path class="st0" d="M579.49,306.72c-0.27,0-0.53-0.01-0.8-0.02c-10.32-0.44-18.36-9.19-17.93-19.51
			c0.44-10.32,9.23-18.3,19.51-17.93c5,0.21,9.62,2.36,13,6.04c3.39,3.69,5.14,8.47,4.92,13.47
			C597.77,298.83,589.45,306.72,579.49,306.72z M579.46,271.42c-4.16,0-8.11,1.54-11.19,4.37c-3.26,2.99-5.16,7.08-5.34,11.5
			c-0.19,4.42,1.36,8.65,4.35,11.91c2.99,3.26,7.08,5.16,11.5,5.34c9.12,0.41,16.87-6.73,17.25-15.86
			c0.19-4.42-1.36-8.65-4.35-11.91c-2.99-3.26-7.08-5.16-11.5-5.34C579.94,271.42,579.7,271.42,579.46,271.42z"/>
	</g>
	<g>
		<path class="st0" d="M667.75-93.82c-0.04,0-0.08,0-0.13,0c-4.57-0.07-8.22-3.85-8.15-8.42l0,0c0.07-4.52,3.78-8.16,8.29-8.16
			c0.04,0,0.08,0,0.13,0c4.57,0.07,8.22,3.85,8.15,8.42C675.96-97.45,672.26-93.82,667.75-93.82z M661.63-102.2
			c-0.05,3.38,2.65,6.16,6.02,6.22c3.45,0.12,6.17-2.65,6.22-6.02c0.05-3.37-2.65-6.16-6.02-6.22
			C664.47-108.24,661.68-105.58,661.63-102.2L661.63-102.2z"/>
	</g>
	<g>
		<path class="st0" d="M1064.21,262.33c-1.47,0-2.93-0.3-4.32-0.9c-2.68-1.15-4.75-3.28-5.83-6c-1.08-2.71-1.04-5.68,0.12-8.36
			c1.15-2.68,3.28-4.75,6-5.83c2.71-1.08,5.68-1.04,8.36,0.12c2.68,1.15,4.75,3.28,5.83,6c1.08,2.71,1.04,5.68-0.12,8.36
			c-1.15,2.68-3.28,4.75-5.99,5.83C1066.94,262.07,1065.57,262.33,1064.21,262.33z M1064.21,242.63c-1.09,0-2.19,0.21-3.24,0.62
			c-2.17,0.87-3.88,2.53-4.81,4.68c-0.93,2.15-0.96,4.53-0.1,6.71c0.87,2.17,2.53,3.88,4.68,4.81c2.15,0.93,4.53,0.96,6.71,0.09
			c2.17-0.86,3.88-2.53,4.81-4.68c0.93-2.15,0.96-4.53,0.09-6.71c-0.86-2.17-2.53-3.88-4.68-4.81
			C1066.56,242.87,1065.39,242.63,1064.21,242.63z"/>
	</g>
	<g>
		<path class="st0" d="M1079.02-305.18c-0.11,0-0.23,0-0.34,0c-9.51-0.19-17.1-8.08-16.92-17.59l0,0
			c0.19-9.52,8.13-17.16,17.59-16.92c9.51,0.19,17.1,8.08,16.92,17.59C1096.09-312.7,1088.38-305.18,1079.02-305.18z
			 M1063.93-322.73c-0.16,8.32,6.48,15.22,14.8,15.39c8.32,0.17,15.22-6.48,15.39-14.8c0.16-8.32-6.48-15.22-14.8-15.39
			C1071-337.68,1064.09-331.06,1063.93-322.73L1063.93-322.73z"/>
	</g>
	<g>
		<path class="st0" d="M1049.56,579.85c-8.29,0-16.5-3.73-21.9-10.82c-4.45-5.84-6.36-13.06-5.38-20.34
			c0.98-7.28,4.74-13.74,10.58-18.19c5.84-4.45,13.06-6.37,20.34-5.38c7.28,0.98,13.73,4.74,18.18,10.58
			c4.45,5.84,6.36,13.06,5.38,20.34c-0.98,7.28-4.74,13.74-10.58,18.19C1061.23,578.02,1055.37,579.85,1049.56,579.85z
			 M1049.5,527.05c-5.35,0-10.74,1.68-15.32,5.17c-11.11,8.47-13.26,24.39-4.8,35.5c8.47,11.11,24.39,13.26,35.5,4.8
			c11.11-8.46,13.26-24.39,4.8-35.5C1064.7,530.49,1057.14,527.05,1049.5,527.05z"/>
	</g>
	<g>
		<path class="st0" d="M659.58,102.51c-1.28,0-2.55-0.26-3.75-0.79c-4.73-2.07-6.89-7.6-4.82-12.33c1-2.29,2.84-4.06,5.16-4.97
			c2.33-0.91,4.87-0.86,7.16,0.14c4.73,2.07,6.9,7.6,4.83,12.33c-1,2.29-2.84,4.06-5.16,4.97
			C661.88,102.29,660.73,102.51,659.58,102.51z M659.58,85.94c-0.89,0-1.77,0.16-2.63,0.5c-1.79,0.7-3.2,2.06-3.97,3.82
			c-1.59,3.64,0.07,7.89,3.71,9.48c1.77,0.77,3.72,0.81,5.51,0.11c1.79-0.7,3.2-2.06,3.97-3.82c1.59-3.64-0.08-7.89-3.71-9.48
			C661.54,86.14,660.56,85.94,659.58,85.94z"/>
	</g>
	<g>
		<path class="st1" d="M359.67,87.29c-1.7,0-3.39-0.67-4.64-2.01c-1.16-1.24-1.77-2.86-1.72-4.55c0.05-1.7,0.77-3.27,2.01-4.43
			c1.24-1.16,2.79-1.77,4.55-1.72c1.7,0.05,3.27,0.77,4.43,2.01c1.16,1.24,1.77,2.86,1.72,4.55c-0.05,1.7-0.77,3.27-2.01,4.43
			C362.8,86.72,361.23,87.29,359.67,87.29z M359.67,76.74c-1.07,0-2.08,0.4-2.87,1.13c-0.82,0.77-1.29,1.8-1.32,2.92
			c-0.04,1.12,0.37,2.19,1.13,3.01c0.77,0.82,1.8,1.29,2.92,1.32c1.12,0.07,2.19-0.36,3-1.13c0.82-0.76,1.29-1.8,1.32-2.92
			c0.04-1.12-0.37-2.19-1.13-3c-0.77-0.82-1.8-1.29-2.92-1.32C359.76,76.74,359.72,76.74,359.67,76.74z"/>
	</g>
	<g>
		<path class="st0" d="M874.23,47.53c-8.35,0-16.47-4.36-20.88-12.13c-3.16-5.57-3.97-12.03-2.27-18.2
			c1.7-6.17,5.7-11.31,11.27-14.47c5.57-3.16,12.03-3.97,18.2-2.27c6.17,1.7,11.31,5.7,14.47,11.27c6.53,11.49,2.49,26.15-9,32.68
			l0,0C882.3,46.52,878.24,47.53,874.23,47.53z M874.16,1.76c-3.73,0-7.41,0.96-10.73,2.85c-5.07,2.88-8.71,7.55-10.25,13.17
			c-1.55,5.61-0.82,11.5,2.06,16.56c5.94,10.45,19.27,14.13,29.73,8.19c10.45-5.94,14.13-19.27,8.19-29.73
			c-2.88-5.06-7.55-8.7-13.17-10.25C878.06,2.02,876.1,1.76,874.16,1.76z M885.49,43.47h0.03H885.49z"/>
	</g>
	<g>
		<path class="st0" d="M732.68-207.48c-2.28,0-4.59-0.4-6.85-1.26c-9.98-3.79-15.01-14.99-11.22-24.97
			c3.79-9.98,14.99-15.01,24.97-11.22c9.97,3.79,15.01,14.99,11.22,24.97l0,0C747.86-212.24,740.49-207.48,732.68-207.48z
			 M732.72-244.02c-6.94,0-13.49,4.23-16.09,11.09c-3.36,8.86,1.11,18.81,9.97,22.17c8.85,3.36,18.81-1.11,22.17-9.97
			c3.36-8.86-1.11-18.81-9.97-22.17C736.8-243.67,734.75-244.02,732.72-244.02z M749.79-220.35h0.03H749.79z"/>
	</g>
	<g>
		<path class="st0" d="M325.57,714.64c-1.57,0-3.14-0.22-4.69-0.66c-4.33-1.25-7.91-4.1-10.08-8.04c-2.18-3.94-2.69-8.49-1.45-12.82
			c1.24-4.32,4.1-7.91,8.04-10.08c3.94-2.18,8.5-2.69,12.82-1.45c4.33,1.24,7.91,4.1,10.08,8.04l0,0c2.18,3.94,2.69,8.49,1.45,12.82
			c-1.24,4.33-4.1,7.91-8.04,10.08C331.17,713.93,328.39,714.64,325.57,714.64z M325.53,683.09c-2.45,0-4.88,0.62-7.09,1.84
			c-3.43,1.9-5.92,5.02-7.01,8.79c-1.09,3.77-0.64,7.74,1.26,11.17c3.92,7.09,12.87,9.67,19.96,5.75c3.43-1.9,5.92-5.02,7.01-8.79
			c1.09-3.77,0.64-7.74-1.26-11.17l0,0c-1.9-3.43-5.02-5.92-8.79-7.01C328.27,683.28,326.89,683.09,325.53,683.09z"/>
	</g>
	<g>
		<path class="st0" d="M858.68-60.51c-3.06,0-5.66-2.38-5.88-5.48c-0.11-1.57,0.4-3.09,1.43-4.28c1.03-1.19,2.47-1.91,4.04-2.02
			c3.22-0.22,6.07,2.22,6.3,5.46c0.23,3.24-2.22,6.07-5.46,6.31C858.97-60.52,858.82-60.51,858.68-60.51z M858.69-70.14
			c-0.09,0-0.18,0-0.27,0.01c0,0,0,0,0,0c-1,0.07-1.9,0.52-2.56,1.28c-0.65,0.75-0.97,1.72-0.9,2.71c0.15,2.05,1.88,3.62,3.99,3.46
			c2.05-0.15,3.6-1.94,3.46-3.99c-0.07-1-0.52-1.9-1.28-2.55C860.44-69.82,859.59-70.14,858.69-70.14z M858.34-71.21h0.03H858.34z"
			/>
	</g>
	<g>
		<path class="st0" d="M-53.51-241.15c-3.33,0-6.21-2.5-6.61-5.88c-0.43-3.65,2.19-6.97,5.84-7.39c3.64-0.45,6.96,2.19,7.39,5.84
			c0.21,1.77-0.29,3.51-1.39,4.9c-1.1,1.4-2.68,2.28-4.45,2.49l0,0l0,0v0C-52.99-241.17-53.25-241.15-53.51-241.15z M-53.5-252.31
			c-0.17,0-0.35,0.01-0.53,0.03c-2.46,0.29-4.23,2.53-3.94,4.99c0.29,2.46,2.53,4.22,4.99,3.94c0,0,0,0,0,0
			c2.46-0.29,4.23-2.53,3.94-4.99C-49.3-250.62-51.25-252.31-53.5-252.31z"/>
	</g>
	<g>
		<path class="st0" d="M877.16,248.59c-3.78,0-7.53-0.94-10.95-2.79c-5.42-2.93-9.38-7.8-11.15-13.71
			c-1.76-5.91-1.12-12.15,1.82-17.58c2.93-5.42,7.8-9.38,13.71-11.15c5.9-1.76,12.15-1.12,17.58,1.82
			c5.42,2.93,9.38,7.8,11.15,13.71c1.76,5.91,1.12,12.15-1.82,17.58c-2.93,5.42-7.8,9.38-13.71,11.15
			C881.6,248.27,879.37,248.59,877.16,248.59z M877.22,204.55c-2.01,0-4.03,0.29-6.01,0.88c-11.06,3.3-17.37,14.97-14.07,26.03
			c1.6,5.35,5.18,9.77,10.1,12.43c4.92,2.65,10.57,3.24,15.93,1.64c5.35-1.6,9.77-5.18,12.43-10.1c2.66-4.92,3.24-10.57,1.64-15.93
			c-1.6-5.35-5.18-9.77-10.1-12.43C884.04,205.41,880.64,204.55,877.22,204.55z"/>
	</g>
	<g>
		<path class="st0" d="M87.79,796.8c-4.46,0-8.71-2.6-10.59-6.95c-2.52-5.83,0.17-12.62,6-15.15c5.83-2.51,12.63,0.17,15.15,6
			c1.22,2.83,1.27,5.96,0.14,8.81c-1.13,2.86-3.31,5.11-6.14,6.33l0,0C90.87,796.5,89.32,796.8,87.79,796.8z M87.76,775.93
			c-1.24,0-2.49,0.25-3.7,0.77c-4.73,2.05-6.92,7.57-4.87,12.3c0.99,2.29,2.82,4.06,5.14,4.99c2.32,0.92,4.87,0.88,7.16-0.11l0,0
			c4.73-2.05,6.92-7.56,4.88-12.3C94.84,778.04,91.39,775.93,87.76,775.93z"/>
	</g>
	<g>
		<path class="st0" d="M77.1,487.1c-0.58,0-1.17-0.09-1.76-0.29c-2.87-0.97-4.42-4.1-3.44-6.97c0.47-1.39,1.46-2.52,2.77-3.17
			c1.32-0.65,2.81-0.75,4.2-0.28c1.39,0.47,2.52,1.45,3.17,2.77c0.65,1.32,0.75,2.81,0.28,4.2C81.54,485.66,79.39,487.1,77.1,487.1z
			 M77.1,478.27c-0.51,0-1.01,0.12-1.47,0.34c-0.8,0.4-1.39,1.08-1.68,1.92c-0.59,1.74,0.35,3.64,2.09,4.23
			c1.74,0.59,3.64-0.35,4.23-2.09l0,0c0.29-0.84,0.23-1.75-0.17-2.55c-0.4-0.8-1.08-1.39-1.92-1.68
			C77.82,478.33,77.46,478.27,77.1,478.27z"/>
	</g>
	<g>
		<path class="st0" d="M1045.84,478.24c-4.67,0-9.09-1.75-12.51-4.97c-3.55-3.35-5.59-7.87-5.74-12.75l0,0
			c-0.15-4.87,1.61-9.52,4.96-13.07c3.35-3.55,7.87-5.59,12.75-5.74c4.87-0.1,9.52,1.61,13.07,4.96c3.55,3.35,5.59,7.87,5.74,12.75
			c0.15,4.88-1.61,9.52-4.96,13.07c-3.35,3.55-7.87,5.59-12.75,5.74C1046.22,478.23,1046.03,478.24,1045.84,478.24z M1045.87,443.86
			c-0.16,0-0.33,0-0.5,0.01c-4.3,0.13-8.29,1.93-11.24,5.06c-2.95,3.13-4.5,7.22-4.37,11.52c0.13,4.3,1.93,8.29,5.06,11.24
			c3.13,2.95,7.19,4.58,11.52,4.37c4.3-0.13,8.29-1.93,11.24-5.06c2.95-3.13,4.5-7.22,4.37-11.52c-0.13-4.3-1.93-8.29-5.06-11.24
			C1053.89,445.41,1049.99,443.86,1045.87,443.86z"/>
	</g>
	<g>
		<path class="st1" d="M487.96,165.5c-6.24,0-12.51-2.22-17.5-6.73c-5.17-4.68-8.21-11.09-8.56-18.05
			c-0.35-6.97,2.03-13.65,6.71-18.82c4.68-5.17,11.09-8.21,18.05-8.56c6.97-0.34,13.65,2.03,18.82,6.71
			c10.68,9.65,11.51,26.19,1.85,36.87l0,0C502.19,162.6,495.08,165.5,487.96,165.5z M488,115.46c-0.41,0-0.82,0.01-1.23,0.03
			c-6.39,0.32-12.27,3.11-16.55,7.85c-4.29,4.74-6.48,10.87-6.16,17.26c0.32,6.39,3.11,12.27,7.85,16.56
			c9.79,8.86,24.96,8.09,33.81-1.69l0,0c4.29-4.74,6.47-10.87,6.16-17.26c-0.32-6.39-3.11-12.27-7.85-16.55
			C499.59,117.63,493.94,115.46,488,115.46z M506.53,156.19h0.03H506.53z"/>
	</g>
	<g>
		<path class="st0" d="M-43.45,127.24c-0.26,0-0.53-0.01-0.79-0.03c-3.13-0.21-5.98-1.62-8.05-3.98c-2.06-2.36-3.09-5.37-2.88-8.5
			l0,0c0.43-6.45,6-11.36,12.48-10.93c6.45,0.43,11.35,6.02,10.93,12.48c-0.21,3.13-1.62,5.98-3.98,8.05
			C-37.9,126.23-40.61,127.24-43.45,127.24z M-53.01,114.89c-0.17,2.55,0.67,5.01,2.35,6.93c1.68,1.92,4.01,3.07,6.56,3.24
			c2.53,0.16,5.01-0.67,6.93-2.35c1.92-1.68,3.07-4.01,3.24-6.56c0.35-5.26-3.65-9.82-8.91-10.17
			C-48.09,105.61-52.66,109.63-53.01,114.89L-53.01,114.89z"/>
	</g>
	<g>
		<path class="st0" d="M5.47-361.19c-3.53,0-7.08-1.25-9.9-3.8c-6.07-5.47-6.56-14.85-1.1-20.92h0c2.65-2.94,6.28-4.67,10.23-4.88
			c3.95-0.18,7.75,1.14,10.69,3.79c2.94,2.65,4.67,6.28,4.88,10.23c0.21,3.95-1.14,7.75-3.78,10.69
			C13.57-362.84,9.53-361.19,5.47-361.19z M-3.92-384.46c-4.67,5.18-4.25,13.2,0.94,17.87c5.18,4.66,13.2,4.25,17.87-0.94
			c2.26-2.51,3.41-5.75,3.23-9.12c-0.18-3.37-1.66-6.48-4.17-8.74c-2.51-2.26-5.72-3.41-9.13-3.23
			C1.44-388.45-1.66-386.97-3.92-384.46L-3.92-384.46z"/>
	</g>
	<g>
		<path class="st0" d="M521.76,622.16c-1.8,0-3.58-0.81-4.75-2.35c-1.99-2.61-1.48-6.36,1.14-8.34c1.27-0.96,2.83-1.36,4.41-1.16
			c1.57,0.22,2.97,1.03,3.93,2.3c0.96,1.27,1.37,2.83,1.16,4.41c-0.22,1.57-1.03,2.97-2.3,3.93
			C524.28,621.77,523.01,622.16,521.76,622.16z M521.74,612.42c-0.82,0-1.62,0.27-2.28,0.77c-1.66,1.26-1.99,3.65-0.72,5.31
			c1.27,1.67,3.65,1.99,5.31,0.72c1.66-1.26,1.99-3.64,0.72-5.31l0,0c-0.61-0.81-1.5-1.32-2.5-1.46
			C522.08,612.44,521.91,612.42,521.74,612.42z"/>
	</g>
	<g>
		<path class="st0" d="M259-118.39c-1.3,0-2.6-0.16-3.89-0.49c-8.44-2.13-13.58-10.74-11.45-19.18c1.03-4.09,3.59-7.54,7.22-9.7
			c3.62-2.17,7.87-2.79,11.96-1.75c4.09,1.03,7.53,3.59,9.7,7.22c2.16,3.62,2.78,7.87,1.75,11.96c-1.03,4.09-3.59,7.54-7.22,9.7
			C264.59-119.15,261.81-118.39,259-118.39z M258.97-147.82c-6.09,0-11.66,4.12-13.22,10.3c-1.84,7.29,2.59,14.71,9.88,16.55
			c7.29,1.84,14.71-2.59,16.55-9.88c1.84-7.29-2.59-14.71-9.88-16.55C261.19-147.69,260.07-147.82,258.97-147.82z"/>
	</g>
	<g>
		<path class="st0" d="M405.07,720.05c-3.93,0-7.64-1.51-10.45-4.26c-2.87-2.8-4.47-6.54-4.52-10.54c-0.05-4,1.46-7.78,4.26-10.65
			c2.79-2.87,6.54-4.47,10.54-4.52c0.06,0,0.13,0,0.19,0c3.93,0,7.64,1.51,10.45,4.26c2.87,2.79,4.47,6.54,4.52,10.54
			c0.05,4-1.46,7.78-4.25,10.65c-2.8,2.87-6.54,4.47-10.54,4.52l0,0C405.2,720.05,405.14,720.05,405.07,720.05z M405.08,692.24
			c-0.05,0-0.11,0-0.17,0c-7.07,0.09-12.75,5.91-12.66,12.98c0.04,3.42,1.42,6.63,3.87,9.02c2.41,2.35,5.58,3.64,8.95,3.64
			c0.05,0,0.11,0,0.17,0l0,0c3.42-0.04,6.63-1.42,9.02-3.87c2.39-2.45,3.69-5.69,3.64-9.11c-0.04-3.42-1.42-6.63-3.87-9.02
			C411.62,693.53,408.45,692.24,405.08,692.24z"/>
	</g>
	<g>
		<path class="st0" d="M15.68-93.76c-0.82,0-1.65-0.14-2.47-0.45c-3.63-1.37-5.46-5.42-4.1-9.05c0.66-1.76,1.97-3.15,3.67-3.93
			c1.71-0.77,3.62-0.84,5.37-0.18c1.76,0.66,3.15,1.97,3.93,3.67c0.77,1.71,0.84,3.62,0.18,5.37C21.2-95.5,18.52-93.76,15.68-93.76z
			 M15.68-105.65c-0.68,0-1.36,0.15-2,0.44c-1.18,0.54-2.09,1.5-2.54,2.72c-0.94,2.51,0.33,5.32,2.84,6.26
			c2.52,0.95,5.32-0.33,6.26-2.84c0.46-1.22,0.41-2.54-0.12-3.72c-0.54-1.18-1.5-2.09-2.72-2.54
			C16.84-105.54,16.26-105.65,15.68-105.65z"/>
	</g>
	<g>
		<path class="st0" d="M87.09-43.13c-4.63,0-8.83-3.17-9.94-7.87c-1.29-5.48,2.11-10.99,7.6-12.28c5.48-1.3,10.99,2.11,12.28,7.6
			c1.29,5.48-2.12,10.99-7.6,12.28C88.64-43.21,87.86-43.13,87.09-43.13z M87.09-61.39c-0.61,0-1.23,0.07-1.85,0.22
			c-4.32,1.02-7,5.36-5.99,9.68c1.02,4.32,5.37,7.01,9.68,5.99c4.32-1.02,7-5.36,5.99-9.68C94.05-58.88,90.74-61.39,87.09-61.39z"/>
	</g>
	<g>
		<path class="st0" d="M952.43,228.03c-1.71,0-3.42-0.61-4.78-1.84c0,0,0,0,0,0c-2.89-2.64-3.1-7.13-0.47-10.03
			c1.28-1.4,3.02-2.22,4.92-2.31c1.84-0.1,3.71,0.56,5.11,1.84c1.4,1.27,2.22,3.02,2.31,4.92c0.09,1.89-0.57,3.71-1.84,5.11
			C956.29,227.25,954.36,228.03,952.43,228.03z M949.11,224.59c2.01,1.84,5.14,1.68,6.97-0.33c0.89-0.97,1.34-2.24,1.28-3.55
			c-0.06-1.32-0.63-2.53-1.61-3.42c-0.97-0.89-2.22-1.36-3.55-1.28c-1.31,0.06-2.53,0.63-3.42,1.61
			C946.96,219.63,947.1,222.75,949.11,224.59L949.11,224.59z"/>
	</g>
	<g>
		<path class="st0" d="M-51.24-38.07c-0.52,0-1.05-0.05-1.58-0.16c-4.2-0.86-6.92-4.98-6.06-9.18c0.42-2.03,1.6-3.78,3.34-4.93
			c1.74-1.15,3.81-1.55,5.85-1.13c2.03,0.42,3.78,1.6,4.93,3.34c1.14,1.74,1.54,3.81,1.13,5.85l0,0c-0.42,2.03-1.6,3.79-3.34,4.93
			C-48.26-38.51-49.74-38.07-51.24-38.07z M-51.27-51.47c-1.09,0-2.15,0.32-3.08,0.93c-1.25,0.83-2.11,2.09-2.41,3.56
			c-0.62,3.03,1.34,6.01,4.37,6.63c1.47,0.31,2.97,0.01,4.22-0.81c1.25-0.83,2.11-2.09,2.41-3.56l0,0c0.3-1.47,0.01-2.97-0.81-4.22
			c-0.83-1.25-2.09-2.11-3.56-2.41C-50.51-51.43-50.89-51.47-51.27-51.47z"/>
	</g>
	<g>
		<path class="st0" d="M-48.34,41.28c-0.84,0-1.69-0.13-2.51-0.4c-2.06-0.67-3.74-2.1-4.73-4.03c-0.99-1.93-1.16-4.13-0.49-6.2
			c0.67-2.06,2.1-3.74,4.03-4.73l0,0c3.99-2.03,8.89-0.44,10.93,3.54c0.99,1.93,1.16,4.13,0.49,6.2c-0.67,2.06-2.1,3.74-4.03,4.73
			C-45.82,40.98-47.08,41.28-48.34,41.28z M-51.06,27.84c-1.42,0.72-2.47,1.96-2.96,3.47c-0.49,1.52-0.36,3.13,0.36,4.55
			c0.72,1.42,1.95,2.47,3.47,2.96c1.52,0.49,3.13,0.37,4.55-0.36c1.42-0.72,2.47-1.95,2.96-3.47c0.49-1.51,0.36-3.13-0.36-4.55
			C-44.54,27.52-48.13,26.34-51.06,27.84L-51.06,27.84z"/>
	</g>
	<g>
		<path class="st0" d="M726.56-132.91c-2.99,0-5.98-1.09-8.31-3.3l0,0c-2.35-2.22-3.69-5.23-3.78-8.46
			c-0.09-3.23,1.08-6.31,3.31-8.65c2.22-2.35,5.22-3.69,8.46-3.78c3.24-0.04,6.31,1.09,8.65,3.31c4.85,4.59,5.06,12.26,0.48,17.11
			C732.98-134.18,729.77-132.91,726.56-132.91z M719.74-137.79c3.98,3.77,10.29,3.59,14.05-0.39c3.77-3.98,3.59-10.28-0.39-14.05
			c-1.93-1.82-4.38-2.77-7.11-2.72c-2.65,0.07-5.12,1.18-6.94,3.11c-1.83,1.93-2.79,4.45-2.72,7.1
			C716.7-142.08,717.81-139.61,719.74-137.79L719.74-137.79z"/>
	</g>
	<g>
		<path class="st0" d="M553.35,500.16c-1.15,0-2.32-0.09-3.49-0.28c-5.79-0.93-10.87-4.06-14.31-8.82
			c-3.44-4.75-4.82-10.56-3.89-16.35c1.92-11.96,13.22-20.11,25.16-18.19c5.79,0.93,10.87,4.06,14.31,8.81
			c3.44,4.75,4.82,10.56,3.89,16.35C573.28,492.46,563.93,500.16,553.35,500.16z M553.29,458.4c-4.13,0-8.14,1.29-11.55,3.76
			c-4.28,3.1-7.1,7.68-7.94,12.9l0,0c-1.73,10.78,5.62,20.95,16.4,22.68c10.78,1.75,20.95-5.63,22.68-16.4
			c0.84-5.22-0.4-10.45-3.5-14.74c-3.1-4.29-7.68-7.11-12.9-7.94C555.41,458.49,554.35,458.4,553.29,458.4z M532.73,474.88h0.03
			H532.73z"/>
	</g>
	<g>
		<path class="st0" d="M721.95,297.16c-6.76,0-13.38-3.34-17.27-9.44c-6.07-9.51-3.28-22.18,6.23-28.26
			c9.5-6.08,22.18-3.28,28.26,6.23c2.94,4.61,3.91,10.08,2.73,15.42c-1.18,5.34-4.36,9.9-8.97,12.84
			C729.53,296.12,725.72,297.16,721.95,297.16z M721.89,258.41c-3.45,0-6.83,0.98-9.81,2.88c-8.5,5.43-11,16.77-5.57,25.27
			c5.43,8.5,16.77,11,25.27,5.57c4.12-2.63,6.97-6.71,8.02-11.48c1.05-4.77,0.18-9.67-2.45-13.79c-2.63-4.12-6.71-6.97-11.48-8.02
			C724.54,258.55,723.21,258.41,721.89,258.41z"/>
	</g>
	<g>
		<path class="st0" d="M924.61-39.42c-0.4,0-0.79-0.01-1.19-0.04c-5.17-0.31-9.91-2.62-13.34-6.49c-3.43-3.88-5.15-8.86-4.84-14.03
			c0.31-5.17,2.62-9.91,6.49-13.34c3.88-3.43,8.85-5.15,14.03-4.84c5.17,0.31,9.91,2.62,13.34,6.49c3.44,3.88,5.16,8.86,4.84,14.03
			c-0.31,5.17-2.62,9.91-6.49,13.34C933.86-41.13,929.34-39.42,924.61-39.42z M924.56-76.03c-4.21,0-8.22,1.52-11.4,4.33
			c-3.44,3.05-5.49,7.26-5.77,11.85c-0.28,4.59,1.25,9.02,4.3,12.46c3.05,3.44,7.26,5.49,11.85,5.77c4.57,0.27,9.02-1.25,12.46-4.3
			c3.44-3.05,5.49-7.26,5.77-11.85l0,0c0.28-4.59-1.25-9.01-4.3-12.46c-3.05-3.44-7.26-5.49-11.85-5.77
			C925.26-76.02,924.91-76.03,924.56-76.03z"/>
	</g>
	<g>
		<path class="st0" d="M444.51-304.76c-4.82,0-9.39-1.77-12.98-5.03c-7.88-7.17-8.47-19.42-1.3-27.3l0,0
			c3.47-3.82,8.23-6.06,13.39-6.31c5.15-0.26,10.1,1.53,13.92,5.01c7.89,7.17,8.47,19.42,1.3,27.3c-3.47,3.82-8.23,6.06-13.39,6.31
			C445.13-304.77,444.82-304.76,444.51-304.76z M431.83-335.64c-6.37,7.01-5.85,17.88,1.15,24.25c3.39,3.09,7.79,4.71,12.36,4.45
			c4.58-0.22,8.8-2.21,11.88-5.6c6.37-7.01,5.85-17.88-1.15-24.25c-3.39-3.09-7.8-4.69-12.36-4.45
			C439.13-341.02,434.91-339.03,431.83-335.64L431.83-335.64z"/>
	</g>
	<g>
		<path class="st0" d="M686.84,196.33c-3.82,0-7.52-1.23-10.63-3.57c-3.78-2.85-6.23-7-6.9-11.69c-0.66-4.69,0.54-9.36,3.39-13.14
			s7-6.23,11.69-6.9c4.69-0.65,9.36,0.55,13.14,3.39c3.78,2.85,6.23,7,6.9,11.69c0.66,4.69-0.54,9.36-3.39,13.14
			c-2.85,3.78-7,6.23-11.69,6.9C688.52,196.27,687.67,196.33,686.84,196.33z M686.91,163.03c-0.73,0-1.47,0.05-2.21,0.15
			c-4.12,0.58-7.76,2.73-10.26,6.05c-2.5,3.32-3.56,7.42-2.98,11.54c0.58,4.12,2.73,7.76,6.05,10.26c3.32,2.5,7.41,3.55,11.54,2.98
			c4.12-0.58,7.76-2.73,10.26-6.05c2.5-3.32,3.56-7.42,2.98-11.54c-0.58-4.12-2.73-7.76-6.05-10.26
			C693.51,164.11,690.27,163.03,686.91,163.03z"/>
	</g>
	<g>
		<path class="st0" d="M773.96,65.54c-2.99,0-5.96-0.72-8.69-2.15c-4.46-2.33-7.74-6.25-9.25-11.05c-1.5-4.79-1.05-9.89,1.27-14.35
			c2.33-4.46,6.25-7.74,11.05-9.25c9.89-3.1,20.49,2.42,23.59,12.32c1.51,4.79,1.05,9.89-1.27,14.35
			c-2.33,4.46-6.25,7.74-11.05,9.25C777.76,65.25,775.86,65.54,773.96,65.54z M773.97,30.06c-1.65,0-3.32,0.25-4.98,0.77
			c-4.24,1.33-7.72,4.24-9.78,8.18c-2.06,3.94-2.46,8.45-1.13,12.7c1.33,4.24,4.24,7.72,8.18,9.78c3.94,2.06,8.45,2.46,12.7,1.13
			c4.24-1.33,7.72-4.24,9.78-8.18c2.06-3.94,2.46-8.45,1.13-12.7C787.64,34.62,781.06,30.06,773.97,30.06z"/>
	</g>
	<g>
		<path class="st0" d="M691.67,33.51c-2.84,0-5.71-0.78-8.28-2.41c-7.21-4.58-9.34-14.17-4.76-21.38c2.22-3.49,5.66-5.91,9.7-6.81
			c4.03-0.9,8.19-0.17,11.68,2.05c3.49,2.22,5.91,5.66,6.81,9.7c0.9,4.04,0.17,8.18-2.05,11.68
			C701.82,30.98,696.8,33.51,691.67,33.51z M691.72,4.71c-0.97,0-1.95,0.11-2.92,0.32c-3.47,0.78-6.44,2.86-8.35,5.86
			c-1.91,3-2.53,6.57-1.76,10.04c0.77,3.47,2.85,6.44,5.86,8.35c6.21,3.94,14.45,2.1,18.39-4.1c1.91-3,2.53-6.57,1.76-10.04
			c-0.77-3.47-2.85-6.44-5.86-8.35C696.68,5.41,694.23,4.71,691.72,4.71z"/>
	</g>
	<g>
		<path class="st0" d="M409.46,453.83c-4.51,0-8.87-2.47-11.05-6.76l0,0c-1.5-2.95-1.76-6.3-0.74-9.44c1.02-3.14,3.21-5.7,6.16-7.2
			c2.94-1.5,6.3-1.76,9.44-0.74c3.14,1.02,5.7,3.21,7.2,6.16c3.1,6.08,0.67,13.55-5.42,16.64
			C413.26,453.4,411.35,453.83,409.46,453.83z M409.43,431.24c-1.59,0-3.17,0.37-4.62,1.12c-2.43,1.24-4.23,3.35-5.08,5.94
			c-0.85,2.59-0.63,5.36,0.61,7.79l0,0c1.24,2.43,3.35,4.23,5.94,5.08c2.6,0.85,5.36,0.63,7.79-0.61c5.02-2.55,7.02-8.72,4.47-13.74
			c-1.24-2.43-3.35-4.23-5.94-5.08C411.56,431.41,410.5,431.24,409.43,431.24z"/>
	</g>
	<g>
		<path class="st0" d="M671.3-190.71c-4.18,0-7.69-3.29-7.89-7.52l0,0c-0.1-2.11,0.62-4.13,2.04-5.7c1.42-1.56,3.36-2.48,5.47-2.58
			c2.12-0.12,4.13,0.62,5.7,2.03c1.57,1.42,2.49,3.36,2.59,5.47c0.22,4.35-3.15,8.07-7.5,8.28
			C671.56-190.71,671.43-190.71,671.3-190.71z M665.57-198.33c0.16,3.16,2.8,5.57,6.02,5.45c3.16-0.16,5.61-2.86,5.45-6.02
			c-0.08-1.53-0.74-2.94-1.88-3.97c-1.14-1.03-2.6-1.52-4.14-1.48c-1.53,0.08-2.94,0.74-3.97,1.88S665.49-199.86,665.57-198.33
			L665.57-198.33z"/>
	</g>
	<g>
		<path class="st0" d="M968.05,167.37c-5.87,0-11.66-2.74-15.32-7.87c-6.01-8.43-4.04-20.18,4.39-26.19
			c8.43-6.01,20.18-4.04,26.19,4.39c6.01,8.43,4.04,20.18-4.39,26.19C975.62,166.24,971.82,167.37,968.05,167.37z M968,131.99
			c-3.34,0-6.7,1-9.62,3.08c-7.46,5.32-9.2,15.71-3.88,23.17c5.32,7.46,15.71,9.2,23.17,3.88c3.61-2.58,6.01-6.41,6.74-10.78
			c0.73-4.38-0.28-8.78-2.86-12.39C978.31,134.41,973.19,131.99,968,131.99z"/>
	</g>
	<g>
		<path class="st0" d="M156.35,365.36c-0.5,0-1-0.06-1.5-0.19c-3.21-0.83-5.16-4.11-4.34-7.32c0.4-1.56,1.38-2.87,2.76-3.69
			c1.38-0.82,3-1.05,4.56-0.65l0,0c3.22,0.83,5.16,4.11,4.34,7.32c-0.4,1.56-1.38,2.87-2.76,3.69
			C158.47,365.08,157.42,365.36,156.35,365.36z M156.33,355.48c-0.68,0-1.35,0.18-1.96,0.54c-0.89,0.52-1.52,1.36-1.77,2.36
			c-0.53,2.06,0.72,4.16,2.78,4.69c2.06,0.53,4.16-0.72,4.69-2.78c0.53-2.06-0.72-4.16-2.78-4.69l0,0
			C156.98,355.53,156.65,355.48,156.33,355.48z"/>
	</g>
	<g>
		<path class="st0" d="M716.37,495.18c-3,0-6.01-0.48-8.94-1.46c-7.16-2.38-12.96-7.41-16.34-14.15c-3.38-6.74-3.93-14.4-1.55-21.56
			c2.38-7.16,7.41-12.96,14.15-16.34c6.75-3.38,14.4-3.93,21.56-1.55c7.16,2.38,12.96,7.41,16.34,14.15
			c6.97,13.92,1.32,30.93-12.61,37.9l0,0C725.01,494.17,720.7,495.18,716.37,495.18z M716.32,440.83c-4,0-7.97,0.93-11.65,2.77
			c-6.23,3.12-10.87,8.48-13.07,15.09c-2.2,6.61-1.69,13.68,1.43,19.91c3.12,6.23,8.48,10.87,15.09,13.07
			c6.61,2.2,13.68,1.69,19.91-1.43l0,0c6.23-3.12,10.87-8.48,13.07-15.09c2.2-6.61,1.69-13.68-1.43-19.91
			c-3.12-6.23-8.48-10.87-15.09-13.07C721.87,441.28,719.09,440.83,716.32,440.83z"/>
	</g>
	<g>
		<path class="st0" d="M716.19-50.73c-4.4,0-8.34-3.1-9.24-7.57l0,0c-1.03-5.1,2.29-10.08,7.39-11.1c2.47-0.49,4.99,0,7.08,1.39
			c2.1,1.39,3.53,3.53,4.02,5.99c0.5,2.47,0,4.98-1.39,7.08c-1.39,2.1-3.53,3.53-5.99,4.02C717.42-50.79,716.8-50.73,716.19-50.73z
			 M709.07-58.73c0.38,1.9,1.48,3.54,3.1,4.62c1.61,1.08,3.56,1.46,5.45,1.07c1.9-0.38,3.54-1.48,4.62-3.1
			c1.08-1.61,1.46-3.55,1.07-5.45c-0.38-1.9-1.48-3.54-3.1-4.62c-1.61-1.08-3.56-1.46-5.45-1.07
			C710.83-66.49,708.28-62.65,709.07-58.73L709.07-58.73z"/>
	</g>
	<g>
		<path class="st0" d="M657.08-357.62c-1.52,0-3.06-0.21-4.59-0.64c-8.95-2.54-14.17-11.88-11.63-20.83
			c2.54-8.95,11.88-14.14,20.83-11.62c8.95,2.54,14.16,11.88,11.63,20.83l0,0C671.21-362.47,664.43-357.62,657.08-357.62z
			 M657.06-389.2c-2.47,0-4.92,0.63-7.14,1.87c-3.43,1.91-5.91,5.05-6.98,8.83c-2.21,7.8,2.33,15.95,10.14,18.16
			c7.78,2.21,15.95-2.33,18.16-10.14l0,0c2.21-7.8-2.33-15.95-10.14-18.16C659.77-389.01,658.41-389.2,657.06-389.2z M672.27-370.18
			h0.03H672.27z"/>
	</g>
	<g>
		<path class="st0" d="M14.84,401.18c-1.48,0-2.98-0.14-4.49-0.44c-12.44-2.47-20.56-14.6-18.09-27.05
			c2.47-12.45,14.61-20.57,27.05-18.09c12.45,2.47,20.56,14.6,18.1,27.05C35.24,393.58,25.6,401.18,14.84,401.18z M14.83,357.32
			c-9.74,0-18.48,6.88-20.44,16.79c-2.24,11.28,5.12,22.27,16.39,24.5c11.26,2.24,22.27-5.11,24.51-16.39
			c2.24-11.27-5.12-22.27-16.4-24.5C17.53,357.45,16.17,357.32,14.83,357.32z"/>
	</g>
	<g>
		<path class="st0" d="M498.54,264.56c-5.27,0-10.11-3.53-11.53-8.86c-1.69-6.35,2.11-12.89,8.47-14.58
			c3.08-0.82,6.29-0.39,9.04,1.21c2.75,1.6,4.72,4.18,5.54,7.25c0.82,3.08,0.39,6.29-1.21,9.04c-1.6,2.75-4.18,4.72-7.25,5.54l0,0
			C500.58,264.43,499.55,264.56,498.54,264.56z M498.56,242.87c-0.84,0-1.69,0.11-2.52,0.33c-5.2,1.38-8.31,6.74-6.93,11.94
			c1.38,5.2,6.73,8.3,11.94,6.93l0,0c2.52-0.67,4.63-2.28,5.94-4.53c1.31-2.25,1.66-4.88,0.99-7.4c-0.67-2.52-2.28-4.63-4.53-5.94
			C501.93,243.32,500.26,242.87,498.56,242.87z"/>
	</g>
	<g>
		<path class="st0" d="M992.71-272.16c-4.53,0-9.11-1.29-13.16-3.99c-5.29-3.52-8.89-8.9-10.14-15.13c-1.25-6.23,0-12.58,3.53-17.87
			c3.52-5.29,8.9-8.89,15.13-10.14c6.24-1.25,12.58,0,17.87,3.53l0,0c5.29,3.52,8.89,8.9,10.14,15.13c1.25,6.23,0,12.58-3.53,17.87
			C1007.97-275.88,1000.41-272.16,992.71-272.16z M992.78-317.57c-7,0-13.87,3.38-18.03,9.63c-3.2,4.81-4.34,10.58-3.21,16.24
			c1.13,5.67,4.41,10.55,9.22,13.75c9.92,6.61,23.37,3.92,29.99-6.01c3.2-4.81,4.34-10.57,3.21-16.24
			c-1.13-5.67-4.41-10.55-9.22-13.75l0,0C1001.06-316.4,996.9-317.57,992.78-317.57z"/>
	</g>
	<g>
		<path class="st0" d="M500.8-373.43c-0.58,0-1.17-0.06-1.76-0.18c-4.85-0.97-8-5.7-7.03-10.54l0,0c0.97-4.84,5.7-8,10.54-7.03
			c4.85,0.97,8,5.7,7.03,10.54C508.74-376.38,504.99-373.43,500.8-373.43z M494.14-383.73c-0.73,3.68,1.66,7.27,5.33,8
			c3.68,0.73,7.26-1.66,8-5.33c0.73-3.67-1.66-7.26-5.33-8C498.45-389.79,494.87-387.4,494.14-383.73L494.14-383.73z"/>
	</g>
	<g>
		<path class="st0" d="M793.32-78.25c-2.41,0-4.81-0.48-7.1-1.43c-4.56-1.9-8.12-5.46-10-10.03c-1.89-4.57-1.88-9.6,0.02-14.16
			c1.9-4.56,5.46-8.12,10.03-10c9.43-3.91,20.27,0.61,24.17,10.05c1.89,4.57,1.88,9.6-0.02,14.16c-1.9,4.56-5.46,8.12-10.03,10
			C798.1-78.72,795.71-78.25,793.32-78.25z M793.29-113.11c-2.07,0-4.18,0.4-6.21,1.23c-4.03,1.66-7.18,4.8-8.85,8.83
			c-1.68,4.03-1.68,8.47-0.01,12.51c3.44,8.33,13.01,12.31,21.34,8.87c4.03-1.67,7.18-4.8,8.85-8.83c1.68-4.03,1.68-8.47,0.02-12.51
			C805.82-109.3,799.72-113.11,793.29-113.11z"/>
	</g>
	<g>
		<path class="st0" d="M1038.35-196.6c-1.4,0-2.79-0.32-4.09-0.95c-2.25-1.09-3.94-3-4.76-5.36c-0.82-2.36-0.66-4.9,0.43-7.16
			c1.09-2.25,3-3.94,5.36-4.76c2.37-0.81,4.9-0.66,7.16,0.43c2.25,1.09,3.94,3,4.75,5.36c0.82,2.36,0.66,4.91-0.43,7.15
			c-1.09,2.25-3,3.94-5.36,4.76C1040.42-196.78,1039.38-196.6,1038.35-196.6z M1038.36-213.18c-0.79,0-1.58,0.13-2.36,0.4
			c-1.82,0.63-3.28,1.93-4.13,3.66c-1.74,3.57-0.24,7.89,3.33,9.63c3.57,1.74,7.89,0.24,9.63-3.33c0.84-1.73,0.96-3.68,0.33-5.5
			c-0.63-1.82-1.93-3.28-3.66-4.12C1040.51-212.93,1039.44-213.18,1038.36-213.18z"/>
	</g>
	<g>
		<path class="st0" d="M955.82,455.16c-0.77,0-1.55-0.03-2.33-0.1c-7.57-0.61-14.45-4.14-19.37-9.93
			c-4.92-5.79-7.29-13.15-6.67-20.72c1.27-15.63,15.01-27.29,30.65-26.04c15.63,1.27,27.31,15.02,26.04,30.65
			C982.94,443.88,970.47,455.16,955.82,455.16z M955.78,400.45c-13.53,0-25.05,10.43-26.17,24.15c-0.57,6.99,1.62,13.79,6.16,19.14
			c4.54,5.35,10.9,8.61,17.89,9.18h0c14.48,1.17,27.14-9.62,28.32-24.06c1.18-14.44-9.62-27.14-24.06-28.32
			C957.21,400.48,956.5,400.45,955.78,400.45z"/>
	</g>
	<g>
		<path class="st0" d="M1004.06,745.62c-1.48,0-2.97-0.46-4.24-1.41c-3.14-2.34-3.79-6.81-1.45-9.95c2.35-3.14,6.81-3.79,9.95-1.45
			c3.14,2.34,3.79,6.81,1.45,9.95l0,0C1008.37,744.63,1006.23,745.62,1004.06,745.62z M1004.08,733.57c-1.51,0-3,0.69-3.97,1.99
			c-1.63,2.19-1.18,5.29,1.01,6.92c2.19,1.63,5.29,1.18,6.92-1.01l0,0c1.63-2.19,1.18-5.29-1.01-6.92
			C1006.14,733.88,1005.11,733.57,1004.08,733.57z M1008.9,742.12h0.03H1008.9z"/>
	</g>
	<g>
		<path class="st0" d="M242.69,670.81c-1.58,0-3.19-0.38-4.68-1.18c-2.34-1.26-4.05-3.35-4.82-5.89c-0.77-2.54-0.5-5.23,0.76-7.58
			c1.26-2.34,3.35-4.05,5.89-4.82c2.54-0.77,5.23-0.5,7.58,0.76l0,0c4.83,2.59,6.66,8.63,4.06,13.47
			C249.68,668.91,246.24,670.81,242.69,670.81z M242.72,653.08c-0.76,0-1.52,0.11-2.26,0.34c-1.99,0.6-3.63,1.94-4.61,3.77
			c-0.98,1.83-1.19,3.94-0.59,5.93c0.6,1.99,1.94,3.63,3.77,4.61c3.77,2.03,8.51,0.6,10.54-3.18c2.03-3.78,0.6-8.51-3.18-10.54l0,0
			C245.24,653.39,243.98,653.08,242.72,653.08z"/>
	</g>
	<g>
		<path class="st0" d="M16.39-173.24c-7.92,0-15.55-4.41-19.27-11.99l0,0c-5.2-10.61-0.8-23.47,9.8-28.67
			c10.61-5.2,23.47-0.8,28.67,9.8c5.2,10.6,0.81,23.46-9.8,28.67C22.76-173.94,19.55-173.24,16.39-173.24z M-0.94-186.18
			c4.68,9.53,16.23,13.49,25.77,8.81c9.53-4.68,13.49-16.24,8.81-25.77c-2.27-4.62-6.19-8.08-11.06-9.74
			c-4.87-1.67-10.1-1.33-14.71,0.93C-1.66-207.28-5.61-195.72-0.94-186.18L-0.94-186.18z"/>
	</g>
	<g>
		<path class="st0" d="M-47.96,806.4c-0.38,0-0.77-0.03-1.15-0.09c-2.05-0.3-3.85-1.38-5.08-3.04c-1.23-1.66-1.74-3.7-1.44-5.75l0,0
			c0.3-2.05,1.38-3.85,3.05-5.08c1.66-1.23,3.7-1.76,5.75-1.44c2.05,0.3,3.85,1.38,5.08,3.04c1.23,1.66,1.74,3.7,1.44,5.75
			c-0.3,2.05-1.38,3.85-3.04,5.08C-44.72,805.88-46.31,806.4-47.96,806.4z M-53.5,797.85L-53.5,797.85
			c-0.22,1.47,0.15,2.94,1.04,4.14s2.19,1.97,3.66,2.19c1.47,0.21,2.94-0.15,4.14-1.04c1.2-0.89,1.97-2.19,2.19-3.66
			c0.22-1.47-0.15-2.94-1.04-4.14c-0.89-1.2-2.19-1.97-3.66-2.19c-1.47-0.21-2.94,0.15-4.14,1.04
			C-52.5,795.07-53.28,796.37-53.5,797.85z"/>
	</g>
	<g>
		<path class="st1" d="M43.57,269.74c-6.04,0-11.86-2.02-16.66-5.83c-5.62-4.47-9.17-10.85-9.99-17.98
			c-1.69-14.72,8.91-28.07,23.63-29.76c14.69-1.67,28.07,8.91,29.76,23.63c1.69,14.72-8.91,28.07-23.63,29.76
			C45.65,269.68,44.61,269.74,43.57,269.74z M43.68,218.16c-0.95,0-1.91,0.05-2.87,0.16c-6.55,0.75-12.43,4.01-16.53,9.18
			c-4.1,5.17-5.95,11.62-5.2,18.18c0.75,6.55,4.01,12.43,9.18,16.53c5.17,4.1,11.61,5.94,18.18,5.2c6.55-0.75,12.43-4.01,16.53-9.18
			c4.1-5.17,5.95-11.63,5.2-18.18c-0.75-6.55-4.01-12.43-9.18-16.53C54.58,220.02,49.23,218.16,43.68,218.16z"/>
	</g>
	<g>
		<path class="st0" d="M626.33,444.4c-2.74,0-5.52-0.41-8.27-1.28c-14.55-4.57-22.66-20.12-18.09-34.67
			c2.21-7.05,7.04-12.81,13.59-16.23c6.55-3.42,14.04-4.08,21.08-1.86l0,0c14.55,4.57,22.67,20.12,18.09,34.67
			C649.02,436.83,638.09,444.4,626.33,444.4z M626.36,391.25c-10.84,0-20.91,6.98-24.33,17.85c-4.21,13.41,3.27,27.75,16.68,31.96
			c6.49,2.03,13.4,1.43,19.44-1.72c6.04-3.15,10.49-8.46,12.53-14.96c4.21-13.41-3.27-27.75-16.68-31.96h0
			C631.46,391.63,628.89,391.25,626.36,391.25z"/>
	</g>
	<g>
		<path class="st0" d="M1119.84,183.03c-2.78,0-5.5-1.41-7.05-3.95c-1.15-1.88-1.5-4.1-0.98-6.24c0.52-2.14,1.84-3.96,3.72-5.11
			c3.88-2.37,8.97-1.15,11.34,2.74l0,0c2.37,3.88,1.15,8.97-2.74,11.34C1122.79,182.64,1121.31,183.03,1119.84,183.03z
			 M1119.82,168.69c-1.08,0-2.17,0.29-3.16,0.89c-1.39,0.85-2.36,2.19-2.74,3.77c-0.38,1.58-0.12,3.21,0.72,4.6
			c1.75,2.87,5.5,3.78,8.37,2.02c1.39-0.85,2.36-2.18,2.74-3.77c0.38-1.58,0.12-3.22-0.72-4.6l0,0
			C1123.87,169.73,1121.87,168.69,1119.82,168.69z"/>
	</g>
	<g>
		<path class="st0" d="M174.4,740.7c-3.14,0-6.26-0.8-9.08-2.37c-4.38-2.43-7.54-6.42-8.92-11.24l0,0
			c-2.84-9.94,2.94-20.34,12.88-23.18c9.95-2.85,20.34,2.94,23.18,12.88c1.38,4.82,0.79,9.88-1.64,14.26
			c-2.43,4.38-6.43,7.54-11.24,8.92C177.87,740.46,176.13,740.7,174.4,740.7z M158.48,726.49c1.22,4.26,4.02,7.79,7.89,9.95
			c3.87,2.15,8.35,2.67,12.61,1.45c4.26-1.22,7.79-4.02,9.95-7.89c2.15-3.87,2.67-8.35,1.45-12.61c-2.51-8.8-11.71-13.91-20.5-11.4
			C161.09,708.5,155.97,717.7,158.48,726.49L158.48,726.49z"/>
	</g>
	<g>
		<path class="st0" d="M182.06-148.72c-1.13,0-2.23-0.32-3.21-0.93c-1.37-0.86-2.33-2.21-2.69-3.79c-0.36-1.58-0.09-3.21,0.77-4.58
			c0.86-1.37,2.21-2.33,3.79-2.69c1.58-0.36,3.21-0.09,4.58,0.77c1.38,0.86,2.33,2.2,2.69,3.78c0.36,1.58,0.09,3.21-0.77,4.58
			c-0.86,1.37-2.2,2.33-3.78,2.69C182.97-148.77,182.51-148.72,182.06-148.72z M182.08-158.7c-0.29,0-0.59,0.03-0.88,0.1
			c-1.02,0.23-1.88,0.85-2.44,1.73c-0.55,0.88-0.73,1.93-0.5,2.95c0.23,1.02,0.85,1.89,1.73,2.44c0.88,0.55,1.94,0.73,2.95,0.5
			c1.02-0.23,1.89-0.85,2.44-1.73c0.55-0.89,0.73-1.93,0.5-2.95c-0.23-1.02-0.85-1.88-1.73-2.44
			C183.51-158.49,182.8-158.7,182.08-158.7z"/>
	</g>
	<g>
		<path class="st0" d="M761.76-281.78c-1.36,0-2.74-0.42-3.92-1.28v0c-2.97-2.17-3.62-6.35-1.45-9.31c1.05-1.44,2.59-2.38,4.36-2.66
			c1.75-0.26,3.52,0.15,4.96,1.2c2.97,2.17,3.62,6.35,1.45,9.31C765.85-282.73,763.82-281.78,761.76-281.78z M759.12-284.81
			c2.01,1.47,4.83,1.02,6.29-0.98c1.46-2,1.02-4.83-0.98-6.29c-2-1.46-4.82-1.02-6.29,0.98
			C756.67-289.09,757.11-286.27,759.12-284.81L759.12-284.81z"/>
	</g>
	<g>
		<path class="st0" d="M767.54,757.52c-5.79,0-11.45-2.9-14.71-8.18c-2.42-3.92-3.17-8.55-2.12-13.03c1.06-4.49,3.8-8.29,7.72-10.72
			l0,0c8.1-5,18.75-2.49,23.75,5.6c2.43,3.92,3.18,8.55,2.12,13.04c-1.06,4.48-3.8,8.29-7.72,10.71
			C773.76,756.69,770.63,757.52,767.54,757.52z M767.48,725.18c-2.71,0-5.44,0.73-7.91,2.25l0,0c-3.43,2.12-5.83,5.45-6.75,9.37
			c-0.93,3.92-0.27,7.97,1.85,11.4c4.38,7.08,13.69,9.28,20.78,4.9c7.08-4.38,9.28-13.7,4.9-20.77
			C777.49,727.72,772.55,725.18,767.48,725.18z M759,726.51h0.03H759z"/>
	</g>
	<g>
		<path class="st0" d="M187.54-65.09c-1.92,0-3.87-0.36-5.76-1.12c-7.93-3.18-11.79-12.23-8.61-20.16
			c3.18-7.93,12.23-11.79,20.16-8.61c7.93,3.18,11.79,12.23,8.61,20.16C199.52-68.77,193.69-65.09,187.54-65.09z M187.58-93.93
			c-5.29,0-10.31,3.17-12.39,8.37c-2.74,6.82,0.58,14.6,7.41,17.35c6.83,2.74,14.61-0.58,17.35-7.41c2.74-6.82-0.58-14.6-7.41-17.35
			C190.91-93.62,189.23-93.93,187.58-93.93z"/>
	</g>
	<g>
		<path class="st0" d="M107.36,435.25c-2.07,0-4.15-0.3-6.19-0.91c-5.49-1.64-10.01-5.33-12.73-10.37
			c-2.72-5.05-3.31-10.85-1.67-16.34c1.64-5.49,5.33-10.01,10.37-12.73c5.04-2.72,10.85-3.31,16.34-1.67
			c5.49,1.64,10.01,5.33,12.73,10.37c2.72,5.05,3.31,10.85,1.67,16.34h0c-1.64,5.49-5.33,10.01-10.37,12.73
			C114.34,434.38,110.86,435.25,107.36,435.25z M107.3,394.47c-3.16,0-6.28,0.78-9.13,2.32c-4.54,2.45-7.85,6.51-9.33,11.45
			c-1.48,4.94-0.95,10.16,1.5,14.69c2.45,4.54,6.51,7.85,11.45,9.33c4.93,1.48,10.15,0.94,14.69-1.5c4.54-2.45,7.85-6.51,9.33-11.45
			h0c1.48-4.94,0.94-10.16-1.5-14.69c-2.45-4.54-6.51-7.85-11.45-9.33C111.03,394.74,109.16,394.47,107.3,394.47z"/>
	</g>
	<g>
		<path class="st0" d="M222.5,591.83c-0.4,0-0.81-0.04-1.22-0.12c-3.48-0.66-5.78-4.04-5.12-7.52c0.32-1.69,1.28-3.15,2.7-4.12
			c1.42-0.97,3.14-1.31,4.82-1c3.49,0.66,5.78,4.04,5.12,7.52c0,0,0,0,0,0c-0.32,1.69-1.28,3.15-2.7,4.12
			C225.03,591.45,223.78,591.83,222.5,591.83z M222.48,581.12c-0.85,0-1.68,0.25-2.4,0.74c-0.94,0.64-1.58,1.61-1.79,2.73
			c-0.44,2.31,1.08,4.55,3.4,4.99c1.12,0.2,2.26-0.03,3.2-0.66c0.94-0.64,1.58-1.61,1.79-2.73c0.44-2.31-1.08-4.55-3.4-4.99
			C223.02,581.15,222.75,581.12,222.48,581.12z M227.75,586.39h0.03H227.75z"/>
	</g>
	<g>
		<path class="st0" d="M1114.74,22.9c-5.77,0-11.36-3.1-14.26-8.54c-2.02-3.8-2.45-8.16-1.19-12.28c1.26-4.12,4.04-7.5,7.84-9.52
			c3.8-2.02,8.16-2.45,12.28-1.19c4.12,1.26,7.5,4.04,9.53,7.84c4.18,7.85,1.19,17.63-6.65,21.81l0,0
			C1119.88,22.29,1117.29,22.9,1114.74,22.9z M1114.69-7.19c-2.26,0-4.49,0.55-6.54,1.65c-3.29,1.75-5.7,4.68-6.79,8.25
			c-1.09,3.57-0.72,7.34,1.03,10.63c3.62,6.79,12.08,9.38,18.88,5.76l0,0c6.79-3.62,9.38-12.09,5.76-18.88
			c-1.75-3.29-4.68-5.7-8.25-6.79C1117.44-6.98,1116.06-7.19,1114.69-7.19z M1121.78,20.06h0.03H1121.78z"/>
	</g>
	<g>
		<path class="st0" d="M1114.61,452.72c-0.56,0-1.13-0.03-1.7-0.08c-9.46-0.93-16.4-9.39-15.47-18.85
			c0.94-9.46,9.4-16.37,18.85-15.47c4.58,0.45,8.72,2.66,11.64,6.22c2.92,3.56,4.28,8.04,3.83,12.63
			C1130.87,446.06,1123.36,452.72,1114.61,452.72z M1114.57,420.41c-3.48,0-6.82,1.19-9.54,3.43c-3.11,2.56-5.04,6.17-5.44,10.18
			c-0.4,4.01,0.79,7.93,3.35,11.04c2.55,3.11,6.17,5.04,10.18,5.44c8.28,0.81,15.67-5.25,16.48-13.52c0.4-4.01-0.79-7.93-3.35-11.04
			c-2.55-3.11-6.17-5.05-10.18-5.44C1115.57,420.43,1115.06,420.41,1114.57,420.41z"/>
	</g>
	<g>
		<path class="st0" d="M376.31-228.51c-6.65,0-13.02-2.35-18.12-6.72c-5.66-4.85-9.09-11.62-9.66-19.05
			c-0.57-7.43,1.79-14.64,6.64-20.3c4.85-5.66,11.62-9.09,19.05-9.66c15.35-1.16,28.79,10.35,29.96,25.69l0,0
			c0.57,7.43-1.79,14.64-6.64,20.3c-4.85,5.66-11.62,9.09-19.05,9.66C377.76-228.54,377.03-228.51,376.31-228.51z M376.37-282.17
			c-0.66,0-1.32,0.03-1.99,0.08c-6.86,0.53-13.1,3.69-17.58,8.91c-4.48,5.22-6.65,11.87-6.13,18.73c0.53,6.86,3.69,13.1,8.91,17.57
			c5.22,4.48,11.88,6.64,18.73,6.13c6.86-0.53,13.1-3.69,17.58-8.91c4.48-5.22,6.65-11.87,6.13-18.73l0,0
			C400.99-271.88,389.68-282.17,376.37-282.17z"/>
	</g>
	<g>
		<path class="st0" d="M82.72,27.96c-0.15,0-0.31-0.01-0.46-0.02c-1.54-0.12-2.95-0.83-3.95-2.01c-1.01-1.18-1.5-2.68-1.37-4.22
			c0.12-1.54,0.83-2.95,2.01-3.95c1.18-1.01,2.67-1.5,4.22-1.37c1.54,0.12,2.95,0.83,3.95,2.01c1.01,1.18,1.5,2.68,1.37,4.22
			c-0.12,1.54-0.83,2.95-2.01,3.95C85.42,27.47,84.1,27.96,82.72,27.96z M82.71,18.52c-0.86,0-1.69,0.3-2.35,0.87
			c-0.74,0.63-1.19,1.51-1.26,2.48c-0.07,0.97,0.23,1.91,0.86,2.64c0.63,0.74,1.51,1.19,2.48,1.26c0.95,0.06,1.91-0.23,2.64-0.86
			c0.74-0.63,1.19-1.51,1.26-2.48c0.07-0.97-0.23-1.91-0.86-2.64c-0.63-0.74-1.51-1.19-2.48-1.26C82.9,18.53,82.8,18.52,82.71,18.52
			z"/>
	</g>
	<g>
		<path class="st0" d="M351.58-120.51c-4.8,0-9.66-1.23-14.09-3.83c-13.31-7.8-17.8-24.97-10.01-38.29
			c3.78-6.45,9.84-11.04,17.07-12.93c7.23-1.89,14.76-0.85,21.22,2.93l0,0c6.45,3.78,11.04,9.84,12.93,17.07
			c1.89,7.23,0.85,14.77-2.93,21.21C370.57-125.47,361.2-120.51,351.58-120.51z M351.67-174.3c-8.87,0-17.52,4.57-22.32,12.77
			c-7.19,12.28-3.05,28.13,9.23,35.32c5.95,3.48,12.9,4.45,19.57,2.7c6.67-1.74,12.26-5.98,15.75-11.93
			c3.48-5.95,4.44-12.9,2.7-19.57c-1.74-6.67-5.98-12.27-11.93-15.75l0,0C360.59-173.16,356.1-174.3,351.67-174.3z"/>
	</g>
	<g>
		<path class="st0" d="M521.56-303.43c-0.43,0-0.86-0.04-1.29-0.12c-1.84-0.34-3.44-1.38-4.5-2.92c-1.06-1.54-1.46-3.4-1.11-5.24
			c0.34-1.84,1.38-3.44,2.92-4.5c1.54-1.06,3.41-1.46,5.24-1.11c1.84,0.34,3.44,1.38,4.5,2.92c1.06,1.54,1.46,3.4,1.11,5.24
			c-0.34,1.84-1.38,3.44-2.92,4.5C524.33-303.86,522.96-303.43,521.56-303.43z M521.53-315.28c-0.97,0-1.91,0.29-2.73,0.85
			c-1.07,0.73-1.78,1.84-2.02,3.11c-0.23,1.27,0.04,2.56,0.77,3.63c0.73,1.07,1.84,1.78,3.11,2.02c1.27,0.24,2.56-0.04,3.63-0.77
			c1.07-0.73,1.78-1.84,2.02-3.11c0.23-1.27-0.04-2.56-0.77-3.63c-0.73-1.07-1.84-1.78-3.11-2.02
			C522.13-315.26,521.83-315.28,521.53-315.28z"/>
	</g>
	<g>
		<path class="st0" d="M805.27,457.86c-4.87,0-9.48-1.84-13.02-5.23c-3.64-3.48-5.71-8.17-5.82-13.21
			c-0.11-5.04,1.74-9.82,5.22-13.46c3.48-3.64,8.17-5.71,13.21-5.82c0.15,0,0.29,0,0.44,0c4.88,0,9.48,1.84,13.02,5.23
			c3.64,3.48,5.71,8.17,5.82,13.21c0.11,5.04-1.74,9.82-5.22,13.46c-3.48,3.64-8.17,5.71-13.21,5.82
			C805.56,457.85,805.41,457.86,805.27,457.86z M805.29,422.3c-0.13,0-0.26,0-0.39,0c-4.46,0.1-8.61,1.93-11.69,5.16
			c-3.08,3.22-4.72,7.46-4.62,11.91c0.1,4.46,1.93,8.61,5.16,11.69c3.22,3.08,7.5,4.74,11.91,4.62c4.46-0.1,8.61-1.93,11.69-5.16
			c3.08-3.22,4.72-7.46,4.62-11.91c-0.1-4.46-1.93-8.61-5.16-11.69C813.69,423.93,809.61,422.3,805.29,422.3z"/>
	</g>
	<g>
		<path class="st0" d="M885.74-375.66c-3.87,0-7.18-2.97-7.54-6.89c-0.38-4.16,2.7-7.85,6.86-8.23l0,0
			c1.99-0.18,3.98,0.43,5.54,1.72c1.56,1.3,2.51,3.12,2.69,5.14c0.18,2.01-0.43,3.98-1.72,5.53c-1.3,1.56-3.12,2.51-5.14,2.7
			C886.2-375.67,885.97-375.66,885.74-375.66z M885.76-388.65c-0.16,0-0.33,0.01-0.5,0.02l0,0c-2.97,0.27-5.17,2.91-4.9,5.88
			c0.27,2.97,2.91,5.18,5.88,4.9c1.44-0.13,2.74-0.82,3.67-1.93c0.93-1.11,1.36-2.51,1.23-3.96c-0.13-1.44-0.81-2.74-1.93-3.67
			C888.23-388.22,887.02-388.65,885.76-388.65z M885.16-389.71h0.03H885.16z"/>
	</g>
	<g>
		<path class="st0" d="M168.66,650.8c-0.53,0-1.07-0.08-1.61-0.23l0,0c-3.05-0.89-4.81-4.09-3.92-7.14c0.89-3.05,4.1-4.79,7.14-3.92
			c1.48,0.43,2.7,1.41,3.44,2.76c0.74,1.35,0.91,2.91,0.48,4.38C173.46,649.16,171.16,650.8,168.66,650.8z M167.65,648.49
			c1.9,0.55,3.91-0.55,4.46-2.45c0.56-1.9-0.54-3.91-2.45-4.46c-1.9-0.56-3.91,0.54-4.46,2.45
			C164.65,645.93,165.75,647.94,167.65,648.49L167.65,648.49z"/>
	</g>
	<g>
		<path class="st0" d="M726.51,395.64c-12.78,0-23.51-10.05-24.19-22.96l0,0c-0.34-6.46,1.85-12.68,6.18-17.49s10.27-7.65,16.74-8
			c13.35-0.67,24.78,9.58,25.49,22.92c0.71,13.35-9.58,24.78-22.92,25.49C727.38,395.62,726.94,395.64,726.51,395.64z
			 M726.54,349.32c-0.39,0-0.78,0.01-1.18,0.03c-5.89,0.31-11.3,2.9-15.25,7.28c-3.94,4.39-5.94,10.04-5.63,15.93l0,0
			c0.64,12.16,11.15,21.57,23.21,20.88c12.16-0.65,21.52-11.06,20.88-23.22C747.95,358.47,738.18,349.32,726.54,349.32z"/>
	</g>
	<g>
		<path class="st0" d="M302.46,622.25c-0.28,0-0.56-0.02-0.84-0.05c-2.03-0.22-3.85-1.22-5.14-2.81c-1.28-1.59-1.86-3.59-1.64-5.62
			c0.22-2.03,1.22-3.85,2.81-5.14c1.59-1.28,3.6-1.86,5.62-1.64c2.03,0.22,3.85,1.22,5.14,2.81c1.28,1.59,1.86,3.59,1.64,5.62
			c-0.22,2.03-1.22,3.85-2.81,5.14C305.87,621.66,304.2,622.25,302.46,622.25z M302.43,609.11c-1.24,0-2.44,0.42-3.43,1.21
			c-1.14,0.92-1.86,2.22-2.02,3.68c-0.16,1.46,0.26,2.89,1.18,4.03c0.92,1.14,2.23,1.86,3.68,2.02c1.47,0.16,2.89-0.26,4.03-1.18
			c1.14-0.92,1.86-2.23,2.02-3.68c0.16-1.46-0.26-2.89-1.18-4.03c-0.92-1.14-2.23-1.86-3.68-2.02
			C302.84,609.12,302.63,609.11,302.43,609.11z"/>
	</g>
	<g>
		<path class="st0" d="M600.54-300.12c-1.1,0-2.22-0.12-3.34-0.36c-8.49-1.84-13.9-10.24-12.06-18.73l0,0
			c1.84-8.49,10.25-13.91,18.73-12.06c8.49,1.84,13.9,10.24,12.06,18.73C614.34-305.17,607.8-300.12,600.54-300.12z M587.26-318.75
			c-1.58,7.32,3.08,14.57,10.4,16.16c7.33,1.59,14.57-3.08,16.16-10.4c1.58-7.32-3.08-14.57-10.4-16.16
			C596.08-330.74,588.85-326.07,587.26-318.75L587.26-318.75z"/>
	</g>
	<g>
		<path class="st0" d="M871.94-298.27c-0.75,0-1.51-0.11-2.26-0.33c-4.25-1.25-6.68-5.72-5.44-9.96c1.25-4.24,5.71-6.69,9.96-5.44
			c4.25,1.25,6.68,5.72,5.44,9.96v0C878.61-300.54,875.4-298.27,871.94-298.27z M871.95-312.16c-2.54,0-4.88,1.66-5.63,4.21
			c-0.91,3.1,0.87,6.37,3.97,7.28c3.1,0.9,6.36-0.87,7.28-3.97v0c0.91-3.1-0.87-6.37-3.97-7.28
			C873.05-312.08,872.49-312.16,871.95-312.16z M878.6-304.34h0.03H878.6z"/>
	</g>
	<g>
		<path class="st0" d="M267.54,766.52c-2.05,0-4.11-0.36-6.1-1.09c-4.42-1.63-7.95-4.88-9.93-9.16c-4.08-8.83-0.22-19.34,8.61-23.42
			c8.83-4.08,19.34-0.22,23.42,8.61c4.08,8.83,0.22,19.34-8.61,23.42C272.58,765.97,270.07,766.52,267.54,766.52z M267.51,733.38
			c-2.17,0-4.38,0.46-6.47,1.43c-7.75,3.58-11.14,12.8-7.55,20.55c1.74,3.75,4.83,6.61,8.71,8.03c3.88,1.43,8.09,1.26,11.84-0.48
			c7.75-3.58,11.14-12.8,7.55-20.55C278.97,736.71,273.36,733.38,267.51,733.38z"/>
	</g>
	<g>
		<path class="st0" d="M1095.76,125.3c-1.66,0-3.34-0.15-5.01-0.45c-7.32-1.32-13.69-5.42-17.94-11.53
			c-8.76-12.62-5.62-30.02,7.01-38.78c12.62-8.76,30.02-5.62,38.78,7c8.76,12.62,5.62,30.02-7.01,38.78
			C1106.87,123.59,1101.39,125.3,1095.76,125.3z M1095.67,71.74c-5.05,0-10.16,1.48-14.62,4.58l0,0
			c-5.64,3.91-9.42,9.79-10.64,16.54c-1.22,6.76,0.26,13.58,4.18,19.22c8.08,11.65,24.13,14.55,35.77,6.46
			c11.64-8.08,14.54-24.12,6.46-35.77C1111.83,75.59,1103.81,71.74,1095.67,71.74z M1080.43,75.43h0.03H1080.43z"/>
	</g>
	<g>
		<path class="st0" d="M88.96,726.02c-8.23,0-15.4-6.12-16.49-14.5c-1.18-9.1,5.26-17.46,14.36-18.65l0,0
			c9.12-1.18,17.46,5.26,18.65,14.36c1.18,9.1-5.26,17.46-14.36,18.65C90.39,725.97,89.67,726.02,88.96,726.02z M87.1,695.02
			c-7.92,1.03-13.52,8.31-12.49,16.22c1.03,7.92,8.33,13.51,16.22,12.49c7.92-1.03,13.52-8.31,12.49-16.22
			C102.3,699.59,94.98,693.99,87.1,695.02L87.1,695.02z"/>
	</g>
	<g>
		<path class="st0" d="M383.89,641.71c-2.93,0-5.88-0.92-8.38-2.83c-6.07-4.63-7.24-13.33-2.61-19.4c0,0,0,0,0,0
			c4.63-6.07,13.33-7.24,19.41-2.61c6.07,4.63,7.24,13.34,2.61,19.41C392.19,639.83,388.06,641.71,383.89,641.71z M374.62,620.78
			c-3.91,5.12-2.92,12.47,2.2,16.37c5.11,3.91,12.47,2.92,16.37-2.2c3.91-5.12,2.92-12.46-2.2-16.37
			C385.87,614.67,378.53,615.66,374.62,620.78L374.62,620.78z"/>
	</g>
	<g>
		<path class="st0" d="M606.76,724.61c-2.09,0-4.19-0.79-5.79-2.37c-3.24-3.2-3.28-8.43-0.08-11.68c3.2-3.24,8.44-3.28,11.68-0.08
			c1.57,1.55,2.45,3.62,2.46,5.82c0.01,2.21-0.83,4.29-2.38,5.86C611.02,723.79,608.89,724.61,606.76,724.61z M606.76,710.27
			c-1.57,0-3.15,0.6-4.34,1.81c-2.36,2.39-2.33,6.26,0.06,8.61c2.39,2.36,6.26,2.33,8.61-0.06c1.14-1.16,1.77-2.69,1.76-4.32
			c-0.01-1.63-0.66-3.15-1.81-4.29C609.85,710.86,608.3,710.27,606.76,710.27z"/>
	</g>
	<g>
		<path class="st0" d="M857.32-134.15c-1.86,0-3.72-0.63-5.24-1.93c-3.4-2.89-3.81-8.01-0.92-11.41l0,0c2.89-3.39,8-3.81,11.41-0.91
			c1.65,1.4,2.65,3.36,2.82,5.51c0.17,2.15-0.5,4.25-1.9,5.89C861.89-135.11,859.61-134.15,857.32-134.15z M852.81-146.08
			c-2.12,2.49-1.82,6.24,0.67,8.35c2.48,2.12,6.23,1.81,8.35-0.67c1.03-1.21,1.52-2.74,1.4-4.32c-0.13-1.58-0.86-3.01-2.07-4.04
			C858.68-148.86,854.93-148.56,852.81-146.08L852.81-146.08z"/>
	</g>
	<g>
		<path class="st0" d="M717.56,805.48c-3.29,0-6.43-1.2-8.89-3.43c-2.63-2.38-4.18-5.64-4.36-9.18c-0.18-3.54,1.03-6.94,3.41-9.57
			c2.38-2.63,5.64-4.18,9.18-4.36c3.56-0.17,6.94,1.03,9.57,3.41c2.63,2.38,4.18,5.64,4.36,9.18c0.37,7.31-5.28,13.56-12.59,13.93
			l0,0C718.01,805.47,717.78,805.48,717.56,805.48z M718.19,804.38h0.03H718.19z M717.59,781.09c-0.19,0-0.38,0.01-0.57,0.01
			c-2.97,0.15-5.69,1.45-7.68,3.65c-1.99,2.2-3.01,5.05-2.86,8.01c0.15,2.96,1.45,5.69,3.65,7.68c2.2,1.99,5.07,2.98,8.01,2.86l0,0
			c6.12-0.31,10.85-5.54,10.54-11.66c-0.15-2.97-1.45-5.69-3.65-7.68C722.96,782.09,720.34,781.09,717.59,781.09z"/>
	</g>
	<g>
		<path class="st0" d="M99.73-114.61c-3.12,0-6.28-0.69-9.26-2.14l0,0c-10.55-5.13-14.97-17.89-9.84-28.44
			c2.49-5.11,6.81-8.95,12.18-10.81c5.37-1.86,11.15-1.51,16.26,0.97c5.11,2.49,8.95,6.81,10.81,12.18
			c1.86,5.37,1.52,11.14-0.97,16.26C115.23-119.03,107.63-114.61,99.73-114.61z M91.42-118.7c9.48,4.61,20.94,0.64,25.55-8.84
			c2.23-4.59,2.54-9.78,0.87-14.6c-1.67-4.82-5.12-8.71-9.71-10.94c-4.59-2.23-9.78-2.54-14.6-0.87c-4.82,1.67-8.71,5.12-10.94,9.71
			C77.97-134.76,81.93-123.3,91.42-118.7L91.42-118.7z"/>
	</g>
	<g>
		<path class="st0" d="M918.14-145.21c-6.99,0-13.27-4.92-14.71-12.03l0,0c-0.8-3.93-0.02-7.94,2.2-11.28
			c2.21-3.34,5.6-5.63,9.53-6.42c3.92-0.8,7.94-0.02,11.28,2.2c3.35,2.21,5.63,5.6,6.43,9.53c0.8,3.93,0.02,7.94-2.2,11.28
			c-2.22,3.35-5.6,5.63-9.53,6.43C920.13-145.31,919.13-145.21,918.14-145.21z M918.18-173.09c-0.86,0-1.73,0.09-2.59,0.26
			c-3.37,0.68-6.26,2.64-8.16,5.5c-1.9,2.86-2.56,6.29-1.88,9.66l0,0c0.68,3.37,2.64,6.26,5.5,8.16c2.86,1.89,6.29,2.56,9.66,1.88
			c3.37-0.68,6.26-2.64,8.16-5.5c1.9-2.86,2.56-6.29,1.88-9.66c-0.68-3.37-2.64-6.26-5.5-8.16
			C923.11-172.36,920.67-173.09,918.18-173.09z"/>
	</g>
	<g>
		<path class="st0" d="M332.15,491.09c-0.64,0-1.28-0.09-1.91-0.28c-1.72-0.51-3.14-1.66-4-3.23c-0.86-1.58-1.05-3.4-0.54-5.12
			c0.51-1.72,1.66-3.14,3.23-4c1.58-0.86,3.4-1.05,5.12-0.54c1.72,0.51,3.15,1.66,4,3.23c0.86,1.58,1.05,3.4,0.54,5.12
			c-0.51,1.72-1.66,3.14-3.23,4C334.36,490.81,333.26,491.09,332.15,491.09z M332.14,479.8c-0.75,0-1.5,0.19-2.17,0.56
			c-1.07,0.58-1.85,1.55-2.19,2.72c-0.34,1.17-0.21,2.4,0.37,3.47c0.58,1.07,1.55,1.85,2.72,2.19c1.16,0.34,2.4,0.22,3.47-0.37
			c1.07-0.58,1.85-1.55,2.19-2.72c0.34-1.17,0.21-2.4-0.37-3.47c-0.58-1.07-1.55-1.85-2.72-2.19l0,0
			C333.01,479.86,332.57,479.8,332.14,479.8z"/>
	</g>
	<g>
		<path class="st0" d="M243.13,139.4c-2.1,0-4.12-0.71-5.77-2.05c-1.92-1.54-3.12-3.74-3.38-6.19l0,0
			c-0.54-5.05,3.13-9.6,8.19-10.15c2.42-0.27,4.85,0.44,6.77,1.99c1.92,1.54,3.11,3.75,3.38,6.2c0.26,2.45-0.45,4.85-1.99,6.77
			c-1.55,1.92-3.75,3.11-6.2,3.38C243.79,139.38,243.46,139.4,243.13,139.4z M243.15,123.12c-0.25,0-0.5,0.01-0.76,0.04
			c-3.87,0.41-6.68,3.9-6.26,7.77l0,0c0.2,1.87,1.12,3.56,2.58,4.74c1.46,1.18,3.3,1.72,5.18,1.52c1.87-0.2,3.56-1.12,4.74-2.58
			c1.18-1.47,1.73-3.31,1.53-5.18C249.78,125.82,246.71,123.12,243.15,123.12z"/>
	</g>
	<g>
		<path class="st0" d="M182.24,538.33c-0.94,0-1.9-0.22-2.8-0.68c-1.45-0.75-2.51-2.02-3.01-3.57c-0.49-1.55-0.35-3.2,0.4-4.65
			c1.55-2.99,5.23-4.15,8.22-2.61c1.45,0.75,2.51,2.02,3.01,3.57c0.49,1.55,0.35,3.2-0.4,4.65
			C186.58,537.13,184.45,538.33,182.24,538.33z M182.25,528.3c-1.42,0-2.8,0.78-3.5,2.12c-0.48,0.93-0.57,2-0.26,3
			c0.32,1,1.01,1.82,1.94,2.3c1.91,1,4.3,0.24,5.3-1.68c1-1.93,0.24-4.3-1.68-5.3C183.48,528.44,182.86,528.3,182.25,528.3z"/>
	</g>
	<g>
		<path class="st0" d="M184.82-262.85c-5.24,0-10.5-1.83-14.73-5.56c-4.47-3.94-7.14-9.38-7.52-15.33
			c-0.38-5.94,1.58-11.68,5.52-16.15c3.94-4.47,9.38-7.14,15.32-7.52c5.94-0.4,11.68,1.59,16.15,5.52
			c4.47,3.94,7.14,9.38,7.52,15.33c0.38,5.94-1.58,11.68-5.52,16.15l0,0C197.16-265.41,191-262.85,184.82-262.85z M184.86-305.28
			c-0.43,0-0.87,0.01-1.3,0.04c-5.37,0.34-10.28,2.75-13.84,6.79c-7.34,8.33-6.53,21.08,1.8,28.43c8.34,7.34,21.09,6.53,28.43-1.8
			l0,0c3.55-4.04,5.33-9.22,4.99-14.59c-0.34-5.37-2.75-10.28-6.79-13.84C194.43-303.52,189.76-305.28,184.86-305.28z
			 M200.76-271.12h0.03H200.76z"/>
	</g>
	<g>
		<path class="st0" d="M1121.06,748.26c-2.23,0-4.45-0.94-6.01-2.76c-1.37-1.6-2.03-3.65-1.87-5.75c0.17-2.1,1.14-4.01,2.75-5.38
			c1.6-1.37,3.62-2.02,5.74-1.87c2.1,0.16,4.02,1.14,5.38,2.74c1.37,1.6,2.03,3.65,1.87,5.75c-0.17,2.1-1.14,4.01-2.74,5.38
			C1124.7,747.64,1122.88,748.26,1121.06,748.26z M1121.05,734.63c-1.36,0-2.67,0.48-3.71,1.37c0,0,0,0,0,0
			c-1.16,1-1.87,2.38-1.99,3.91c-0.12,1.53,0.36,3.01,1.36,4.17c2.05,2.4,5.68,2.69,8.08,0.64c1.16-0.99,1.87-2.38,1.99-3.91
			c0.12-1.53-0.36-3.01-1.36-4.17c-1-1.16-2.38-1.87-3.91-1.99C1121.35,734.64,1121.2,734.63,1121.05,734.63z M1116.63,735.19h0.03
			H1116.63z"/>
	</g>
	<g>
		<path class="st0" d="M1114.79-150.39c-6.38,0-12.56-3.37-15.85-9.34l0,0c-4.81-8.72-1.63-19.74,7.1-24.55
			c4.23-2.33,9.11-2.87,13.74-1.54c4.64,1.34,8.47,4.41,10.8,8.63c4.81,8.72,1.63,19.74-7.09,24.55
			C1120.72-151.11,1117.73-150.39,1114.79-150.39z M1100.83-160.78c4.24,7.68,13.92,10.48,21.61,6.25
			c7.68-4.23,10.48-13.93,6.24-21.61c-2.05-3.72-5.43-6.42-9.51-7.6c-4.08-1.18-8.38-0.7-12.1,1.35
			C1099.4-178.15,1096.59-168.46,1100.83-160.78L1100.83-160.78z"/>
	</g>
	<g>
		<path class="st0" d="M91.43-235.87c-0.39,0-0.76-0.21-0.96-0.58c-0.28-0.53-0.08-1.18,0.45-1.46l4.05-2.13
			c0.53-0.28,1.18-0.08,1.46,0.45c0.28,0.53,0.08,1.18-0.45,1.46L91.94-236C91.78-235.91,91.61-235.87,91.43-235.87z"/>
	</g>
	<g>
		<path class="st0" d="M1079.25-390.43c-0.27,0-0.54-0.1-0.75-0.3l-3.26-3.14c-0.43-0.42-0.44-1.1-0.03-1.53
			c0.42-0.43,1.1-0.44,1.53-0.03l3.26,3.14c0.43,0.42,0.44,1.1,0.03,1.53C1079.82-390.54,1079.53-390.43,1079.25-390.43z"/>
	</g>
	<g>
		<path class="st0" d="M987.34-157.85c-0.43,0-0.83-0.25-1-0.67l-0.71-1.75c-0.23-0.55,0.04-1.19,0.59-1.41
			c0.55-0.23,1.18,0.04,1.41,0.59l0.71,1.75c0.23,0.55-0.04,1.19-0.59,1.41C987.61-157.88,987.47-157.85,987.34-157.85z"/>
	</g>
	<g>
		<path class="st0" d="M-62.66-383.47c-0.43,0-0.83-0.25-1-0.67c-0.23-0.55,0.04-1.18,0.59-1.41l0.84-0.34
			c0.55-0.22,1.18,0.04,1.41,0.59c0.23,0.55-0.04,1.18-0.59,1.41l-0.84,0.34C-62.38-383.5-62.52-383.47-62.66-383.47z"/>
	</g>
	<g>
		<path class="st0" d="M504.93,749.51c-0.01,0-0.02,0-0.03,0c-0.6-0.01-1.07-0.51-1.05-1.11l0.1-3.97c0.02-0.6,0.38-1.08,1.11-1.05
			c0.6,0.01,1.07,0.51,1.05,1.11l-0.1,3.97C505.99,749.05,505.51,749.51,504.93,749.51z"/>
	</g>
	<g>
		<path class="st0" d="M-62.76,184.18c-0.24,0-0.48-0.08-0.68-0.24c-0.46-0.38-0.53-1.06-0.15-1.52l0.81-0.99
			c0.38-0.46,1.06-0.53,1.52-0.15c0.46,0.38,0.53,1.06,0.15,1.52l-0.81,0.99C-62.14,184.04-62.45,184.18-62.76,184.18z"/>
	</g>
	<g>
		<path class="st0" d="M718.16,100.26c-0.46,0-0.88-0.29-1.03-0.75l-1.4-4.37c-0.18-0.57,0.13-1.18,0.7-1.36
			c0.57-0.19,1.18,0.13,1.36,0.7l1.4,4.37c0.18,0.57-0.13,1.18-0.7,1.36C718.38,100.25,718.27,100.26,718.16,100.26z"/>
	</g>
	<g>
		<path class="st0" d="M392.3,359.97c-0.46,0-0.89-0.3-1.03-0.76l-1.48-4.73c-0.18-0.57,0.14-1.18,0.71-1.36
			c0.57-0.18,1.18,0.14,1.36,0.71l1.48,4.73c0.18,0.57-0.14,1.18-0.71,1.36C392.51,359.96,392.41,359.97,392.3,359.97z"/>
	</g>
	<g>
		<path class="st0" d="M108.88,537.66c-0.19,0-0.38-0.05-0.56-0.15l-1.41-0.85c-0.51-0.31-0.68-0.97-0.37-1.49
			c0.31-0.51,0.97-0.67,1.49-0.37l1.41,0.85c0.51,0.31,0.68,0.97,0.37,1.49C109.6,537.47,109.24,537.66,108.88,537.66z"/>
	</g>
	<g>
		<path class="st0" d="M155.11,479.66c-0.06,0-0.12,0-0.19-0.02l-2.84-0.49c-0.59-0.1-0.98-0.66-0.88-1.25
			c0.1-0.59,0.66-1.01,1.25-0.88l2.84,0.49c0.59,0.1,0.98,0.66,0.88,1.25C156.08,479.28,155.63,479.66,155.11,479.66z"/>
	</g>
	<g>
		<path class="st0" d="M279.19,422.07c-0.21,0-0.42-0.06-0.6-0.18c-0.5-0.33-0.63-1.01-0.3-1.5l0.73-1.09
			c0.34-0.5,1.02-0.63,1.5-0.3c0.5,0.33,0.63,1.01,0.3,1.5l-0.73,1.09C279.88,421.9,279.54,422.07,279.19,422.07z"/>
	</g>
	<g>
		<path class="st0" d="M486.1,687.25c-0.06,0-0.12,0-0.18-0.01c-0.59-0.1-0.99-0.66-0.89-1.25l0.4-2.39
			c0.1-0.59,0.67-0.98,1.25-0.89c0.59,0.1,0.99,0.66,0.89,1.25l-0.4,2.39C487.07,686.87,486.62,687.25,486.1,687.25z"/>
	</g>
	<g>
		<path class="st0" d="M343.8,413.34c-0.32,0-0.63-0.14-0.84-0.41l-0.69-0.86c-0.37-0.46-0.3-1.15,0.17-1.52
			c0.46-0.37,1.15-0.3,1.52,0.17l0.69,0.86c0.37,0.46,0.3,1.15-0.17,1.52C344.27,413.26,344.04,413.34,343.8,413.34z"/>
	</g>
	<g>
		<path class="st0" d="M-54.52,651.41c-0.22,0-0.44-0.07-0.63-0.2c-0.48-0.35-0.59-1.03-0.24-1.51l0.84-1.16
			c0.35-0.48,1.02-0.6,1.51-0.24c0.48,0.35,0.59,1.02,0.24,1.51l-0.84,1.16C-53.86,651.25-54.19,651.41-54.52,651.41z"/>
	</g>
	<g>
		<path class="st0" d="M21.63,791.45c-0.08,0-0.17-0.01-0.25-0.03l-0.87-0.21c-0.58-0.14-0.94-0.72-0.8-1.3
			c0.14-0.58,0.71-0.96,1.3-0.8l0.87,0.21c0.58,0.14,0.94,0.72,0.8,1.3C22.57,791.12,22.12,791.45,21.63,791.45z"/>
	</g>
	<g>
		<path class="st0" d="M108.42-306.14c-0.44,0-0.86-0.27-1.02-0.71c-0.21-0.56,0.08-1.18,0.65-1.39l0.78-0.28
			c0.56-0.2,1.18,0.09,1.39,0.65c0.21,0.56-0.08,1.18-0.65,1.39l-0.78,0.28C108.67-306.16,108.54-306.14,108.42-306.14z"/>
	</g>
	<g>
		<path class="st0" d="M686.92-294.05c-0.06,0-0.12,0-0.19-0.01l-3.41-0.59c-0.59-0.1-0.98-0.66-0.88-1.25
			c0.1-0.59,0.65-0.99,1.25-0.88l3.41,0.59c0.59,0.1,0.98,0.66,0.88,1.25C687.89-294.42,687.44-294.05,686.92-294.05z"/>
	</g>
	<g>
		<path class="st0" d="M98.56,640.75c-0.54,0-1.01-0.41-1.07-0.96l-0.5-4.29c-0.07-0.59,0.36-1.13,0.95-1.2
			c0.58-0.05,1.13,0.36,1.2,0.95l0.5,4.29c0.07,0.59-0.36,1.13-0.95,1.2C98.65,640.75,98.6,640.75,98.56,640.75z"/>
	</g>
	<g>
		<path class="st0" d="M562.6-262.16c-0.39,0-0.77-0.21-0.96-0.59c-0.27-0.53-0.07-1.19,0.46-1.46l1.97-1.01
			c0.53-0.27,1.19-0.06,1.46,0.47c0.27,0.53,0.07,1.19-0.46,1.46l-1.97,1.01C562.93-262.2,562.76-262.16,562.6-262.16z"/>
	</g>
	<g>
		<path class="st0" d="M926.19-234.58c-0.04,0-0.09,0-0.13-0.01l-2.16-0.26c-0.59-0.07-1.02-0.61-0.94-1.2
			c0.07-0.59,0.64-1.03,1.2-0.94l2.16,0.26c0.59,0.07,1.02,0.61,0.94,1.2C927.19-234.98,926.72-234.58,926.19-234.58z"/>
	</g>
	<g>
		<path class="st0" d="M1125.22,297.53c-0.11,0-0.22-0.02-0.33-0.05c-0.57-0.18-0.88-0.79-0.7-1.36l0.81-2.5
			c0.18-0.56,0.79-0.87,1.36-0.7c0.57,0.18,0.88,0.79,0.7,1.36l-0.81,2.5C1126.1,297.24,1125.68,297.53,1125.22,297.53z"/>
	</g>
	<g>
		<path class="st0" d="M217.79-208.31c-0.04,0-0.07,0-0.11-0.01l-2.4-0.24c-0.59-0.06-1.03-0.59-0.97-1.18
			c0.06-0.59,0.58-1.03,1.18-0.97l2.4,0.24c0.59,0.06,1.03,0.59,0.97,1.18C218.81-208.73,218.34-208.31,217.79-208.31z"/>
	</g>
	<g>
		<path class="st0" d="M1121.4,677.17c-0.39,0-0.78-0.22-0.97-0.59c-0.27-0.53-0.06-1.18,0.48-1.45l1.18-0.6
			c0.53-0.26,1.19-0.05,1.45,0.48c0.27,0.53,0.06,1.18-0.48,1.45l-1.18,0.6C1121.73,677.13,1121.56,677.17,1121.4,677.17z"/>
	</g>
	<g>
		<path class="st0" d="M498.07,800.79C498.06,800.79,498.06,800.79,498.07,800.79l-1.73-0.01c-0.6,0-1.08-0.49-1.07-1.09
			c0-0.6,0.43-1.05,1.09-1.07l1.72,0.01c0.6,0,1.08,0.49,1.07,1.09C499.14,800.32,498.66,800.79,498.07,800.79z"/>
	</g>
	<g>
		<path class="st0" d="M964.08,688.59c-0.53,0-0.99-0.39-1.07-0.93c-0.08-0.59,0.33-1.14,0.92-1.22l0.85-0.12
			c0.56-0.08,1.14,0.33,1.22,0.92c0.08,0.59-0.33,1.14-0.92,1.22l-0.85,0.12C964.18,688.59,964.13,688.59,964.08,688.59z"/>
	</g>
	<g>
		<path class="st0" d="M610.59,130.94c-0.21,0-0.42-0.06-0.61-0.19c-0.49-0.34-0.62-1.01-0.28-1.5l2.64-3.85
			c0.34-0.49,1.01-0.62,1.5-0.28c0.49,0.34,0.62,1.01,0.28,1.5l-2.64,3.85C611.27,130.77,610.93,130.94,610.59,130.94z"/>
	</g>
	<g>
		<path class="st0" d="M656.9,328.67c-0.2,0-0.4-0.05-0.57-0.16c-0.51-0.32-0.66-0.99-0.34-1.49l0.6-0.95
			c0.32-0.51,0.99-0.66,1.49-0.34c0.51,0.32,0.66,0.99,0.34,1.49l-0.6,0.95C657.61,328.49,657.25,328.67,656.9,328.67z"/>
	</g>
	<g>
		<path class="st0" d="M-3.82,456.99c-0.16,0-0.33-0.04-0.48-0.11c-0.53-0.27-0.75-0.92-0.49-1.45l1.05-2.1
			c0.26-0.54,0.92-0.76,1.45-0.49c0.53,0.27,0.75,0.92,0.49,1.45l-1.05,2.1C-3.04,456.77-3.43,456.99-3.82,456.99z"/>
	</g>
	<g>
		<path class="st0" d="M206.73-379.33c-0.29,0-0.58-0.12-0.79-0.34l-0.9-0.96c-0.41-0.44-0.38-1.12,0.05-1.53
			c0.43-0.41,1.12-0.38,1.53,0.05l0.9,0.96c0.41,0.44,0.38,1.12-0.05,1.53C207.26-379.43,207-379.33,206.73-379.33z"/>
	</g>
	<g>
		<path class="st0" d="M529.12,551.46c-0.02,0-0.03,0-0.05,0c-0.6-0.03-1.06-0.53-1.03-1.13l0.07-1.59c0.03-0.6,0.52-1.13,1.13-1.03
			c0.6,0.03,1.06,0.53,1.03,1.13l-0.07,1.59C530.17,551.01,529.69,551.46,529.12,551.46z"/>
	</g>
	<g>
		<path class="st0" d="M544.67,717.6c-0.17,0-0.33-0.04-0.49-0.12l-1.15-0.59c-0.53-0.27-0.74-0.92-0.47-1.46
			c0.27-0.53,0.93-0.74,1.46-0.47l1.15,0.59c0.53,0.27,0.74,0.92,0.47,1.46C545.44,717.39,545.06,717.6,544.67,717.6z"/>
	</g>
	<g>
		<path class="st0" d="M439.09,377.36c-0.24,0-0.49-0.08-0.69-0.25c-0.46-0.38-0.52-1.07-0.14-1.52l2.48-2.97
			c0.38-0.46,1.07-0.52,1.52-0.14c0.46,0.38,0.52,1.07,0.14,1.52l-2.48,2.97C439.71,377.23,439.4,377.36,439.09,377.36z"/>
	</g>
	<g>
		<path class="st0" d="M418.13,574.97c-0.08,0-0.15-0.01-0.23-0.02c-0.59-0.12-0.96-0.7-0.83-1.28l0.65-3.06
			c0.12-0.59,0.71-0.95,1.28-0.83c0.59,0.12,0.96,0.7,0.83,1.28l-0.65,3.06C419.08,574.62,418.63,574.97,418.13,574.97z"/>
	</g>
	<g>
		<path class="st0" d="M279.28-65.11c-0.45,0-0.87-0.28-1.02-0.73l-1.45-4.23c-0.19-0.56,0.11-1.18,0.67-1.37
			c0.56-0.2,1.18,0.11,1.37,0.67l1.45,4.23c0.19,0.56-0.11,1.18-0.67,1.37C279.51-65.13,279.39-65.11,279.28-65.11z"/>
	</g>
	<g>
		<path class="st0" d="M141.54,589.6c-0.46,0-0.89-0.3-1.03-0.76c-0.18-0.57,0.14-1.18,0.71-1.35l1.02-0.32
			c0.57-0.18,1.18,0.14,1.35,0.71c0.18,0.57-0.14,1.18-0.71,1.35l-1.02,0.31C141.76,589.59,141.65,589.6,141.54,589.6z"/>
	</g>
	<g>
		<path class="st0" d="M604.38,349.78c-0.29,0-0.59-0.12-0.8-0.36c-0.4-0.44-0.37-1.13,0.07-1.53l0.81-0.74
			c0.44-0.4,1.13-0.37,1.53,0.07c0.4,0.44,0.37,1.13-0.07,1.53l-0.81,0.74C604.9,349.69,604.64,349.78,604.38,349.78z"/>
	</g>
	<g>
		<path class="st0" d="M427.91-391.83c-0.29,0-0.58-0.12-0.79-0.34l-1.12-1.2c-0.41-0.44-0.38-1.12,0.05-1.53
			c0.44-0.41,1.12-0.38,1.53,0.05l1.12,1.2c0.41,0.44,0.38,1.12-0.05,1.53C428.44-391.92,428.18-391.83,427.91-391.83z"/>
	</g>
	<g>
		<path class="st0" d="M1126.37,565.51c-0.11,0-0.22-0.02-0.33-0.05c-0.57-0.18-0.89-0.79-0.7-1.36l1.09-3.42
			c0.18-0.57,0.79-0.89,1.36-0.7c0.57,0.18,0.89,0.79,0.7,1.36l-1.09,3.42C1127.25,565.21,1126.83,565.51,1126.37,565.51z"/>
	</g>
	<g>
		<path class="st0" d="M922.39-286.66c-0.39,0-0.77-0.21-0.96-0.58l-0.61-1.18c-0.28-0.53-0.07-1.18,0.46-1.46
			c0.53-0.27,1.18-0.07,1.46,0.46l0.61,1.18c0.28,0.53,0.07,1.18-0.46,1.46C922.73-286.7,922.55-286.66,922.39-286.66z"/>
	</g>
	<g>
		<path class="st0" d="M916.56,505.24c-0.48,0-0.93-0.33-1.05-0.82c-0.15-0.58,0.21-1.17,0.78-1.31l1.18-0.3
			c0.58-0.16,1.17,0.21,1.31,0.78c0.15,0.58-0.21,1.17-0.78,1.31l-1.18,0.3C916.73,505.23,916.64,505.24,916.56,505.24z"/>
	</g>
	<g>
		<path class="st0" d="M560.3,664.4c-0.17,0-0.34-0.04-0.5-0.12l-4.5-2.34c-0.53-0.27-0.74-0.93-0.46-1.46
			c0.27-0.53,0.93-0.74,1.46-0.46l4.5,2.34c0.53,0.27,0.74,0.93,0.46,1.46C561.07,664.18,560.69,664.4,560.3,664.4z"/>
	</g>
	<g>
		<path class="st0" d="M431.95,249.63c-0.14,0-0.28-0.03-0.42-0.08l-3.21-1.34c-0.55-0.23-0.81-0.86-0.58-1.42
			c0.23-0.56,0.87-0.8,1.42-0.58l3.21,1.34c0.55,0.23,0.81,0.86,0.58,1.42C432.77,249.38,432.37,249.63,431.95,249.63z"/>
	</g>
	<g>
		<path class="st0" d="M278.66-206.79c-0.15,0-0.31-0.03-0.46-0.1l-1.28-0.6c-0.54-0.25-0.77-0.9-0.52-1.44
			c0.25-0.54,0.9-0.77,1.44-0.52l1.28,0.6c0.54,0.25,0.77,0.9,0.52,1.44C279.46-207.02,279.07-206.79,278.66-206.79z"/>
	</g>
	<g>
		<path class="st0" d="M767.35,649.27c-0.4,0-0.79-0.23-0.98-0.62c-0.26-0.54-0.03-1.19,0.51-1.44l3.37-1.6
			c0.53-0.26,1.19-0.03,1.44,0.51c0.26,0.54,0.03,1.19-0.51,1.44l-3.37,1.6C767.67,649.24,767.51,649.27,767.35,649.27z"/>
	</g>
	<g>
		<path class="st0" d="M1129.16-267.7c-0.3,0-0.6-0.12-0.82-0.37l-2.95-3.38c-0.39-0.45-0.35-1.13,0.1-1.53
			c0.45-0.39,1.13-0.35,1.53,0.1l2.95,3.38c0.39,0.45,0.35,1.13-0.1,1.53C1129.66-267.79,1129.41-267.7,1129.16-267.7z"/>
	</g>
	<g>
		<path class="st0" d="M69.28,586.04c-0.13,0-0.26-0.02-0.39-0.07c-0.56-0.21-0.84-0.84-0.62-1.4l0.89-2.33
			c0.21-0.56,0.84-0.84,1.4-0.62c0.56,0.21,0.84,0.84,0.62,1.4l-0.89,2.33C70.12,585.78,69.71,586.04,69.28,586.04z"/>
	</g>
	<g>
		<path class="st0" d="M349.25,559.2c-0.41,0-0.8-0.23-0.98-0.62l-0.42-0.9c-0.25-0.54-0.02-1.19,0.52-1.44
			c0.54-0.26,1.19-0.02,1.44,0.52l0.42,0.9c0.25,0.54,0.02,1.19-0.52,1.44C349.56,559.16,349.4,559.2,349.25,559.2z"/>
	</g>
	<g>
		<path class="st0" d="M368.25,785.32c-0.2,0-0.4-0.05-0.58-0.17c-0.5-0.32-0.65-0.99-0.33-1.49l0.76-1.18
			c0.32-0.51,0.99-0.65,1.49-0.33c0.5,0.32,0.65,0.99,0.33,1.49l-0.76,1.18C368.95,785.15,368.6,785.32,368.25,785.32z"/>
	</g>
	<g>
		<path class="st0" d="M1120.73,508.61c-0.04,0-0.09,0-0.13-0.01c-0.59-0.07-1.02-0.61-0.94-1.2l0.43-3.57
			c0.07-0.59,0.65-1.01,1.2-0.94c0.59,0.07,1.02,0.61,0.94,1.2l-0.43,3.57C1121.73,508.21,1121.27,508.61,1120.73,508.61z"/>
	</g>
	<g>
		<path class="st0" d="M465.92-245.25c-0.07,0-0.15-0.01-0.23-0.03c-0.59-0.12-0.96-0.7-0.83-1.28l0.7-3.22
			c0.12-0.58,0.69-0.96,1.28-0.83c0.59,0.12,0.96,0.7,0.83,1.28l-0.7,3.23C466.86-245.6,466.41-245.25,465.92-245.25z"/>
	</g>
	<g>
		<path class="st0" d="M-61.77,457.02c-0.25,0-0.49-0.08-0.69-0.25l-1.35-1.12c-0.46-0.38-0.52-1.07-0.14-1.52
			c0.39-0.46,1.07-0.52,1.52-0.14l1.35,1.12c0.46,0.38,0.52,1.07,0.14,1.52C-61.16,456.88-61.46,457.02-61.77,457.02z"/>
	</g>
	<g>
		<path class="st0" d="M494.5-26.91c-0.32,0-0.65-0.15-0.86-0.42c-0.36-0.47-0.27-1.15,0.2-1.51l0.9-0.69
			c0.46-0.37,1.15-0.28,1.52,0.2c0.36,0.47,0.27,1.15-0.2,1.52l-0.9,0.69C494.96-26.98,494.73-26.91,494.5-26.91z"/>
	</g>
	<g>
		<path class="st0" d="M895.25,155.27c-0.16,0-0.32-0.03-0.47-0.11c-0.54-0.26-0.76-0.91-0.5-1.45l0.9-1.87
			c0.26-0.54,0.91-0.76,1.45-0.5c0.54,0.26,0.76,0.91,0.5,1.45l-0.9,1.87C896.04,155.05,895.65,155.27,895.25,155.27z"/>
	</g>
	<g>
		<path class="st0" d="M932.05,286.52c-0.56,0-1.03-0.43-1.08-1c-0.04-0.6,0.4-1.12,1-1.16l3.13-0.24c0.58-0.05,1.12,0.4,1.16,1
			c0.04,0.6-0.4,1.12-1,1.16l-3.13,0.24C932.11,286.52,932.08,286.52,932.05,286.52z"/>
	</g>
	<g>
		<path class="st0" d="M994.66-19.52c-0.42,0-0.82-0.24-0.99-0.65c-0.24-0.55,0.01-1.19,0.56-1.42l1.01-0.44
			c0.54-0.24,1.18,0.01,1.42,0.56c0.24,0.55-0.01,1.19-0.56,1.42l-1.01,0.44C994.95-19.55,994.8-19.52,994.66-19.52z"/>
	</g>
	<g>
		<path class="st0" d="M740.27,596.89c-0.05,0-0.09,0-0.14-0.01l-1.52-0.19c-0.59-0.08-1.01-0.62-0.94-1.21
			c0.08-0.59,0.63-1.02,1.21-0.94l1.52,0.19c0.59,0.08,1.01,0.62,0.94,1.21C741.27,596.49,740.81,596.89,740.27,596.89z"/>
	</g>
	<g>
		<path class="st0" d="M-62.82,397.16c-0.18,0-0.36-0.04-0.53-0.14c-0.52-0.29-0.71-0.95-0.42-1.47l1.37-2.44
			c0.29-0.53,0.95-0.71,1.47-0.42c0.52,0.29,0.71,0.95,0.42,1.47l-1.37,2.44C-62.07,396.96-62.44,397.16-62.82,397.16z"/>
	</g>
	<g>
		<path class="st0" d="M444.98,309.87c-0.26,0-0.52-0.09-0.73-0.28l-1.7-1.55c-0.44-0.4-0.47-1.09-0.07-1.53
			c0.4-0.44,1.09-0.47,1.53-0.07l1.7,1.55c0.44,0.4,0.47,1.09,0.07,1.53C445.56,309.75,445.27,309.87,444.98,309.87z"/>
	</g>
	<g>
		<path class="st0" d="M1128.68,372.61c-0.23,0-0.46-0.07-0.66-0.22l-2.08-1.6c-0.48-0.36-0.56-1.04-0.2-1.52
			c0.36-0.48,1.05-0.57,1.52-0.2l2.08,1.6c0.48,0.36,0.56,1.04,0.2,1.51C1129.33,372.46,1129.01,372.61,1128.68,372.61z"/>
	</g>
	<g>
		<path class="st0" d="M877.63,470.95c-0.27,0-0.54-0.1-0.75-0.3c-0.43-0.41-0.45-1.1-0.03-1.53l1.67-1.75
			c0.42-0.43,1.1-0.45,1.53-0.03c0.43,0.41,0.45,1.1,0.03,1.53l-1.67,1.75C878.2,470.84,877.92,470.95,877.63,470.95z"/>
	</g>
	<g>
		<path class="st0" d="M313.1,796.71c-0.16,0-0.31-0.03-0.46-0.1c-0.54-0.26-0.77-0.9-0.52-1.44l0.59-1.24
			c0.26-0.54,0.9-0.77,1.44-0.52c0.54,0.26,0.77,0.9,0.52,1.44l-0.59,1.24C313.9,796.49,313.51,796.71,313.1,796.71z"/>
	</g>
	<g>
		<path class="st0" d="M1123.39,800.02c-0.07,0-0.14-0.01-0.21-0.02l-1.73-0.33c-0.59-0.11-0.97-0.68-0.86-1.27
			c0.11-0.59,0.68-0.97,1.27-0.86l1.73,0.33c0.59,0.11,0.97,0.68,0.86,1.27C1124.35,799.66,1123.9,800.02,1123.39,800.02z"/>
	</g>
	<g>
		<path class="st0" d="M931.52-345c-0.09,0-0.18-0.01-0.28-0.04c-0.58-0.15-0.92-0.74-0.77-1.32l0.22-0.85
			c0.15-0.57,0.74-0.93,1.32-0.77c0.58,0.15,0.92,0.74,0.77,1.32l-0.22,0.85C932.43-345.32,932-345,931.52-345z"/>
	</g>
	<g>
		<path class="st0" d="M730.22,683.49c-0.45,0-0.87-0.28-1.02-0.73c-0.19-0.56,0.11-1.18,0.67-1.37l0.78-0.27
			c0.57-0.2,1.18,0.11,1.37,0.67c0.19,0.56-0.11,1.18-0.67,1.37l-0.78,0.27C730.45,683.47,730.33,683.49,730.22,683.49z"/>
	</g>
	<g>
		<path class="st0" d="M1009.44,797.63c-0.29,0-0.59-0.12-0.8-0.35c-0.4-0.44-0.37-1.13,0.07-1.53l1.45-1.32
			c0.44-0.4,1.13-0.37,1.53,0.07c0.4,0.44,0.37,1.13-0.07,1.53l-1.45,1.32C1009.96,797.54,1009.7,797.63,1009.44,797.63z"/>
	</g>
	<g>
		<path class="st0" d="M458.9,634.2c-0.35,0-0.7-0.17-0.9-0.49l-0.55-0.83c-0.33-0.5-0.19-1.17,0.31-1.5
			c0.5-0.33,1.17-0.19,1.5,0.31l0.55,0.83c0.33,0.5,0.19,1.17-0.31,1.5C459.31,634.14,459.1,634.2,458.9,634.2z"/>
	</g>
	<g>
		<path class="st0" d="M1.74,189.97c-0.07,0-0.15-0.01-0.23-0.02c-0.58-0.13-0.96-0.7-0.83-1.29l0.65-3.02
			c0.13-0.58,0.69-0.95,1.29-0.83c0.58,0.13,0.96,0.7,0.83,1.29l-0.65,3.02C2.69,189.62,2.24,189.97,1.74,189.97z"/>
	</g>
	<g>
		<path class="st0" d="M839.7,512.38c-0.5,0-0.94-0.35-1.05-0.85c-0.13-0.59,0.24-1.16,0.83-1.29l0.82-0.18
			c0.6-0.12,1.16,0.24,1.29,0.83c0.13,0.59-0.24,1.16-0.83,1.29l-0.82,0.18C839.86,512.37,839.78,512.38,839.7,512.38z"/>
	</g>
	<g>
		<path class="st0" d="M87.22,343.09c-0.52,0-0.98-0.37-1.07-0.9c-0.1-0.59,0.3-1.15,0.89-1.24l0.96-0.16
			c0.57-0.11,1.15,0.3,1.24,0.89c0.1,0.59-0.3,1.15-0.89,1.24l-0.96,0.16C87.34,343.09,87.28,343.09,87.22,343.09z"/>
	</g>
	<g>
		<path class="st0" d="M896.38,102.94c-0.37,0-0.72-0.19-0.93-0.52l-1.09-1.81c-0.31-0.51-0.15-1.18,0.37-1.49
			c0.51-0.3,1.18-0.15,1.49,0.37l1.09,1.81c0.31,0.51,0.15,1.18-0.37,1.49C896.76,102.89,896.57,102.94,896.38,102.94z"/>
	</g>
	<g>
		<path class="st0" d="M515.01-235.12c-0.51,0-0.96-0.36-1.06-0.87c-0.12-0.59,0.26-1.16,0.85-1.27l1.62-0.32
			c0.6-0.12,1.16,0.26,1.27,0.85c0.12,0.59-0.26,1.16-0.85,1.27l-1.62,0.32C515.16-235.12,515.08-235.12,515.01-235.12z"/>
	</g>
	<g>
		<path class="st0" d="M1003.2,361.47c-0.16,0-0.33-0.04-0.48-0.11c-0.53-0.27-0.75-0.92-0.48-1.45l0.44-0.89
			c0.27-0.53,0.91-0.75,1.45-0.48c0.53,0.27,0.75,0.92,0.48,1.45l-0.44,0.89C1003.98,361.25,1003.59,361.47,1003.2,361.47z"/>
	</g>
	<g>
		<path class="st0" d="M281.15,548.74c-0.59,0-1.08-0.48-1.08-1.08c0-0.6,0.48-1.08,1.08-1.09l4.43-0.03c0,0,0,0,0.01,0
			c0.59,0,1.08,0.48,1.08,1.08c0,0.6-0.48,1.08-1.08,1.09L281.15,548.74C281.15,548.74,281.15,548.74,281.15,548.74z"/>
	</g>
	<g>
		<path class="st0" d="M551.04,380.23c-0.23,0-0.47-0.07-0.66-0.23l-0.78-0.61c-0.47-0.37-0.56-1.05-0.19-1.52
			c0.36-0.48,1.05-0.56,1.52-0.19l0.78,0.61c0.47,0.37,0.56,1.05,0.19,1.52C551.68,380.09,551.36,380.23,551.04,380.23z"/>
	</g>
	<g>
		<path class="st0" d="M1013.71,212.09c-0.59,0-1.07-0.47-1.08-1.06l-0.04-2.2c-0.01-0.6,0.46-1.09,1.06-1.1
			c0.61,0.05,1.09,0.46,1.1,1.06l0.04,2.2c0.01,0.6-0.46,1.09-1.06,1.1C1013.72,212.09,1013.71,212.09,1013.71,212.09z"/>
	</g>
	<g>
		<path class="st0" d="M966.09-387.07c-0.04,0-0.07,0-0.11-0.01l-4.04-0.4c-0.59-0.06-1.03-0.59-0.97-1.18
			c0.06-0.59,0.59-1.04,1.18-0.97l4.04,0.4c0.59,0.06,1.03,0.59,0.97,1.18C967.11-387.48,966.63-387.07,966.09-387.07z"/>
	</g>
	<g>
		<path class="st0" d="M-61.02-180.98c-0.32,0-0.64-0.14-0.85-0.41c-0.37-0.47-0.29-1.15,0.18-1.52l1.72-1.35
			c0.47-0.36,1.15-0.29,1.52,0.18c0.37,0.47,0.29,1.15-0.18,1.52l-1.72,1.35C-60.55-181.05-60.78-180.98-61.02-180.98z"/>
	</g>
	<g>
		<path class="st0" d="M481.15-138.04c-0.3,0-0.6-0.13-0.81-0.37l-2.14-2.44c-0.39-0.45-0.35-1.13,0.1-1.53
			c0.45-0.39,1.13-0.35,1.53,0.1l2.14,2.44c0.39,0.45,0.35,1.13-0.1,1.53C481.65-138.13,481.4-138.04,481.15-138.04z"/>
	</g>
	<g>
		<path class="st0" d="M445.65-194.15c-0.2,0-0.39-0.05-0.57-0.16l-0.96-0.6c-0.51-0.31-0.66-0.98-0.35-1.49
			c0.32-0.51,0.99-0.66,1.49-0.35l0.96,0.6c0.51,0.32,0.66,0.98,0.35,1.49C446.36-194.33,446.01-194.15,445.65-194.15z"/>
	</g>
	<g>
		<path class="st0" d="M649.83,503.7c-0.26,0-0.51-0.09-0.72-0.27c-0.45-0.4-0.49-1.08-0.1-1.53l1.19-1.34
			c0.4-0.45,1.08-0.49,1.53-0.1c0.45,0.4,0.49,1.08,0.1,1.53l-1.19,1.34C650.43,503.58,650.13,503.7,649.83,503.7z"/>
	</g>
	<g>
		<path class="st0" d="M399.98,517.54c-0.12,0-0.25-0.02-0.37-0.07l-0.95-0.35c-0.56-0.21-0.85-0.83-0.64-1.39
			c0.21-0.56,0.82-0.85,1.39-0.64l0.95,0.35c0.56,0.21,0.85,0.83,0.64,1.39C400.84,517.27,400.42,517.54,399.98,517.54z"/>
	</g>
	<g>
		<path class="st0" d="M1064.69,798.2c-0.38,0-0.75-0.21-0.95-0.57c-0.29-0.52-0.09-1.18,0.43-1.47l2.87-1.56
			c0.52-0.28,1.18-0.09,1.47,0.44c0.29,0.52,0.09,1.18-0.44,1.47l-2.87,1.56C1065.05,798.16,1064.87,798.2,1064.69,798.2z"/>
	</g>
	<g>
		<path class="st0" d="M886.82,305.85c-0.52,0-0.99-0.38-1.07-0.91l-0.31-2.01c-0.09-0.59,0.31-1.14,0.9-1.24
			c0.59-0.07,1.15,0.31,1.24,0.9l0.31,2.01c0.09,0.59-0.31,1.14-0.9,1.24C886.93,305.85,886.88,305.85,886.82,305.85z"/>
	</g>
	<g>
		<path class="st0" d="M1020.21-379.84c-0.18,0-0.36-0.04-0.53-0.14c-0.52-0.29-0.71-0.95-0.42-1.47l2.31-4.15
			c0.29-0.52,0.95-0.71,1.47-0.42c0.52,0.29,0.71,0.95,0.42,1.47l-2.31,4.15C1020.95-380.04,1020.58-379.84,1020.21-379.84z"/>
	</g>
	<g>
		<path class="st0" d="M948.29,81c-0.02,0-0.04,0-0.06,0l-3.28-0.19c-0.6-0.03-1.05-0.55-1.02-1.14s0.54-1.05,1.14-1.02l3.28,0.19
			c0.6,0.03,1.05,0.55,1.02,1.14C949.34,80.56,948.86,81,948.29,81z"/>
	</g>
	<g>
		<path class="st0" d="M1070.34,638.57c-0.13,0-0.26-0.02-0.39-0.07l-1.57-0.6c-0.56-0.21-0.84-0.84-0.62-1.4s0.84-0.83,1.4-0.62
			l1.57,0.6c0.56,0.21,0.84,0.84,0.62,1.4C1071.18,638.31,1070.77,638.57,1070.34,638.57z"/>
	</g>
	<g>
		<path class="st0" d="M995.16,49.07c-0.45,0-0.87-0.28-1.02-0.73l-0.78-2.24c-0.2-0.56,0.1-1.18,0.67-1.38
			c0.56-0.19,1.18,0.1,1.38,0.67l0.78,2.24c0.2,0.56-0.1,1.18-0.67,1.38C995.4,49.05,995.28,49.07,995.16,49.07z"/>
	</g>
</g>
</svg>
