<?xml version="1.0" encoding="utf-8"?>
<!-- Generator: Adobe Illustrator 26.0.1, SVG Export Plug-In . SVG Version: 6.00 Build 0)  -->
<svg version="1.1" id="Layer_1" xmlns="http://www.w3.org/2000/svg" xmlns:xlink="http://www.w3.org/1999/xlink" x="0px" y="0px"
	 viewBox="0 0 561.6 288" style="enable-background:new 0 0 561.6 288;" xml:space="preserve">
<style type="text/css">
	.st0{fill:#2C3742;}
	.st1{fill:#00FFFF;}
</style>
<g>
	<g>
		<path class="st0" d="M471.4,659.85c-0.12,0-0.24-0.02-0.37-0.06c-0.56-0.2-0.85-0.82-0.65-1.38l16.12-44.86
			c0.2-0.56,0.82-0.85,1.38-0.65c0.56,0.2,0.85,0.82,0.65,1.38l-16.12,44.86C472.26,659.58,471.85,659.85,471.4,659.85z"/>
	</g>
	<g>
		<path class="st0" d="M-39.15,922.28c-0.45,0-0.87-0.28-1.02-0.73l-5.79-16.89c-0.19-0.57,0.11-1.18,0.67-1.37
			c0.56-0.2,1.18,0.11,1.37,0.67l5.79,16.89c0.19,0.57-0.11,1.18-0.67,1.37C-38.91,922.26-39.03,922.28-39.15,922.28z"/>
	</g>
	<g>
		<path class="st0" d="M451.56,148.23c-0.4,0-0.79-0.23-0.98-0.62c-0.26-0.54-0.03-1.19,0.51-1.44l22.43-10.67
			c0.53-0.26,1.19-0.03,1.44,0.51c0.26,0.54,0.03,1.19-0.51,1.44l-22.43,10.67C451.88,148.2,451.72,148.23,451.56,148.23z"/>
	</g>
	<g>
		<path class="st0" d="M-253.01,50.33c-0.33,0-0.67-0.16-0.88-0.45l-13.28-18.38c-0.35-0.48-0.24-1.16,0.24-1.51
			c0.48-0.35,1.16-0.24,1.51,0.24l13.28,18.38c0.35,0.48,0.24,1.16-0.24,1.51C-252.57,50.27-252.79,50.33-253.01,50.33z"/>
	</g>
	<g>
		<path class="st0" d="M371.93,969.59c-0.01,0-0.02,0-0.03,0c-0.6-0.02-1.07-0.52-1.05-1.12l2.17-67.65c0.02-0.59,0.51-1,1.12-1.05
			c0.6,0.02,1.07,0.52,1.05,1.12l-2.17,67.65C372.99,969.13,372.51,969.59,371.93,969.59z"/>
	</g>
	<g>
		<path class="st0" d="M616.87-4.04c-0.55,0-1.02-0.42-1.08-0.98l-2.21-22.56c-0.06-0.59,0.38-1.12,0.97-1.18
			c0.61-0.02,1.12,0.38,1.18,0.97l2.21,22.56c0.06,0.59-0.38,1.12-0.97,1.18C616.94-4.04,616.91-4.04,616.87-4.04z"/>
	</g>
	<g>
		<path class="st0" d="M-567.82,889.01c-0.17,0-0.33-0.04-0.49-0.12c-0.53-0.27-0.75-0.92-0.48-1.45l9.95-19.71
			c0.27-0.53,0.92-0.75,1.45-0.48c0.53,0.27,0.75,0.92,0.48,1.45l-9.95,19.71C-567.04,888.79-567.42,889.01-567.82,889.01z"/>
	</g>
	<g>
		<path class="st0" d="M-239.83,707.94c-0.02,0-0.04,0-0.05,0l-64.89-3.32c-0.6-0.03-1.06-0.54-1.02-1.13
			c0.03-0.6,0.47-1.08,1.13-1.02l64.89,3.32c0.6,0.03,1.06,0.54,1.02,1.13C-238.78,707.49-239.25,707.94-239.83,707.94z"/>
	</g>
	<g>
		<path class="st0" d="M274.35,957.64c-0.38,0-0.74-0.2-0.94-0.55c-0.3-0.52-0.11-1.18,0.41-1.48l48.47-27.53
			c0.52-0.3,1.18-0.12,1.47,0.41c0.3,0.52,0.11,1.18-0.41,1.47l-48.47,27.53C274.72,957.6,274.53,957.64,274.35,957.64z"/>
	</g>
	<g>
		<path class="st0" d="M24.19,554.5c-0.18,0-0.36-0.04-0.53-0.14l-12.82-7.13c-0.52-0.29-0.71-0.95-0.42-1.47
			c0.29-0.53,0.95-0.71,1.47-0.42l12.82,7.13c0.52,0.29,0.71,0.95,0.42,1.47C24.94,554.3,24.57,554.5,24.19,554.5z"/>
	</g>
	<g>
		<path class="st0" d="M-233.03,94.5c-0.5,0-0.96-0.35-1.06-0.87c-0.12-0.59,0.26-1.16,0.85-1.28l18.04-3.66
			c0.59-0.12,1.16,0.26,1.28,0.85c0.12,0.59-0.26,1.16-0.85,1.28l-18.04,3.66C-232.89,94.49-232.96,94.5-233.03,94.5z"/>
	</g>
	<g>
		<path class="st0" d="M135.26,624.44c-0.19,0-0.38-0.05-0.55-0.15c-0.52-0.3-0.69-0.97-0.38-1.48l11.76-20.02
			c0.3-0.52,0.97-0.69,1.48-0.38c0.52,0.3,0.69,0.97,0.38,1.48l-11.76,20.02C135.99,624.25,135.63,624.44,135.26,624.44z"/>
	</g>
	<g>
		<path class="st0" d="M435.04,908.77c-0.19,0-0.39-0.05-0.57-0.16c-0.51-0.31-0.67-0.98-0.36-1.49l33.85-55.11
			c0.31-0.51,0.97-0.67,1.49-0.36c0.51,0.31,0.67,0.98,0.35,1.49l-33.85,55.11C435.76,908.59,435.41,908.77,435.04,908.77z"/>
	</g>
	<g>
		<path class="st0" d="M-25.5,723.46c-0.2,0-0.4-0.05-0.58-0.17c-0.5-0.32-0.65-0.99-0.33-1.49l34.83-54.81
			c0.32-0.5,0.99-0.65,1.49-0.33c0.5,0.32,0.65,0.99,0.33,1.49l-34.83,54.81C-24.8,723.28-25.15,723.46-25.5,723.46z"/>
	</g>
	<g>
		<path class="st0" d="M-480.94,88.21c-0.13,0-0.27-0.02-0.4-0.08c-0.56-0.22-0.83-0.85-0.61-1.4l18.85-47.77
			c0.22-0.56,0.85-0.84,1.4-0.61c0.56,0.22,0.83,0.85,0.61,1.4l-18.85,47.77C-480.1,87.95-480.51,88.21-480.94,88.21z"/>
	</g>
	<g>
		<path class="st0" d="M245.89,494.52c-0.29,0-0.58-0.12-0.79-0.35c-0.41-0.44-0.38-1.12,0.06-1.53l12.94-11.96
			c0.44-0.41,1.12-0.38,1.53,0.06c0.41,0.44,0.38,1.12-0.06,1.53l-12.94,11.96C246.42,494.42,246.15,494.52,245.89,494.52z"/>
	</g>
	<g>
		<path class="st0" d="M237.02,23.55c-0.24,0-0.47-0.08-0.67-0.23l-42.08-33.46c-0.47-0.37-0.55-1.05-0.17-1.52
			c0.37-0.47,1.05-0.54,1.52-0.17l42.08,33.46c0.47,0.37,0.55,1.05,0.17,1.52C237.65,23.41,237.34,23.55,237.02,23.55z"/>
	</g>
	<g>
		<path class="st0" d="M58.66-20.18c-0.1,0-0.21-0.01-0.31-0.05c-0.57-0.17-0.9-0.77-0.72-1.35l5.31-17.74
			c0.17-0.57,0.77-0.9,1.35-0.72c0.57,0.17,0.9,0.77,0.72,1.35l-5.31,17.74C59.55-20.48,59.12-20.18,58.66-20.18z"/>
	</g>
	<g>
		<path class="st0" d="M615.07,602.05c-0.4,0-0.78-0.22-0.97-0.59l-14.94-29.52c-0.27-0.53-0.05-1.18,0.48-1.45
			c0.53-0.27,1.18-0.06,1.45,0.48l14.94,29.52c0.27,0.53,0.05,1.18-0.48,1.45C615.4,602.01,615.23,602.05,615.07,602.05z"/>
	</g>
	<g>
		<path class="st0" d="M350.85,140.66c-0.26,0-0.52-0.1-0.73-0.29c-0.44-0.41-0.47-1.09-0.06-1.53l14.6-15.87
			c0.41-0.44,1.09-0.46,1.53-0.06c0.44,0.41,0.47,1.09,0.06,1.53l-14.6,15.87C351.44,140.54,351.14,140.66,350.85,140.66z"/>
	</g>
	<g>
		<path class="st0" d="M385.62,1147.4c-0.29,0-0.58-0.12-0.8-0.35l-54.71-59.57c-0.4-0.44-0.38-1.12,0.07-1.53
			c0.44-0.4,1.12-0.37,1.53,0.07l54.71,59.57c0.4,0.44,0.38,1.12-0.07,1.53C386.15,1147.3,385.88,1147.4,385.62,1147.4z"/>
	</g>
	<g>
		<path class="st0" d="M390.92,1053.33c-0.23,0-0.45-0.07-0.65-0.21l-64.05-47.72c-0.48-0.36-0.58-1.04-0.22-1.52
			c0.36-0.48,1.04-0.57,1.52-0.22l64.05,47.72c0.48,0.36,0.58,1.04,0.22,1.52C391.58,1053.18,391.25,1053.33,390.92,1053.33z"/>
	</g>
	<g>
		<path class="st0" d="M-534.39,49.66c-0.11,0-0.23-0.02-0.35-0.06l-39.81-13.42c-0.57-0.19-0.87-0.81-0.68-1.37
			c0.19-0.56,0.8-0.86,1.37-0.68l39.81,13.42c0.57,0.19,0.87,0.8,0.68,1.37C-533.51,49.37-533.93,49.66-534.39,49.66z"/>
	</g>
	<g>
		<path class="st0" d="M-87.89,1153.97c-0.16,0-0.32-0.04-0.47-0.11c-0.54-0.26-0.76-0.91-0.5-1.45l29.91-61.44
			c0.26-0.54,0.92-0.75,1.45-0.5c0.54,0.26,0.76,0.91,0.5,1.45l-29.91,61.44C-87.11,1153.74-87.5,1153.97-87.89,1153.97z"/>
	</g>
	<g>
		<path class="st0" d="M102.01,588.05c-0.46,0-0.89-0.29-1.03-0.75L84.4,535.15c-0.18-0.57,0.13-1.18,0.7-1.36
			c0.57-0.18,1.18,0.14,1.36,0.7l16.58,52.14c0.18,0.57-0.13,1.18-0.7,1.36C102.23,588.03,102.12,588.05,102.01,588.05z"/>
	</g>
	<g>
		<path class="st0" d="M267.94,895.13c-0.06,0-0.11,0-0.17-0.01c-0.59-0.09-0.99-0.65-0.9-1.24l3.14-19.62
			c0.09-0.59,0.63-0.99,1.24-0.9c0.59,0.1,0.99,0.65,0.9,1.24L269,894.22C268.92,894.76,268.46,895.13,267.94,895.13z"/>
	</g>
	<g>
		<path class="st0" d="M-426.9-15.82c-0.46,0-0.89-0.3-1.04-0.77l-4.34-14.37c-0.17-0.57,0.15-1.18,0.72-1.35
			c0.57-0.17,1.18,0.15,1.35,0.72l4.34,14.37c0.17,0.57-0.15,1.17-0.72,1.35C-426.69-15.84-426.8-15.82-426.9-15.82z"/>
	</g>
	<g>
		<path class="st0" d="M326.95,521.99c-0.56,0-1.04-0.43-1.08-1l-6.21-83.34c-0.04-0.6,0.4-1.12,1-1.16c0.6-0.06,1.12,0.4,1.16,1
			l6.21,83.34c0.04,0.6-0.4,1.12-1,1.16C327,521.99,326.97,521.99,326.95,521.99z"/>
	</g>
	<g>
		<path class="st0" d="M236.13,562.87c-0.53,0-0.99-0.39-1.07-0.93c-0.08-0.59,0.33-1.14,0.92-1.23l59.08-8.52
			c0.58-0.08,1.14,0.32,1.23,0.92c0.08,0.59-0.33,1.14-0.92,1.23l-59.08,8.52C236.23,562.87,236.18,562.87,236.13,562.87z"/>
	</g>
	<g>
		<path class="st0" d="M46.92,216.84c-0.25,0-0.51-0.09-0.71-0.27l-46.59-40.95c-0.45-0.4-0.49-1.08-0.1-1.53
			c0.4-0.45,1.08-0.49,1.53-0.1l46.59,40.95c0.45,0.4,0.49,1.08,0.1,1.53C47.52,216.72,47.22,216.84,46.92,216.84z"/>
	</g>
	<g>
		<path class="st0" d="M-281.37,843.36c-0.59,0-1.07-0.47-1.08-1.06c-0.01-0.6,0.46-1.09,1.06-1.1l30.99-0.57
			c0.53-0.07,1.09,0.47,1.1,1.06c0.01,0.6-0.46,1.09-1.06,1.1l-30.99,0.57C-281.36,843.36-281.37,843.36-281.37,843.36z"/>
	</g>
	<g>
		<path class="st0" d="M509.3,465.46c-0.39,0-0.76-0.21-0.96-0.57l-8.18-15.45c-0.28-0.53-0.08-1.18,0.45-1.46
			c0.53-0.29,1.19-0.08,1.46,0.45l8.18,15.45c0.28,0.53,0.08,1.18-0.45,1.46C509.65,465.41,509.47,465.46,509.3,465.46z"/>
	</g>
	<g>
		<path class="st0" d="M-315.21,780.45c-0.42,0-0.83-0.25-1-0.67c-0.23-0.55,0.03-1.19,0.59-1.41l15.02-6.21
			c0.56-0.23,1.19,0.03,1.41,0.59c0.23,0.55-0.03,1.19-0.59,1.41l-15.02,6.21C-314.93,780.42-315.07,780.45-315.21,780.45z"/>
	</g>
	<g>
		<path class="st0" d="M520.64,289.44c-0.2,0-0.4-0.05-0.58-0.17l-71.85-46.04c-0.5-0.32-0.65-0.99-0.33-1.49
			c0.33-0.51,1-0.65,1.49-0.33l71.85,46.04c0.5,0.32,0.65,0.99,0.33,1.49C521.35,289.27,521,289.44,520.64,289.44z"/>
	</g>
	<g>
		<path class="st0" d="M-137.62,300.4c-0.14,0-0.28-0.03-0.41-0.08l-24.62-10.12c-0.55-0.23-0.82-0.86-0.59-1.41
			c0.23-0.55,0.86-0.81,1.41-0.59l24.62,10.12c0.55,0.23,0.82,0.86,0.59,1.41C-136.79,300.15-137.2,300.4-137.62,300.4z"/>
	</g>
	<g>
		<path class="st0" d="M613.81,977.56c-0.13,0-0.26-0.02-0.38-0.07l-16.25-6.14c-0.56-0.21-0.84-0.83-0.63-1.39
			c0.21-0.56,0.83-0.84,1.39-0.63l16.26,6.14c0.56,0.21,0.84,0.83,0.63,1.39C614.66,977.29,614.25,977.56,613.81,977.56z"/>
	</g>
	<g>
		<path class="st0" d="M-242.31,560.82c-0.25,0-0.49-0.08-0.7-0.26c-0.46-0.39-0.51-1.07-0.13-1.53l12.31-14.55
			c0.39-0.45,1.07-0.51,1.53-0.13c0.46,0.39,0.51,1.07,0.13,1.53l-12.31,14.55C-241.69,560.69-242,560.82-242.31,560.82z"/>
	</g>
	<g>
		<path class="st0" d="M537.6,401.68c-0.39,0-0.76-0.21-0.96-0.58l-16.95-32.34c-0.28-0.53-0.07-1.18,0.46-1.46
			c0.53-0.27,1.19-0.07,1.46,0.46l16.95,32.35c0.28,0.53,0.07,1.18-0.46,1.46C537.94,401.64,537.77,401.68,537.6,401.68z"/>
	</g>
	<g>
		<path class="st0" d="M555.08,1101.4c-0.57,0-1.05-0.44-1.08-1.02l-3.05-51.34c-0.04-0.6,0.42-1.11,1.02-1.14
			c0.62-0.05,1.11,0.42,1.14,1.02l3.05,51.34c0.04,0.6-0.42,1.11-1.02,1.14C555.12,1101.4,555.1,1101.4,555.08,1101.4z"/>
	</g>
	<g>
		<path class="st0" d="M323.85,644.19c-0.2,0-0.41-0.06-0.59-0.18l-46.44-30.26c-0.5-0.33-0.64-1-0.32-1.5c0.33-0.5,1-0.64,1.5-0.32
			l46.44,30.26c0.5,0.33,0.64,1,0.31,1.5C324.55,644.02,324.2,644.19,323.85,644.19z"/>
	</g>
	<g>
		<path class="st0" d="M-560.62,955.59c-0.26,0-0.51-0.09-0.72-0.27l-13.16-11.64c-0.45-0.4-0.49-1.08-0.1-1.53
			c0.4-0.45,1.08-0.49,1.53-0.09l13.16,11.64c0.45,0.4,0.49,1.08,0.09,1.53C-560.02,955.47-560.32,955.59-560.62,955.59z"/>
	</g>
	<g>
		<path class="st0" d="M107.32,404.07c-0.44,0-0.86-0.27-1.02-0.71l-9.43-25.97c-0.2-0.56,0.08-1.18,0.65-1.39
			c0.57-0.21,1.18,0.08,1.39,0.65l9.43,25.97c0.2,0.56-0.08,1.18-0.65,1.39C107.57,404.05,107.44,404.07,107.32,404.07z"/>
	</g>
	<g>
		<path class="st0" d="M188.53,1081.6c-0.14,0-0.28-0.03-0.41-0.08l-34.6-14.32c-0.55-0.23-0.81-0.86-0.59-1.41
			c0.23-0.55,0.86-0.81,1.41-0.59l34.6,14.32c0.55,0.23,0.81,0.86,0.59,1.41C189.36,1081.35,188.96,1081.6,188.53,1081.6z"/>
	</g>
	<g>
		<path class="st0" d="M299.87,25.67c-0.08,0-0.16-0.01-0.23-0.03c-0.58-0.13-0.95-0.71-0.82-1.29l11.76-53.02
			c0.13-0.58,0.7-0.95,1.29-0.82c0.58,0.13,0.95,0.71,0.82,1.29l-11.76,53.02C300.82,25.33,300.37,25.67,299.87,25.67z"/>
	</g>
	<g>
		<path class="st0" d="M-373.22,151.45c-0.36,0-0.71-0.18-0.92-0.51c-0.32-0.51-0.16-1.17,0.34-1.49l13.51-8.43
			c0.51-0.32,1.18-0.16,1.49,0.34c0.32,0.51,0.16,1.18-0.34,1.49l-13.51,8.43C-372.82,151.4-373.02,151.45-373.22,151.45z"/>
	</g>
	<g>
		<path class="st0" d="M545.15,534.24c-0.25,0-0.49-0.08-0.7-0.26l-12.71-10.74c-0.46-0.38-0.52-1.07-0.13-1.52
			c0.39-0.46,1.07-0.51,1.52-0.13l12.71,10.74c0.46,0.38,0.52,1.07,0.13,1.52C545.76,534.11,545.46,534.24,545.15,534.24z"/>
	</g>
	<g>
		<path class="st0" d="M412.31,998.28c-0.3,0-0.61-0.13-0.82-0.38c-0.39-0.45-0.34-1.14,0.11-1.53l53.46-45.96
			c0.46-0.39,1.14-0.34,1.53,0.11c0.39,0.45,0.34,1.14-0.11,1.53l-53.46,45.96C412.81,998.19,412.56,998.28,412.31,998.28z"/>
	</g>
	<g>
		<path class="st0" d="M-26.57,783.95c-0.48,0-0.92-0.32-1.05-0.81c-0.15-0.58,0.19-1.17,0.77-1.32L-8.39,777
			c0.58-0.16,1.17,0.19,1.32,0.77c0.15,0.58-0.19,1.17-0.77,1.32l-18.46,4.82C-26.39,783.94-26.48,783.95-26.57,783.95z"/>
	</g>
	<g>
		<path class="st0" d="M-48.66,853.32c-0.41,0-0.81-0.24-0.99-0.64c-0.24-0.55,0-1.19,0.55-1.43l14.51-6.46
			c0.53-0.24,1.19,0,1.43,0.55c0.24,0.55,0,1.19-0.55,1.43l-14.51,6.46C-48.36,853.29-48.51,853.32-48.66,853.32z"/>
	</g>
	<g>
		<path class="st0" d="M439.78,1146.32c-0.49,0-0.94-0.34-1.05-0.83l-10.54-45.03c-0.14-0.58,0.23-1.16,0.81-1.3
			c0.6-0.13,1.16,0.23,1.3,0.81l10.54,45.03c0.14,0.58-0.23,1.16-0.81,1.3C439.94,1146.32,439.86,1146.32,439.78,1146.32z"/>
	</g>
	<g>
		<path class="st0" d="M-348.31,339.86c-0.2,0-0.4-0.05-0.58-0.17l-17.73-11.32c-0.5-0.32-0.65-0.99-0.33-1.5
			c0.33-0.51,0.99-0.65,1.5-0.33l17.73,11.32c0.5,0.32,0.65,0.99,0.33,1.5C-347.61,339.68-347.96,339.86-348.31,339.86z"/>
	</g>
	<g>
		<path class="st0" d="M145.38,1016.47c-0.37,0-0.73-0.19-0.93-0.53c-0.3-0.52-0.13-1.18,0.38-1.48l47.44-28.06
			c0.51-0.31,1.18-0.14,1.48,0.38c0.3,0.52,0.13,1.18-0.38,1.48l-47.44,28.06C145.76,1016.42,145.57,1016.47,145.38,1016.47z"/>
	</g>
	<g>
		<path class="st0" d="M292.55,108.72c-0.27,0-0.55-0.1-0.76-0.31c-0.42-0.42-0.43-1.1-0.01-1.53l19.6-19.83
			c0.42-0.42,1.1-0.43,1.53-0.01c0.43,0.42,0.43,1.1,0.01,1.53l-19.6,19.83C293.11,108.61,292.83,108.72,292.55,108.72z"/>
	</g>
	<g>
		<path class="st0" d="M-121.74,504.27c-0.19,0-0.38-0.05-0.56-0.16c-0.51-0.31-0.67-0.98-0.37-1.49l7.61-12.55
			c0.32-0.51,0.98-0.67,1.49-0.37c0.51,0.31,0.67,0.98,0.37,1.49l-7.61,12.55C-121.02,504.08-121.37,504.27-121.74,504.27z"/>
	</g>
	<g>
		<path class="st0" d="M-56.57,548.19c-0.11,0-0.22-0.02-0.34-0.05l-15.2-4.97c-0.57-0.19-0.88-0.8-0.69-1.37
			c0.19-0.57,0.79-0.87,1.37-0.69l15.2,4.97c0.57,0.19,0.88,0.8,0.69,1.37C-55.69,547.9-56.11,548.19-56.57,548.19z"/>
	</g>
	<g>
		<path class="st0" d="M-346.93,1153.47c-0.19,0-0.38-0.05-0.55-0.15l-12.75-7.61c-0.51-0.31-0.68-0.97-0.38-1.48
			c0.3-0.52,0.97-0.68,1.48-0.38l12.75,7.61c0.51,0.31,0.68,0.97,0.38,1.48C-346.2,1153.28-346.56,1153.47-346.93,1153.47z"/>
	</g>
	<g>
		<path class="st0" d="M130.47,331.93c-0.06,0-0.12,0-0.19-0.02c-0.59-0.1-0.98-0.66-0.88-1.25l4.49-25.83
			c0.1-0.59,0.67-1,1.25-0.88c0.59,0.1,0.98,0.66,0.88,1.25l-4.49,25.83C131.45,331.56,130.99,331.93,130.47,331.93z"/>
	</g>
	<g>
		<path class="st0" d="M157.42,945.16c-0.26,0-0.51-0.09-0.72-0.27c-0.45-0.4-0.49-1.08-0.09-1.53l43.33-48.95
			c0.4-0.45,1.08-0.49,1.53-0.09c0.45,0.4,0.49,1.08,0.09,1.53l-43.33,48.95C158.02,945.04,157.72,945.16,157.42,945.16z"/>
	</g>
	<g>
		<path class="st0" d="M253.16-35.49c-0.05,0-0.09,0-0.14-0.01l-15.67-1.97c-0.59-0.07-1.01-0.61-0.94-1.21
			c0.08-0.6,0.61-1.02,1.21-0.94l15.67,1.97c0.59,0.07,1.01,0.61,0.94,1.21C254.16-35.89,253.69-35.49,253.16-35.49z"/>
	</g>
	<g>
		<path class="st0" d="M594.51,693.58c-0.13,0-0.26-0.02-0.39-0.07l-77.49-29.84c-0.56-0.22-0.83-0.84-0.62-1.4
			c0.22-0.56,0.83-0.83,1.4-0.62l77.49,29.84c0.56,0.22,0.83,0.84,0.62,1.4C595.35,693.32,594.94,693.58,594.51,693.58z"/>
	</g>
	<g>
		<path class="st0" d="M62.71,1152c-0.24,0-0.49-0.08-0.7-0.25l-22.38-18.76c-0.46-0.38-0.52-1.07-0.13-1.52
			c0.38-0.46,1.07-0.52,1.52-0.13l22.38,18.76c0.46,0.38,0.52,1.07,0.13,1.52C63.32,1151.86,63.02,1152,62.71,1152z"/>
	</g>
	<g>
		<path class="st0" d="M301.11,335.72c-0.04,0-0.08,0-0.13-0.01l-47.29-5.47c-0.59-0.07-1.02-0.61-0.95-1.2
			c0.07-0.59,0.63-1.02,1.2-0.95l47.29,5.47c0.59,0.07,1.02,0.61,0.95,1.2C302.12,335.31,301.65,335.72,301.11,335.72z"/>
	</g>
	<g>
		<path class="st0" d="M-66.3,297.25c-0.49,0-0.93-0.33-1.05-0.82l-20.81-82.9c-0.14-0.58,0.21-1.17,0.79-1.31
			c0.59-0.15,1.17,0.21,1.31,0.79l20.81,82.9c0.14,0.58-0.21,1.17-0.79,1.31C-66.13,297.23-66.22,297.25-66.3,297.25z"/>
	</g>
	<g>
		<path class="st0" d="M-431.49,546.58c-0.32,0-0.64-0.14-0.85-0.41l-42.33-53.85c-0.37-0.47-0.29-1.15,0.18-1.52
			c0.46-0.37,1.15-0.29,1.52,0.18l42.33,53.85c0.37,0.47,0.29,1.15-0.18,1.52C-431.02,546.5-431.26,546.58-431.49,546.58z"/>
	</g>
	<g>
		<path class="st0" d="M-494.23,345.59c-0.1,0-0.21-0.01-0.31-0.04c-0.57-0.17-0.9-0.77-0.73-1.34l5.83-19.73
			c0.17-0.58,0.78-0.89,1.34-0.73c0.57,0.17,0.9,0.77,0.73,1.34l-5.83,19.73C-493.33,345.28-493.76,345.59-494.23,345.59z"/>
	</g>
	<g>
		<path class="st0" d="M-201.01,11.67c-0.27,0-0.54-0.1-0.75-0.3l-45.74-44.24c-0.43-0.42-0.44-1.1-0.03-1.53
			c0.41-0.43,1.1-0.44,1.53-0.03l45.74,44.24c0.43,0.42,0.44,1.1,0.03,1.53C-200.44,11.56-200.73,11.67-201.01,11.67z"/>
	</g>
	<g>
		<path class="st0" d="M138.03,205.69c-0.15,0-0.3-0.03-0.45-0.1L90.1,184c-0.54-0.25-0.78-0.89-0.54-1.43
			c0.25-0.55,0.89-0.78,1.43-0.54l47.48,21.6c0.54,0.25,0.78,0.89,0.54,1.43C138.83,205.46,138.44,205.69,138.03,205.69z"/>
	</g>
	<g>
		<path class="st0" d="M-361.83-14.33c-0.45,0-0.88-0.29-1.03-0.74l-5.26-15.87c-0.19-0.57,0.12-1.18,0.69-1.37
			c0.56-0.19,1.18,0.12,1.37,0.69l5.26,15.87c0.19,0.57-0.12,1.18-0.69,1.37C-361.6-14.35-361.72-14.33-361.83-14.33z"/>
	</g>
	<g>
		<path class="st0" d="M517.94,215.27c-0.52,0-0.98-0.38-1.07-0.91c-0.09-0.59,0.31-1.15,0.9-1.24l15.01-2.33
			c0.62-0.09,1.15,0.32,1.24,0.9c0.09,0.59-0.31,1.15-0.9,1.24l-15.01,2.33C518.05,215.27,517.99,215.27,517.94,215.27z"/>
	</g>
	<g>
		<path class="st0" d="M-513.09,1082.08c-0.51,0-0.96-0.36-1.06-0.88c-0.11-0.59,0.27-1.15,0.86-1.27l21.91-4.23
			c0.58-0.11,1.15,0.27,1.27,0.86c0.11,0.59-0.27,1.15-0.86,1.27l-21.91,4.23C-512.96,1082.07-513.02,1082.08-513.09,1082.08z"/>
	</g>
	<g>
		<path class="st0" d="M116.26,908.62c-0.33,0-0.65-0.15-0.87-0.44l-11.75-15.77c-0.36-0.48-0.26-1.16,0.22-1.52
			c0.48-0.36,1.15-0.26,1.52,0.22l11.75,15.77c0.36,0.48,0.26,1.16-0.22,1.52C116.71,908.55,116.49,908.62,116.26,908.62z"/>
	</g>
	<g>
		<path class="st0" d="M423.3,700.54c-0.46,0-0.89-0.29-1.03-0.76c-0.18-0.57,0.14-1.18,0.71-1.36l16.26-5.13
			c0.57-0.18,1.18,0.14,1.36,0.71c0.18,0.57-0.14,1.18-0.71,1.36l-16.25,5.13C423.51,700.52,423.4,700.54,423.3,700.54z"/>
	</g>
	<g>
		<path class="st0" d="M285.79,704.93c-0.48,0-0.91-0.32-1.04-0.8l-6.64-24.34c-0.16-0.58,0.18-1.17,0.76-1.33
			c0.58-0.15,1.17,0.19,1.33,0.76l6.64,24.34c0.16,0.58-0.18,1.17-0.76,1.33C285.98,704.91,285.88,704.93,285.79,704.93z"/>
	</g>
	<g>
		<path class="st0" d="M313.09,1155.4c-0.03,0-0.05,0-0.08,0l-28.23-2.13c-0.6-0.05-1.04-0.57-1-1.16c0.04-0.6,0.56-1.05,1.16-1
			l28.23,2.13c0.6,0.05,1.04,0.57,1,1.16C314.12,1154.97,313.65,1155.4,313.09,1155.4z"/>
	</g>
	<g>
		<path class="st0" d="M86.18,267.29c-0.06,0-0.12,0-0.18-0.02c-0.59-0.1-0.99-0.65-0.89-1.24l3.36-20.42c0.1-0.59,0.66-1,1.24-0.89
			c0.59,0.1,0.99,0.65,0.89,1.24l-3.36,20.42C87.16,266.91,86.7,267.29,86.18,267.29z"/>
	</g>
	<g>
		<path class="st0" d="M619.64,279.48c-0.16,0-0.33-0.04-0.48-0.11l-59.47-29.7c-0.53-0.27-0.75-0.92-0.48-1.45
			c0.27-0.53,0.91-0.75,1.45-0.48l59.47,29.7c0.53,0.27,0.75,0.92,0.48,1.45C620.42,279.26,620.04,279.48,619.64,279.48z"/>
	</g>
	<g>
		<path class="st0" d="M113.62,1153.89c-0.3,0-0.61-0.13-0.82-0.38c-0.39-0.45-0.34-1.14,0.12-1.53l31.81-27.19
			c0.46-0.39,1.14-0.33,1.53,0.12c0.39,0.45,0.34,1.14-0.12,1.53l-31.81,27.19C114.12,1153.81,113.87,1153.89,113.62,1153.89z"/>
	</g>
	<g>
		<path class="st0" d="M297.9,1045.92c-0.16,0-0.32-0.03-0.47-0.11l-15.6-7.5c-0.54-0.26-0.77-0.9-0.51-1.44
			c0.26-0.54,0.91-0.77,1.44-0.51l15.6,7.5c0.54,0.26,0.77,0.9,0.51,1.44C298.69,1045.7,298.31,1045.92,297.9,1045.92z"/>
	</g>
	<g>
		<path class="st0" d="M-572.95,234.83c-0.55,0-1.02-0.42-1.08-0.98c-0.05-0.6,0.39-1.12,0.98-1.18l15.33-1.38
			c0.58-0.05,1.12,0.38,1.17,0.98s-0.39,1.12-0.98,1.18l-15.33,1.38C-572.88,234.83-572.92,234.83-572.95,234.83z"/>
	</g>
	<g>
		<path class="st0" d="M531.81,741.25c-0.55,0-1.02-0.42-1.08-0.98c-0.05-0.6,0.39-1.12,0.98-1.17l25.96-2.32
			c0.59-0.04,1.12,0.38,1.17,0.98c0.05,0.6-0.39,1.12-0.98,1.17l-25.96,2.32C531.87,741.25,531.84,741.25,531.81,741.25z"/>
	</g>
	<g>
		<path class="st0" d="M507.89,1040.57c-0.56,0-1.03-0.43-1.08-0.99l-5-60.51c-0.05-0.6,0.39-1.12,0.99-1.17
			c0.55-0.07,1.12,0.39,1.17,0.99l5,60.51c0.05,0.6-0.39,1.12-0.99,1.17C507.95,1040.56,507.93,1040.57,507.89,1040.57z"/>
	</g>
	<g>
		<path class="st0" d="M293.69,182.98c-0.45,0-0.87-0.28-1.02-0.72l-7.06-20.24c-0.2-0.56,0.1-1.18,0.66-1.38
			c0.57-0.2,1.18,0.1,1.38,0.66l7.06,20.24c0.2,0.56-0.1,1.18-0.66,1.38C293.93,182.96,293.81,182.98,293.69,182.98z"/>
	</g>
	<g>
		<path class="st0" d="M577.49,118.89c-0.31,0-0.62-0.13-0.83-0.39l-15.95-19.2c-0.38-0.46-0.32-1.14,0.14-1.52
			c0.46-0.38,1.14-0.32,1.52,0.14l15.95,19.2c0.38,0.46,0.32,1.14-0.14,1.52C577.98,118.81,577.74,118.89,577.49,118.89z"/>
	</g>
	<g>
		<path class="st0" d="M101.76,993.52c-0.39,0-0.76-0.21-0.96-0.58l-33.52-63.7c-0.28-0.53-0.08-1.18,0.45-1.46
			c0.53-0.28,1.18-0.08,1.46,0.45l33.52,63.7c0.28,0.53,0.08,1.18-0.45,1.46C102.11,993.48,101.94,993.52,101.76,993.52z"/>
	</g>
	<g>
		<path class="st0" d="M118.33,110.29c-0.44,0-0.85-0.27-1.02-0.71c-0.21-0.56,0.08-1.18,0.64-1.39l13.48-4.96
			c0.56-0.2,1.18,0.08,1.39,0.64c0.21,0.56-0.08,1.18-0.64,1.39l-13.48,4.96C118.58,110.27,118.45,110.29,118.33,110.29z"/>
	</g>
	<g>
		<path class="st0" d="M27.74,280.48c-0.16,0-0.33-0.04-0.48-0.11l-37.02-18.26c-0.54-0.26-0.76-0.91-0.49-1.45
			c0.26-0.53,0.93-0.75,1.45-0.49l37.02,18.26c0.53,0.26,0.75,0.91,0.49,1.45C28.52,280.26,28.13,280.48,27.74,280.48z"/>
	</g>
	<g>
		<path class="st0" d="M61.07,147.7c-0.29,0-0.58-0.12-0.79-0.35c-0.41-0.44-0.38-1.12,0.06-1.53l11.33-10.45
			c0.44-0.4,1.12-0.38,1.53,0.06c0.41,0.44,0.38,1.12-0.06,1.53L61.8,147.41C61.6,147.61,61.33,147.7,61.07,147.7z"/>
	</g>
	<g>
		<path class="st0" d="M-280.2,1162.27c-0.34,0-0.68-0.16-0.89-0.47l-14.3-21c-0.34-0.49-0.21-1.17,0.29-1.5
			c0.49-0.33,1.17-0.21,1.5,0.29l14.3,21c0.34,0.49,0.21,1.17-0.29,1.5C-279.78,1162.2-279.99,1162.27-280.2,1162.27z"/>
	</g>
	<g>
		<path class="st0" d="M-504.42,936c-0.08,0-0.16-0.01-0.24-0.03c-0.58-0.13-0.95-0.71-0.82-1.29l17.47-77.6
			c0.13-0.58,0.72-0.94,1.29-0.82c0.58,0.13,0.95,0.71,0.82,1.29l-17.47,77.6C-503.47,935.66-503.92,936-504.42,936z"/>
	</g>
	<g>
		<path class="st0" d="M-566.06,693.81c-0.32,0-0.64-0.14-0.85-0.41l-9.74-12.39c-0.37-0.47-0.29-1.15,0.18-1.52
			c0.46-0.37,1.15-0.29,1.52,0.18l9.74,12.39c0.37,0.47,0.29,1.15-0.18,1.52C-565.59,693.73-565.82,693.81-566.06,693.81z"/>
	</g>
	<g>
		<path class="st0" d="M-563.92,1106.96c-0.49,0-0.93-0.33-1.05-0.83l-12.74-52.47c-0.14-0.58,0.22-1.17,0.8-1.31
			c0.59-0.12,1.17,0.22,1.31,0.8l12.74,52.47c0.14,0.58-0.22,1.17-0.8,1.31C-563.75,1106.95-563.84,1106.96-563.92,1106.96z"/>
	</g>
	<g>
		<path class="st0" d="M-135.84-2.33c-0.32,0-0.63-0.14-0.85-0.41l-26.36-33c-0.37-0.47-0.3-1.15,0.17-1.52
			c0.47-0.37,1.15-0.3,1.52,0.17l26.36,33c0.37,0.47,0.3,1.15-0.17,1.52C-135.37-2.41-135.61-2.33-135.84-2.33z"/>
	</g>
	<g>
		<path class="st1" d="M-345.54,436.05c-0.07,0-0.15,0-0.23,0c-6.65-0.06-12.87-2.7-17.53-7.44c-4.66-4.74-7.19-11.01-7.13-17.66
			c0.06-6.65,2.7-12.87,7.44-17.53c4.74-4.66,11.12-7.16,17.66-7.13c13.72,0.12,24.79,11.38,24.67,25.1
			c-0.06,6.65-2.7,12.87-7.44,17.53C-332.79,433.53-338.97,436.05-345.54,436.05z M-345.55,388.45c-6,0-11.64,2.31-15.92,6.52
			c-4.33,4.25-6.74,9.94-6.79,16.01c-0.05,6.07,2.26,11.8,6.51,16.12c4.25,4.33,9.94,6.74,16.01,6.79c0.07,0,0.14,0,0.21,0
			c5.99,0,11.64-2.31,15.92-6.51c4.33-4.25,6.74-9.94,6.79-16.01l1.08,0.01l-1.08-0.01c0.05-6.07-2.26-11.8-6.52-16.13
			c-4.25-4.33-9.94-6.74-16.01-6.79C-345.41,388.45-345.48,388.45-345.55,388.45z"/>
	</g>
	<g>
		<path class="st0" d="M356.61,759.1c-6.47,0-12.65-2.3-17.58-6.59c-5.42-4.71-8.68-11.24-9.19-18.41
			c-0.5-7.16,1.81-14.09,6.52-19.51c4.71-5.42,11.24-8.68,18.41-9.19c14.78-1.05,27.66,10.14,28.7,24.93
			c1.04,14.78-10.14,27.66-24.93,28.7C357.89,759.07,357.25,759.1,356.61,759.1z M356.66,707.5c-0.58,0-1.16,0.02-1.75,0.06
			c-6.58,0.46-12.59,3.46-16.92,8.45c-4.33,4.98-6.46,11.36-5.99,17.94s3.46,12.59,8.45,16.92c4.98,4.33,11.35,6.47,17.94,5.99
			c13.59-0.96,23.88-12.8,22.92-26.39C380.38,717.47,369.51,707.5,356.66,707.5z"/>
	</g>
	<g>
		<path class="st0" d="M438.48,379.57c-3.02,0-5.8-2.01-6.64-5.06c-1-3.66,1.16-7.45,4.81-8.46c1.78-0.49,3.63-0.25,5.23,0.66
			c1.6,0.91,2.74,2.39,3.23,4.16l0,0c0.49,1.77,0.26,3.63-0.65,5.23c-0.91,1.6-2.39,2.74-4.16,3.23
			C439.69,379.49,439.08,379.57,438.48,379.57z M438.48,367.97c-0.42,0-0.84,0.06-1.26,0.17c-2.51,0.69-3.99,3.29-3.3,5.79
			c0.69,2.51,3.31,3.98,5.8,3.3c1.21-0.33,2.23-1.12,2.85-2.21c0.62-1.09,0.78-2.36,0.45-3.58l0,0c-0.33-1.22-1.12-2.23-2.21-2.85
			C440.08,368.18,439.29,367.97,438.48,367.97z"/>
	</g>
	<g>
		<path class="st0" d="M555.71,329.17c-2.89,0-5.77-1.16-7.88-3.46c-3.99-4.34-3.7-11.12,0.65-15.1c2.1-1.93,4.83-2.93,7.69-2.81
			c2.85,0.12,5.49,1.35,7.41,3.45c1.93,2.1,2.93,4.83,2.81,7.68c-0.12,2.85-1.35,5.49-3.45,7.42
			C560.89,328.24,558.3,329.17,555.71,329.17z M555.7,309.96c-2.14,0-4.17,0.79-5.76,2.24c-1.68,1.54-2.65,3.64-2.75,5.91
			c-0.1,2.28,0.7,4.45,2.24,6.13c1.54,1.68,3.64,2.65,5.92,2.75c2.27,0.11,4.45-0.7,6.13-2.24c1.68-1.54,2.65-3.64,2.75-5.92
			c0.1-2.27-0.7-4.45-2.24-6.13c-1.54-1.68-3.64-2.65-5.91-2.75C555.95,309.97,555.82,309.96,555.7,309.96z"/>
	</g>
	<g>
		<path class="st0" d="M-495.36,1014.11c-0.77,0-1.54-0.08-2.31-0.23c-3.05-0.61-5.67-2.37-7.39-4.96
			c-3.56-5.34-2.11-12.57,3.23-16.13c2.58-1.72,5.69-2.34,8.73-1.72c3.05,0.61,5.67,2.37,7.39,4.96c1.72,2.59,2.34,5.69,1.73,8.73
			c-0.61,3.05-2.37,5.67-4.96,7.4C-490.87,1013.44-493.09,1014.11-495.36,1014.11z M-495.4,993.01c-1.8,0-3.62,0.51-5.23,1.58
			c-2.1,1.4-3.54,3.54-4.03,6.02c-0.5,2.48,0,5,1.4,7.11l0,0c2.89,4.34,8.78,5.52,13.13,2.63c2.1-1.4,3.54-3.54,4.03-6.02
			c0.5-2.48,0-5-1.4-7.11C-489.33,994.49-492.34,993.01-495.4,993.01z"/>
	</g>
	<g>
		<path class="st0" d="M67.42,661.39c-0.27,0-0.53-0.01-0.8-0.02c-10.32-0.44-18.36-9.19-17.93-19.51
			c0.44-10.32,9.23-18.3,19.51-17.93c5,0.21,9.62,2.36,13,6.04c3.39,3.69,5.14,8.47,4.92,13.47
			C85.7,653.5,77.39,661.39,67.42,661.39z M67.39,626.09c-4.16,0-8.11,1.54-11.19,4.37c-3.26,2.99-5.16,7.08-5.34,11.5
			c-0.19,4.42,1.36,8.65,4.35,11.91c2.99,3.26,7.08,5.16,11.5,5.34c9.12,0.41,16.87-6.73,17.25-15.86
			c0.19-4.42-1.36-8.65-4.35-11.91c-2.99-3.26-7.08-5.16-11.5-5.34C67.87,626.09,67.63,626.09,67.39,626.09z"/>
	</g>
	<g>
		<path class="st0" d="M155.68,260.85c-0.04,0-0.08,0-0.13,0c-4.57-0.07-8.22-3.85-8.16-8.42l0,0c0.07-4.52,3.78-8.16,8.29-8.16
			c0.04,0,0.08,0,0.13,0c4.57,0.07,8.22,3.85,8.16,8.42C163.89,257.22,160.19,260.85,155.68,260.85z M149.56,252.47
			c-0.05,3.38,2.65,6.16,6.02,6.22c3.45,0.12,6.17-2.65,6.22-6.02c0.05-3.37-2.65-6.16-6.02-6.22
			C152.4,246.43,149.61,249.1,149.56,252.47L149.56,252.47z"/>
	</g>
	<g>
		<path class="st0" d="M552.14,617c-1.47,0-2.93-0.3-4.32-0.9c-2.68-1.15-4.75-3.28-5.83-6c-1.08-2.71-1.04-5.68,0.12-8.36
			c1.15-2.68,3.28-4.75,6-5.83c2.71-1.08,5.68-1.04,8.36,0.12c2.68,1.15,4.75,3.28,5.83,6c1.08,2.71,1.04,5.68-0.12,8.36
			c-1.15,2.68-3.28,4.75-5.99,5.83C554.87,616.75,553.51,617,552.14,617z M552.14,597.3c-1.09,0-2.19,0.21-3.24,0.62
			c-2.17,0.87-3.88,2.53-4.81,4.68c-0.93,2.15-0.96,4.53-0.1,6.71c0.87,2.17,2.53,3.88,4.68,4.81c2.15,0.93,4.53,0.96,6.71,0.09
			c2.17-0.86,3.88-2.53,4.81-4.68c0.93-2.15,0.96-4.53,0.09-6.71c-0.86-2.17-2.53-3.88-4.68-4.81
			C554.5,597.54,553.32,597.3,552.14,597.3z"/>
	</g>
	<g>
		<path class="st0" d="M566.95,49.49c-0.11,0-0.23,0-0.34,0c-9.51-0.19-17.1-8.08-16.92-17.59l0,0c0.19-9.52,8.13-17.16,17.59-16.92
			c9.51,0.19,17.1,8.08,16.92,17.59C584.02,41.97,576.31,49.49,566.95,49.49z M551.86,31.94c-0.16,8.32,6.48,15.22,14.8,15.39
			c8.32,0.17,15.22-6.48,15.39-14.8c0.16-8.32-6.48-15.22-14.8-15.39C558.93,16.99,552.02,23.61,551.86,31.94L551.86,31.94z"/>
	</g>
	<g>
		<path class="st0" d="M537.5,934.52c-8.29,0-16.5-3.73-21.9-10.82c-4.45-5.84-6.36-13.06-5.38-20.34
			c0.98-7.28,4.74-13.74,10.58-18.19c5.84-4.45,13.06-6.37,20.34-5.38c7.28,0.98,13.73,4.74,18.18,10.58s6.36,13.06,5.38,20.34
			c-0.98,7.28-4.74,13.74-10.58,18.19C549.16,932.69,543.3,934.52,537.5,934.52z M537.43,881.72c-5.35,0-10.74,1.68-15.32,5.17
			c-11.11,8.47-13.26,24.39-4.8,35.5c8.47,11.11,24.39,13.26,35.5,4.8c11.11-8.46,13.26-24.39,4.8-35.5
			C552.63,885.16,545.07,881.72,537.43,881.72z"/>
	</g>
	<g>
		<path class="st0" d="M147.51,457.18c-1.28,0-2.55-0.26-3.75-0.79c-4.73-2.07-6.89-7.6-4.82-12.33c1-2.29,2.84-4.06,5.16-4.97
			c2.33-0.91,4.87-0.86,7.16,0.14c4.73,2.07,6.9,7.6,4.83,12.33c-1,2.29-2.84,4.06-5.16,4.97
			C149.82,456.96,148.66,457.18,147.51,457.18z M147.51,440.61c-0.89,0-1.77,0.16-2.63,0.5c-1.79,0.7-3.2,2.06-3.97,3.82
			c-1.59,3.64,0.07,7.89,3.71,9.48c1.77,0.77,3.72,0.81,5.51,0.11c1.79-0.7,3.2-2.06,3.97-3.82c1.59-3.64-0.08-7.89-3.71-9.48
			C149.47,440.81,148.49,440.61,147.51,440.61z"/>
	</g>
	<g>
		<path class="st1" d="M-152.39,441.96c-1.7,0-3.39-0.67-4.64-2.01c-1.16-1.24-1.77-2.86-1.72-4.55c0.05-1.7,0.77-3.27,2.01-4.43
			c1.24-1.16,2.79-1.77,4.55-1.72c1.7,0.05,3.27,0.77,4.43,2.01c1.16,1.24,1.77,2.86,1.72,4.55c-0.05,1.7-0.77,3.27-2.01,4.43
			C-149.27,441.39-150.83,441.96-152.39,441.96z M-152.4,431.41c-1.07,0-2.08,0.4-2.87,1.13c-0.82,0.77-1.29,1.8-1.32,2.92
			c-0.04,1.12,0.37,2.19,1.13,3.01c0.77,0.82,1.8,1.29,2.92,1.32c1.12,0.07,2.19-0.36,3-1.13c0.82-0.76,1.29-1.8,1.32-2.92
			c0.04-1.12-0.37-2.19-1.13-3c-0.77-0.82-1.8-1.29-2.92-1.32C-152.31,431.41-152.35,431.41-152.4,431.41z"/>
	</g>
	<g>
		<path class="st0" d="M362.16,402.2c-8.35,0-16.47-4.36-20.88-12.13c-3.16-5.57-3.97-12.03-2.27-18.2
			c1.7-6.17,5.7-11.31,11.27-14.47c5.57-3.16,12.03-3.97,18.2-2.27c6.17,1.7,11.31,5.7,14.47,11.27c6.53,11.49,2.49,26.15-9,32.68
			l0,0C370.23,401.19,366.17,402.2,362.16,402.2z M362.09,356.43c-3.73,0-7.41,0.96-10.73,2.85c-5.07,2.88-8.71,7.55-10.25,13.17
			c-1.55,5.61-0.82,11.5,2.06,16.56c5.94,10.45,19.27,14.13,29.73,8.19c10.45-5.94,14.13-19.27,8.19-29.73
			c-2.88-5.06-7.55-8.7-13.17-10.25C365.99,356.69,364.03,356.43,362.09,356.43z M373.43,398.14h0.03H373.43z"/>
	</g>
	<g>
		<path class="st0" d="M220.61,147.19c-2.28,0-4.59-0.4-6.85-1.26c-9.98-3.79-15.01-14.99-11.22-24.97
			c3.79-9.98,14.99-15.01,24.97-11.22c9.97,3.79,15.01,14.99,11.22,24.97l0,0C235.8,142.43,228.42,147.19,220.61,147.19z
			 M220.65,110.65c-6.94,0-13.49,4.23-16.09,11.09c-3.36,8.86,1.11,18.81,9.97,22.17c8.85,3.36,18.81-1.11,22.17-9.97
			c3.36-8.86-1.11-18.81-9.97-22.17C224.74,111.01,222.68,110.65,220.65,110.65z M237.72,134.32h0.03H237.72z"/>
	</g>
	<g>
		<path class="st0" d="M-186.49,1069.31c-1.57,0-3.14-0.22-4.69-0.66c-4.33-1.25-7.91-4.1-10.08-8.04
			c-2.18-3.94-2.69-8.49-1.45-12.82c1.24-4.32,4.1-7.91,8.04-10.08c3.94-2.18,8.5-2.69,12.82-1.45c4.33,1.24,7.91,4.1,10.08,8.04
			l0,0c2.18,3.94,2.69,8.49,1.45,12.82c-1.24,4.33-4.1,7.91-8.04,10.08C-180.9,1068.6-183.68,1069.31-186.49,1069.31z
			 M-186.54,1037.76c-2.45,0-4.88,0.62-7.09,1.84c-3.43,1.9-5.92,5.02-7.01,8.79c-1.09,3.77-0.64,7.74,1.26,11.17
			c3.92,7.09,12.87,9.67,19.96,5.75c3.43-1.9,5.92-5.02,7.01-8.79c1.09-3.77,0.64-7.74-1.26-11.17l0,0
			c-1.9-3.43-5.02-5.92-8.79-7.01C-183.8,1037.95-185.17,1037.76-186.54,1037.76z"/>
	</g>
	<g>
		<path class="st0" d="M346.62,294.16c-3.06,0-5.66-2.38-5.88-5.48c-0.11-1.57,0.4-3.09,1.43-4.28c1.03-1.19,2.47-1.91,4.04-2.02
			c3.22-0.22,6.07,2.22,6.3,5.46c0.23,3.24-2.22,6.07-5.46,6.31C346.9,294.15,346.76,294.16,346.62,294.16z M346.63,284.53
			c-0.09,0-0.18,0-0.27,0.01c0,0,0,0,0,0c-1,0.07-1.9,0.52-2.56,1.28c-0.65,0.75-0.97,1.72-0.9,2.71c0.15,2.05,1.88,3.62,3.99,3.46
			c2.05-0.15,3.6-1.94,3.46-3.99c-0.07-1-0.52-1.9-1.28-2.55C348.38,284.85,347.52,284.53,346.63,284.53z M346.27,283.46h0.03
			H346.27z"/>
	</g>
	<g>
		<path class="st0" d="M-565.58,113.52c-3.33,0-6.21-2.5-6.61-5.88c-0.43-3.65,2.19-6.97,5.84-7.39c3.64-0.45,6.96,2.19,7.39,5.84
			c0.21,1.77-0.29,3.51-1.39,4.9c-1.1,1.4-2.68,2.28-4.45,2.49l0,0l0,0v0C-565.05,113.5-565.32,113.52-565.58,113.52z
			 M-565.57,102.36c-0.17,0-0.35,0.01-0.53,0.03c-2.46,0.29-4.23,2.53-3.94,4.99c0.29,2.46,2.53,4.22,4.99,3.94c0,0,0,0,0,0
			c2.46-0.29,4.23-2.53,3.94-4.99C-561.37,104.05-563.32,102.36-565.57,102.36z"/>
	</g>
	<g>
		<path class="st0" d="M365.09,603.26c-3.78,0-7.53-0.94-10.95-2.79c-5.42-2.93-9.38-7.8-11.15-13.71
			c-1.76-5.91-1.12-12.15,1.82-17.58c2.93-5.42,7.8-9.38,13.71-11.15c5.9-1.76,12.15-1.12,17.58,1.82
			c5.42,2.93,9.38,7.8,11.15,13.71c1.76,5.91,1.12,12.15-1.82,17.58c-2.93,5.42-7.8,9.38-13.71,11.15
			C369.53,602.94,367.31,603.26,365.09,603.26z M365.15,559.23c-2.01,0-4.03,0.29-6.01,0.88c-11.06,3.3-17.37,14.97-14.07,26.03
			c1.6,5.35,5.18,9.77,10.1,12.43c4.92,2.65,10.57,3.24,15.93,1.64c5.35-1.6,9.77-5.18,12.43-10.1c2.66-4.92,3.24-10.57,1.64-15.93
			c-1.6-5.35-5.18-9.77-10.1-12.43C371.97,560.08,368.58,559.23,365.15,559.23z"/>
	</g>
	<g>
		<path class="st0" d="M-424.28,1151.47c-4.46,0-8.71-2.6-10.59-6.95c-2.52-5.83,0.17-12.62,6-15.15c5.83-2.51,12.63,0.17,15.15,6
			c1.22,2.83,1.27,5.96,0.14,8.81c-1.13,2.86-3.31,5.11-6.14,6.33l0,0C-421.2,1151.17-422.75,1151.47-424.28,1151.47z
			 M-424.3,1130.6c-1.24,0-2.49,0.25-3.7,0.77c-4.73,2.05-6.92,7.57-4.87,12.3c0.99,2.29,2.82,4.06,5.14,4.99
			c2.32,0.92,4.87,0.88,7.16-0.11l0,0c4.73-2.05,6.92-7.56,4.88-12.3C-417.23,1132.71-420.68,1130.6-424.3,1130.6z"/>
	</g>
	<g>
		<path class="st0" d="M-434.97,841.77c-0.58,0-1.17-0.09-1.76-0.29c-2.87-0.97-4.42-4.1-3.44-6.97c0.47-1.39,1.46-2.52,2.77-3.17
			c1.32-0.65,2.81-0.75,4.2-0.28c1.39,0.47,2.52,1.45,3.17,2.77c0.65,1.32,0.75,2.81,0.28,4.2
			C-430.53,840.33-432.68,841.77-434.97,841.77z M-434.97,832.94c-0.51,0-1.01,0.12-1.47,0.34c-0.8,0.4-1.39,1.08-1.68,1.92
			c-0.59,1.74,0.35,3.64,2.09,4.23c1.74,0.59,3.64-0.35,4.23-2.09l0,0c0.29-0.84,0.23-1.75-0.17-2.55c-0.4-0.8-1.08-1.39-1.92-1.68
			C-434.25,833-434.61,832.94-434.97,832.94z"/>
	</g>
	<g>
		<path class="st0" d="M533.77,832.91c-4.67,0-9.09-1.75-12.51-4.97c-3.55-3.35-5.59-7.87-5.74-12.75l0,0
			c-0.15-4.87,1.61-9.52,4.96-13.07c3.35-3.55,7.87-5.59,12.75-5.74c4.87-0.1,9.52,1.61,13.07,4.96c3.55,3.35,5.59,7.87,5.74,12.75
			c0.15,4.88-1.61,9.52-4.96,13.07c-3.35,3.55-7.87,5.59-12.75,5.74C534.15,832.9,533.96,832.91,533.77,832.91z M533.8,798.53
			c-0.16,0-0.33,0-0.5,0.01c-4.3,0.13-8.29,1.93-11.24,5.06c-2.95,3.13-4.5,7.22-4.37,11.52c0.13,4.3,1.93,8.29,5.06,11.24
			c3.13,2.95,7.19,4.58,11.52,4.37c4.3-0.13,8.29-1.92,11.24-5.06c2.95-3.13,4.5-7.22,4.37-11.52c-0.13-4.3-1.93-8.29-5.06-11.24
			C541.82,800.08,537.92,798.53,533.8,798.53z"/>
	</g>
	<g>
		<path class="st1" d="M-24.11,520.17c-6.24,0-12.51-2.22-17.5-6.73c-5.17-4.68-8.21-11.09-8.56-18.05
			c-0.35-6.97,2.03-13.65,6.71-18.82c4.68-5.17,11.09-8.21,18.05-8.56c6.97-0.34,13.65,2.03,18.82,6.71
			c10.68,9.65,11.51,26.19,1.85,36.87l0,0C-9.88,517.27-16.98,520.17-24.11,520.17z M-24.07,470.13c-0.41,0-0.82,0.01-1.23,0.03
			c-6.39,0.32-12.27,3.11-16.55,7.85c-4.29,4.74-6.48,10.87-6.16,17.26c0.32,6.39,3.11,12.27,7.85,16.56
			c9.79,8.86,24.96,8.09,33.81-1.69l0,0c4.29-4.74,6.47-10.87,6.16-17.26c-0.32-6.39-3.11-12.27-7.85-16.55
			C-12.48,472.31-18.13,470.13-24.07,470.13z M-5.54,510.86h0.03H-5.54z"/>
	</g>
	<g>
		<path class="st0" d="M-555.52,481.91c-0.26,0-0.53-0.01-0.79-0.03c-3.13-0.21-5.98-1.62-8.05-3.98c-2.06-2.36-3.09-5.37-2.88-8.5
			l0,0c0.43-6.45,6-11.36,12.48-10.93c6.45,0.43,11.35,6.02,10.93,12.48c-0.21,3.13-1.62,5.98-3.98,8.05
			C-549.97,480.9-552.68,481.91-555.52,481.91z M-565.08,469.56c-0.17,2.55,0.67,5.01,2.35,6.93c1.68,1.92,4.01,3.07,6.56,3.24
			c2.53,0.16,5.01-0.67,6.93-2.35c1.92-1.68,3.07-4.01,3.24-6.56c0.35-5.26-3.65-9.82-8.91-10.17
			C-560.15,460.28-564.73,464.3-565.08,469.56L-565.08,469.56z"/>
	</g>
	<g>
		<path class="st0" d="M-506.6-6.52c-3.53,0-7.08-1.25-9.9-3.8c-6.07-5.47-6.56-14.85-1.1-20.92h0c2.65-2.94,6.28-4.67,10.23-4.88
			c3.95-0.18,7.75,1.14,10.69,3.79c2.94,2.65,4.67,6.28,4.88,10.23c0.21,3.95-1.14,7.75-3.78,10.69
			C-498.5-8.17-502.54-6.52-506.6-6.52z M-515.99-29.79c-4.67,5.18-4.25,13.2,0.94,17.87c5.18,4.66,13.2,4.25,17.87-0.94
			c2.26-2.51,3.41-5.75,3.23-9.12c-0.18-3.37-1.66-6.48-4.17-8.74c-2.51-2.26-5.72-3.41-9.13-3.23
			C-510.62-33.78-513.73-32.3-515.99-29.79L-515.99-29.79z"/>
	</g>
	<g>
		<path class="st0" d="M9.69,976.83c-1.8,0-3.58-0.81-4.75-2.35c-1.99-2.61-1.48-6.36,1.14-8.34c1.27-0.96,2.83-1.36,4.41-1.16
			c1.57,0.22,2.97,1.03,3.93,2.3c0.96,1.27,1.37,2.83,1.16,4.41c-0.22,1.57-1.03,2.97-2.3,3.93
			C12.21,976.44,10.94,976.83,9.69,976.83z M9.67,967.09c-0.82,0-1.62,0.27-2.28,0.77c-1.66,1.26-1.99,3.65-0.72,5.31
			c1.27,1.67,3.65,1.99,5.31,0.72c1.66-1.26,1.99-3.64,0.72-5.31l0,0c-0.61-0.81-1.5-1.32-2.5-1.46
			C10.02,967.11,9.84,967.09,9.67,967.09z"/>
	</g>
	<g>
		<path class="st0" d="M-253.07,236.28c-1.3,0-2.6-0.16-3.89-0.49c-8.44-2.13-13.58-10.74-11.45-19.18c1.03-4.09,3.59-7.54,7.22-9.7
			c3.62-2.17,7.87-2.79,11.96-1.75c4.09,1.03,7.53,3.59,9.7,7.22c2.16,3.62,2.78,7.87,1.75,11.96c-1.03,4.09-3.59,7.54-7.22,9.7
			C-247.48,235.52-250.26,236.28-253.07,236.28z M-253.1,206.85c-6.09,0-11.66,4.12-13.22,10.3c-1.84,7.29,2.59,14.71,9.88,16.55
			c7.29,1.84,14.71-2.59,16.55-9.88c1.84-7.29-2.59-14.71-9.88-16.55C-250.88,206.98-251.99,206.85-253.1,206.85z"/>
	</g>
	<g>
		<path class="st0" d="M-107,1074.72c-3.93,0-7.64-1.51-10.45-4.26c-2.87-2.8-4.47-6.54-4.52-10.54c-0.05-4,1.46-7.78,4.26-10.65
			c2.79-2.87,6.54-4.47,10.54-4.52c0.06,0,0.13,0,0.19,0c3.93,0,7.64,1.51,10.45,4.26c2.87,2.79,4.47,6.54,4.52,10.54
			c0.05,4-1.46,7.78-4.25,10.65c-2.8,2.87-6.54,4.47-10.54,4.52l0,0C-106.87,1074.72-106.93,1074.72-107,1074.72z M-106.98,1046.91
			c-0.05,0-0.11,0-0.17,0c-7.07,0.09-12.75,5.91-12.66,12.98c0.04,3.42,1.42,6.63,3.87,9.02c2.41,2.35,5.58,3.64,8.95,3.64
			c0.05,0,0.11,0,0.17,0l0,0c3.42-0.04,6.63-1.42,9.02-3.87c2.39-2.45,3.69-5.69,3.64-9.11c-0.04-3.42-1.42-6.63-3.87-9.02
			C-100.45,1048.2-103.62,1046.91-106.98,1046.91z"/>
	</g>
	<g>
		<path class="st0" d="M-496.39,260.91c-0.82,0-1.65-0.14-2.47-0.45c-3.63-1.36-5.46-5.42-4.1-9.05c0.66-1.76,1.97-3.15,3.67-3.93
			c1.71-0.77,3.62-0.84,5.37-0.18c1.76,0.66,3.15,1.97,3.93,3.67c0.77,1.71,0.84,3.62,0.18,5.37
			C-490.87,259.17-493.55,260.91-496.39,260.91z M-496.39,249.02c-0.68,0-1.36,0.15-2,0.44c-1.18,0.54-2.09,1.5-2.54,2.72
			c-0.94,2.51,0.33,5.32,2.84,6.26c2.52,0.95,5.32-0.33,6.26-2.84c0.46-1.22,0.41-2.54-0.12-3.72c-0.54-1.18-1.5-2.09-2.72-2.54
			C-495.23,249.13-495.81,249.02-496.39,249.02z"/>
	</g>
	<g>
		<path class="st0" d="M-424.98,311.55c-4.63,0-8.83-3.17-9.94-7.87c-1.29-5.48,2.11-10.99,7.6-12.28c5.48-1.3,10.99,2.11,12.28,7.6
			c1.29,5.48-2.12,10.99-7.6,12.28C-423.42,311.46-424.21,311.55-424.98,311.55z M-424.98,293.29c-0.61,0-1.23,0.07-1.85,0.22
			c-4.32,1.02-7,5.36-5.99,9.68c1.02,4.32,5.37,7.01,9.68,5.99c4.32-1.02,7-5.36,5.99-9.68
			C-418.02,295.79-421.33,293.29-424.98,293.29z"/>
	</g>
	<g>
		<path class="st0" d="M440.36,582.7c-1.71,0-3.42-0.61-4.78-1.84c0,0,0,0,0,0c-2.89-2.64-3.1-7.13-0.47-10.03
			c1.28-1.4,3.02-2.22,4.92-2.31c1.84-0.1,3.71,0.56,5.11,1.84c1.4,1.27,2.22,3.02,2.31,4.92c0.09,1.89-0.57,3.71-1.84,5.11
			C444.22,581.92,442.29,582.7,440.36,582.7z M437.05,579.26c2.01,1.84,5.14,1.68,6.97-0.33c0.89-0.97,1.34-2.24,1.28-3.55
			c-0.06-1.32-0.63-2.53-1.61-3.42c-0.97-0.89-2.22-1.36-3.55-1.28c-1.31,0.06-2.53,0.63-3.42,1.61
			C434.89,574.3,435.03,577.42,437.05,579.26L437.05,579.26z"/>
	</g>
	<g>
		<path class="st0" d="M-563.31,316.6c-0.52,0-1.05-0.05-1.58-0.16c-4.2-0.86-6.92-4.98-6.06-9.18c0.42-2.03,1.6-3.78,3.34-4.93
			c1.74-1.15,3.81-1.55,5.85-1.13c2.03,0.42,3.78,1.6,4.93,3.34c1.14,1.74,1.54,3.81,1.13,5.85l0,0c-0.42,2.03-1.6,3.79-3.34,4.93
			C-560.33,316.16-561.81,316.6-563.31,316.6z M-563.34,303.2c-1.09,0-2.15,0.32-3.08,0.93c-1.25,0.83-2.11,2.09-2.41,3.56
			c-0.62,3.03,1.34,6.01,4.37,6.63c1.47,0.31,2.97,0.01,4.22-0.81c1.25-0.83,2.11-2.09,2.41-3.56l0,0c0.3-1.47,0.01-2.97-0.81-4.22
			c-0.83-1.25-2.09-2.11-3.56-2.41C-562.58,303.24-562.96,303.2-563.34,303.2z"/>
	</g>
	<g>
		<path class="st0" d="M-560.41,395.95c-0.84,0-1.69-0.13-2.51-0.4c-2.06-0.67-3.74-2.1-4.73-4.03c-0.99-1.93-1.16-4.13-0.49-6.2
			c0.67-2.06,2.1-3.74,4.03-4.73l0,0c3.99-2.03,8.89-0.44,10.93,3.54c0.99,1.93,1.16,4.13,0.49,6.2c-0.67,2.06-2.1,3.74-4.03,4.73
			C-557.89,395.65-559.14,395.95-560.41,395.95z M-563.13,382.51c-1.42,0.72-2.47,1.96-2.96,3.47c-0.49,1.52-0.36,3.13,0.36,4.55
			c0.72,1.42,1.95,2.47,3.47,2.96c1.52,0.49,3.13,0.37,4.55-0.36c1.42-0.72,2.47-1.95,2.96-3.47c0.49-1.51,0.36-3.13-0.36-4.55
			C-556.6,382.19-560.2,381.02-563.13,382.51L-563.13,382.51z"/>
	</g>
	<g>
		<path class="st0" d="M214.49,221.76c-2.99,0-5.98-1.09-8.31-3.3l0,0c-2.35-2.22-3.69-5.23-3.78-8.46
			c-0.09-3.23,1.08-6.31,3.31-8.65c2.22-2.35,5.22-3.69,8.46-3.78c3.24-0.04,6.31,1.09,8.65,3.31c4.85,4.59,5.06,12.26,0.48,17.11
			C220.91,220.49,217.71,221.76,214.49,221.76z M207.67,216.88c3.98,3.77,10.29,3.59,14.05-0.39c3.77-3.98,3.59-10.28-0.39-14.05
			c-1.93-1.82-4.38-2.77-7.11-2.72c-2.65,0.07-5.12,1.18-6.94,3.11c-1.83,1.93-2.79,4.45-2.72,7.1
			C204.64,212.59,205.74,215.06,207.67,216.88L207.67,216.88z"/>
	</g>
	<g>
		<path class="st0" d="M41.28,854.83c-1.15,0-2.32-0.09-3.49-0.28c-5.79-0.93-10.87-4.06-14.31-8.82
			c-3.44-4.75-4.82-10.56-3.89-16.35c1.92-11.96,13.22-20.11,25.16-18.19c5.79,0.93,10.87,4.06,14.31,8.81
			c3.44,4.75,4.82,10.56,3.89,16.35C61.22,847.13,51.86,854.83,41.28,854.83z M41.23,813.07c-4.13,0-8.14,1.29-11.55,3.76
			c-4.28,3.1-7.1,7.68-7.94,12.9l0,0c-1.73,10.78,5.62,20.95,16.4,22.68c10.78,1.75,20.95-5.63,22.68-16.4
			c0.84-5.22-0.4-10.45-3.5-14.74c-3.1-4.29-7.68-7.11-12.9-7.94C43.35,813.16,42.28,813.07,41.23,813.07z M20.66,829.55h0.03H20.66
			z"/>
	</g>
	<g>
		<path class="st0" d="M209.89,651.83c-6.76,0-13.38-3.34-17.27-9.44c-6.07-9.51-3.28-22.18,6.23-28.26
			c9.5-6.08,22.18-3.28,28.26,6.23c2.94,4.61,3.91,10.08,2.73,15.42c-1.18,5.34-4.36,9.9-8.97,12.84
			C217.46,650.8,213.65,651.83,209.89,651.83z M209.82,613.08c-3.45,0-6.83,0.98-9.81,2.88c-8.5,5.43-11,16.77-5.57,25.27
			c5.43,8.5,16.77,11,25.27,5.57c4.12-2.63,6.97-6.71,8.02-11.48c1.05-4.77,0.18-9.67-2.45-13.79c-2.63-4.12-6.71-6.97-11.48-8.02
			C212.47,613.22,211.14,613.08,209.82,613.08z"/>
	</g>
	<g>
		<path class="st0" d="M412.54,315.25c-0.4,0-0.79-0.01-1.19-0.04c-5.17-0.31-9.91-2.62-13.34-6.49c-3.43-3.88-5.15-8.86-4.84-14.03
			c0.31-5.17,2.62-9.91,6.49-13.34c3.88-3.43,8.85-5.15,14.03-4.84c5.17,0.31,9.91,2.62,13.34,6.49c3.44,3.88,5.16,8.86,4.84,14.03
			c-0.31,5.17-2.62,9.91-6.49,13.34C421.79,313.54,417.28,315.25,412.54,315.25z M412.49,278.64c-4.21,0-8.22,1.52-11.4,4.33
			c-3.44,3.05-5.49,7.26-5.77,11.85c-0.28,4.59,1.25,9.02,4.3,12.46c3.05,3.44,7.26,5.49,11.85,5.77c4.57,0.27,9.02-1.25,12.46-4.3
			c3.44-3.05,5.49-7.26,5.77-11.85l0,0c0.28-4.59-1.25-9.01-4.3-12.46c-3.05-3.44-7.26-5.49-11.85-5.77
			C413.2,278.65,412.84,278.64,412.49,278.64z"/>
	</g>
	<g>
		<path class="st0" d="M-67.56,49.91c-4.82,0-9.39-1.77-12.98-5.03c-7.88-7.17-8.47-19.42-1.3-27.3l0,0
			c3.47-3.82,8.23-6.06,13.39-6.31c5.15-0.26,10.1,1.53,13.92,5.01c7.89,7.17,8.47,19.42,1.3,27.3c-3.47,3.82-8.23,6.06-13.39,6.31
			C-66.93,49.9-67.25,49.91-67.56,49.91z M-80.24,19.03c-6.37,7.01-5.85,17.88,1.15,24.25c3.39,3.09,7.79,4.71,12.36,4.45
			c4.58-0.22,8.8-2.21,11.88-5.6c6.37-7.01,5.85-17.88-1.15-24.25c-3.39-3.09-7.8-4.69-12.36-4.45
			C-72.93,13.65-77.16,15.64-80.24,19.03L-80.24,19.03z"/>
	</g>
	<g>
		<path class="st0" d="M174.77,551c-3.82,0-7.52-1.23-10.63-3.57c-3.78-2.85-6.23-7-6.9-11.69c-0.66-4.69,0.54-9.36,3.39-13.14
			c2.85-3.78,7-6.23,11.69-6.9c4.69-0.65,9.36,0.55,13.14,3.39c3.78,2.85,6.23,7,6.9,11.69c0.66,4.69-0.54,9.36-3.39,13.14
			c-2.85,3.78-7,6.23-11.69,6.9C176.45,550.95,175.61,551,174.77,551z M174.84,517.7c-0.73,0-1.47,0.05-2.21,0.15
			c-4.12,0.58-7.76,2.73-10.26,6.05c-2.5,3.32-3.56,7.42-2.98,11.54c0.58,4.12,2.73,7.76,6.05,10.26c3.32,2.5,7.41,3.55,11.54,2.98
			c4.12-0.58,7.76-2.73,10.26-6.05c2.5-3.32,3.56-7.42,2.98-11.54c-0.58-4.12-2.73-7.76-6.05-10.26
			C181.45,518.78,178.2,517.7,174.84,517.7z"/>
	</g>
	<g>
		<path class="st0" d="M261.9,420.21c-2.99,0-5.96-0.72-8.69-2.15c-4.46-2.33-7.74-6.25-9.25-11.05c-1.5-4.79-1.05-9.89,1.27-14.35
			c2.33-4.46,6.25-7.74,11.05-9.25c9.89-3.1,20.49,2.42,23.59,12.32c1.51,4.79,1.05,9.89-1.27,14.35
			c-2.33,4.46-6.25,7.74-11.05,9.25C265.7,419.92,263.79,420.21,261.9,420.21z M261.9,384.73c-1.65,0-3.32,0.25-4.98,0.77
			c-4.24,1.33-7.72,4.24-9.78,8.18c-2.06,3.94-2.46,8.45-1.13,12.7c1.33,4.24,4.24,7.72,8.18,9.78c3.94,2.06,8.45,2.46,12.7,1.13
			c4.24-1.33,7.72-4.24,9.78-8.18c2.06-3.94,2.46-8.45,1.13-12.7C275.58,389.29,268.99,384.73,261.9,384.73z"/>
	</g>
	<g>
		<path class="st0" d="M179.61,388.19c-2.84,0-5.71-0.78-8.28-2.41c-7.21-4.58-9.34-14.17-4.76-21.38c2.22-3.49,5.66-5.91,9.7-6.81
			c4.03-0.9,8.19-0.17,11.68,2.05c3.49,2.22,5.91,5.66,6.81,9.7c0.9,4.04,0.17,8.18-2.05,11.68
			C189.75,385.65,184.73,388.19,179.61,388.19z M179.66,359.38c-0.97,0-1.95,0.11-2.92,0.32c-3.47,0.78-6.44,2.86-8.35,5.86
			c-1.91,3-2.53,6.57-1.76,10.04c0.77,3.47,2.85,6.44,5.86,8.35c6.21,3.94,14.45,2.1,18.39-4.1c1.91-3,2.53-6.57,1.76-10.04
			c-0.77-3.47-2.85-6.44-5.86-8.35C184.62,360.08,182.16,359.38,179.66,359.38z"/>
	</g>
	<g>
		<path class="st0" d="M-102.6,808.5c-4.51,0-8.87-2.47-11.05-6.76l0,0c-1.5-2.95-1.76-6.3-0.74-9.44c1.02-3.14,3.21-5.7,6.16-7.2
			c2.94-1.5,6.3-1.76,9.44-0.74c3.14,1.02,5.7,3.21,7.2,6.16c3.1,6.08,0.67,13.55-5.42,16.64C-98.8,808.07-100.72,808.5-102.6,808.5
			z M-102.63,785.91c-1.59,0-3.17,0.37-4.62,1.12c-2.43,1.24-4.23,3.35-5.08,5.94c-0.85,2.59-0.63,5.36,0.61,7.79l0,0
			c1.24,2.43,3.35,4.23,5.94,5.08c2.59,0.85,5.36,0.63,7.79-0.61c5.02-2.55,7.02-8.72,4.47-13.74c-1.24-2.43-3.35-4.23-5.94-5.08
			C-100.5,786.08-101.57,785.91-102.63,785.91z"/>
	</g>
	<g>
		<path class="st0" d="M159.23,163.96c-4.18,0-7.69-3.29-7.89-7.52l0,0c-0.1-2.11,0.62-4.13,2.04-5.7c1.42-1.56,3.36-2.48,5.47-2.58
			c2.12-0.12,4.13,0.62,5.7,2.03c1.57,1.42,2.49,3.36,2.59,5.47c0.22,4.35-3.15,8.07-7.5,8.28
			C159.49,163.96,159.36,163.96,159.23,163.96z M153.5,156.34c0.16,3.16,2.8,5.57,6.02,5.45c3.16-0.16,5.61-2.86,5.45-6.02
			c-0.08-1.53-0.74-2.94-1.88-3.97c-1.14-1.03-2.6-1.52-4.14-1.48c-1.53,0.08-2.94,0.74-3.97,1.88S153.42,154.81,153.5,156.34
			L153.5,156.34z"/>
	</g>
	<g>
		<path class="st0" d="M455.98,522.04c-5.87,0-11.66-2.74-15.32-7.87c-6.01-8.43-4.04-20.18,4.39-26.19
			c8.43-6.01,20.18-4.04,26.19,4.39c6.01,8.43,4.04,20.18-4.39,26.19C463.56,520.91,459.75,522.04,455.98,522.04z M455.93,486.66
			c-3.34,0-6.7,1-9.62,3.08c-7.46,5.32-9.2,15.71-3.88,23.17c5.32,7.46,15.71,9.2,23.17,3.88c3.61-2.58,6.01-6.41,6.74-10.78
			c0.73-4.38-0.28-8.78-2.86-12.39C466.24,489.09,461.12,486.66,455.93,486.66z"/>
	</g>
	<g>
		<path class="st0" d="M-355.72,720.03c-0.5,0-1-0.06-1.5-0.19c-3.21-0.83-5.16-4.11-4.34-7.32c0.4-1.56,1.38-2.87,2.76-3.69
			c1.38-0.82,3-1.05,4.56-0.65l0,0c3.22,0.83,5.16,4.11,4.34,7.32c-0.4,1.56-1.38,2.87-2.76,3.69
			C-353.6,719.75-354.65,720.03-355.72,720.03z M-355.74,710.16c-0.68,0-1.35,0.18-1.96,0.54c-0.89,0.52-1.52,1.36-1.77,2.36
			c-0.53,2.06,0.72,4.16,2.78,4.69c2.06,0.53,4.16-0.72,4.69-2.78c0.53-2.06-0.72-4.16-2.78-4.69l0,0
			C-355.09,710.2-355.42,710.16-355.74,710.16z"/>
	</g>
	<g>
		<path class="st0" d="M204.3,849.85c-3,0-6.01-0.48-8.94-1.46c-7.16-2.38-12.96-7.41-16.34-14.15c-3.38-6.74-3.93-14.4-1.55-21.56
			c2.38-7.16,7.41-12.96,14.15-16.34c6.75-3.38,14.4-3.93,21.56-1.55c7.16,2.38,12.96,7.41,16.34,14.15
			c6.97,13.92,1.32,30.93-12.61,37.9l0,0C212.94,848.84,208.63,849.85,204.3,849.85z M204.25,795.5c-4,0-7.97,0.93-11.65,2.77
			c-6.23,3.12-10.87,8.48-13.07,15.09c-2.2,6.61-1.69,13.68,1.43,19.91c3.12,6.23,8.48,10.87,15.09,13.07
			c6.61,2.2,13.68,1.69,19.91-1.43l0,0c6.23-3.12,10.87-8.48,13.07-15.09c2.2-6.61,1.69-13.68-1.43-19.91
			c-3.12-6.23-8.48-10.87-15.09-13.07C209.8,795.95,207.02,795.5,204.25,795.5z"/>
	</g>
	<g>
		<path class="st0" d="M204.12,303.94c-4.4,0-8.34-3.1-9.24-7.57l0,0c-1.03-5.1,2.29-10.08,7.39-11.1c2.47-0.49,4.99,0,7.08,1.39
			c2.1,1.39,3.53,3.53,4.02,5.99c0.5,2.47,0,4.98-1.39,7.08c-1.39,2.1-3.53,3.53-5.99,4.02
			C205.36,303.88,204.73,303.94,204.12,303.94z M197,295.95c0.38,1.9,1.48,3.54,3.1,4.62c1.61,1.08,3.56,1.46,5.45,1.07
			c1.9-0.38,3.54-1.48,4.62-3.1c1.08-1.61,1.46-3.55,1.07-5.45c-0.38-1.9-1.48-3.54-3.1-4.62c-1.61-1.08-3.56-1.46-5.45-1.07
			C198.76,288.18,196.21,292.02,197,295.95L197,295.95z"/>
	</g>
	<g>
		<path class="st0" d="M145.01-2.95c-1.52,0-3.06-0.21-4.59-0.64c-8.95-2.54-14.17-11.88-11.63-20.83
			c2.54-8.95,11.88-14.14,20.83-11.62c8.95,2.54,14.16,11.88,11.63,20.83l0,0C159.14-7.8,152.36-2.95,145.01-2.95z M144.99-34.53
			c-2.47,0-4.92,0.63-7.14,1.87c-3.43,1.91-5.91,5.05-6.98,8.83c-2.21,7.8,2.33,15.95,10.14,18.16c7.78,2.21,15.95-2.33,18.16-10.14
			l0,0c2.21-7.8-2.33-15.95-10.14-18.16C147.7-34.34,146.34-34.53,144.99-34.53z M160.21-15.51h0.03H160.21z"/>
	</g>
	<g>
		<path class="st0" d="M-497.22,755.85c-1.48,0-2.98-0.14-4.49-0.44c-12.44-2.47-20.56-14.6-18.09-27.05
			c2.47-12.45,14.61-20.57,27.05-18.09c12.45,2.47,20.56,14.6,18.1,27.05C-476.83,748.25-486.47,755.85-497.22,755.85z
			 M-497.24,711.99c-9.74,0-18.48,6.88-20.44,16.79c-2.24,11.28,5.12,22.27,16.39,24.5c11.26,2.24,22.27-5.11,24.51-16.39
			c2.24-11.27-5.12-22.27-16.4-24.5C-494.54,712.12-495.9,711.99-497.24,711.99z"/>
	</g>
	<g>
		<path class="st0" d="M-13.52,619.23c-5.27,0-10.11-3.53-11.53-8.86c-1.69-6.35,2.11-12.89,8.47-14.58
			c3.08-0.82,6.29-0.39,9.04,1.21c2.75,1.6,4.72,4.18,5.54,7.25c0.82,3.08,0.39,6.29-1.21,9.04c-1.6,2.75-4.18,4.72-7.25,5.54l0,0
			C-11.49,619.1-12.51,619.23-13.52,619.23z M-13.51,597.54c-0.84,0-1.69,0.11-2.52,0.33c-5.2,1.38-8.31,6.74-6.93,11.94
			c1.38,5.2,6.73,8.3,11.94,6.93l0,0c2.52-0.67,4.63-2.28,5.94-4.53c1.31-2.25,1.66-4.88,0.99-7.4c-0.67-2.52-2.28-4.63-4.53-5.94
			C-10.13,597.99-11.81,597.54-13.51,597.54z"/>
	</g>
	<g>
		<path class="st0" d="M480.65,82.51c-4.53,0-9.11-1.29-13.15-3.99c-5.29-3.52-8.89-8.9-10.14-15.13c-1.25-6.23,0-12.58,3.53-17.87
			c3.52-5.29,8.9-8.89,15.13-10.14c6.24-1.25,12.58,0,17.87,3.53l0,0c5.29,3.52,8.89,8.9,10.14,15.13c1.25,6.23,0,12.58-3.53,17.87
			C495.9,78.79,488.34,82.51,480.65,82.51z M480.72,37.1c-7,0-13.87,3.38-18.03,9.63c-3.2,4.81-4.34,10.58-3.21,16.24
			c1.13,5.67,4.41,10.55,9.22,13.75c9.92,6.61,23.37,3.92,29.99-6.01c3.2-4.81,4.34-10.57,3.21-16.24
			c-1.13-5.67-4.41-10.55-9.22-13.75l0,0C489,38.27,484.84,37.1,480.72,37.1z"/>
	</g>
	<g>
		<path class="st0" d="M-11.27-18.76c-0.58,0-1.17-0.06-1.76-0.18c-4.85-0.97-8-5.7-7.03-10.54l0,0c0.97-4.84,5.7-8,10.54-7.03
			c4.85,0.97,8,5.7,7.03,10.54C-3.33-21.71-7.08-18.76-11.27-18.76z M-17.93-29.06c-0.73,3.68,1.66,7.27,5.33,8
			c3.68,0.73,7.26-1.66,8-5.33c0.73-3.67-1.66-7.26-5.33-8C-13.61-35.12-17.2-32.73-17.93-29.06L-17.93-29.06z"/>
	</g>
	<g>
		<path class="st0" d="M281.25,276.42c-2.41,0-4.81-0.48-7.1-1.43c-4.56-1.9-8.12-5.46-10-10.03c-1.89-4.57-1.88-9.6,0.02-14.16
			c1.9-4.56,5.46-8.12,10.03-10c9.43-3.91,20.27,0.61,24.17,10.05c1.89,4.57,1.88,9.6-0.02,14.16c-1.9,4.56-5.46,8.12-10.03,10
			C286.03,275.95,283.64,276.42,281.25,276.42z M281.23,241.56c-2.07,0-4.18,0.4-6.21,1.23c-4.03,1.66-7.18,4.8-8.85,8.83
			c-1.68,4.03-1.68,8.47-0.01,12.51c3.44,8.33,13.01,12.31,21.34,8.87c4.03-1.67,7.18-4.8,8.85-8.83s1.68-8.47,0.02-12.51
			C293.75,245.37,287.65,241.56,281.23,241.56z"/>
	</g>
	<g>
		<path class="st0" d="M526.28,158.07c-1.4,0-2.79-0.32-4.09-0.95c-2.25-1.09-3.94-3-4.76-5.36c-0.82-2.36-0.66-4.9,0.43-7.16
			c1.09-2.25,3-3.94,5.36-4.76c2.37-0.81,4.9-0.66,7.16,0.43c2.25,1.09,3.94,3,4.75,5.36c0.82,2.36,0.66,4.91-0.43,7.15
			c-1.09,2.25-3,3.94-5.36,4.76C528.35,157.9,527.31,158.07,526.28,158.07z M526.3,141.49c-0.79,0-1.58,0.13-2.36,0.4
			c-1.82,0.63-3.28,1.93-4.13,3.66c-1.74,3.57-0.24,7.89,3.33,9.63c3.57,1.74,7.89,0.24,9.63-3.33c0.84-1.73,0.96-3.68,0.33-5.5
			c-0.63-1.82-1.92-3.28-3.66-4.12C528.44,141.74,527.37,141.49,526.3,141.49z"/>
	</g>
	<g>
		<path class="st0" d="M443.75,809.83c-0.77,0-1.55-0.03-2.33-0.1c-7.57-0.61-14.45-4.14-19.37-9.93
			c-4.92-5.79-7.29-13.15-6.67-20.72c1.27-15.63,15.01-27.29,30.65-26.04c15.63,1.27,27.31,15.02,26.04,30.65
			C470.87,798.55,458.4,809.83,443.75,809.83z M443.72,755.12c-13.53,0-25.05,10.43-26.17,24.15c-0.57,6.99,1.62,13.79,6.16,19.14
			c4.54,5.35,10.9,8.61,17.89,9.18h0c14.48,1.17,27.14-9.62,28.32-24.06c1.18-14.44-9.62-27.14-24.06-28.32
			C445.14,755.15,444.43,755.12,443.72,755.12z"/>
	</g>
	<g>
		<path class="st0" d="M491.99,1100.29c-1.48,0-2.97-0.46-4.24-1.41c-3.14-2.34-3.79-6.81-1.45-9.95c2.35-3.14,6.81-3.79,9.95-1.45
			c3.14,2.34,3.79,6.81,1.45,9.95l0,0C496.31,1099.3,494.16,1100.29,491.99,1100.29z M492.01,1088.24c-1.51,0-3,0.69-3.97,1.99
			c-1.63,2.19-1.18,5.29,1.01,6.92c2.19,1.63,5.29,1.18,6.92-1.01l0,0c1.63-2.19,1.18-5.29-1.01-6.92
			C494.08,1088.56,493.04,1088.24,492.01,1088.24z M496.83,1096.79h0.03H496.83z"/>
	</g>
	<g>
		<path class="st0" d="M-269.38,1025.48c-1.58,0-3.19-0.38-4.68-1.18c-2.34-1.26-4.05-3.35-4.82-5.89c-0.77-2.54-0.5-5.23,0.76-7.58
			c1.26-2.34,3.35-4.05,5.89-4.82c2.54-0.77,5.23-0.5,7.58,0.76l0,0c4.83,2.59,6.66,8.63,4.06,13.47
			C-262.39,1023.58-265.83,1025.48-269.38,1025.48z M-269.35,1007.75c-0.76,0-1.52,0.11-2.26,0.34c-1.99,0.6-3.63,1.94-4.61,3.77
			c-0.98,1.83-1.19,3.94-0.59,5.93c0.6,1.99,1.94,3.63,3.77,4.61c3.77,2.03,8.51,0.6,10.54-3.18c2.03-3.78,0.6-8.51-3.18-10.54l0,0
			C-266.83,1008.06-268.08,1007.75-269.35,1007.75z"/>
	</g>
	<g>
		<path class="st0" d="M-495.68,181.43c-7.92,0-15.55-4.41-19.27-11.99l0,0c-5.2-10.61-0.8-23.47,9.8-28.67
			c10.61-5.2,23.47-0.8,28.67,9.8c5.2,10.6,0.81,23.46-9.8,28.67C-489.3,180.73-492.52,181.43-495.68,181.43z M-513,168.49
			c4.68,9.53,16.23,13.49,25.77,8.81c9.53-4.68,13.49-16.24,8.81-25.77c-2.27-4.62-6.19-8.08-11.06-9.74
			c-4.87-1.67-10.1-1.33-14.71,0.93C-513.73,147.39-517.68,158.95-513,168.49L-513,168.49z"/>
	</g>
	<g>
		<path class="st0" d="M-560.03,1161.07c-0.38,0-0.77-0.03-1.15-0.09c-2.05-0.3-3.85-1.38-5.08-3.04c-1.23-1.66-1.74-3.7-1.44-5.75
			l0,0c0.3-2.05,1.38-3.85,3.05-5.08c1.66-1.23,3.7-1.76,5.75-1.44c2.05,0.3,3.85,1.38,5.08,3.04c1.23,1.66,1.74,3.7,1.44,5.75
			c-0.3,2.05-1.38,3.85-3.04,5.08C-556.78,1160.55-558.38,1161.07-560.03,1161.07z M-565.56,1152.52L-565.56,1152.52
			c-0.22,1.47,0.15,2.94,1.04,4.14c0.89,1.2,2.19,1.97,3.66,2.19c1.47,0.21,2.94-0.15,4.14-1.04c1.2-0.89,1.97-2.19,2.19-3.66
			c0.22-1.47-0.15-2.94-1.04-4.14c-0.89-1.2-2.19-1.97-3.66-2.19c-1.47-0.21-2.94,0.15-4.14,1.04
			C-564.56,1149.74-565.34,1151.04-565.56,1152.52z"/>
	</g>
	<g>
		<path class="st1" d="M-468.49,624.41c-6.04,0-11.86-2.02-16.66-5.83c-5.62-4.47-9.17-10.85-9.99-17.98
			c-1.69-14.72,8.91-28.07,23.63-29.76c14.69-1.67,28.07,8.91,29.76,23.63c1.69,14.72-8.91,28.07-23.63,29.76
			C-466.42,624.35-467.46,624.41-468.49,624.41z M-468.39,572.83c-0.95,0-1.91,0.05-2.87,0.16c-6.55,0.75-12.43,4.01-16.53,9.18
			c-4.1,5.17-5.95,11.62-5.2,18.18c0.75,6.55,4.01,12.43,9.18,16.53c5.17,4.1,11.61,5.94,18.18,5.2c6.55-0.75,12.43-4.01,16.53-9.18
			c4.1-5.17,5.95-11.63,5.2-18.18c-0.75-6.55-4.01-12.43-9.18-16.53C-457.49,574.69-462.84,572.83-468.39,572.83z"/>
	</g>
	<g>
		<path class="st0" d="M114.26,799.07c-2.74,0-5.52-0.41-8.27-1.28c-14.55-4.57-22.66-20.12-18.09-34.67
			c2.21-7.05,7.04-12.81,13.59-16.23c6.55-3.42,14.04-4.08,21.08-1.86l0,0c14.55,4.57,22.67,20.12,18.09,34.67
			C136.96,791.5,126.02,799.07,114.26,799.07z M114.3,745.92c-10.84,0-20.91,6.98-24.33,17.85c-4.21,13.41,3.27,27.75,16.68,31.96
			c6.49,2.03,13.4,1.43,19.44-1.72c6.04-3.15,10.49-8.46,12.53-14.96c4.21-13.41-3.27-27.75-16.68-31.96h0
			C119.39,746.3,116.82,745.92,114.3,745.92z"/>
	</g>
	<g>
		<path class="st0" d="M607.77,537.7c-2.78,0-5.5-1.41-7.05-3.95c-1.15-1.88-1.5-4.1-0.98-6.24c0.52-2.14,1.84-3.96,3.72-5.11
			c3.88-2.37,8.97-1.15,11.34,2.74l0,0c2.37,3.88,1.15,8.97-2.74,11.34C610.72,537.31,609.24,537.7,607.77,537.7z M607.75,523.36
			c-1.08,0-2.17,0.29-3.16,0.89c-1.39,0.85-2.36,2.19-2.74,3.77c-0.38,1.58-0.12,3.21,0.72,4.6c1.75,2.87,5.5,3.78,8.37,2.02
			c1.39-0.85,2.36-2.18,2.74-3.77c0.38-1.58,0.13-3.22-0.72-4.6l0,0C611.81,524.4,609.8,523.36,607.75,523.36z"/>
	</g>
	<g>
		<path class="st0" d="M-337.66,1095.37c-3.14,0-6.26-0.8-9.08-2.37c-4.38-2.43-7.54-6.42-8.92-11.24l0,0
			c-2.84-9.94,2.94-20.34,12.88-23.18c9.95-2.85,20.34,2.94,23.18,12.88c1.38,4.82,0.79,9.88-1.64,14.26
			c-2.43,4.38-6.43,7.54-11.24,8.92C-334.2,1095.13-335.94,1095.37-337.66,1095.37z M-353.59,1081.16c1.22,4.26,4.02,7.79,7.89,9.95
			c3.87,2.15,8.35,2.67,12.61,1.45c4.26-1.22,7.79-4.02,9.95-7.89c2.15-3.87,2.67-8.35,1.45-12.61c-2.51-8.8-11.71-13.91-20.5-11.4
			C-350.98,1063.18-356.09,1072.37-353.59,1081.16L-353.59,1081.16z"/>
	</g>
	<g>
		<path class="st0" d="M-330.01,205.95c-1.13,0-2.23-0.32-3.21-0.93c-1.37-0.86-2.33-2.21-2.69-3.79c-0.36-1.58-0.09-3.21,0.77-4.58
			c0.86-1.37,2.21-2.33,3.79-2.69c1.58-0.36,3.21-0.09,4.58,0.77c1.38,0.86,2.33,2.2,2.69,3.78c0.36,1.58,0.09,3.21-0.77,4.58
			c-0.86,1.37-2.2,2.33-3.78,2.69C-329.1,205.9-329.56,205.95-330.01,205.95z M-329.99,195.97c-0.29,0-0.59,0.03-0.88,0.1
			c-1.02,0.23-1.88,0.85-2.44,1.73c-0.55,0.88-0.73,1.93-0.5,2.95c0.23,1.02,0.85,1.89,1.73,2.44c0.88,0.55,1.94,0.73,2.95,0.5
			c1.02-0.23,1.89-0.85,2.44-1.73c0.55-0.89,0.73-1.93,0.5-2.95c-0.23-1.02-0.85-1.88-1.73-2.44
			C-328.55,196.18-329.27,195.97-329.99,195.97z"/>
	</g>
	<g>
		<path class="st0" d="M249.69,72.89c-1.36,0-2.74-0.42-3.92-1.28v0c-2.97-2.17-3.62-6.35-1.45-9.31c1.05-1.44,2.59-2.38,4.36-2.66
			c1.75-0.26,3.52,0.15,4.96,1.2c2.97,2.17,3.62,6.35,1.45,9.31C253.78,71.94,251.75,72.89,249.69,72.89z M247.05,69.86
			c2.01,1.47,4.83,1.02,6.29-0.98c1.46-2,1.02-4.83-0.98-6.29c-2-1.46-4.82-1.02-6.29,0.98C244.61,65.58,245.04,68.4,247.05,69.86
			L247.05,69.86z"/>
	</g>
	<g>
		<path class="st0" d="M255.47,1112.19c-5.79,0-11.45-2.9-14.71-8.18c-2.42-3.92-3.17-8.55-2.12-13.03
			c1.06-4.49,3.8-8.29,7.72-10.72l0,0c8.1-5,18.75-2.49,23.75,5.6c2.43,3.92,3.18,8.55,2.12,13.04c-1.06,4.48-3.8,8.29-7.72,10.71
			C261.7,1111.36,258.57,1112.19,255.47,1112.19z M255.42,1079.85c-2.71,0-5.44,0.73-7.91,2.25l0,0c-3.43,2.12-5.83,5.45-6.75,9.37
			c-0.93,3.92-0.27,7.97,1.85,11.4c4.38,7.08,13.69,9.28,20.78,4.9c7.08-4.38,9.28-13.7,4.9-20.77
			C265.43,1082.39,260.48,1079.85,255.42,1079.85z M246.94,1081.18h0.03H246.94z"/>
	</g>
	<g>
		<path class="st0" d="M-324.53,289.58c-1.92,0-3.87-0.36-5.76-1.12c-7.93-3.18-11.79-12.23-8.61-20.16
			c3.18-7.93,12.23-11.79,20.16-8.61c7.93,3.18,11.79,12.23,8.61,20.16C-312.55,285.9-318.38,289.58-324.53,289.58z M-324.49,260.74
			c-5.29,0-10.31,3.17-12.39,8.37c-2.74,6.82,0.58,14.6,7.41,17.35c6.83,2.74,14.61-0.58,17.35-7.41c2.74-6.82-0.58-14.6-7.41-17.35
			C-321.16,261.05-322.84,260.74-324.49,260.74z"/>
	</g>
	<g>
		<path class="st0" d="M-404.71,789.92c-2.07,0-4.15-0.3-6.19-0.91c-5.49-1.64-10.01-5.33-12.73-10.37
			c-2.72-5.05-3.31-10.85-1.67-16.34c1.64-5.49,5.33-10.01,10.37-12.73c5.04-2.72,10.85-3.31,16.34-1.67
			c5.49,1.64,10.01,5.33,12.73,10.37c2.72,5.05,3.31,10.85,1.67,16.34h0c-1.64,5.49-5.33,10.01-10.37,12.73
			C-397.73,789.05-401.21,789.92-404.71,789.92z M-404.77,749.14c-3.16,0-6.28,0.78-9.13,2.32c-4.54,2.45-7.85,6.51-9.33,11.45
			c-1.48,4.94-0.95,10.16,1.5,14.69c2.45,4.54,6.51,7.85,11.45,9.33c4.93,1.48,10.15,0.94,14.69-1.5c4.54-2.45,7.85-6.51,9.33-11.45
			h0c1.48-4.94,0.94-10.16-1.5-14.69c-2.45-4.54-6.51-7.85-11.45-9.33C-401.04,749.41-402.91,749.14-404.77,749.14z"/>
	</g>
	<g>
		<path class="st0" d="M-289.57,946.5c-0.4,0-0.81-0.04-1.22-0.12c-3.48-0.66-5.78-4.04-5.12-7.52c0.32-1.69,1.28-3.15,2.7-4.12
			c1.42-0.97,3.14-1.31,4.82-1c3.49,0.66,5.78,4.04,5.12,7.52c0,0,0,0,0,0c-0.32,1.69-1.28,3.15-2.7,4.12
			C-287.04,946.12-288.29,946.5-289.57,946.5z M-289.59,935.79c-0.85,0-1.68,0.25-2.4,0.74c-0.94,0.64-1.58,1.61-1.79,2.73
			c-0.44,2.31,1.08,4.55,3.4,4.99c1.12,0.2,2.26-0.03,3.2-0.66c0.94-0.64,1.58-1.61,1.79-2.73c0.44-2.31-1.08-4.55-3.4-4.99
			C-289.05,935.82-289.32,935.79-289.59,935.79z M-284.32,941.07h0.03H-284.32z"/>
	</g>
	<g>
		<path class="st0" d="M602.67,377.57c-5.77,0-11.36-3.1-14.26-8.54c-2.02-3.8-2.45-8.16-1.19-12.28c1.26-4.12,4.04-7.5,7.84-9.52
			c3.8-2.02,8.16-2.45,12.28-1.19c4.12,1.26,7.5,4.04,9.53,7.84c4.18,7.85,1.19,17.63-6.65,21.81l0,0
			C607.81,376.96,605.22,377.57,602.67,377.57z M602.62,347.48c-2.26,0-4.49,0.55-6.54,1.65c-3.29,1.75-5.7,4.68-6.79,8.25
			c-1.09,3.57-0.72,7.34,1.03,10.63c3.62,6.79,12.08,9.38,18.88,5.76l0,0c6.79-3.62,9.38-12.09,5.76-18.88
			c-1.75-3.29-4.68-5.7-8.25-6.79C605.37,347.69,603.99,347.48,602.62,347.48z M609.71,374.73h0.03H609.71z"/>
	</g>
	<g>
		<path class="st0" d="M602.54,807.4c-0.56,0-1.13-0.03-1.7-0.08c-9.46-0.93-16.4-9.39-15.47-18.85c0.94-9.46,9.4-16.37,18.85-15.47
			c4.58,0.45,8.72,2.66,11.64,6.22c2.92,3.56,4.28,8.04,3.83,12.63C618.81,800.73,611.29,807.4,602.54,807.4z M602.5,775.08
			c-3.48,0-6.82,1.19-9.54,3.43c-3.11,2.56-5.04,6.17-5.44,10.18c-0.4,4.01,0.79,7.93,3.35,11.04c2.55,3.11,6.17,5.04,10.18,5.44
			c8.28,0.81,15.67-5.25,16.48-13.52c0.4-4.01-0.79-7.93-3.35-11.04c-2.55-3.11-6.17-5.05-10.18-5.44
			C603.5,775.1,603,775.08,602.5,775.08z"/>
	</g>
	<g>
		<path class="st0" d="M-135.76,126.16c-6.65,0-13.02-2.35-18.12-6.72c-5.66-4.85-9.09-11.62-9.66-19.05
			c-0.57-7.43,1.79-14.64,6.64-20.3c4.85-5.66,11.62-9.09,19.05-9.66c15.35-1.16,28.79,10.35,29.96,25.69l0,0
			c0.57,7.43-1.79,14.64-6.64,20.3c-4.85,5.66-11.62,9.09-19.05,9.66C-134.31,126.13-135.04,126.16-135.76,126.16z M-135.7,72.5
			c-0.66,0-1.32,0.03-1.99,0.08c-6.86,0.53-13.1,3.69-17.58,8.91c-4.48,5.22-6.65,11.87-6.13,18.73c0.53,6.86,3.69,13.1,8.91,17.57
			c5.22,4.48,11.88,6.64,18.73,6.13c6.86-0.53,13.1-3.69,17.58-8.91c4.48-5.22,6.65-11.87,6.13-18.73l0,0
			C-111.08,82.79-122.39,72.5-135.7,72.5z"/>
	</g>
	<g>
		<path class="st0" d="M-429.34,382.63c-0.15,0-0.31-0.01-0.46-0.02c-1.54-0.12-2.95-0.83-3.95-2.01c-1.01-1.18-1.5-2.68-1.37-4.22
			c0.12-1.54,0.83-2.95,2.01-3.95c1.18-1.01,2.67-1.5,4.22-1.37c1.54,0.12,2.95,0.83,3.95,2.01c1.01,1.18,1.5,2.68,1.37,4.22
			c-0.12,1.54-0.83,2.95-2.01,3.95C-426.64,382.14-427.96,382.63-429.34,382.63z M-429.36,373.19c-0.86,0-1.69,0.3-2.35,0.87
			c-0.74,0.63-1.19,1.51-1.26,2.48c-0.07,0.97,0.23,1.91,0.86,2.64c0.63,0.74,1.51,1.19,2.48,1.26c0.95,0.06,1.91-0.23,2.64-0.86
			c0.74-0.63,1.19-1.51,1.26-2.48c0.07-0.97-0.23-1.91-0.86-2.64c-0.63-0.74-1.51-1.19-2.48-1.26
			C-429.17,373.2-429.26,373.19-429.36,373.19z"/>
	</g>
	<g>
		<path class="st0" d="M-160.49,234.16c-4.8,0-9.66-1.23-14.09-3.83c-13.31-7.8-17.8-24.97-10.01-38.29
			c3.78-6.45,9.84-11.04,17.07-12.93c7.23-1.89,14.76-0.85,21.22,2.93l0,0c6.45,3.78,11.04,9.84,12.93,17.07
			c1.89,7.23,0.85,14.77-2.93,21.21C-141.49,229.2-150.87,234.16-160.49,234.16z M-160.4,180.37c-8.87,0-17.52,4.57-22.32,12.77
			c-7.19,12.28-3.05,28.13,9.23,35.32c5.95,3.48,12.9,4.45,19.57,2.7c6.67-1.74,12.26-5.98,15.75-11.93
			c3.48-5.95,4.44-12.9,2.7-19.57c-1.74-6.67-5.98-12.27-11.93-15.75l0,0C-151.48,181.51-155.97,180.37-160.4,180.37z"/>
	</g>
	<g>
		<path class="st0" d="M9.49,51.24c-0.43,0-0.86-0.04-1.29-0.12c-1.84-0.34-3.44-1.38-4.5-2.92c-1.06-1.54-1.46-3.4-1.11-5.24
			c0.34-1.84,1.38-3.44,2.92-4.5c1.54-1.06,3.41-1.46,5.24-1.11c1.84,0.34,3.44,1.38,4.5,2.92c1.06,1.54,1.46,3.4,1.11,5.24
			c-0.34,1.84-1.38,3.44-2.92,4.5C12.26,50.81,10.89,51.24,9.49,51.24z M9.46,39.39c-0.97,0-1.91,0.29-2.73,0.85
			c-1.07,0.73-1.78,1.84-2.02,3.11c-0.23,1.27,0.04,2.56,0.77,3.63c0.73,1.07,1.84,1.78,3.11,2.02c1.27,0.24,2.56-0.04,3.63-0.77
			c1.07-0.73,1.78-1.84,2.02-3.11c0.23-1.27-0.04-2.56-0.77-3.63c-0.73-1.07-1.84-1.78-3.11-2.02C10.06,39.41,9.76,39.39,9.46,39.39
			z"/>
	</g>
	<g>
		<path class="st0" d="M293.2,812.53c-4.87,0-9.48-1.84-13.02-5.23c-3.64-3.48-5.71-8.17-5.82-13.21
			c-0.11-5.04,1.74-9.82,5.22-13.46c3.48-3.64,8.17-5.71,13.21-5.82c0.15,0,0.29,0,0.44,0c4.88,0,9.48,1.84,13.02,5.23
			c3.64,3.48,5.71,8.17,5.82,13.21c0.11,5.04-1.74,9.82-5.22,13.46c-3.48,3.64-8.17,5.71-13.21,5.82
			C293.49,812.52,293.34,812.53,293.2,812.53z M293.22,776.97c-0.13,0-0.26,0-0.39,0c-4.46,0.1-8.61,1.93-11.69,5.16
			c-3.08,3.22-4.72,7.46-4.62,11.91c0.1,4.46,1.93,8.61,5.16,11.69c3.22,3.08,7.5,4.74,11.91,4.62c4.46-0.1,8.61-1.93,11.69-5.16
			c3.08-3.22,4.72-7.46,4.62-11.91c-0.1-4.46-1.93-8.61-5.16-11.69C301.62,778.6,297.54,776.97,293.22,776.97z"/>
	</g>
	<g>
		<path class="st0" d="M373.68-20.99c-3.87,0-7.18-2.97-7.54-6.89c-0.38-4.16,2.7-7.85,6.86-8.23l0,0c1.99-0.18,3.98,0.43,5.54,1.72
			c1.56,1.3,2.51,3.12,2.69,5.14c0.18,2.01-0.43,3.98-1.72,5.53c-1.3,1.56-3.12,2.51-5.14,2.7C374.14-21,373.9-20.99,373.68-20.99z
			 M373.69-33.98c-0.16,0-0.33,0.01-0.5,0.02l0,0c-2.97,0.27-5.17,2.91-4.9,5.88c0.27,2.97,2.91,5.18,5.88,4.9
			c1.44-0.13,2.74-0.82,3.67-1.93c0.93-1.11,1.36-2.51,1.23-3.96c-0.13-1.44-0.81-2.74-1.93-3.67
			C376.16-33.55,374.95-33.98,373.69-33.98z M373.09-35.04h0.03H373.09z"/>
	</g>
	<g>
		<path class="st0" d="M-343.41,1005.47c-0.53,0-1.07-0.08-1.61-0.23l0,0c-3.05-0.89-4.81-4.09-3.92-7.14
			c0.89-3.05,4.1-4.79,7.14-3.92c1.48,0.43,2.7,1.41,3.44,2.76c0.74,1.35,0.91,2.91,0.48,4.38
			C-338.61,1003.83-340.91,1005.47-343.41,1005.47z M-344.41,1003.16c1.9,0.55,3.91-0.55,4.46-2.45c0.56-1.9-0.54-3.91-2.45-4.46
			c-1.9-0.56-3.91,0.54-4.46,2.45C-347.42,1000.6-346.32,1002.61-344.41,1003.16L-344.41,1003.16z"/>
	</g>
	<g>
		<path class="st0" d="M214.45,750.31c-12.78,0-23.51-10.05-24.19-22.96l0,0c-0.34-6.46,1.85-12.68,6.18-17.49
			c4.33-4.81,10.27-7.65,16.74-8c13.35-0.67,24.78,9.58,25.49,22.92c0.71,13.35-9.57,24.78-22.92,25.49
			C215.31,750.29,214.87,750.31,214.45,750.31z M214.47,703.99c-0.39,0-0.78,0.01-1.18,0.03c-5.89,0.31-11.3,2.9-15.25,7.28
			s-5.94,10.04-5.63,15.93l0,0c0.64,12.16,11.15,21.57,23.21,20.88c12.16-0.65,21.52-11.06,20.88-23.22
			C235.88,713.14,226.11,703.99,214.47,703.99z"/>
	</g>
	<g>
		<path class="st0" d="M-209.61,976.92c-0.28,0-0.56-0.02-0.84-0.05c-2.03-0.22-3.85-1.22-5.14-2.81c-1.28-1.59-1.86-3.59-1.64-5.62
			c0.22-2.03,1.22-3.85,2.81-5.14c1.59-1.28,3.6-1.86,5.62-1.64c2.03,0.22,3.85,1.22,5.14,2.81c1.28,1.59,1.86,3.59,1.64,5.62
			c-0.22,2.03-1.22,3.85-2.81,5.14C-206.2,976.33-207.87,976.92-209.61,976.92z M-209.63,963.78c-1.24,0-2.44,0.42-3.43,1.21
			c-1.14,0.92-1.86,2.22-2.02,3.68c-0.16,1.46,0.26,2.89,1.18,4.03c0.92,1.14,2.23,1.86,3.68,2.02c1.47,0.16,2.89-0.26,4.03-1.18
			c1.14-0.92,1.86-2.23,2.02-3.68c0.16-1.46-0.26-2.89-1.18-4.03c-0.92-1.14-2.23-1.86-3.68-2.02
			C-209.23,963.79-209.43,963.78-209.63,963.78z"/>
	</g>
	<g>
		<path class="st0" d="M88.48,54.55c-1.1,0-2.22-0.12-3.34-0.36c-8.49-1.84-13.9-10.24-12.06-18.73l0,0
			c1.84-8.49,10.25-13.91,18.73-12.06c8.49,1.84,13.9,10.24,12.06,18.73C102.27,49.5,95.73,54.55,88.48,54.55z M75.19,35.92
			c-1.58,7.32,3.08,14.57,10.4,16.16c7.33,1.59,14.57-3.08,16.16-10.4c1.58-7.32-3.08-14.57-10.4-16.16
			C84.02,23.93,76.78,28.6,75.19,35.92L75.19,35.92z"/>
	</g>
	<g>
		<path class="st0" d="M359.87,56.4c-0.75,0-1.51-0.11-2.26-0.33c-4.25-1.25-6.68-5.72-5.44-9.96c1.25-4.24,5.71-6.69,9.96-5.44
			c4.25,1.25,6.68,5.72,5.44,9.96v0C366.54,54.13,363.34,56.4,359.87,56.4z M359.88,42.51c-2.54,0-4.88,1.66-5.63,4.21
			c-0.91,3.1,0.87,6.37,3.97,7.28c3.1,0.9,6.36-0.87,7.28-3.97v0c0.91-3.1-0.87-6.37-3.97-7.28
			C360.98,42.59,360.42,42.51,359.88,42.51z M366.53,50.33h0.03H366.53z"/>
	</g>
	<g>
		<path class="st0" d="M-244.52,1121.19c-2.05,0-4.11-0.36-6.1-1.09c-4.42-1.63-7.95-4.88-9.93-9.16
			c-4.08-8.83-0.22-19.34,8.61-23.42c8.83-4.08,19.34-0.22,23.42,8.61c4.08,8.83,0.22,19.34-8.61,23.42
			C-239.49,1120.64-242,1121.19-244.52,1121.19z M-244.56,1088.05c-2.17,0-4.38,0.46-6.47,1.43c-7.75,3.58-11.14,12.8-7.55,20.55
			c1.74,3.75,4.83,6.61,8.71,8.03c3.88,1.43,8.09,1.26,11.84-0.48c7.75-3.58,11.14-12.8,7.55-20.55
			C-233.09,1091.38-238.7,1088.05-244.56,1088.05z"/>
	</g>
	<g>
		<path class="st0" d="M583.69,479.97c-1.66,0-3.34-0.15-5.01-0.45c-7.32-1.32-13.69-5.42-17.94-11.53
			c-8.76-12.62-5.62-30.02,7.01-38.78c12.62-8.76,30.02-5.62,38.78,7c8.76,12.62,5.62,30.02-7.01,38.78
			C594.8,478.26,589.32,479.97,583.69,479.97z M583.6,426.41c-5.05,0-10.16,1.48-14.62,4.58l0,0c-5.64,3.91-9.42,9.79-10.64,16.54
			c-1.22,6.76,0.26,13.58,4.18,19.22c8.08,11.65,24.13,14.55,35.77,6.46c11.64-8.08,14.54-24.12,6.46-35.77
			C599.76,430.26,591.74,426.41,583.6,426.41z M568.36,430.1h0.03H568.36z"/>
	</g>
	<g>
		<path class="st0" d="M-423.11,1080.69c-8.23,0-15.4-6.12-16.49-14.5c-1.18-9.1,5.26-17.46,14.36-18.65l0,0
			c9.12-1.18,17.46,5.26,18.65,14.36c1.18,9.1-5.26,17.46-14.36,18.65C-421.68,1080.64-422.4,1080.69-423.11,1080.69z
			 M-424.97,1049.69c-7.92,1.03-13.52,8.31-12.49,16.22c1.03,7.92,8.33,13.51,16.22,12.49c7.92-1.03,13.52-8.31,12.49-16.22
			C-409.77,1054.26-417.08,1048.66-424.97,1049.69L-424.97,1049.69z"/>
	</g>
	<g>
		<path class="st0" d="M-128.18,996.38c-2.93,0-5.88-0.92-8.38-2.83c-6.07-4.63-7.24-13.33-2.61-19.4c0,0,0,0,0,0
			c4.63-6.07,13.33-7.24,19.41-2.61c6.07,4.63,7.24,13.34,2.61,19.41C-119.88,994.5-124,996.38-128.18,996.38z M-137.45,975.45
			c-3.91,5.12-2.92,12.47,2.2,16.37c5.11,3.91,12.47,2.92,16.37-2.2c3.91-5.12,2.92-12.46-2.2-16.37
			C-126.2,969.34-133.54,970.33-137.45,975.45L-137.45,975.45z"/>
	</g>
	<g>
		<path class="st0" d="M94.69,1079.28c-2.09,0-4.19-0.79-5.79-2.37c-3.24-3.2-3.28-8.43-0.08-11.68c3.2-3.24,8.44-3.28,11.68-0.08
			c1.57,1.55,2.45,3.62,2.46,5.82c0.01,2.21-0.83,4.29-2.38,5.86C98.95,1078.46,96.82,1079.28,94.69,1079.28z M94.69,1064.94
			c-1.57,0-3.15,0.6-4.34,1.81c-2.36,2.39-2.33,6.26,0.06,8.61c2.39,2.36,6.26,2.33,8.61-0.06c1.14-1.16,1.77-2.69,1.76-4.32
			c-0.01-1.63-0.66-3.15-1.81-4.29C97.78,1065.53,96.23,1064.94,94.69,1064.94z"/>
	</g>
	<g>
		<path class="st0" d="M345.25,220.52c-1.86,0-3.72-0.63-5.24-1.93c-3.4-2.89-3.81-8.01-0.92-11.41l0,0c2.89-3.39,8-3.81,11.41-0.91
			c1.65,1.4,2.65,3.36,2.82,5.51c0.17,2.15-0.5,4.25-1.9,5.89C349.82,219.56,347.54,220.52,345.25,220.52z M340.74,208.59
			c-2.12,2.49-1.82,6.24,0.67,8.35c2.48,2.12,6.23,1.81,8.35-0.67c1.03-1.21,1.52-2.74,1.4-4.32c-0.13-1.58-0.86-3.01-2.07-4.04
			C346.61,205.81,342.86,206.11,340.74,208.59L340.74,208.59z"/>
	</g>
	<g>
		<path class="st0" d="M205.49,1160.15c-3.29,0-6.43-1.2-8.89-3.43c-2.63-2.38-4.18-5.64-4.36-9.18c-0.18-3.54,1.03-6.94,3.41-9.57
			c2.38-2.63,5.64-4.18,9.18-4.36c3.56-0.17,6.94,1.03,9.57,3.41c2.63,2.38,4.18,5.64,4.36,9.18c0.37,7.31-5.28,13.56-12.59,13.93
			l0,0C205.94,1160.14,205.72,1160.15,205.49,1160.15z M206.12,1159.05h0.03H206.12z M205.52,1135.76c-0.19,0-0.38,0.01-0.57,0.01
			c-2.97,0.15-5.69,1.45-7.68,3.65c-1.99,2.2-3.01,5.05-2.86,8.01c0.15,2.96,1.45,5.69,3.65,7.68c2.2,1.99,5.07,2.98,8.01,2.86l0,0
			c6.12-0.31,10.85-5.54,10.54-11.66c-0.15-2.96-1.45-5.69-3.65-7.68C210.9,1136.76,208.27,1135.76,205.52,1135.76z"/>
	</g>
	<g>
		<path class="st0" d="M-412.34,240.06c-3.12,0-6.28-0.69-9.26-2.14l0,0c-10.55-5.13-14.97-17.89-9.84-28.44
			c2.49-5.11,6.81-8.95,12.18-10.81c5.37-1.86,11.15-1.51,16.26,0.97c5.11,2.49,8.95,6.81,10.81,12.18
			c1.86,5.37,1.52,11.14-0.97,16.26C-396.84,235.64-404.44,240.06-412.34,240.06z M-420.65,235.97c9.48,4.61,20.94,0.64,25.55-8.84
			c2.23-4.59,2.54-9.78,0.87-14.6c-1.67-4.82-5.12-8.71-9.71-10.94c-4.59-2.23-9.78-2.54-14.6-0.87c-4.82,1.67-8.71,5.12-10.94,9.71
			C-434.1,219.91-430.14,231.37-420.65,235.97L-420.65,235.97z"/>
	</g>
	<g>
		<path class="st0" d="M406.07,209.46c-6.99,0-13.27-4.92-14.71-12.03l0,0c-0.8-3.93-0.02-7.94,2.2-11.28
			c2.21-3.34,5.6-5.63,9.53-6.42c3.92-0.8,7.94-0.02,11.28,2.2c3.35,2.21,5.63,5.6,6.43,9.53c0.8,3.93,0.02,7.94-2.2,11.28
			c-2.22,3.35-5.6,5.63-9.53,6.43C408.06,209.36,407.06,209.46,406.07,209.46z M406.11,181.58c-0.86,0-1.73,0.09-2.59,0.26
			c-3.37,0.68-6.26,2.64-8.16,5.5c-1.9,2.86-2.56,6.29-1.88,9.66l0,0c0.68,3.37,2.64,6.26,5.5,8.16c2.86,1.89,6.29,2.56,9.66,1.88
			c3.37-0.68,6.26-2.64,8.16-5.5c1.9-2.86,2.56-6.29,1.88-9.66c-0.68-3.37-2.64-6.26-5.5-8.16
			C411.05,182.31,408.6,181.58,406.11,181.58z"/>
	</g>
	<g>
		<path class="st0" d="M-179.91,845.76c-0.64,0-1.28-0.09-1.91-0.28c-1.72-0.51-3.14-1.66-4-3.23c-0.86-1.58-1.05-3.4-0.54-5.12
			c0.51-1.72,1.66-3.14,3.23-4c1.58-0.86,3.4-1.05,5.12-0.54c1.72,0.51,3.15,1.66,4,3.23c0.86,1.58,1.05,3.4,0.54,5.12
			c-0.51,1.72-1.66,3.14-3.23,4C-177.71,845.48-178.8,845.76-179.91,845.76z M-179.93,834.47c-0.75,0-1.5,0.19-2.17,0.56
			c-1.07,0.58-1.85,1.55-2.19,2.72s-0.21,2.4,0.37,3.47c0.58,1.07,1.55,1.85,2.72,2.19c1.16,0.34,2.4,0.22,3.47-0.37
			c1.07-0.58,1.85-1.55,2.19-2.72s0.21-2.4-0.37-3.47c-0.58-1.07-1.55-1.85-2.72-2.19l0,0
			C-179.06,834.53-179.5,834.47-179.93,834.47z"/>
	</g>
	<g>
		<path class="st0" d="M-268.94,494.07c-2.1,0-4.12-0.71-5.77-2.05c-1.92-1.54-3.12-3.74-3.38-6.19l0,0
			c-0.54-5.05,3.13-9.6,8.19-10.15c2.42-0.27,4.85,0.44,6.77,1.99c1.92,1.54,3.11,3.75,3.38,6.2c0.26,2.45-0.45,4.85-1.99,6.77
			c-1.55,1.92-3.75,3.11-6.2,3.38C-268.27,494.05-268.61,494.07-268.94,494.07z M-268.91,477.79c-0.25,0-0.5,0.01-0.76,0.04
			c-3.87,0.41-6.68,3.9-6.26,7.77l0,0c0.2,1.87,1.12,3.56,2.58,4.74c1.46,1.18,3.3,1.72,5.18,1.52c1.87-0.2,3.56-1.12,4.74-2.58
			c1.18-1.47,1.73-3.31,1.53-5.18C-262.29,480.49-265.36,477.79-268.91,477.79z"/>
	</g>
	<g>
		<path class="st0" d="M-329.83,893c-0.94,0-1.9-0.22-2.8-0.68c-1.45-0.75-2.51-2.02-3.01-3.57c-0.49-1.55-0.35-3.2,0.4-4.65
			c1.55-2.99,5.23-4.15,8.22-2.61c1.45,0.75,2.51,2.02,3.01,3.57c0.49,1.55,0.35,3.2-0.4,4.65C-325.49,891.8-327.62,893-329.83,893z
			 M-329.81,882.97c-1.42,0-2.8,0.78-3.5,2.12c-0.48,0.93-0.57,2-0.26,3c0.32,1,1.01,1.82,1.94,2.3c1.91,1,4.3,0.24,5.3-1.68
			c1-1.93,0.24-4.3-1.68-5.3C-328.59,883.11-329.21,882.97-329.81,882.97z"/>
	</g>
	<g>
		<path class="st0" d="M-327.25,91.82c-5.24,0-10.5-1.83-14.73-5.56c-4.47-3.94-7.14-9.38-7.52-15.32
			c-0.38-5.94,1.58-11.68,5.52-16.15c3.94-4.47,9.38-7.14,15.33-7.52c5.94-0.4,11.68,1.59,16.15,5.52
			c4.47,3.94,7.14,9.38,7.52,15.32c0.38,5.94-1.58,11.68-5.52,16.15l0,0C-314.9,89.26-321.06,91.82-327.25,91.82z M-327.21,49.39
			c-0.43,0-0.87,0.01-1.3,0.04c-5.37,0.34-10.28,2.75-13.84,6.79c-7.34,8.33-6.53,21.08,1.8,28.43c8.34,7.34,21.09,6.53,28.43-1.8
			l0,0c3.55-4.04,5.33-9.22,4.99-14.59c-0.34-5.37-2.75-10.28-6.79-13.84C-317.64,51.15-322.31,49.39-327.21,49.39z M-311.31,83.55
			h0.03H-311.31z"/>
	</g>
	<g>
		<path class="st0" d="M608.99,1102.93c-2.23,0-4.45-0.94-6.01-2.76c-1.37-1.6-2.03-3.65-1.87-5.75c0.17-2.1,1.14-4.01,2.75-5.38
			c1.6-1.37,3.62-2.02,5.74-1.87c2.1,0.16,4.02,1.14,5.38,2.74c1.37,1.6,2.03,3.65,1.87,5.75c-0.17,2.1-1.14,4.02-2.74,5.38
			C612.63,1102.31,610.81,1102.93,608.99,1102.93z M608.98,1089.31c-1.36,0-2.67,0.48-3.71,1.37c0,0,0,0,0,0
			c-1.16,1-1.87,2.38-1.99,3.91c-0.12,1.53,0.36,3.01,1.36,4.17c2.05,2.4,5.68,2.69,8.08,0.64c1.16-0.99,1.87-2.38,1.99-3.91
			c0.12-1.53-0.36-3.01-1.36-4.17c-1-1.16-2.38-1.87-3.91-1.99C609.28,1089.31,609.13,1089.31,608.98,1089.31z M604.56,1089.86h0.03
			H604.56z"/>
	</g>
	<g>
		<path class="st0" d="M602.72,204.28c-6.38,0-12.56-3.37-15.85-9.34l0,0c-4.81-8.72-1.63-19.74,7.1-24.55
			c4.23-2.33,9.11-2.87,13.74-1.54c4.64,1.34,8.47,4.41,10.8,8.63c4.81,8.72,1.63,19.74-7.09,24.55
			C608.65,203.56,605.67,204.28,602.72,204.28z M588.76,193.89c4.24,7.68,13.92,10.48,21.61,6.25c7.68-4.23,10.48-13.93,6.24-21.61
			c-2.05-3.72-5.43-6.42-9.51-7.6c-4.08-1.18-8.38-0.7-12.1,1.35C587.33,176.52,584.53,186.21,588.76,193.89L588.76,193.89z"/>
	</g>
	<g>
		<path class="st0" d="M-420.63,118.8c-0.39,0-0.76-0.21-0.96-0.58c-0.28-0.53-0.08-1.18,0.45-1.46l4.05-2.13
			c0.53-0.28,1.18-0.08,1.46,0.45c0.28,0.53,0.08,1.18-0.45,1.46l-4.05,2.13C-420.29,118.76-420.46,118.8-420.63,118.8z"/>
	</g>
	<g>
		<path class="st0" d="M567.18-35.76c-0.27,0-0.54-0.1-0.75-0.3l-3.26-3.14c-0.43-0.42-0.44-1.1-0.03-1.53
			c0.42-0.43,1.1-0.44,1.53-0.03l3.26,3.14c0.43,0.42,0.44,1.1,0.03,1.53C567.75-35.87,567.47-35.76,567.18-35.76z"/>
	</g>
	<g>
		<path class="st0" d="M475.27,196.82c-0.43,0-0.83-0.25-1-0.67l-0.71-1.75c-0.23-0.55,0.04-1.19,0.59-1.41
			c0.55-0.23,1.18,0.04,1.41,0.59l0.71,1.75c0.23,0.55-0.04,1.19-0.59,1.41C475.54,196.79,475.4,196.82,475.27,196.82z"/>
	</g>
	<g>
		<path class="st0" d="M-574.73-28.8c-0.43,0-0.83-0.25-1-0.67c-0.23-0.55,0.04-1.18,0.59-1.41l0.84-0.34
			c0.55-0.22,1.18,0.04,1.41,0.59c0.23,0.55-0.04,1.18-0.59,1.41l-0.84,0.34C-574.45-28.83-574.59-28.8-574.73-28.8z"/>
	</g>
	<g>
		<path class="st0" d="M-7.14,1104.18c-0.01,0-0.02,0-0.03,0c-0.6-0.01-1.07-0.51-1.05-1.11l0.1-3.97c0.02-0.6,0.38-1.08,1.11-1.05
			c0.6,0.01,1.07,0.51,1.05,1.11l-0.1,3.97C-6.07,1103.72-6.55,1104.18-7.14,1104.18z"/>
	</g>
	<g>
		<path class="st0" d="M-574.83,538.85c-0.24,0-0.48-0.08-0.68-0.24c-0.46-0.38-0.53-1.06-0.15-1.52l0.81-0.99
			c0.38-0.46,1.06-0.53,1.52-0.15c0.46,0.38,0.53,1.06,0.15,1.52l-0.81,0.99C-574.2,538.71-574.51,538.85-574.83,538.85z"/>
	</g>
	<g>
		<path class="st0" d="M206.09,454.93c-0.46,0-0.88-0.29-1.03-0.75l-1.4-4.37c-0.18-0.57,0.13-1.18,0.7-1.36
			c0.57-0.19,1.18,0.13,1.36,0.7l1.4,4.37c0.18,0.57-0.13,1.18-0.7,1.36C206.31,454.92,206.2,454.93,206.09,454.93z"/>
	</g>
	<g>
		<path class="st0" d="M-119.77,714.64c-0.46,0-0.89-0.3-1.03-0.76l-1.48-4.73c-0.18-0.57,0.14-1.18,0.71-1.36
			c0.57-0.18,1.18,0.14,1.36,0.71l1.48,4.73c0.18,0.57-0.14,1.18-0.71,1.36C-119.55,714.63-119.66,714.64-119.77,714.64z"/>
	</g>
	<g>
		<path class="st0" d="M-403.19,892.33c-0.19,0-0.38-0.05-0.56-0.15l-1.41-0.85c-0.51-0.31-0.68-0.97-0.37-1.49
			c0.31-0.51,0.97-0.67,1.49-0.37l1.41,0.85c0.51,0.31,0.68,0.97,0.37,1.49C-402.46,892.14-402.82,892.33-403.19,892.33z"/>
	</g>
	<g>
		<path class="st0" d="M-356.96,834.33c-0.06,0-0.12,0-0.19-0.02l-2.84-0.49c-0.59-0.1-0.98-0.66-0.88-1.25
			c0.1-0.59,0.66-1.01,1.25-0.88l2.84,0.49c0.59,0.1,0.98,0.66,0.88,1.25C-355.99,833.95-356.44,834.33-356.96,834.33z"/>
	</g>
	<g>
		<path class="st0" d="M-232.88,776.74c-0.21,0-0.42-0.06-0.6-0.18c-0.5-0.33-0.63-1.01-0.3-1.5l0.73-1.09
			c0.34-0.5,1.02-0.63,1.5-0.3c0.5,0.33,0.63,1.01,0.3,1.5l-0.73,1.09C-232.19,776.57-232.53,776.74-232.88,776.74z"/>
	</g>
	<g>
		<path class="st0" d="M-25.97,1041.92c-0.06,0-0.12,0-0.18-0.01c-0.59-0.1-0.99-0.66-0.89-1.25l0.4-2.39
			c0.1-0.59,0.67-0.98,1.25-0.89c0.59,0.1,0.99,0.66,0.89,1.25l-0.4,2.39C-24.99,1041.54-25.45,1041.92-25.97,1041.92z"/>
	</g>
	<g>
		<path class="st0" d="M-168.27,768.01c-0.32,0-0.63-0.14-0.84-0.41l-0.69-0.86c-0.37-0.46-0.3-1.15,0.17-1.52
			c0.46-0.37,1.15-0.3,1.52,0.17l0.69,0.86c0.37,0.46,0.3,1.15-0.17,1.52C-167.79,767.93-168.03,768.01-168.27,768.01z"/>
	</g>
	<g>
		<path class="st0" d="M-566.59,1006.08c-0.22,0-0.44-0.07-0.63-0.2c-0.48-0.35-0.59-1.03-0.24-1.51l0.84-1.16
			c0.35-0.48,1.02-0.6,1.51-0.24c0.48,0.35,0.59,1.02,0.24,1.51l-0.84,1.16C-565.92,1005.92-566.25,1006.08-566.59,1006.08z"/>
	</g>
	<g>
		<path class="st0" d="M-490.44,1146.12c-0.08,0-0.17-0.01-0.25-0.03l-0.87-0.21c-0.58-0.14-0.94-0.72-0.8-1.3
			c0.14-0.58,0.71-0.96,1.3-0.8l0.87,0.21c0.58,0.14,0.94,0.72,0.8,1.3C-489.5,1145.79-489.95,1146.12-490.44,1146.12z"/>
	</g>
	<g>
		<path class="st0" d="M-403.65,48.53c-0.44,0-0.86-0.27-1.02-0.71c-0.21-0.56,0.08-1.18,0.65-1.39l0.78-0.28
			c0.56-0.2,1.18,0.09,1.39,0.65c0.21,0.56-0.08,1.18-0.65,1.39l-0.78,0.28C-403.4,48.51-403.53,48.53-403.65,48.53z"/>
	</g>
	<g>
		<path class="st0" d="M174.85,60.62c-0.06,0-0.12,0-0.19-0.01l-3.41-0.59c-0.59-0.1-0.98-0.66-0.88-1.25
			c0.1-0.59,0.65-0.99,1.25-0.88l3.41,0.59c0.59,0.1,0.98,0.66,0.88,1.25C175.83,60.25,175.37,60.62,174.85,60.62z"/>
	</g>
	<g>
		<path class="st0" d="M-413.51,995.42c-0.54,0-1.01-0.41-1.07-0.96l-0.5-4.29c-0.07-0.59,0.36-1.13,0.95-1.2
			c0.58-0.05,1.13,0.36,1.2,0.95l0.5,4.29c0.07,0.59-0.36,1.13-0.95,1.2C-413.42,995.42-413.46,995.42-413.51,995.42z"/>
	</g>
	<g>
		<path class="st0" d="M50.53,92.51c-0.39,0-0.77-0.21-0.96-0.59c-0.27-0.53-0.07-1.19,0.46-1.46L52,89.45
			c0.53-0.27,1.19-0.06,1.46,0.47c0.27,0.53,0.07,1.19-0.46,1.46l-1.97,1.01C50.87,92.47,50.69,92.51,50.53,92.51z"/>
	</g>
	<g>
		<path class="st0" d="M414.12,120.09c-0.04,0-0.09,0-0.13-0.01l-2.16-0.26c-0.59-0.07-1.02-0.61-0.94-1.2
			c0.07-0.59,0.64-1.03,1.2-0.94l2.16,0.26c0.59,0.07,1.02,0.61,0.94,1.2C415.12,119.69,414.66,120.09,414.12,120.09z"/>
	</g>
	<g>
		<path class="st0" d="M613.15,652.2c-0.11,0-0.22-0.02-0.33-0.05c-0.57-0.18-0.88-0.79-0.7-1.36l0.81-2.5
			c0.18-0.56,0.79-0.87,1.36-0.7c0.57,0.18,0.88,0.79,0.7,1.36l-0.81,2.5C614.03,651.91,613.61,652.2,613.15,652.2z"/>
	</g>
	<g>
		<path class="st0" d="M-294.28,146.36c-0.04,0-0.07,0-0.11-0.01l-2.4-0.24c-0.59-0.06-1.03-0.59-0.97-1.18
			c0.06-0.59,0.58-1.03,1.18-0.97l2.4,0.24c0.59,0.06,1.03,0.59,0.97,1.18C-293.26,145.94-293.73,146.36-294.28,146.36z"/>
	</g>
	<g>
		<path class="st0" d="M609.33,1031.84c-0.39,0-0.78-0.22-0.97-0.59c-0.27-0.53-0.06-1.18,0.48-1.45l1.18-0.6
			c0.53-0.26,1.19-0.05,1.45,0.48c0.27,0.53,0.06,1.18-0.48,1.45l-1.18,0.6C609.66,1031.8,609.5,1031.84,609.33,1031.84z"/>
	</g>
	<g>
		<path class="st0" d="M-14,1155.46C-14,1155.46-14.01,1155.46-14,1155.46l-1.73-0.01c-0.6,0-1.08-0.49-1.07-1.09
			c0-0.6,0.43-1.05,1.09-1.07l1.72,0.01c0.6,0,1.08,0.49,1.07,1.09S-13.41,1155.46-14,1155.46z"/>
	</g>
	<g>
		<path class="st0" d="M452.01,1043.26c-0.53,0-0.99-0.39-1.07-0.93c-0.08-0.59,0.33-1.14,0.92-1.22l0.85-0.12
			c0.56-0.08,1.14,0.33,1.22,0.92c0.08,0.59-0.33,1.14-0.92,1.22l-0.85,0.12C452.12,1043.26,452.06,1043.26,452.01,1043.26z"/>
	</g>
	<g>
		<path class="st0" d="M98.52,485.61c-0.21,0-0.42-0.06-0.61-0.19c-0.49-0.34-0.62-1.01-0.28-1.5l2.64-3.85
			c0.34-0.49,1.01-0.62,1.5-0.28c0.49,0.34,0.62,1.01,0.28,1.5l-2.64,3.85C99.2,485.44,98.87,485.61,98.52,485.61z"/>
	</g>
	<g>
		<path class="st0" d="M144.83,683.34c-0.2,0-0.4-0.05-0.57-0.16c-0.51-0.32-0.66-0.99-0.34-1.49l0.6-0.95
			c0.32-0.51,0.99-0.66,1.49-0.34c0.51,0.32,0.66,0.99,0.34,1.49l-0.6,0.95C145.54,683.17,145.19,683.34,144.83,683.34z"/>
	</g>
	<g>
		<path class="st0" d="M-515.89,811.66c-0.16,0-0.33-0.04-0.48-0.11c-0.53-0.27-0.75-0.92-0.49-1.45l1.05-2.1
			c0.26-0.54,0.92-0.76,1.45-0.49c0.53,0.27,0.75,0.92,0.49,1.45l-1.05,2.1C-515.11,811.44-515.49,811.66-515.89,811.66z"/>
	</g>
	<g>
		<path class="st0" d="M-305.33-24.66c-0.29,0-0.58-0.12-0.79-0.34l-0.9-0.96c-0.41-0.44-0.38-1.12,0.05-1.53
			c0.43-0.41,1.12-0.38,1.53,0.05l0.9,0.96c0.41,0.44,0.38,1.12-0.05,1.53C-304.8-24.76-305.07-24.66-305.33-24.66z"/>
	</g>
	<g>
		<path class="st0" d="M17.05,906.13c-0.02,0-0.03,0-0.05,0c-0.6-0.03-1.06-0.53-1.03-1.13l0.07-1.59c0.03-0.6,0.52-1.13,1.13-1.03
			c0.6,0.03,1.06,0.53,1.03,1.13l-0.07,1.59C18.1,905.68,17.62,906.13,17.05,906.13z"/>
	</g>
	<g>
		<path class="st0" d="M32.6,1072.27c-0.17,0-0.33-0.04-0.49-0.12l-1.15-0.59c-0.53-0.27-0.74-0.92-0.47-1.46
			c0.27-0.53,0.93-0.74,1.46-0.47l1.15,0.59c0.53,0.27,0.74,0.92,0.47,1.46C33.37,1072.06,32.99,1072.27,32.6,1072.27z"/>
	</g>
	<g>
		<path class="st0" d="M-72.97,732.03c-0.24,0-0.49-0.08-0.69-0.25c-0.46-0.38-0.52-1.07-0.14-1.52l2.48-2.97
			c0.38-0.46,1.07-0.52,1.52-0.14c0.46,0.38,0.52,1.07,0.14,1.52l-2.48,2.97C-72.36,731.9-72.66,732.03-72.97,732.03z"/>
	</g>
	<g>
		<path class="st0" d="M-93.94,929.64c-0.08,0-0.15-0.01-0.23-0.02c-0.59-0.12-0.96-0.7-0.83-1.28l0.65-3.06
			c0.12-0.59,0.71-0.95,1.28-0.83c0.59,0.12,0.96,0.7,0.83,1.28l-0.65,3.06C-92.99,929.29-93.44,929.64-93.94,929.64z"/>
	</g>
	<g>
		<path class="st0" d="M-232.79,289.56c-0.45,0-0.87-0.28-1.02-0.73l-1.45-4.23c-0.19-0.56,0.11-1.18,0.67-1.37
			c0.56-0.2,1.18,0.11,1.37,0.67l1.45,4.23c0.19,0.56-0.11,1.18-0.67,1.37C-232.56,289.54-232.67,289.56-232.79,289.56z"/>
	</g>
	<g>
		<path class="st0" d="M-370.52,944.27c-0.46,0-0.89-0.3-1.03-0.76c-0.18-0.57,0.14-1.18,0.71-1.35l1.02-0.32
			c0.57-0.18,1.18,0.14,1.35,0.71c0.18,0.57-0.14,1.18-0.71,1.35l-1.02,0.31C-370.31,944.26-370.42,944.27-370.52,944.27z"/>
	</g>
	<g>
		<path class="st0" d="M92.31,704.45c-0.29,0-0.59-0.12-0.8-0.36c-0.4-0.44-0.37-1.13,0.07-1.53l0.81-0.74
			c0.44-0.4,1.13-0.37,1.53,0.07c0.4,0.44,0.37,1.13-0.07,1.53l-0.81,0.74C92.83,704.36,92.57,704.45,92.31,704.45z"/>
	</g>
	<g>
		<path class="st0" d="M-84.16-37.16c-0.29,0-0.58-0.12-0.79-0.34l-1.12-1.2c-0.41-0.44-0.38-1.12,0.05-1.53
			c0.44-0.41,1.12-0.38,1.53,0.05l1.12,1.2c0.41,0.44,0.38,1.12-0.05,1.53C-83.63-37.25-83.89-37.16-84.16-37.16z"/>
	</g>
	<g>
		<path class="st0" d="M614.3,920.18c-0.11,0-0.22-0.02-0.33-0.05c-0.57-0.18-0.89-0.79-0.7-1.36l1.09-3.42
			c0.18-0.57,0.79-0.89,1.36-0.7c0.57,0.18,0.89,0.79,0.7,1.36l-1.09,3.42C615.19,919.88,614.76,920.18,614.3,920.18z"/>
	</g>
	<g>
		<path class="st0" d="M410.32,68.01c-0.39,0-0.77-0.21-0.96-0.58l-0.61-1.18c-0.28-0.53-0.07-1.18,0.46-1.46
			c0.53-0.27,1.18-0.07,1.46,0.46l0.61,1.18c0.28,0.53,0.07,1.18-0.46,1.46C410.66,67.97,410.49,68.01,410.32,68.01z"/>
	</g>
	<g>
		<path class="st0" d="M404.49,859.91c-0.48,0-0.93-0.33-1.05-0.82c-0.15-0.58,0.21-1.17,0.78-1.31l1.18-0.3
			c0.58-0.16,1.17,0.21,1.31,0.78c0.15,0.58-0.21,1.17-0.78,1.31l-1.18,0.3C404.66,859.9,404.58,859.91,404.49,859.91z"/>
	</g>
	<g>
		<path class="st0" d="M48.23,1019.07c-0.17,0-0.34-0.04-0.5-0.12l-4.5-2.34c-0.53-0.27-0.74-0.93-0.46-1.46
			c0.27-0.53,0.93-0.74,1.46-0.46l4.5,2.34c0.53,0.27,0.74,0.93,0.46,1.46C49,1018.85,48.63,1019.07,48.23,1019.07z"/>
	</g>
	<g>
		<path class="st0" d="M-80.12,604.3c-0.14,0-0.28-0.03-0.42-0.08l-3.21-1.34c-0.55-0.23-0.81-0.86-0.58-1.42
			c0.23-0.56,0.87-0.8,1.42-0.58l3.21,1.34c0.55,0.23,0.81,0.86,0.58,1.42C-79.3,604.05-79.7,604.3-80.12,604.3z"/>
	</g>
	<g>
		<path class="st0" d="M-233.41,147.88c-0.15,0-0.31-0.03-0.46-0.1l-1.28-0.6c-0.54-0.25-0.77-0.9-0.52-1.44
			c0.25-0.54,0.9-0.77,1.44-0.52l1.28,0.6c0.54,0.25,0.77,0.9,0.52,1.44C-232.61,147.65-233,147.88-233.41,147.88z"/>
	</g>
	<g>
		<path class="st0" d="M255.29,1003.94c-0.4,0-0.79-0.23-0.98-0.62c-0.26-0.54-0.03-1.19,0.51-1.44l3.37-1.6
			c0.53-0.26,1.19-0.03,1.44,0.51c0.26,0.54,0.03,1.19-0.51,1.44l-3.37,1.6C255.6,1003.91,255.44,1003.94,255.29,1003.94z"/>
	</g>
	<g>
		<path class="st0" d="M617.09,86.97c-0.3,0-0.6-0.12-0.82-0.37l-2.95-3.38c-0.39-0.45-0.35-1.13,0.1-1.53
			c0.45-0.39,1.13-0.35,1.53,0.1l2.95,3.38c0.39,0.45,0.35,1.13-0.1,1.53C617.59,86.88,617.34,86.97,617.09,86.97z"/>
	</g>
	<g>
		<path class="st0" d="M-442.79,940.71c-0.13,0-0.26-0.02-0.39-0.07c-0.56-0.21-0.84-0.84-0.62-1.4l0.89-2.33
			c0.21-0.56,0.84-0.84,1.4-0.62c0.56,0.21,0.84,0.84,0.62,1.4l-0.89,2.33C-441.95,940.45-442.36,940.71-442.79,940.71z"/>
	</g>
	<g>
		<path class="st0" d="M-162.82,913.87c-0.41,0-0.8-0.23-0.98-0.62l-0.42-0.9c-0.25-0.54-0.02-1.19,0.52-1.44
			c0.54-0.26,1.19-0.02,1.44,0.52l0.42,0.9c0.25,0.54,0.02,1.19-0.52,1.44C-162.51,913.83-162.66,913.87-162.82,913.87z"/>
	</g>
	<g>
		<path class="st0" d="M-143.82,1139.99c-0.2,0-0.4-0.05-0.58-0.17c-0.5-0.32-0.65-0.99-0.33-1.49l0.76-1.18
			c0.32-0.51,0.99-0.65,1.49-0.33c0.5,0.32,0.65,0.99,0.33,1.49l-0.76,1.18C-143.12,1139.82-143.47,1139.99-143.82,1139.99z"/>
	</g>
	<g>
		<path class="st0" d="M608.66,863.28c-0.04,0-0.09,0-0.13-0.01c-0.59-0.07-1.02-0.61-0.94-1.2l0.43-3.57
			c0.07-0.59,0.65-1.01,1.2-0.94c0.59,0.07,1.02,0.61,0.94,1.2l-0.43,3.57C609.66,862.88,609.2,863.28,608.66,863.28z"/>
	</g>
	<g>
		<path class="st0" d="M-46.15,109.42c-0.07,0-0.15-0.01-0.23-0.03c-0.59-0.12-0.96-0.7-0.83-1.28l0.7-3.22
			c0.12-0.58,0.69-0.96,1.28-0.83c0.59,0.12,0.96,0.7,0.83,1.28l-0.7,3.23C-45.2,109.07-45.65,109.42-46.15,109.42z"/>
	</g>
	<g>
		<path class="st0" d="M-573.84,811.69c-0.25,0-0.49-0.08-0.69-0.25l-1.35-1.12c-0.46-0.38-0.52-1.07-0.14-1.52
			c0.39-0.46,1.07-0.52,1.52-0.14l1.35,1.12c0.46,0.38,0.52,1.07,0.14,1.52C-573.22,811.55-573.53,811.69-573.84,811.69z"/>
	</g>
	<g>
		<path class="st0" d="M-17.57,327.76c-0.32,0-0.65-0.15-0.86-0.42c-0.36-0.47-0.27-1.15,0.2-1.51l0.9-0.69
			c0.46-0.37,1.15-0.28,1.52,0.2c0.36,0.47,0.27,1.15-0.2,1.52l-0.9,0.69C-17.1,327.69-17.34,327.76-17.57,327.76z"/>
	</g>
	<g>
		<path class="st0" d="M383.18,509.94c-0.16,0-0.32-0.03-0.47-0.11c-0.54-0.26-0.76-0.91-0.5-1.45l0.9-1.87
			c0.26-0.54,0.91-0.76,1.45-0.5c0.54,0.26,0.76,0.91,0.5,1.45l-0.9,1.87C383.97,509.72,383.58,509.94,383.18,509.94z"/>
	</g>
	<g>
		<path class="st0" d="M419.99,641.19c-0.56,0-1.03-0.43-1.08-1c-0.04-0.6,0.4-1.12,1-1.16l3.13-0.24c0.58-0.05,1.12,0.4,1.16,1
			c0.04,0.6-0.4,1.12-1,1.16l-3.13,0.24C420.04,641.19,420.01,641.19,419.99,641.19z"/>
	</g>
	<g>
		<path class="st0" d="M482.59,335.15c-0.42,0-0.82-0.24-0.99-0.65c-0.24-0.55,0.01-1.19,0.56-1.42l1.01-0.44
			c0.54-0.24,1.18,0.01,1.42,0.56c0.24,0.55-0.01,1.19-0.56,1.42l-1.01,0.44C482.88,335.12,482.74,335.15,482.59,335.15z"/>
	</g>
	<g>
		<path class="st0" d="M228.2,951.56c-0.05,0-0.09,0-0.14-0.01l-1.52-0.19c-0.59-0.08-1.01-0.62-0.94-1.21
			c0.08-0.59,0.63-1.02,1.21-0.94l1.52,0.19c0.59,0.08,1.01,0.62,0.94,1.21C229.21,951.16,228.74,951.56,228.2,951.56z"/>
	</g>
	<g>
		<path class="st0" d="M-574.89,751.83c-0.18,0-0.36-0.04-0.53-0.14c-0.52-0.29-0.71-0.95-0.42-1.47l1.37-2.44
			c0.29-0.53,0.95-0.71,1.47-0.42c0.52,0.29,0.71,0.95,0.42,1.47l-1.37,2.44C-574.14,751.63-574.51,751.83-574.89,751.83z"/>
	</g>
	<g>
		<path class="st0" d="M-67.09,664.54c-0.26,0-0.52-0.09-0.73-0.28l-1.7-1.55c-0.44-0.4-0.47-1.09-0.07-1.53
			c0.4-0.44,1.09-0.47,1.53-0.07l1.7,1.55c0.44,0.4,0.47,1.09,0.07,1.53C-66.5,664.42-66.8,664.54-67.09,664.54z"/>
	</g>
	<g>
		<path class="st0" d="M616.61,727.28c-0.23,0-0.46-0.07-0.66-0.22l-2.08-1.6c-0.48-0.36-0.56-1.04-0.2-1.52
			c0.36-0.48,1.05-0.57,1.52-0.2l2.08,1.6c0.48,0.36,0.56,1.04,0.2,1.51C617.26,727.13,616.94,727.28,616.61,727.28z"/>
	</g>
	<g>
		<path class="st0" d="M365.57,825.62c-0.27,0-0.54-0.1-0.75-0.3c-0.43-0.41-0.45-1.1-0.03-1.53l1.67-1.75
			c0.42-0.43,1.1-0.45,1.53-0.03c0.43,0.41,0.45,1.1,0.03,1.53l-1.67,1.75C366.13,825.51,365.85,825.62,365.57,825.62z"/>
	</g>
	<g>
		<path class="st0" d="M-198.96,1151.39c-0.16,0-0.31-0.03-0.46-0.1c-0.54-0.26-0.77-0.9-0.52-1.44l0.59-1.24
			c0.26-0.54,0.9-0.77,1.44-0.52c0.54,0.26,0.77,0.9,0.52,1.44l-0.59,1.24C-198.17,1151.16-198.56,1151.39-198.96,1151.39z"/>
	</g>
	<g>
		<path class="st0" d="M611.33,1154.69c-0.07,0-0.14-0.01-0.21-0.02l-1.73-0.33c-0.59-0.11-0.97-0.68-0.86-1.27
			c0.11-0.59,0.68-0.97,1.27-0.86l1.73,0.33c0.59,0.11,0.97,0.68,0.86,1.27C612.29,1154.33,611.83,1154.69,611.33,1154.69z"/>
	</g>
	<g>
		<path class="st0" d="M419.45,9.67c-0.09,0-0.18-0.01-0.28-0.04c-0.58-0.15-0.92-0.74-0.77-1.32l0.22-0.85
			c0.15-0.57,0.74-0.93,1.32-0.77c0.58,0.15,0.92,0.74,0.77,1.32l-0.22,0.85C420.37,9.35,419.93,9.67,419.45,9.67z"/>
	</g>
	<g>
		<path class="st0" d="M218.15,1038.16c-0.45,0-0.87-0.28-1.02-0.73c-0.19-0.56,0.11-1.18,0.67-1.37l0.78-0.27
			c0.57-0.2,1.18,0.11,1.37,0.67c0.19,0.56-0.11,1.18-0.67,1.37l-0.78,0.27C218.38,1038.14,218.27,1038.16,218.15,1038.16z"/>
	</g>
	<g>
		<path class="st0" d="M497.37,1152.3c-0.29,0-0.59-0.12-0.8-0.35c-0.4-0.44-0.37-1.13,0.07-1.53l1.45-1.32
			c0.44-0.4,1.13-0.37,1.53,0.07c0.4,0.44,0.37,1.13-0.07,1.53l-1.45,1.32C497.9,1152.21,497.63,1152.3,497.37,1152.3z"/>
	</g>
	<g>
		<path class="st0" d="M-53.17,988.87c-0.35,0-0.7-0.17-0.9-0.49l-0.55-0.83c-0.33-0.5-0.19-1.17,0.31-1.5
			c0.5-0.33,1.17-0.19,1.5,0.31l0.55,0.83c0.33,0.5,0.19,1.17-0.31,1.5C-52.76,988.82-52.97,988.87-53.17,988.87z"/>
	</g>
	<g>
		<path class="st0" d="M-510.33,544.64c-0.07,0-0.15-0.01-0.23-0.02c-0.58-0.13-0.96-0.7-0.83-1.29l0.65-3.02
			c0.13-0.58,0.69-0.95,1.29-0.83c0.58,0.13,0.96,0.7,0.83,1.29l-0.65,3.02C-509.38,544.3-509.83,544.64-510.33,544.64z"/>
	</g>
	<g>
		<path class="st0" d="M327.63,867.05c-0.5,0-0.94-0.35-1.05-0.85c-0.13-0.59,0.24-1.16,0.83-1.29l0.82-0.18
			c0.6-0.12,1.16,0.24,1.29,0.83c0.13,0.59-0.24,1.16-0.83,1.29l-0.82,0.18C327.79,867.04,327.71,867.05,327.63,867.05z"/>
	</g>
	<g>
		<path class="st0" d="M-424.84,697.76c-0.52,0-0.98-0.37-1.07-0.9c-0.1-0.59,0.3-1.15,0.89-1.24l0.96-0.16
			c0.57-0.11,1.15,0.3,1.24,0.89c0.1,0.59-0.3,1.15-0.89,1.24l-0.96,0.16C-424.72,697.76-424.78,697.76-424.84,697.76z"/>
	</g>
	<g>
		<path class="st0" d="M384.31,457.61c-0.37,0-0.72-0.19-0.93-0.52l-1.09-1.81c-0.31-0.51-0.15-1.18,0.37-1.49
			c0.51-0.3,1.18-0.15,1.49,0.37l1.09,1.81c0.31,0.51,0.15,1.18-0.37,1.49C384.69,457.56,384.5,457.61,384.31,457.61z"/>
	</g>
	<g>
		<path class="st0" d="M2.95,119.56c-0.51,0-0.96-0.36-1.06-0.87c-0.12-0.59,0.26-1.16,0.85-1.27l1.62-0.32
			c0.6-0.12,1.16,0.26,1.27,0.85c0.12,0.59-0.26,1.16-0.85,1.27l-1.62,0.32C3.09,119.55,3.02,119.56,2.95,119.56z"/>
	</g>
	<g>
		<path class="st0" d="M491.13,716.14c-0.16,0-0.33-0.04-0.48-0.11c-0.53-0.27-0.75-0.92-0.48-1.45l0.44-0.89
			c0.27-0.53,0.91-0.75,1.45-0.48c0.53,0.27,0.75,0.92,0.48,1.45l-0.44,0.89C491.91,715.92,491.53,716.14,491.13,716.14z"/>
	</g>
	<g>
		<path class="st0" d="M-230.92,903.41c-0.59,0-1.08-0.48-1.08-1.08c0-0.6,0.48-1.08,1.08-1.09l4.43-0.03c0,0,0,0,0.01,0
			c0.59,0,1.08,0.48,1.08,1.08c0,0.6-0.48,1.08-1.08,1.09L-230.92,903.41C-230.91,903.41-230.92,903.41-230.92,903.41z"/>
	</g>
	<g>
		<path class="st0" d="M38.97,734.9c-0.23,0-0.47-0.07-0.66-0.23l-0.78-0.61c-0.47-0.37-0.56-1.05-0.19-1.52
			c0.36-0.48,1.05-0.56,1.52-0.19l0.78,0.61c0.47,0.37,0.56,1.05,0.19,1.52C39.61,734.76,39.29,734.9,38.97,734.9z"/>
	</g>
	<g>
		<path class="st0" d="M501.64,566.77c-0.59,0-1.07-0.47-1.08-1.06l-0.04-2.2c-0.01-0.6,0.46-1.09,1.06-1.1
			c0.61,0.05,1.09,0.46,1.1,1.06l0.04,2.2c0.01,0.6-0.46,1.09-1.06,1.1C501.65,566.77,501.64,566.77,501.64,566.77z"/>
	</g>
	<g>
		<path class="st0" d="M454.02-32.4c-0.04,0-0.07,0-0.11-0.01l-4.04-0.4c-0.59-0.06-1.03-0.59-0.97-1.18
			c0.06-0.59,0.59-1.04,1.18-0.97l4.04,0.4c0.59,0.06,1.03,0.59,0.97,1.18C455.04-32.81,454.57-32.4,454.02-32.4z"/>
	</g>
	<g>
		<path class="st0" d="M-573.09,173.69c-0.32,0-0.64-0.14-0.85-0.41c-0.37-0.47-0.29-1.15,0.18-1.52l1.72-1.35
			c0.47-0.36,1.15-0.29,1.52,0.18c0.37,0.47,0.29,1.15-0.18,1.52l-1.72,1.35C-572.62,173.62-572.85,173.69-573.09,173.69z"/>
	</g>
	<g>
		<path class="st0" d="M-30.92,216.63c-0.3,0-0.6-0.13-0.81-0.37l-2.14-2.44c-0.39-0.45-0.35-1.13,0.1-1.53
			c0.45-0.39,1.13-0.35,1.53,0.1l2.14,2.44c0.39,0.45,0.35,1.13-0.1,1.53C-30.41,216.54-30.67,216.63-30.92,216.63z"/>
	</g>
	<g>
		<path class="st0" d="M-66.42,160.52c-0.2,0-0.39-0.05-0.57-0.16l-0.96-0.6c-0.51-0.31-0.66-0.98-0.35-1.49
			c0.32-0.51,0.99-0.66,1.49-0.35l0.96,0.6c0.51,0.32,0.66,0.98,0.35,1.49C-65.71,160.34-66.06,160.52-66.42,160.52z"/>
	</g>
	<g>
		<path class="st0" d="M137.76,858.37c-0.26,0-0.51-0.09-0.72-0.27c-0.45-0.4-0.49-1.08-0.1-1.53l1.19-1.34
			c0.4-0.45,1.08-0.49,1.53-0.1c0.45,0.4,0.49,1.08,0.1,1.53l-1.19,1.34C138.36,858.25,138.06,858.37,137.76,858.37z"/>
	</g>
	<g>
		<path class="st0" d="M-112.08,872.21c-0.12,0-0.25-0.02-0.37-0.07l-0.95-0.35c-0.56-0.21-0.85-0.83-0.64-1.39
			c0.21-0.56,0.82-0.85,1.39-0.64l0.95,0.35c0.56,0.21,0.85,0.83,0.64,1.39C-111.23,871.94-111.64,872.21-112.08,872.21z"/>
	</g>
	<g>
		<path class="st0" d="M552.63,1152.88c-0.38,0-0.75-0.21-0.95-0.57c-0.29-0.52-0.09-1.18,0.43-1.47l2.87-1.56
			c0.52-0.28,1.18-0.09,1.47,0.44c0.29,0.52,0.09,1.18-0.44,1.47l-2.87,1.56C552.98,1152.83,552.8,1152.88,552.63,1152.88z"/>
	</g>
	<g>
		<path class="st0" d="M374.75,660.52c-0.52,0-0.99-0.38-1.07-0.91l-0.31-2.01c-0.09-0.59,0.31-1.14,0.9-1.24
			c0.59-0.07,1.15,0.31,1.24,0.9l0.31,2.01c0.09,0.59-0.31,1.14-0.9,1.24C374.87,660.52,374.81,660.52,374.75,660.52z"/>
	</g>
	<g>
		<path class="st0" d="M508.14-25.17c-0.18,0-0.36-0.04-0.53-0.14c-0.52-0.29-0.71-0.95-0.42-1.47l2.31-4.15
			c0.29-0.52,0.95-0.71,1.47-0.42c0.52,0.29,0.71,0.95,0.42,1.47l-2.31,4.15C508.89-25.37,508.52-25.17,508.14-25.17z"/>
	</g>
	<g>
		<path class="st0" d="M436.22,435.67c-0.02,0-0.04,0-0.06,0l-3.28-0.19c-0.6-0.03-1.05-0.55-1.02-1.14
			c0.03-0.6,0.54-1.05,1.14-1.02l3.28,0.19c0.6,0.03,1.05,0.55,1.02,1.14C437.27,435.23,436.79,435.67,436.22,435.67z"/>
	</g>
	<g>
		<path class="st0" d="M558.27,993.24c-0.13,0-0.26-0.02-0.39-0.07l-1.57-0.6c-0.56-0.21-0.84-0.84-0.62-1.4
			c0.21-0.56,0.84-0.83,1.4-0.62l1.57,0.6c0.56,0.21,0.84,0.84,0.62,1.4C559.12,992.98,558.71,993.24,558.27,993.24z"/>
	</g>
	<g>
		<path class="st0" d="M483.09,403.74c-0.45,0-0.87-0.28-1.02-0.73l-0.78-2.24c-0.2-0.56,0.1-1.18,0.67-1.38
			c0.56-0.19,1.18,0.1,1.38,0.67l0.78,2.24c0.2,0.56-0.1,1.18-0.67,1.38C483.33,403.72,483.21,403.74,483.09,403.74z"/>
	</g>
</g>
</svg>
