<?xml version="1.0" encoding="utf-8"?>
<!-- Generator: Adobe Illustrator 26.0.1, SVG Export Plug-In . SVG Version: 6.00 Build 0)  -->
<svg version="1.1" id="_x5F_" xmlns="http://www.w3.org/2000/svg" xmlns:xlink="http://www.w3.org/1999/xlink" x="0px" y="0px"
	 viewBox="0 0 600 450" style="enable-background:new 0 0 600 450;" xml:space="preserve">
<style type="text/css">
	.st0{fill:#00FFFF;}
	.st1{fill:#366394;}
	.st2{fill:#8ABEBA;}
	.st3{fill:#366294;}
	.st4{fill:#99CCCC;}
	.st5{fill:#6B92B3;}
	.st6{fill:#526E84;}
	.st7{fill:#1A375F;}
	.st8{fill:#FFFFFF;}
</style>
<g>
	<g>
		<g>
			<path class="st0" d="M194.9,391.1c-1.5-1-3-1.9-4.5-3c-1.2-0.9-2.4-1.9-3.8-2.4c0-2,0.4-4,0.6-6c0.2-1.3,0.4-3-0.1-4.3
				c0.1-0.2-0.1-0.6-0.4-0.5c-3.2,1.5-5.9,3.9-8.6,6c-3.3-1.4-6.6-3-10.1-3.8c0,0,0,0,0-0.1c-0.1-0.2-0.5-0.1-0.4,0.1
				c1,3.3,1.9,7,3.6,10c-1.3,1.1-2.3,2.5-3.4,3.9c-1.2,1.5-2.4,3-3.4,4.6c-0.1,0.2,0.1,0.4,0.3,0.4c1.9,0.3,3.9,0,5.8-0.1
				c1.6-0.1,3.1-0.1,4.7-0.4c1.2,2.5,2.5,5,4,7.4c0.1,0.2,0.2,0.3,0.3,0.5c0.3,0.5,0.6,0.9,0.9,1.4c0.2,0.3,0.6,0,0.6-0.3
				c0.2-0.2,0.4-0.5,0.6-0.8c0.1-0.1,0.2-0.3,0.2-0.5c1.4-2.5,1.8-5.7,3-8.2c0,0,0-0.1,0-0.1c3.3-0.5,7-2,10.1-3.2
				c0.1,0,0.1-0.1,0.2-0.1C195.1,391.6,195.2,391.3,194.9,391.1z M184.2,394.7c-0.1,0-0.1,0.1-0.1,0.1c0,0-0.1,0-0.1,0.1
				c-0.7,1.6-1.2,3.2-1.8,4.9c-0.3,1.1-0.8,2.1-1.2,3.1c-0.1,0.1-0.2,0.1-0.3,0.2c-0.1,0.1-0.2,0-0.4,0c-0.2-0.1-0.5-0.4-0.8-0.5
				c-1.4-2.4-2.7-4.8-4-7.3c0-0.2-0.1-0.5-0.4-0.4c-3.3,0.6-6.7,0.5-10.1,0.8c1-1.3,2-2.6,3.1-3.9c1.1-1.4,2.5-2.7,3.4-4.3
				c0.1-0.1,0.2-0.2,0.1-0.4c-1.3-2.5-1.9-5.2-2.9-7.8c0.1-0.2,0.1-0.4,0-0.6c0.1-0.1,0.1-0.2,0.1-0.3c0,0,0-0.1,0-0.1
				c0.2,0,0.4-0.1,0.5-0.1c2.8,1.1,5.5,2.2,8.3,3.2c0.1,0.1,0.2,0.2,0.3,0.1c0,0,0,0,0.1,0c0.2,0.1,0.4-0.1,0.4-0.3
				c2.2-1.4,4-3.1,6.1-4.5c0.4-0.2,0.9-0.3,1.3-0.3c0.4,0.1,0.4,0.6,0.6,1c-0.1,2.7-0.9,5.3-0.7,8c0,0,0,0.1,0,0.2c0,0,0,0.1,0,0.1
				c0,0.2,0.2,0.3,0.4,0.3c1.3,1,2.9,1.9,4.2,2.9c1.1,0.8,2.2,1.7,3.5,2.3C190.8,392.4,187.1,393.1,184.2,394.7z M170.7,394.5
				c-1.2-0.5-2.7-0.2-3.9,0.1c-0.3,0.1-0.2,0.5,0.1,0.4c1.3-0.1,2.5-0.1,3.8-0.1C170.9,394.9,171,394.6,170.7,394.5z M172.6,394.2
				c-0.2,0-0.4,0-0.6-0.1c-0.3-0.1-0.5,0.3-0.2,0.5c0.3,0.2,0.6,0.3,0.9,0.1C172.8,394.6,172.8,394.3,172.6,394.2z M185,393
				c-1.6,0.2-2.2,2.5-2.9,3.6c-0.1,0.2,0.1,0.4,0.3,0.2c0.9-1.2,1.3-2.9,2.7-3.5C185.2,393.2,185.1,393,185,393z"/>
			<path class="st0" d="M140.8,303.2c-0.6-0.4-1.2-0.8-1.8-1.2c-0.5-0.4-1-0.8-1.6-1c0-0.8,0.2-1.6,0.2-2.4c0.1-0.5,0.2-1.2-0.1-1.7
				c0.1-0.1,0-0.2-0.1-0.2c-1.3,0.6-2.4,1.6-3.5,2.4c-1.2-0.5-2.3-1-3.6-1.4c0,0,0,0-0.1,0c-0.2,0-0.3-0.1-0.5-0.1
				c-0.1-0.1-0.2-0.1-0.2,0c0.4,1.3,0.8,2.8,1.5,4c-0.5,0.4-0.9,1-1.4,1.6c-0.5,0.6-1,1.2-1.4,1.9c-0.1,0.1,0,0.2,0.1,0.1
				c0.8,0.1,1.6,0,2.3,0c0.6,0,1.3-0.1,1.9-0.2c0.5,1,1,2,1.6,3c0,0.1,0.1,0.1,0.1,0.2c0.1,0.2,0.2,0.4,0.4,0.6
				c0.1,0.1,0.2,0,0.2-0.1c0.1-0.1,0.1-0.2,0.2-0.3c0.1,0,0.1-0.1,0.1-0.2c0.6-1,0.8-2.3,1.2-3.4c1.4-0.2,2.8-0.8,4.1-1.3
				c0,0,0.1,0,0.1-0.1C140.9,303.4,140.9,303.3,140.8,303.2z M136.5,304.6C136.5,304.7,136.5,304.7,136.5,304.6
				C136.4,304.7,136.4,304.7,136.5,304.6c-0.4,0.7-0.6,1.4-0.8,2.1c-0.1,0.4-0.3,0.8-0.5,1.2c-0.2,0.1-0.3,0.1-0.4,0
				c-0.1,0-0.1,0-0.1-0.1c-0.6-1-1.1-2-1.6-3c0-0.1-0.1-0.2-0.2-0.2c-1.3,0.2-2.7,0.2-4.1,0.3c0.4-0.5,0.8-1,1.2-1.6
				c0.5-0.6,1-1.1,1.4-1.7c0.1,0,0.1-0.1,0.1-0.1c-0.5-1-0.8-2.1-1.2-3.1c0-0.1,0-0.2,0-0.2c0-0.1,0-0.1,0.1-0.2c0.1,0,0.1,0,0.2,0
				c1.1,0.4,2.2,0.9,3.4,1.3c0,0,0.1,0.1,0.1,0c0.1,0,0.2,0,0.2-0.1c0.9-0.5,1.6-1.2,2.5-1.8c0.1-0.1,0.3-0.1,0.4-0.1
				c0.2,0,0.3,0.2,0.4,0.4c0,1.1-0.4,2.2-0.3,3.3c0,0,0,0.1,0,0.1c0,0.1,0.1,0.1,0.2,0.1c0.5,0.4,1.1,0.8,1.7,1.2
				c0.4,0.3,0.9,0.7,1.4,0.9C139.1,303.7,137.7,304,136.5,304.6z M131.1,304.5c-0.5-0.2-1.1-0.1-1.6,0c-0.1,0-0.1,0.2,0,0.2
				c0.5,0,1,0,1.5,0C131.1,304.7,131.1,304.6,131.1,304.5z M131.5,304.4c-0.1,0-0.2,0.1-0.1,0.2c0.2,0.1,0.1,0.1,0.3,0
				c0.1,0,0.1-0.2,0-0.2C131.7,304.4,131.6,304.4,131.5,304.4z M135.6,305.4c-0.1,0.1,0.1,0.2,0.1,0.1c0.3-0.5,0.5-1.2,1.1-1.4
				c0.1,0,0-0.1,0-0.1C136.2,304.1,135.9,304.9,135.6,305.4z"/>
			<path class="st1" d="M281.4,401.6c0,0,0.1-0.1,0.1-0.1c0.1-0.1,0.1-0.3-0.1-0.4c-1.2-0.2-2.4-0.3-3.6-0.6c-1-0.2-2-0.5-3.1-0.4
				c-0.5-1.2-0.9-2.6-1.3-3.9c-0.3-0.9-0.6-2-1.3-2.6c0-0.2-0.2-0.4-0.4-0.2c-1.5,1.9-2.6,4.1-3.6,6.2c-2.4,0.1-5,0-7.3,0.5
				c0,0,0,0,0,0c-0.1-0.1-0.3,0.1-0.2,0.2c1.5,1.7,3.1,3.8,5.1,5.1c-0.5,1-0.7,2.2-1,3.3c-0.3,1.3-0.6,2.5-0.8,3.8
				c0,0.2,0.2,0.2,0.3,0.1c1.3-0.4,2.4-1.1,3.5-1.7c1-0.5,1.9-1,2.8-1.6c1.5,1.2,3,2.4,4.5,3.4c0.1,0.1,0.2,0.2,0.3,0.2
				c0.3,0.2,0.6,0.4,0.9,0.6c0.2,0.1,0.4-0.2,0.3-0.3c0-0.2,0.1-0.4,0.1-0.6c0-0.1,0.1-0.2,0-0.3c0.1-1.9-0.5-4-0.5-5.9
				c0,0,0,0,0-0.1C278,405.2,279.9,403.2,281.4,401.6z"/>
			<path class="st2" d="M285.1,240.4c0.1-0.1,0.1-0.3-0.1-0.4c-1.2-0.2-2.4-0.3-3.6-0.6c-1-0.2-2-0.5-3.1-0.4
				c-0.5-1.2-0.9-2.6-1.3-3.9c-0.3-0.9-0.6-2-1.3-2.6c0-0.2-0.2-0.4-0.4-0.2c-1.5,1.9-2.6,4.1-3.6,6.2c-2.4,0.1-5,0-7.3,0.5
				c0,0,0,0,0,0c-0.1-0.1-0.3,0.1-0.2,0.2c1.5,1.7,3.1,3.8,5.1,5.1c-0.5,1-0.7,2.2-1,3.3c-0.3,1.3-0.6,2.6-0.8,3.8
				c0,0.2,0.2,0.2,0.3,0.1c1.3-0.4,2.4-1.1,3.5-1.7c1-0.5,1.9-1,2.8-1.6c1.5,1.2,3,2.4,4.5,3.4c0.1,0.1,0.2,0.2,0.3,0.2
				c0.3,0.2,0.6,0.4,0.9,0.6c0.2,0.1,0.4-0.2,0.3-0.3c0-0.2,0.1-0.4,0.1-0.6c0-0.1,0.1-0.2,0-0.3c0.1-1.9-0.5-4-0.5-5.9
				c0,0,0-0.1,0-0.1c1.9-1.2,3.8-3.2,5.3-4.8C285.1,240.5,285.1,240.5,285.1,240.4z"/>
			<path class="st1" d="M357.1,308.5c0,0,0.1,0.1,0.2,0.1c0.2,0.1,0.3,0.2,0.5,0.3c0.1,0.1,0.2-0.1,0.1-0.2c0-0.1,0-0.2,0.1-0.4
				c0-0.1,0-0.1,0-0.2c0.1-1.1-0.3-2.2-0.3-3.3c1.1-0.7,2.1-1.8,2.9-2.7c0,0,0,0,0-0.1c0.1-0.1,0-0.2-0.1-0.2
				c-0.7-0.1-1.3-0.2-2-0.3c-0.5-0.1-1.1-0.3-1.7-0.2c-0.3-0.7-0.5-1.4-0.7-2.1c-0.1-0.5-0.3-1.1-0.7-1.5c0-0.1-0.1-0.2-0.2-0.1
				c-0.8,1-1.4,2.2-2,3.4c-1.3,0-2.7,0-4,0.3c-0.1-0.1-0.2,0-0.1,0.1c0.9,1,1.7,2.1,2.8,2.9c-0.3,0.6-0.4,1.2-0.5,1.8
				c-0.2,0.7-0.4,1.4-0.4,2.1c0,0.1,0.1,0.1,0.2,0.1c0.7-0.2,1.3-0.6,2-0.9c0.5-0.3,1-0.5,1.5-0.9
				C355.4,307.3,356.2,307.9,357.1,308.5z"/>
			<path class="st1" d="M379,239.8C379,239.8,379,239.8,379,239.8c-0.2-0.1-0.3,0.1-0.2,0.2c1.5,1.2,3.1,2.6,4.9,3.4
				c-0.2,0.9-0.2,1.9-0.3,2.9c-0.1,1.1-0.1,2.2-0.1,3.2c0,0.2,0.2,0.2,0.3,0.1c1-0.5,1.8-1.3,2.6-1.9c0.7-0.5,1.4-1.1,2-1.7
				c1.4,0.8,2.8,1.5,4.2,2.1c0.1,0.1,0.2,0.1,0.3,0.1c0.3,0.1,0.6,0.2,0.9,0.4c0.2,0.1,0.3-0.2,0.2-0.3c0-0.2,0-0.4,0-0.5
				c0-0.1,0-0.2,0-0.3c-0.2-1.6-1-3.2-1.3-4.7c0,0,0,0,0-0.1c1.4-1.3,2.6-3.2,3.6-4.7c0,0,0-0.1,0-0.1c0.1-0.1,0-0.3-0.1-0.3
				c-1,0-2,0.1-3,0.1c-0.8,0-1.7-0.1-2.5,0.1c-0.6-0.9-1.1-1.9-1.6-2.9c-0.4-0.7-0.8-1.5-1.5-1.9c0-0.2-0.2-0.3-0.3-0.1
				c-1,1.7-1.5,3.7-2,5.6C382.9,238.7,380.8,239.1,379,239.8z"/>
			<path class="st0" d="M245.5,119.9C245.5,119.9,245.5,119.9,245.5,119.9c0.1-0.1,0.1-0.2,0-0.2c-0.5-0.1-0.9-0.1-1.4-0.2
				c-0.4-0.1-0.8-0.2-1.2-0.2c-0.2-0.5-0.3-1-0.5-1.5c-0.1-0.3-0.2-0.8-0.5-1c0-0.1-0.1-0.1-0.1-0.1c-0.6,0.7-1,1.6-1.4,2.4
				c-0.9,0-1.9,0-2.8,0.2c-0.1-0.1-0.1,0-0.1,0.1c0.6,0.7,1.2,1.5,2,2c-0.2,0.4-0.3,0.9-0.4,1.3c-0.1,0.5-0.2,1-0.3,1.5
				c0,0.1,0.1,0.1,0.1,0.1c0.5-0.1,0.9-0.4,1.4-0.7c0.4-0.2,0.7-0.4,1.1-0.6c0.6,0.5,1.1,0.9,1.8,1.3c0,0,0.1,0.1,0.1,0.1
				c0.1,0.1,0.2,0.2,0.4,0.2c0.1,0.1,0.1-0.1,0.1-0.1c0-0.1,0-0.2,0.1-0.2c0,0,0-0.1,0-0.1c0.1-0.8-0.2-1.6-0.2-2.3
				C244.2,121.3,244.9,120.6,245.5,119.9z"/>
			<path class="st3" d="M138.1,64.4c-0.5-0.1-1.1-0.3-1.7-0.2c-0.3-0.7-0.5-1.4-0.7-2.1c-0.1-0.5-0.3-1.1-0.7-1.5
				c0-0.1-0.1-0.2-0.2-0.1c-0.8,1-1.4,2.2-2,3.4c-1.3,0-2.7,0-4,0.3c-0.1-0.1-0.2,0-0.1,0.1c0.9,1,1.7,2.1,2.8,2.8
				c-0.3,0.6-0.4,1.2-0.5,1.8c-0.2,0.7-0.4,1.4-0.4,2.1c0,0.1,0.1,0.1,0.2,0.1c0.7-0.2,1.3-0.6,2-0.9c0.5-0.3,1-0.5,1.5-0.9
				c0.8,0.7,1.6,1.3,2.5,1.9c0.1,0.1,0.1,0.1,0.2,0.1c0.2,0.1,0.3,0.2,0.5,0.3c0.1,0.1,0.2-0.1,0.1-0.2c0-0.1,0.1-0.2,0.1-0.4
				c0-0.1,0-0.1,0-0.2c0.1-1.1-0.3-2.2-0.3-3.3c1.1-0.7,2.1-1.8,2.9-2.7c0,0,0-0.1,0-0.1c0.1-0.1,0-0.2-0.1-0.2
				C139.4,64.7,138.8,64.6,138.1,64.4z"/>
			<path class="st0" d="M147.3,338.8c-2.9-2.4-6.5-4-9.8-5.7c-0.1-3.8-0.1-7.9-0.9-11.6c0,0,0,0,0.1-0.1c0.2-0.2-0.1-0.5-0.3-0.4
				c-2.8,2.5-6,5-8.1,8.1c-1.6-0.8-3.5-1.1-5.3-1.5c-2-0.5-4.1-1-6.1-1.2c-0.3,0-0.4,0.3-0.2,0.5c0.6,2,1.8,3.8,2.7,5.6
				c0.8,1.5,1.5,3,2.5,4.4c-1.9,2.3-3.8,4.7-5.4,7.2c-0.1,0.1-0.2,0.3-0.3,0.5c-0.3,0.5-0.7,1-0.9,1.5c-0.2,0.3,0.3,0.6,0.6,0.4
				c0.3,0.1,0.7,0.1,1,0.2c0.2,0.1,0.4,0.1,0.6,0c3.1,0.2,6.4-0.8,9.4-0.8c0,0,0.1,0,0.1,0c2,3.1,5.1,6,7.7,8.4
				c0.1,0.1,0.1,0.1,0.2,0.1c0.2,0.2,0.5,0.1,0.6-0.2c0.3-1.9,0.5-3.9,0.9-5.8c0.3-1.6,0.7-3.2,0.6-4.9c2-0.9,4.1-1.4,6.1-2.1
				c1.4-0.5,3.1-1,4.2-2.1C147.3,339.5,147.6,339,147.3,338.8z"/>
			<path class="st4" d="M452.5,288c0.9,3.6,1.8,7.4,3.2,10.9c0.1,0.3,0.5,0.1,0.5-0.1c1.1-1,1.8-2.9,2.3-4.2c0.9-2,1.5-4.2,2.8-6
				c0,0,0,0,0-0.1c1.6,0.1,3.4-0.2,5-0.3c2-0.1,3.9-0.3,5.9-0.6c0.1,0,0.1-0.1,0.2-0.1c0.2,0,0.3-0.3,0.1-0.4
				c-1.3-1.3-3-2.3-4.4-3.4c-1.3-1-2.7-2.3-4.2-3.1c0.5-1.9,1.5-3.5,2.3-5.2c0.5-1,1.4-2.5,1.2-3.8c0.1-0.2,0-0.5-0.2-0.5
				c-1,0.3-1.9,0.6-2.9,1.1c0.4,0.5,0.4,1.1,0.1,1.7c-0.1,0.1-0.2,0.3-0.3,0.5c-0.3,0.5-1.3,0.6-1.6,0.1c-0.1-0.1-0.2-0.3-0.3-0.4
				c-0.1-0.2-0.2-0.4-0.2-0.5c-1.3,0.7-2.5,1.5-3.8,2.1c-1.4-1-2.7-2.2-4-3.4c-1.2-1.1-2.5-2.3-4-3c-0.1-0.3-0.4-0.2-0.4,0
				c0.2,3.1-0.5,6.7,0.5,9.7c-2.2,0.8-4.5,2.2-6.7,3.1c-2,0.9-4.4,1.7-6,3.3c-0.2,0.2,0,0.5,0.2,0.4c2.5,0.8,5.2,1,7.7,1.4
				C447.7,287.5,450.1,288,452.5,288z"/>
			<path class="st5" d="M236.8,34c0.9,0.6,2.4,0.7,3.5,0.8c1.6,0.2,3.3,0.3,4.8,0.8c0,0,0,0,0.1,0c0.2,1.2,0.8,2.4,1.2,3.5
				c0.5,1.4,1,2.8,1.6,4.1c0,0.1,0.1,0.1,0.1,0.1c0.1,0.1,0.2,0.2,0.3,0c0.7-1.2,1.1-2.6,1.5-3.8c0.4-1.1,1.1-2.4,1.4-3.6
				c1.4,0,2.8,0.4,4.2,0.6c0.8,0.2,2.1,0.5,2.9,0.1c0.2,0.1,0.4-0.1,0.3-0.3c-1.2-2.1-3.3-3.8-5-5.6c0.5-1.2,1-2.4,1.6-3.6
				c0.5-1.1,1.2-2.2,1.3-3.5c0.2-0.1,0.1-0.3-0.1-0.3c-2.2,0.8-4.9,1-6.9,2.2c-1-1.5-2.5-2.8-3.6-4.2c-1.1-1.3-2.1-2.8-3.5-3.7
				c-0.2-0.1-0.3,0.1-0.2,0.2c-0.1,1.9,0.3,3.9,0.6,5.8c0.2,1.8,0.4,3.6,0.8,5.4c-2.4,1.3-4.9,2.8-7.2,4.4
				C236.4,33.8,236.6,34,236.8,34z"/>
			<path class="st0" d="M448.2,369.8c1.9,0.6,4,0.7,5.9,1c1.8,0.3,3.7,0.6,5.5,0.7c0.6,2.8,1.4,5.6,2.4,8.3c0.1,0.2,0.4,0.1,0.4-0.1
				c0.9-0.8,1.4-2.2,1.8-3.2c0.6-1.5,1.2-3.2,2.1-4.6c0,0,0,0,0-0.1c1.2,0.1,2.6-0.1,3.8-0.2c1.5-0.1,3-0.2,4.5-0.5
				c0.1,0,0.1,0,0.1-0.1c0.1,0,0.2-0.2,0.1-0.3c-1-1-2.3-1.8-3.4-2.6c-1-0.7-2.1-1.8-3.2-2.4c0.4-1.4,1.1-2.7,1.8-4
				c0.4-0.8,1-1.9,0.9-2.9c0.1-0.1,0-0.4-0.2-0.4c-2.5,0.6-4.7,2.2-6.9,3.4c-1.1-0.8-2.1-1.7-3.1-2.6c-0.9-0.8-1.9-1.8-3.1-2.3
				c0-0.2-0.3-0.2-0.3,0c0.1,2.4-0.4,5.1,0.4,7.4c-1.7,0.6-3.4,1.7-5.1,2.4c-1.6,0.7-3.4,1.3-4.6,2.5
				C447.9,369.7,448.1,369.9,448.2,369.8z"/>
			<path class="st2" d="M534.2,329.9c0.6-0.5,0.9-1.5,1.2-2.1c0.4-1,0.8-2.1,1.4-3c0.8,0,1.7-0.1,2.6-0.2c1-0.1,2-0.1,3-0.3
				c0,0,0.1,0,0.1-0.1c0.1,0,0.2-0.1,0.1-0.2c-0.6-0.7-1.5-1.2-2.3-1.7c-0.7-0.5-1.4-1.2-2.1-1.6c0.2-0.9,0.8-1.8,1.2-2.7
				c0.2-0.5,0.7-1.3,0.6-1.9c0.1-0.1,0-0.3-0.1-0.2c-1.6,0.4-3.1,1.5-4.6,2.3c-0.7-0.5-1.4-1.1-2.1-1.7c-0.6-0.5-1.3-1.2-2-1.5
				c0-0.1-0.2-0.1-0.2,0c0.1,1.6-0.2,3.4,0.2,4.9c-1.2,0.4-2.3,1.1-3.4,1.6c-1,0.5-2.2,0.9-3.1,1.7c-0.1,0.1,0,0.2,0.1,0.2
				c1.2,0.4,2.6,0.5,3.9,0.7c1.2,0.2,2.5,0.4,3.7,0.5c0.4,1.9,0.9,3.8,1.6,5.5C534,330.1,534.2,330,534.2,329.9z"/>
			<path class="st0" d="M99,44.1c0,2.2-0.2,4.7,0.5,6.8c0.1,0.2,0.4,0.2,0.4-0.1c1.7-1.9,3-4.3,4.3-6.5c1.3-2,2.7-4,3.8-6.2
				c3.7,0.7,7.5,1.3,11.2,1.5c0.3,0,0.3-0.4,0.1-0.5c-0.4-1.5-1.9-2.8-2.9-3.8c-1.5-1.6-3.2-3.1-4.3-5c0,0,0,0-0.1-0.1
				c0.8-1.4,1.2-3.2,1.7-4.7c0.7-1.9,1.3-3.7,1.8-5.6c0-0.1,0-0.2,0-0.2c0-0.2-0.1-0.4-0.3-0.3c-1.7,0.6-3.3,1.8-4.9,2.7
				c-1.4,0.8-3.2,1.5-4.5,2.6c-1.5-1.2-2.6-2.8-3.8-4.2c-0.8-0.9-1.8-2.3-3-2.6c-0.1-0.2-0.5-0.2-0.5,0C98,21.2,98.7,24.7,99,28
				c-1.5,0.9-3.1,1.6-4.7,2.3c-1.5,0.7-3.1,1.3-4.3,2.5c-0.3-0.1-0.4,0.3-0.1,0.4c2.9,1.1,5.9,3.1,9,3.5C98.7,39.1,99,41.7,99,44.1z
				"/>
			<path class="st6" d="M521.2,166.5c0.2,0,0.2-0.2,0.1-0.3c-1.8-1-4.1-1.3-6.1-1.8c-0.2-1.1-0.3-2.2-0.4-3.3
				c-0.1-1-0.2-2.1-0.6-3.1c0.1-0.2-0.1-0.3-0.2-0.1c-1.2,1.5-3.1,2.9-3.9,4.7c-1.4-0.6-3-0.9-4.4-1.4c-1.3-0.5-2.8-1.1-4.2-1.1
				c-0.2,0-0.2,0.2,0,0.3c0.8,1.4,2,2.6,3,3.9c1,1.2,1.9,2.4,2.9,3.5c-1.2,2.1-2.3,4.2-3.2,6.4c-0.1,0.2,0.2,0.3,0.3,0.2
				c1,0,2-0.6,2.9-0.9c1.2-0.6,2.5-1.3,3.8-1.6c0,0,0,0,0,0c0.7,0.8,1.6,1.4,2.4,2c1,0.8,1.9,1.6,3,2.2c0,0,0.1,0,0.1,0
				c0.1,0.1,0.3,0,0.2-0.1c0-1.1-0.4-2.3-0.6-3.4c-0.2-1-0.3-2.2-0.6-3.2c1-0.6,2.2-1,3.3-1.4C519.7,167.4,520.7,167.1,521.2,166.5z
				"/>
			<path class="st1" d="M393.6,102.2c-0.6,0.1-1.2,0-1.8,0c-0.4,0-1.8-0.5-2.1-0.3c-0.1,0-0.2,0.1-0.1,0.1c0.7,0.8,2.5,1.8,3.3,2.4
				c-0.1,0.6-0.3,1.1-0.4,1.6c-0.1,0.5-0.3,1-0.3,1.6c-0.1,0.1,0,0.1,0.1,0.1c0.9-0.5,2-0.7,2.7-1.4c0.5,0.5,1.2,1,1.8,1.5
				c0.5,0.5,1.1,1,1.7,1.3c0.1,0,0.1-0.1,0.1-0.1c-0.1-0.8-0.4-1.6-0.6-2.4c-0.2-0.7-0.4-1.5-0.7-2.2c0.9-0.7,1.9-1.5,2.7-2.3
				c0.1-0.1,0-0.2-0.1-0.1c-0.4-0.2-1.1-0.1-1.5-0.1c-0.7,0-1.4,0.1-2.1,0c-0.2-0.5-0.5-0.9-0.8-1.4c-0.3-0.5-0.6-1.1-1-1.6
				c0,0,0,0-0.1,0c0-0.1-0.1-0.1-0.1,0c-0.2,0.5-0.3,1.2-0.4,1.7C393.8,101,393.6,101.6,393.6,102.2z"/>
			<path class="st0" d="M328.3,30.4c-0.4,0-1.8-0.5-2.1-0.3c-0.1,0-0.2,0.1-0.1,0.1c0.7,0.8,2.5,1.8,3.3,2.4
				c-0.1,0.5-0.3,1.1-0.4,1.6c-0.1,0.5-0.3,1-0.3,1.5c-0.1,0.1,0,0.1,0.1,0.1c0.9-0.5,2-0.7,2.7-1.4c0.5,0.5,1.2,1,1.8,1.5
				c0.5,0.5,1.1,1,1.7,1.3c0.1,0,0.1-0.1,0.1-0.1c-0.1-0.8-0.4-1.6-0.6-2.4c-0.2-0.7-0.4-1.5-0.7-2.2c0.9-0.7,1.9-1.5,2.7-2.3
				c0.1-0.1,0-0.2-0.1-0.1c-0.4-0.2-1.1-0.1-1.5-0.1c-0.7,0-1.4,0.1-2.1,0c-0.2-0.5-0.5-1-0.8-1.4c-0.3-0.5-0.6-1.1-1-1.6
				c0,0,0,0-0.1,0c0,0-0.1-0.1-0.1,0c-0.2,0.5-0.3,1.2-0.4,1.7c-0.1,0.5-0.3,1.1-0.3,1.6C329.5,30.5,328.9,30.4,328.3,30.4z"/>
			<path class="st3" d="M322.7,109.2c-0.1,0-0.2,0.1-0.1,0.1c0.7,0.8,2.5,1.8,3.3,2.4c-0.1,0.6-0.3,1.1-0.4,1.6
				c-0.1,0.5-0.3,1-0.3,1.6c-0.1,0.1,0,0.1,0.1,0.1c0.9-0.5,2-0.7,2.7-1.4c0.5,0.5,1.2,1,1.8,1.5c0.5,0.5,1.1,1,1.7,1.3
				c0.1,0,0.1-0.1,0.1-0.1c-0.1-0.8-0.4-1.6-0.6-2.4c-0.2-0.7-0.4-1.5-0.7-2.2c0.9-0.7,1.9-1.5,2.7-2.3c0.1-0.1,0-0.2-0.1-0.1
				c-0.4-0.2-1.1-0.1-1.5-0.1c-0.7,0-1.4,0.1-2.1,0c-0.2-0.5-0.5-0.9-0.8-1.4c-0.3-0.5-0.6-1.1-1-1.6c0,0,0,0-0.1,0
				c0-0.1-0.1-0.1-0.1,0c-0.2,0.5-0.3,1.2-0.4,1.7c-0.1,0.5-0.3,1.1-0.3,1.6c-0.6,0.1-1.2,0-1.8,0
				C324.4,109.4,323,108.9,322.7,109.2z"/>
			<path class="st3" d="M275.5,120.8c-0.4,0-1.8-0.5-2.1-0.3c-0.1,0-0.2,0.1-0.1,0.1c0.7,0.8,2.5,1.8,3.3,2.4
				c-0.1,0.6-0.3,1.1-0.4,1.6c-0.1,0.5-0.3,1-0.3,1.6c-0.1,0.1,0,0.1,0.1,0.1c0.9-0.5,2-0.7,2.7-1.4c0.5,0.5,1.2,1,1.8,1.5
				c0.5,0.5,1.1,1,1.7,1.3c0.1,0,0.1-0.1,0.1-0.1c-0.1-0.8-0.4-1.6-0.6-2.4c-0.2-0.7-0.4-1.5-0.7-2.2c0.9-0.7,1.9-1.5,2.7-2.3
				c0.1-0.1,0-0.2-0.1-0.1c-0.4-0.2-1.1-0.1-1.5-0.1c-0.7,0-1.4,0.1-2.1,0c-0.2-0.5-0.5-0.9-0.8-1.4c-0.3-0.5-0.6-1.1-1-1.6
				c0,0,0,0-0.1,0c0-0.1-0.1-0.1-0.1,0c-0.2,0.5-0.3,1.2-0.4,1.7c-0.1,0.5-0.3,1.1-0.3,1.6C276.7,120.8,276.1,120.8,275.5,120.8z"/>
			<path class="st6" d="M233.5,76.8c-0.5,0-2.6-0.7-3.1-0.4c-0.1,0-0.2,0.1-0.1,0.2c1,1.2,3.7,2.7,4.9,3.6c-0.2,0.8-0.4,1.6-0.6,2.4
				c-0.2,0.7-0.5,1.5-0.5,2.3c-0.1,0.1,0,0.2,0.1,0.2c1.3-0.7,2.9-1.1,4-2.1c0.8,0.8,1.8,1.5,2.6,2.2c0.8,0.7,1.6,1.5,2.6,1.9
				c0.1,0.1,0.2-0.1,0.1-0.2c-0.2-1.2-0.6-2.4-0.9-3.5c-0.3-1.1-0.6-2.2-1-3.2c1.4-1.1,2.8-2.2,4-3.4c0.1-0.1,0-0.3-0.2-0.2
				c-0.6-0.3-1.6-0.2-2.2-0.2c-1,0-2.1,0.2-3.1,0c-0.3-0.7-0.8-1.4-1.1-2.1c-0.4-0.8-0.9-1.6-1.4-2.4c0,0-0.1-0.1-0.1-0.1
				c-0.1-0.1-0.2-0.1-0.2,0c-0.3,0.8-0.4,1.7-0.6,2.5c-0.1,0.7-0.5,1.6-0.5,2.4C235.3,76.9,234.4,76.8,233.5,76.8z"/>
			<path class="st0" d="M303.4,195.7c0.2,0.7,0.6,1.4,0.9,2.1c0.4,0.8,0.8,1.6,1.2,2.4c0,0,0,0.1,0.1,0.1c0,0.1,0.2,0.1,0.2,0
				c0.3-0.7,0.5-1.6,0.7-2.4c0.2-0.7,0.5-1.5,0.6-2.3c0.9-0.1,1.7,0.1,2.6,0.1c0.5,0,1.3,0.2,1.8-0.1c0.1,0,0.2-0.1,0.1-0.2
				c-0.9-1.2-2.2-2.1-3.4-3.1c0.2-0.8,0.5-1.5,0.8-2.3c0.3-0.7,0.6-1.4,0.6-2.2c0.1-0.1,0-0.2-0.1-0.2c-1.3,0.6-2.9,0.9-4,1.8
				c-0.7-0.8-1.6-1.6-2.4-2.3c-0.7-0.7-1.4-1.6-2.4-2c-0.1-0.1-0.2,0.1-0.1,0.2c0.1,1.2,0.4,2.3,0.7,3.5c0.2,1.1,0.4,2.2,0.8,3.2
				c-1.4,0.9-2.8,1.9-4.1,3.1c-0.1,0.1,0,0.2,0.1,0.2c0.6,0.3,1.5,0.3,2.1,0.3C301.3,195.5,302.3,195.4,303.4,195.7
				C303.3,195.7,303.3,195.7,303.4,195.7z"/>
			<path class="st7" d="M331.7,148.6c-0.7-0.7-1.4-1.6-2.4-2c-0.1-0.1-0.2,0.1-0.1,0.2c0.1,1.2,0.4,2.3,0.7,3.5
				c0.2,1.1,0.4,2.2,0.8,3.2c-1.4,0.9-2.8,1.9-4.1,3.1c-0.1,0.1,0,0.2,0.1,0.2c0.6,0.3,1.5,0.3,2.1,0.3c1,0,2,0,3,0.2
				c0.2,0.7,0.7,1.4,1,2.1c0.4,0.8,0.8,1.6,1.2,2.4c0,0,0,0.1,0.1,0.1c0,0.1,0.2,0.1,0.2,0c0.3-0.7,0.5-1.6,0.7-2.4
				c0.2-0.7,0.5-1.5,0.6-2.3c0.9-0.1,1.7,0.1,2.6,0.1c0.5,0,1.3,0.2,1.8-0.1c0.1,0,0.2-0.1,0.1-0.2c-0.9-1.2-2.2-2.1-3.4-3.1
				c0.2-0.8,0.5-1.5,0.8-2.3c0.3-0.7,0.6-1.4,0.6-2.2c0.1-0.1,0-0.2-0.1-0.2c-1.3,0.6-2.9,0.9-4,1.8
				C333.4,150.1,332.5,149.4,331.7,148.6z"/>
			<path class="st6" d="M450.3,145.7c-2.4-0.3-5-0.8-7.4-0.9c-0.3,0-0.4,0.4-0.1,0.5c2.1,0.7,4.6,0.9,6.9,0.9c-2,1.3-3.8,3-5.7,4.4
				c-0.2-0.1-0.4,0.1-0.3,0.3c1.2,2.8,1.8,5.8,2.9,8.5c-2.4-2.8-5.3-5.3-8-7.8c-0.2-0.1-0.4,0.1-0.3,0.3c-2.1,2.1-4.5,4-6.8,5.9
				c1.3-2.8,2.6-5.6,4-8.4c0.2,0.1,0.5-0.3,0.2-0.5c-1.7-1.3-3.4-2.6-5.3-3.6c2.2-0.1,4.5-0.5,6.7-0.9c0.3-0.1,0.3-0.4,0.1-0.5
				c0.1,0,0.3,0,0.3-0.1c1-2,2.5-4,3.3-6.1c0,1,0.4,1.9,0.6,2.8c0.4,1.3,0.7,2.6,0.9,3.9c0.1,0.4,0.7,0.3,0.6-0.1
				c-0.1-1.4-0.5-2.6-0.9-4c-0.3-1.1-0.5-2.4-0.9-3.5c0-0.1-0.1-0.1-0.1-0.1c0-0.1,0-0.1,0.1-0.2c0.1-0.2-0.3-0.4-0.4-0.2
				c-1.4,2.2-2.8,4.8-3.7,7.3c-0.1,0.1,0,0.3,0.1,0.3c0,0-0.1-0.1-0.2,0c-2.4,0.4-4.9,0.7-7.2,1.1c0,0-0.1,0-0.1-0.1
				c-0.2-0.1-0.4,0.2-0.2,0.3c1.9,1.1,3.8,2.4,5.5,3.8c-1.3,2.9-2.7,5.8-4,8.7c-0.1,0.2,0.2,0.3,0.3,0.2c0,0.1,0.2,0.2,0.3,0.1
				c2.5-1.7,4.8-3.8,7-5.9c2.7,2.8,5.6,5.6,8.4,8.3c0.2,0.2,0.5-0.1,0.4-0.3c0-0.1-0.1-0.1-0.1-0.1c0.1-0.1,0.2-0.2,0.1-0.3
				c-1.3-2.9-1.6-6.2-3.1-9c1.1-0.7,2.1-1.4,3-2.2c1-0.9,2.1-1.6,3.2-2.4c0.1-0.1,0.1-0.2,0.1-0.3
				C450.6,146,450.6,145.8,450.3,145.7z"/>
			<path class="st8" d="M575.8,421.4c-0.1,0-0.1,0-0.2,0c0-0.1,0-0.2-0.2-0.3c-3.1-0.8-5.9-2.6-9-3.2c0.3-2.5,0.2-5.1,0.2-7.7
				c0-0.1-0.1-0.2-0.2-0.2c0-0.2-0.3-0.4-0.5-0.2c-1,0.9-1.9,1.9-2.9,2.9c-0.8,0.8-1.8,1.5-2.5,2.4c0-0.1,0-0.1-0.1-0.2
				c-1-0.7-2.1-1.2-3.2-1.7c-1.2-0.5-2.4-1.3-3.7-1.6c-0.1,0-0.1,0-0.2,0c0-0.1-0.1-0.1-0.2-0.2c-0.2-0.2-0.5,0-0.4,0.2
				c0.9,2.5,2,5.1,3.3,7.4c0.1,0.1,0.2,0.1,0.3,0.1c0,0,0,0-0.1,0.1c-1.2,2.1-2.5,4.2-3.7,6.4c0,0-0.1,0-0.1,0
				c-0.2,0.1-0.1,0.4,0.2,0.4c2.1-0.8,4.2-1.4,6.4-1.9c1.4,2.9,2.8,5.7,4.3,8.5c0.1,0.2,0.4,0.1,0.4-0.1c0.1,0.1,0.3,0.1,0.3-0.1
				c0.2-3,0-6.2-0.2-9.2c3.9-0.4,7.8-0.9,11.8-1.3C576.1,421.8,576.1,421.4,575.8,421.4z M563.5,422.8c-0.3,0-0.2,0.4,0.1,0.4
				c0.3,3,0.3,6,0.3,9c-1.3-2.8-2.7-5.6-4.1-8.4c0.2-0.2,0.1-0.6-0.2-0.5c-2.1,0.5-4.2,1.1-6.2,1.9c1.3-1.8,2.4-3.9,3.5-5.8
				c0.1-0.2-0.1-0.5-0.3-0.4c0.1-0.1,0.2-0.2,0.1-0.3c-1-2-1.6-4.4-2.7-6.4c0.7,0.5,1.5,0.8,2.2,1.1c1.3,0.6,2.7,1.2,4,1.9
				c0.2,0.1,0.4,0,0.5-0.1c0,0.2,0.2,0.3,0.4,0.2c1-0.6,1.9-1.5,2.7-2.4c0.8-0.8,1.6-1.6,2.4-2.5c-0.3,2.4-0.1,4.9-0.1,7.3
				c-0.2,0.1-0.2,0.4,0,0.4c3,0.8,5.6,2.3,8.6,3.1C570.9,421.6,567.1,422.2,563.5,422.8z"/>
			<path class="st1" d="M563.9,193.1c-1.5-1-3-1.9-4.5-3c-1.2-0.9-2.5-1.9-3.8-2.4c0-2,0.4-4,0.6-6c0.2-1.3,0.4-3-0.1-4.3
				c0.2-0.2-0.1-0.6-0.4-0.5c-3.2,1.6-5.9,3.9-8.6,6.1c-3.3-1.4-6.6-3-10.1-3.8c0,0,0-0.1,0-0.1c-0.1-0.2-0.5-0.1-0.4,0.1
				c1,3.3,1.9,7,3.6,10c-1.3,1.1-2.3,2.6-3.3,3.9c-1.2,1.5-2.4,3-3.4,4.6c-0.2,0.2,0.1,0.4,0.3,0.4c1.9,0.3,3.9,0,5.8-0.1
				c1.6-0.1,3.1-0.1,4.7-0.4c1.2,2.5,2.5,5,4,7.4c0.1,0.2,0.2,0.3,0.3,0.5c0.3,0.5,0.6,0.9,0.9,1.4c0.2,0.3,0.6,0,0.6-0.3
				c0.2-0.2,0.4-0.5,0.6-0.8c0.1-0.1,0.2-0.3,0.2-0.4c1.4-2.5,1.8-5.7,3-8.2c0,0,0-0.1,0-0.1c3.3-0.4,7-1.9,10.1-3.2
				c0.1,0,0.1-0.1,0.2-0.1C564.1,193.6,564.2,193.3,563.9,193.1z M553.2,196.7c-0.1,0-0.1,0.1-0.1,0.1c0,0,0,0.1-0.1,0.1
				c-0.7,1.6-1.2,3.2-1.8,4.9c-0.3,1.1-0.8,2.1-1.2,3.1c-0.1,0.1-0.2,0.1-0.3,0.2c-0.2,0.1-0.2,0.1-0.4,0c-0.2-0.1-0.5-0.4-0.8-0.5
				c-1.4-2.4-2.7-4.8-4-7.3c0-0.2-0.1-0.5-0.4-0.4c-3.3,0.6-6.7,0.5-10.1,0.8c1-1.3,2-2.6,3.1-3.9c1.1-1.4,2.5-2.7,3.4-4.3
				c0.1-0.1,0.2-0.2,0.1-0.4c-1.3-2.5-1.9-5.2-2.9-7.8c0-0.2,0-0.4,0-0.6c0.1-0.1,0.1-0.2,0.1-0.3c0-0.1,0-0.1,0-0.1
				c0.2,0,0.3-0.1,0.5-0.1c2.8,1.1,5.5,2.2,8.3,3.2c0.1,0.1,0.2,0.2,0.3,0.1c0,0,0,0,0.1,0c0.2,0.1,0.4-0.1,0.4-0.3
				c2.2-1.4,4-3.1,6.2-4.5c0.4-0.2,0.9-0.3,1.3-0.3c0.4,0.1,0.4,0.6,0.7,1c-0.1,2.7-0.9,5.3-0.7,8c0,0.1,0,0.1,0,0.2
				c0,0,0,0.1,0,0.1c0,0.2,0.2,0.3,0.4,0.3c1.3,1,2.8,1.9,4.2,2.9c1.1,0.8,2.2,1.7,3.5,2.3C559.8,194.4,556.1,195.1,553.2,196.7z
				 M539.7,196.5c-1.2-0.4-2.7-0.2-4,0.1c-0.3,0.1-0.2,0.4,0.1,0.4c1.3-0.1,2.5-0.1,3.8-0.1C539.9,196.9,540,196.6,539.7,196.5z
				 M541.5,196.2c-0.2,0-0.4-0.1-0.6-0.1c-0.3-0.1-0.5,0.3-0.2,0.5c0.3,0.2,0.6,0.3,0.9,0.1C541.8,196.6,541.8,196.3,541.5,196.2z
				 M554,195c-1.5,0.2-2.2,2.5-2.9,3.6c-0.1,0.2,0.2,0.4,0.3,0.2c0.9-1.2,1.3-2.9,2.7-3.5C554.2,195.2,554.2,195,554,195z"/>
			<path class="st1" d="M51.5,189.9c0-0.1,0-0.2,0-0.2c-0.6-0.1-1.2-0.2-1.8-0.4c-0.5-0.1-1-0.3-1.5-0.3c-0.2-0.6-0.4-1.3-0.5-1.9
				c-0.1-0.4-0.2-1-0.6-1.3c0-0.1-0.1-0.2-0.2-0.1c-0.8,0.9-1.3,1.9-1.9,2.9c-1.2,0-2.4-0.1-3.6,0.1c-0.1-0.1-0.2,0-0.1,0.1
				c0.7,0.9,1.5,1.9,2.4,2.6c-0.3,0.5-0.4,1.1-0.5,1.6c-0.2,0.6-0.4,1.2-0.5,1.9c0,0.1,0.1,0.1,0.1,0.1c0.6-0.1,1.2-0.5,1.8-0.8
				c0.5-0.2,0.9-0.4,1.4-0.7c0.7,0.6,1.4,1.2,2.1,1.8c0,0,0.1,0.1,0.2,0.1c0.2,0.1,0.3,0.2,0.4,0.3c0.1,0.1,0.2-0.1,0.1-0.2
				c0-0.1,0.1-0.2,0.1-0.3c0-0.1,0-0.1,0-0.2c0.1-0.9-0.2-2-0.1-2.9C49.7,191.6,50.6,190.7,51.5,189.9
				C51.5,189.9,51.5,189.9,51.5,189.9z"/>
			<path class="st0" d="M44.5,392c0.3,0,0.2-0.4,0-0.4c-3.1,0.1-6.7-0.8-9.7,0.1c-0.7-2.3-2-4.6-2.9-6.8c-0.8-2.1-1.5-4.4-3-6.2
				c-0.2-0.2-0.5,0-0.4,0.2c-0.9,2.4-1.2,5.1-1.7,7.6c-0.5,2.4-1,4.8-1.2,7.2c-3.7,0.7-7.4,1.5-11,2.7c-0.3,0.1-0.2,0.5,0.1,0.5
				c0.9,1.2,2.8,1.9,4.1,2.5c2,0.9,4.1,1.7,5.9,3c0,0,0,0,0.1,0c-0.2,1.6,0,3.4,0.1,5c0.1,2,0.1,3.9,0.4,5.9c0,0.1,0,0.1,0.1,0.2
				c0,0.2,0.2,0.3,0.4,0.2c1.4-1.2,2.4-2.9,3.5-4.3c1-1.3,2.4-2.6,3.3-4.1c1.8,0.6,3.4,1.6,5.1,2.5c1,0.5,2.5,1.5,3.7,1.3
				c0.2,0.1,0.5,0.1,0.5-0.2c-0.7-3.2-2.6-6.2-4.1-9.2c1.1-1.4,2.3-2.6,3.5-3.9C42.5,394.6,43.8,393.4,44.5,392z"/>
			<path class="st0" d="M41.6,217.3c-0.1,0-0.2,0-0.3,0c0-0.2,0-0.4-0.3-0.5c-5.3-1.3-10.1-4.4-15.4-5.5c0.5-4.3,0.3-8.8,0.4-13.2
				c0-0.2-0.1-0.4-0.2-0.4c-0.1-0.3-0.5-0.6-0.8-0.3c-1.7,1.6-3.2,3.3-4.9,4.9c-1.4,1.3-3.1,2.6-4.3,4.1c0-0.1-0.1-0.3-0.2-0.4
				c-1.7-1.2-3.7-2-5.6-2.9c-2.1-0.9-4.2-2.2-6.3-2.8c-0.1,0-0.2,0-0.3,0c-0.1-0.1-0.2-0.3-0.2-0.4c-0.3-0.4-0.8,0-0.7,0.4
				c1.5,4.2,3.4,8.8,5.7,12.7c0.1,0.2,0.3,0.2,0.4,0.2c0,0-0.1,0.1-0.1,0.1c-2.1,3.7-4.3,7.2-6.3,10.9c0,0-0.1,0-0.1,0.1
				c-0.4,0.2-0.1,0.8,0.3,0.6c3.6-1.3,7.2-2.4,11-3.3c2.4,4.9,4.9,9.8,7.4,14.7c0.2,0.4,0.7,0.2,0.7-0.1c0.2,0.1,0.5,0.1,0.5-0.2
				c0.4-5.2,0.1-10.6-0.4-15.8c6.8-0.6,13.5-1.6,20.2-2.2C42.1,218,42,217.3,41.6,217.3z M20.4,219.7c-0.4,0.1-0.3,0.7,0.1,0.7
				c0.5,5.2,0.5,10.3,0.6,15.5c-2.3-4.8-4.6-9.6-7-14.3c0.3-0.3,0.1-1-0.4-0.9c-3.6,0.8-7.2,1.8-10.6,3.2c2.2-3.1,4.1-6.6,5.9-9.9
				c0.2-0.4-0.1-0.8-0.4-0.8c0.1-0.1,0.2-0.3,0.1-0.5c-1.7-3.5-2.8-7.6-4.7-11c1.2,0.8,2.6,1.4,3.8,1.9c2.3,1,4.6,2.1,6.8,3.3
				c0.3,0.2,0.6,0,0.8-0.2c0,0.3,0.4,0.6,0.6,0.4c1.7-1.1,3.2-2.6,4.7-4c1.4-1.3,2.8-2.7,4-4.2c-0.5,4.1-0.2,8.3-0.2,12.4
				c-0.3,0.2-0.3,0.6,0,0.7c5.1,1.3,9.7,3.9,14.7,5.4C33.2,217.6,26.6,218.7,20.4,219.7z"/>
			<path class="st2" d="M82.1,154.5c-0.9-1.2-2.3-2.2-3.4-3.2c0.2-0.8,0.5-1.6,0.8-2.3c0.3-0.7,0.6-1.5,0.6-2.2
				c0.1-0.1,0-0.2-0.1-0.2c-1.3,0.6-3,0.9-4.1,1.8c-0.2-0.3-0.5-0.5-0.8-0.8c-0.6-0.5-1.2-1.1-1.7-1.6c-0.7-0.7-1.5-1.6-2.4-2.1
				c-0.1-0.1-0.2,0.1-0.1,0.2c0.1,1.2,0.4,2.4,0.7,3.6c0.2,1.1,0.4,2.2,0.8,3.3c-1.4,1-2.9,2-4.2,3.2c-0.1,0.1,0,0.3,0.2,0.2
				c0.6,0.3,1.5,0.3,2.2,0.3c1,0,2.1,0,3.1,0.2c0.2,0.7,0.7,1.4,1,2.1c0.2,0.4,0.3,0.7,0.5,1.1c0.2,0.4,0.4,0.9,0.7,1.3
				c0,0,0.1,0.1,0.1,0.1c0.1,0.1,0.2,0.1,0.2,0c0.3-0.8,0.5-1.7,0.7-2.5c0.2-0.7,0.6-1.6,0.6-2.3c0.9-0.1,1.8,0.1,2.6,0.1
				c0.5,0,1.3,0.2,1.8-0.1C82,154.8,82.1,154.6,82.1,154.5z"/>
			<path class="st0" d="M219.6,66.2c-1.9-1.9-4.2-3.6-6.3-5.4c-1.8-1.6-3.7-3.7-5.9-4.9c0.9-3.3,2.6-6.2,4.1-9.3
				c0.9-1.8,2.4-4.5,2.1-6.7c0.3-0.3,0.1-0.9-0.4-0.8c-5.7,1.5-10.9,5.1-16.1,7.9c-2.5-1.9-4.8-3.9-7.2-6c-2.1-1.9-4.4-4.1-7.1-5.3
				c0,0,0,0,0-0.1c-0.1-0.4-0.7-0.3-0.7,0.1c0.4,5.5-0.9,11.9,0.8,17.2c-3.4,1.4-6.7,4.2-9.8,6.1c-3,1.9-6.3,3.7-8.8,6.2
				c-0.3,0.3,0,0.8,0.4,0.7c6.8,2.3,15.4,2.9,22.5,3.1c1.5,6.4,3.2,13.1,5.6,19.2c0.2,0.5,1,0.3,1-0.2c2-1.8,3.1-5.1,4.1-7.4
				c1.5-3.5,2.7-7.4,4.9-10.6c0-0.1,0.1-0.1,0.1-0.2c2.4,0.1,5-0.6,7.3-1c2.9-0.6,5.9-1.1,8.8-1.7c0.1,0,0.2-0.1,0.3-0.2
				C219.6,66.9,219.8,66.5,219.6,66.2z M218,65.7c0.1,0,0.1,0,0.1,0.1C218.1,65.8,218.1,65.8,218,65.7z M210,67.8
				c-2.6,0.5-5.3,0.7-7.7,1.5c0,0-0.1,0-0.1,0.1c-0.1,0-0.1,0.1-0.2,0.2c-1.8,2.6-2.9,5.6-4.1,8.5c-1.2,2.9-2.6,5.7-4.1,8.4
				c0.3,0,0.6-0.2,0.9-0.5c0.1-0.1,0.2,0,0.2,0.2c-0.1,0.5-0.5,0.9-1,1c0,0.1,0,0.1,0,0.2c-0.1,0.3-0.2,0.5-0.4,0.6
				c-0.1,0.1-0.2,0-0.2-0.1c0,0-0.1,0-0.1,0c0,0-0.1-0.1-0.1-0.1c-0.1-0.1-0.1-0.2-0.1-0.3c0,0,0.1-0.2,0.1-0.3c0,0,0-0.1,0-0.1
				c-0.1-0.1,0-0.2,0-0.2c-0.6-0.4-1-1-1.2-1.6c-0.1-0.2,0.1-0.3,0.2-0.2c0.3,0.2,0.5,0.6,0.8,0.8c-2-5.6-3.2-11.4-4.9-17.2
				c0.1-0.3,0-0.8-0.5-0.8c-6.9-0.2-13.8-1.4-20.7-2.3c0.1,0.1,0.2,0.2,0.2,0.3c0.1,0.1,0,0.3-0.2,0.3c-0.1-0.1-0.2-0.1-0.3-0.2
				c0,0.1-0.1,0.1-0.1,0.1c0,0.1-0.1,0.1-0.2,0.1c-0.2,0-0.4-0.2-0.5-0.4c-0.1,0.1-0.2,0.1-0.3,0c-0.1,0.1-0.1,0.1-0.2,0.2
				c-0.2,0.2-0.4,0-0.3-0.2c0-0.1,0.1-0.2,0.1-0.3c0,0,0-0.1,0.1-0.1c0.1-0.2,0.2-0.4,0.4-0.6c0.1,0,0.1-0.1,0.1,0c0,0,0-0.1,0-0.1
				c0.1-0.2,0.1-0.4,0.2-0.6c0.1-0.2,0.3-0.1,0.3,0.1c0.1,0,0.1,0.2,0,0.2c0.1,0,0,0.1,0,0.2c0,0.1,0,0.1,0,0.2
				c2.9-2.1,5.9-3.9,9-5.7c2.5-1.5,6.3-3.1,8.2-5.5c0.2-0.1,0.4-0.2,0.3-0.5c-1.1-4.7-0.2-9.5-0.6-14.2c0,0,0,0.1,0,0.1
				c0,0.2-0.2,0.2-0.3,0c-0.1-0.3-0.1-0.7,0-1c-0.1,0-0.2,0-0.2-0.1c0-0.1,0-0.2,0-0.4c-0.1-0.1-0.1-0.2-0.1-0.3c0,0-0.1,0-0.1,0
				c-0.1-0.2-0.1-0.5,0.1-0.6c0.1,0,0.1,0,0.2,0c0,0,0.1,0,0.1,0.1c0.1,0,0.1,0,0.2,0.1c0,0,0.1,0.1,0.1,0.1c0.1,0,0.2-0.1,0.4-0.1
				c0,0,0,0,0.1,0c0.3,0,0.7,0.2,0.9,0.4c0,0,0,0.1,0,0.1c0.1,0,0.1,0,0.2,0.1c0.1,0.1,0,0.3-0.1,0.2c-0.3,0-0.6,0-0.9-0.1
				c4.3,3.2,8,7.4,12.6,10.3c0.1,0.2,0.2,0.3,0.4,0.3c0,0,0,0,0.1,0c0.3,0.2,0.6,0,0.7-0.3c4.7-1.8,8.8-5.1,13.5-7
				c-0.6,0-1.3,0.1-1.8,0.3c-0.2,0.1-0.3-0.2-0.1-0.3c0.6-0.3,1.4-0.6,2.1-0.6c0,0,0-0.1,0.1-0.1c0.2-0.1,0.5-0.1,0.8,0
				c0,0,0.1-0.1,0.1-0.1s0.1,0,0.1,0c0.1-0.1,0.2-0.2,0.3-0.2c0.1,0,0.2,0.1,0.2,0.2c0,0.2,0.2,0.7-0.1,0.8c0,0.1,0,0.1,0,0.2
				c0.3,0.5,0.3,1.2,0,1.7c-0.1,0.2-0.3,0.1-0.3-0.1c-0.1-0.4-0.1-0.8-0.2-1.2c-1.4,5-5.4,9.2-6.1,14.4c0,0.3,0.2,0.5,0.5,0.6
				c1.5,1.8,3.8,3.3,5.6,4.9c1.4,1.3,2.9,2.7,4.4,4c0.1,0.2,0.2,0.5,0.2,0.7c-0.1,0.1-0.1,0.2-0.2,0.3c-0.1,0-0.2,0.1-0.3,0.1
				C214.3,66.9,212.1,67.3,210,67.8z"/>
		</g>
	</g>
</g>
</svg>
