<?xml version="1.0" encoding="utf-8"?>
<!-- Generator: Adobe Illustrator 26.0.1, SVG Export Plug-In . SVG Version: 6.00 Build 0)  -->
<svg version="1.1" id="_x5F_" xmlns="http://www.w3.org/2000/svg" xmlns:xlink="http://www.w3.org/1999/xlink" x="0px" y="0px"
	 viewBox="0 0 600 450" style="enable-background:new 0 0 600 450;" xml:space="preserve">
<style type="text/css">
	.st0{fill:#1A375F;}
	.st1{fill:#00FFFF;}
	.st2{fill:#366394;}
	.st3{fill:#FFFFFF;}
	.st4{fill:#8ABEBA;}
	.st5{fill:#6B92B3;}
	.st6{fill:#366294;}
	.st7{fill:#526E84;}
	.st8{fill:#0F2139;}
</style>
<g>
	<g>
		<g>
			<path class="st0" d="M400,300.9C400.1,300.9,400.1,300.8,400,300.9c0.1-0.1,0.1-0.2,0-0.2c-0.6-0.1-1.1-0.2-1.7-0.3
				c-0.5-0.1-0.9-0.2-1.4-0.2c-0.2-0.6-0.4-1.2-0.6-1.8c-0.1-0.4-0.3-0.9-0.6-1.2c0-0.1-0.1-0.2-0.2-0.1c-0.7,0.9-1.2,1.9-1.7,2.8
				c-1.1,0-2.3,0-3.4,0.2c-0.1-0.1-0.2,0-0.1,0.1c0.7,0.8,1.4,1.8,2.3,2.4c-0.2,0.5-0.3,1-0.5,1.5c-0.1,0.6-0.3,1.2-0.4,1.8
				c0,0.1,0.1,0.1,0.1,0.1c0.6-0.2,1.1-0.5,1.6-0.8c0.4-0.2,0.9-0.4,1.3-0.7c0.7,0.6,1.4,1.1,2.1,1.6c0,0,0.1,0.1,0.1,0.1
				c0.1,0.1,0.3,0.2,0.4,0.3c0.1,0.1,0.2-0.1,0.1-0.2c0-0.1,0-0.2,0.1-0.3c0,0,0-0.1,0-0.2c0.1-0.9-0.2-1.8-0.2-2.7
				C398.5,302.5,399.3,301.6,400,300.9z"/>
			<path class="st1" d="M473.2,308.2c0,0,0-0.1,0-0.1c-0.4-0.1-0.8-0.1-1.2-0.2c-0.3-0.1-0.7-0.2-1-0.2c-0.2-0.4-0.2-0.8-0.4-1.3
				c-0.1-0.3-0.2-0.6-0.4-0.9c0-0.1-0.1-0.1-0.1-0.1c-0.5,0.6-0.9,1.3-1.3,2c-0.8,0-1.6-0.1-2.4,0.1c0,0-0.1,0-0.1,0
				c0.5,0.6,1,1.3,1.6,1.7c-0.2,0.3-0.3,0.7-0.4,1.1c-0.1,0.4-0.2,0.8-0.3,1.2c0,0.1,0.1,0.1,0.1,0c0.4-0.1,0.8-0.3,1.2-0.5
				c0.3-0.1,0.6-0.3,0.9-0.5c0.5,0.4,0.9,0.8,1.4,1.2c0,0,0.1,0,0.1,0.1c0.1,0.1,0.2,0.1,0.3,0.2c0.1,0,0.1,0,0.1-0.1
				c0-0.1,0-0.1,0-0.2c0,0,0-0.1,0-0.1c0.1-0.6-0.1-1.3-0.1-1.9C472,309.4,472.7,308.8,473.2,308.2
				C473.2,308.2,473.2,308.2,473.2,308.2z"/>
			<path class="st1" d="M531.1,275.9c0,0,0-0.1,0-0.1c-0.4-0.1-0.8-0.1-1.2-0.2c-0.3-0.1-0.7-0.2-1-0.2c-0.2-0.4-0.2-0.8-0.4-1.3
				c-0.1-0.3-0.2-0.6-0.4-0.9c0-0.1-0.1-0.1-0.1-0.1c-0.5,0.6-0.9,1.3-1.3,2c-0.8,0-1.6-0.1-2.4,0.1c0,0-0.1,0-0.1,0
				c0.5,0.6,1,1.3,1.6,1.7c-0.2,0.3-0.3,0.7-0.4,1.1c-0.1,0.4-0.2,0.8-0.3,1.2c0,0.1,0.1,0.1,0.1,0c0.4-0.1,0.8-0.3,1.2-0.5
				c0.3-0.1,0.6-0.3,0.9-0.5c0.5,0.4,0.9,0.8,1.4,1.2c0,0,0.1,0,0.1,0.1c0.1,0.1,0.2,0.1,0.3,0.2c0.1,0,0.1,0,0.1-0.1
				c0-0.1,0-0.1,0-0.2c0,0,0-0.1,0-0.1c0.1-0.6-0.1-1.3-0.1-1.9C529.9,277.1,530.5,276.5,531.1,275.9
				C531.1,275.9,531.1,275.9,531.1,275.9z"/>
			<path class="st2" d="M181.1,129.6c-0.4-0.1-0.8-0.2-1.2-0.2c-0.2-0.5-0.3-1-0.5-1.5c-0.1-0.3-0.2-0.8-0.5-1
				c0-0.1-0.1-0.1-0.1-0.1c-0.6,0.7-1,1.6-1.4,2.4c-0.9,0-1.9,0-2.8,0.2c-0.1-0.1-0.1,0-0.1,0.1c0.6,0.7,1.2,1.5,2,2
				c-0.2,0.4-0.3,0.9-0.4,1.3c-0.1,0.5-0.2,1-0.3,1.5c0,0.1,0.1,0.1,0.1,0.1c0.5-0.1,0.9-0.4,1.4-0.7c0.4-0.2,0.7-0.4,1.1-0.6
				c0.6,0.5,1.1,0.9,1.8,1.3c0,0,0.1,0.1,0.1,0.1c0.1,0.1,0.2,0.2,0.4,0.2c0.1,0.1,0.1-0.1,0.1-0.1c0-0.1,0-0.2,0.1-0.2
				c0,0,0-0.1,0-0.1c0.1-0.8-0.2-1.6-0.2-2.3c0.7-0.5,1.4-1.3,2.1-1.9c0,0,0,0,0-0.1c0,0,0-0.1,0-0.1
				C182,129.8,181.6,129.7,181.1,129.6z"/>
			<path class="st3" d="M165.9,65C165.9,65,165.9,65.1,165.9,65c0,0.1,0,0.2,0,0.2c-0.1-0.4,0-1,0.4-1.1c0,0,0.1,0,0.1,0
				c0-0.2-0.2-0.3-0.3-0.1c-0.1,0.2-0.2,0.4-0.2,0.6c0,0,0,0.1,0,0.1C165.9,64.7,166,64.9,165.9,65z"/>
			<path class="st3" d="M166.4,66.1c-0.1,0-0.5-0.3-0.6-0.2c0.1,0.2,0.3,0.3,0.5,0.4c0.1,0,0.1-0.1,0.2-0.1
				C166.5,66.1,166.5,66.1,166.4,66.1z"/>
			<path class="st3" d="M165.6,65.2c0.1-0.1,0.2-0.1,0.2-0.1c0,0,0-0.1,0.1-0.1c0.1-0.1,0-0.3-0.1-0.3c-0.1,0-0.1,0-0.1,0
				c-0.2,0.2-0.3,0.3-0.4,0.6C165.3,65.2,165.4,65.2,165.6,65.2C165.6,65.1,165.6,65.1,165.6,65.2z"/>
			<path class="st3" d="M165.3,65.9c0.1-0.1,0.1-0.1,0.2-0.2c0.1,0.1,0.2,0.1,0.3,0c0.1,0,0.5,0.2,0.6,0.2c0,0,0.1,0,0.1,0
				c0.1,0,0.1-0.1,0.1-0.1c-0.1-0.1-0.2-0.1-0.3-0.2c-0.1,0.1-0.1,0.1-0.2,0c0,0,0-0.1,0-0.1c-0.1-0.1-0.2-0.1-0.4-0.2
				c-0.2-0.1-0.1-0.3,0.1-0.3c0.1,0,0.1,0,0.2,0c0,0-0.1-0.1-0.1-0.1c-0.1,0-0.1,0-0.2,0c-0.1,0-0.1,0-0.1,0c-0.1,0-0.2,0.1-0.3,0.2
				c0,0-0.1,0.1-0.1,0.1c-0.1,0.1-0.1,0.2-0.1,0.3C165,65.9,165.2,66.1,165.3,65.9z"/>
			<path class="st3" d="M166.4,65.3c0,0.1,0,0.3-0.1,0.4c0,0,0,0-0.1,0c0.1,0.1,0.2,0.1,0.3,0.2c0.1,0.1,0.2,0.1,0.3,0.2
				c0.2,0.1,0.3-0.1,0.2-0.3c-0.1-0.1-0.1-0.2-0.2-0.3C166.8,65.5,166.6,65.4,166.4,65.3z"/>
			<path class="st3" d="M166,65.2c-0.1,0-0.1,0-0.2,0c-0.2,0-0.2,0.2-0.1,0.3c0.1,0.1,0.2,0.1,0.4,0.2C166.1,65.5,166,65.4,166,65.2
				z"/>
			<path class="st3" d="M166,65.2c0,0.2,0.1,0.3,0.1,0.5c0,0,0,0.1,0,0.1c0,0.1,0.1,0.1,0.2,0c0,0,0,0,0.1,0c0-0.1,0.1-0.3,0.1-0.4
				c0-0.2,0-0.3,0-0.4c0-0.1,0-0.1,0-0.2c0-0.1,0-0.1,0-0.2c0-0.1,0.1-0.2,0-0.2c0.1,0,0.1-0.2,0-0.2c0,0-0.1,0-0.1,0
				C166,64.2,165.9,64.7,166,65.2z"/>
			<path class="st3" d="M183.3,38.2C183.4,38.1,183.4,38.1,183.3,38.2c0.2-0.2,0.2-0.5,0.3-0.7c-0.1,0-0.1,0-0.2,0
				C183.4,37.7,183.4,37.9,183.3,38.2z"/>
			<path class="st3" d="M183.4,36.8c0.1,0,0.3-0.1,0.4-0.1c0,0,0,0-0.1,0C183.6,36.7,183.5,36.7,183.4,36.8L183.4,36.8z"/>
			<path class="st3" d="M183.2,37.3C183.1,37.3,183.1,37.3,183.2,37.3c-0.1,0-0.1,0-0.1,0c0,0.1,0,0.1,0,0.2c0,0.1-0.2,0.1-0.2,0
				c0,0,0-0.1,0-0.1c-0.1,0.1-0.1,0.2,0,0.4c0,0.1,0.1,0.1,0.2,0.1C183,37.7,183.1,37.5,183.2,37.3z"/>
			<path class="st3" d="M183.3,36.8C183.3,36.8,183.3,36.8,183.3,36.8c0.1-0.1,0-0.1,0-0.2c-0.1-0.1-0.1-0.1-0.2-0.1
				c0.1,0,0.1,0.1,0.2,0.1C183.3,36.7,183.3,36.7,183.3,36.8z"/>
			<path class="st3" d="M183.1,36.9C183.1,36.9,183.1,36.9,183.1,36.9c-0.1-0.1-0.1-0.1-0.1,0C183,36.9,183,36.9,183.1,36.9z"/>
			<path class="st3" d="M182.9,37.2C182.9,37.2,182.9,37.2,182.9,37.2c0-0.1,0-0.1,0-0.1c-0.1,0-0.1,0-0.1,0c0,0.1,0,0.2,0.1,0.3
				C182.8,37.3,182.8,37.3,182.9,37.2z"/>
			<path class="st3" d="M182.9,37.1c0,0,0-0.1,0-0.1c0,0,0-0.1,0.1-0.1c0-0.1,0-0.1,0.1,0c0.1-0.1,0.1-0.1,0.2-0.1c0,0,0-0.1,0-0.1
				c-0.1,0-0.1-0.1-0.2-0.1c0,0-0.1-0.1-0.1-0.1c-0.1,0-0.1,0-0.2,0c-0.2,0.1-0.2,0.4-0.1,0.6c0,0,0,0,0.1,0
				C182.8,37.1,182.8,37.1,182.9,37.1z"/>
			<path class="st3" d="M183,37c0-0.1-0.1-0.1-0.1-0.1c0,0-0.1,0-0.1,0.1c0,0,0,0.1,0,0.1s0,0.1,0,0.1c0,0,0,0,0-0.1
				C182.9,37,183,37,183,37z"/>
			<path class="st3" d="M182.9,37.2c0,0.1,0,0.1,0,0.2c0,0,0,0.1,0,0.1c0,0.1,0.2,0.2,0.2,0c0-0.1,0-0.1,0-0.2
				C183,37.4,182.9,37.3,182.9,37.2z"/>
			<path class="st3" d="M183.4,37.5c0,0-0.1,0-0.1,0c-0.1,0-0.1-0.1-0.1-0.2c-0.1,0.2-0.1,0.4-0.2,0.6c-0.1,0.3-0.1,0.7,0,1
				c0,0.2,0.2,0.1,0.3,0c0,0,0-0.1,0-0.1c0-0.2,0.1-0.4,0.1-0.7C183.4,37.9,183.4,37.7,183.4,37.5z"/>
			<path class="st3" d="M183.3,37.1c0.2,0,0.3,0,0.5,0C183.6,37.1,183.5,37.1,183.3,37.1c-0.2,0.1-0.3-0.1-0.3-0.2
				c-0.1,0-0.1,0.1-0.2,0.2c0,0,0,0,0,0.1s0,0,0,0c0,0.1,0.1,0.1,0.2,0.1c0,0,0,0,0.1,0c0,0,0,0,0.1,0
				C183.2,37.2,183.2,37.2,183.3,37.1z"/>
			<path class="st3" d="M183.4,36.8C183.3,36.8,183.3,36.8,183.4,36.8c-0.1,0-0.2,0-0.2,0.1c-0.1,0-0.1,0.1-0.1,0.1
				c0,0.2,0.1,0.3,0.2,0.2c0.2-0.1,0.4-0.1,0.5,0c0.3,0,0.6,0,0.9,0.1c0,0,0-0.1,0-0.1c-0.2-0.3-0.6-0.4-0.9-0.4
				C183.6,36.7,183.5,36.7,183.4,36.8z"/>
			<path class="st3" d="M183.8,37.1c-0.2,0-0.3,0-0.5,0c-0.1,0-0.1,0.1-0.1,0.2c0,0.1,0,0.2,0.1,0.2c0,0,0.1,0,0.1,0
				c0.1,0,0.1,0,0.2,0c0.1,0,0.2,0,0.3,0c0.3,0,0.6,0,0.9,0.1c0.1,0,0.2-0.2,0.1-0.2c-0.1,0-0.1,0-0.2-0.1
				C184.4,37.1,184.1,37.1,183.8,37.1z"/>
			<path class="st3" d="M212.3,41.6c0.1,0.4,0.1,0.8,0.2,1.2c0,0.1,0.2,0.2,0.3,0.1c0.3-0.5,0.2-1.2,0-1.7c0,0.1,0,0.1-0.1,0.2
				c-0.1,0.1-0.2,0.2-0.3,0c-0.1-0.2-0.1-0.5-0.2-0.7c-0.2-0.2-0.5-0.2-0.8-0.2c-0.1,0-0.2-0.1-0.2-0.2c-0.7,0-1.4,0.3-2.1,0.6
				c-0.2,0.1-0.1,0.4,0.1,0.3c0.6-0.2,1.2-0.3,1.8-0.3c0.1,0,0.2,0,0.4,0C212.1,40.9,212.2,41.2,212.3,41.6z"/>
			<path class="st3" d="M211.4,40.5c0.3,0,0.6,0,0.8,0.2c0.1,0.2,0.2,0.5,0.2,0.7c0.1,0.1,0.2,0.1,0.3,0c0-0.1,0.1-0.2,0.1-0.2
				s0-0.1,0-0.2c-0.1,0-0.1,0-0.2,0c-0.1,0-0.1,0-0.1-0.1c-0.1,0-0.2-0.1-0.2-0.3c0,0,0,0,0-0.1c0-0.1,0-0.1-0.1-0.1
				c-0.2,0-0.2-0.2-0.1-0.3c-0.2-0.1-0.5-0.1-0.8,0c-0.1,0-0.1,0.1-0.1,0.1C211.3,40.3,211.3,40.4,211.4,40.5z"/>
			<path class="st3" d="M212.2,40.4C212.3,40.4,212.3,40.4,212.2,40.4c0.1,0.2,0.1,0.2,0.1,0.2c0,0.1,0.1,0.2,0.2,0.3
				c0,0,0.1,0.1,0.1,0.1c0.1,0,0.1,0,0.2,0c0.2-0.1,0.1-0.6,0.1-0.8c0-0.1-0.1-0.2-0.2-0.2c-0.1,0-0.2,0-0.3,0.2c0,0-0.1,0-0.1,0
				c0,0-0.1,0-0.1,0.1C212.1,40.2,212.1,40.4,212.2,40.4z"/>
			<path class="st3" d="M193,85.8c-0.2-0.3-0.5-0.6-0.8-0.8c-0.1-0.1-0.3,0-0.2,0.2c0.2,0.6,0.6,1.3,1.2,1.6c0.1-0.1,0.2-0.1,0.2,0
				c0.1,0.1,0.1,0.1,0.2,0.2c0.2-0.1,0.4-0.1,0.4,0.1c0.5-0.1,0.9-0.4,1-1c0-0.1-0.1-0.2-0.2-0.2c-0.4,0.2-0.6,0.5-0.9,0.5
				c-0.1,0-0.3-0.1-0.5-0.2C193.2,86,193.1,85.9,193,85.8z"/>
			<path class="st3" d="M193.4,86.8c0,0,0.1,0.1,0.1,0.1C193.5,86.9,193.5,86.9,193.4,86.8c0.1,0.1,0.1,0.1,0.1,0.1
				c0-0.1-0.1-0.1-0.2-0.2c-0.1-0.1-0.2,0-0.2,0c-0.1,0.1-0.1,0.1,0,0.2c0,0,0,0.1,0,0.1c0-0.1,0-0.1,0-0.1
				C193.1,86.8,193.3,86.7,193.4,86.8z"/>
			<path class="st3" d="M193.6,86.9C193.5,86.9,193.5,86.9,193.6,86.9C193.5,86.9,193.5,86.9,193.6,86.9c-0.1,0-0.1,0-0.1-0.1
				c-0.1-0.1-0.3,0-0.2,0.1c0,0,0,0.1,0,0.1c0,0.1-0.1,0.2-0.1,0.3c0,0.1,0,0.2,0.1,0.3c0,0,0.1,0.1,0.1,0.1s0.1,0,0.1,0
				c0.1,0.1,0.1,0.1,0.2,0.1c0.3-0.1,0.4-0.3,0.4-0.6c0-0.1,0-0.1,0-0.2C193.9,86.8,193.7,86.7,193.6,86.9z"/>
			<path class="st0" d="M83.5,111.9c0,0.1,0.1,0.2,0.1,0.3c0.5,1,1.5,1.6,2.6,1.5c1.1-0.1,2-0.7,2.5-1.8c0.1-0.2,0.1-0.5,0.2-0.7
				c0.2-0.6,0.2-1.2,0.1-1.8c-0.3-1.5-1.9-2.7-3.4-2.4c-1.3,0.3-2.3,1.3-2.4,2.6c0,0,0,0.1,0,0.1c0,0,0,0.1,0,0.1
				C83.1,110.7,83.2,111.5,83.5,111.9z"/>
			<path class="st0" d="M101.4,123.9c2,0,2.3-3.1,0.3-3.1C99.7,120.8,99.4,123.9,101.4,123.9z"/>
			<path class="st0" d="M90.8,124.5c-1.5,0-1.8,2.4-0.2,2.4C92.1,126.8,92.3,124.5,90.8,124.5z"/>
			<path class="st0" d="M110,116.2c-1.4,0-1.7,2.2-0.2,2.2C111.3,118.4,111.5,116.2,110,116.2z"/>
			<path class="st2" d="M96.2,116c0.1,0.2,0.3,0.4,0.4,0.6c-0.3-0.6,0.1,0.2,0.2,0.3c0.7,0.7,2.1,1.1,2.9,0.2
				c0.3-0.3,0.5-0.5,0.7-0.9c0,0.1-0.1,0.2-0.1,0.2c0.1-0.1,0.1-0.2,0.2-0.3c0.2-0.4,0.2-0.8,0.3-1.2c0.2-0.8-0.4-1.8-1-2.2
				c-0.7-0.5-1.7-0.6-2.4-0.2c-1.1,0.5-1.5,1.6-1.3,2.6c0,0,0,0-0.1,0C96,115.4,96.1,115.8,96.2,116z"/>
			<path class="st2" d="M112.5,132.3c-0.3-0.1-0.6-0.2-0.9-0.1c-2.1-0.2-2,3.1,0.1,2.9c0.1,0,0.1,0,0.2,0c0.1,0,0.3,0,0.4-0.1
				c0.8-0.2,1.1-0.8,0.9-1.5C113.3,133,113.1,132.5,112.5,132.3z"/>
			<path class="st0" d="M98.2,140.4c0.8,0.2,1.7,0,2.3-0.6c1-0.9,1.3-2.4,0.5-3.6c-0.7-1.1-2.3-1.7-3.5-1c-1.4,0.7-2,2.3-1.3,3.7
				C96.6,139.8,97.4,140.3,98.2,140.4z"/>
			<path class="st4" d="M100.9,160.8c0.1-0.9-0.8-1.9-1.7-1.6c-0.5,0.2-1,0.3-1.4,0.8c-0.4,0.6-0.3,1.4,0.1,1.9
				c0.4,0.5,1.1,0.5,1.6,0.2C100.2,162,100.8,161.6,100.9,160.8z M98.9,162C98.9,162,98.9,162,98.9,162C98.8,162,98.7,162,98.9,162z
				"/>
			<path class="st2" d="M100.8,94.3c-1.1,0.6-0.9,2.1,0.2,2.6c0.4,0.3,0.9,0.5,1.5,0.4c0.8-0.1,1.5-0.8,1.5-1.6c0-0.7-0.3-1.4-1-1.8
				C102.3,93.7,101.3,93.8,100.8,94.3z"/>
			<path class="st3" d="M96.8,104.7c1.3,0,1.5-2.1,0.2-2.1C95.6,102.6,95.4,104.7,96.8,104.7z"/>
			<path class="st3" d="M94.8,90.5c-1.4,0-1.6,2.2-0.2,2.2C96,92.6,96.2,90.5,94.8,90.5z"/>
			<path class="st3" d="M103.1,75.4c-0.3-0.1-0.6-0.2-0.9,0c0,0-0.1,0-0.1,0c-1.6,0.2-1.4,2.7,0.1,2.8c0,0,0,0,0.1,0
				c0.3,0.2,0.6,0.1,0.9,0c0.9-0.1,1.1-0.8,1-1.4C104.2,76.1,103.9,75.5,103.1,75.4z"/>
			<path class="st0" d="M111,150.1c0.9,0.3,1.9,0.1,2.7-0.5c0.7-0.6,1.1-1.6,0.9-2.5c-0.2-1-0.8-1.6-1.7-2c-0.3-0.1-0.7-0.2-1-0.2
				c-0.9,0-1.8,0.3-2.3,1.1c-0.6,0.8-0.5,1.6-0.2,2.5c0,0,0,0.1,0,0.1c0-0.1-0.1-0.3-0.1-0.5C109.5,149,110.1,149.8,111,150.1z"/>
			<path class="st3" d="M109.4,148.5C109.5,148.8,109.5,148.7,109.4,148.5L109.4,148.5z"/>
			<path class="st3" d="M128.6,143.6c1.6,0,1.9-2.5,0.2-2.5C127.2,141.1,127,143.6,128.6,143.6z"/>
			<path class="st0" d="M123.4,155.6c0.5,0.4,1.2,0.3,1.6-0.1c0.2-0.1,0.3-0.4,0.5-0.6c0.9-1.1-0.2-2.6-1.4-2.6
				c-1.3,0.1-2.1,1.7-1.2,2.7c0,0,0.1,0.1,0.1,0.1c-0.2-0.3-0.2-0.3,0.1,0.1C123.2,155.4,123.3,155.5,123.4,155.6z"/>
			<path class="st2" d="M114.4,159.9c0.7-0.8,0.6-2.4-0.2-3.2c-0.8-0.7-1.7-1.3-2.8-1c-0.1,0-0.2,0.1-0.4,0.1c-0.6,0.2-1,0.5-1.4,1
				c-0.5,0.6-0.7,1.6-0.6,2.3c0.1,0.5,0.3,0.9,0.6,1.2c-0.3-0.5-0.3-0.5,0.1,0.2c0.3,0.4,0.8,0.6,1.3,0.8c0.5,0.1,1.1,0.1,1.5-0.2
				c0.2-0.1,0.2-0.2,0.3-0.2c0,0-0.1,0.1-0.2,0.1c0.1,0,0.1-0.1,0.2-0.1c0.5-0.1,0.9-0.4,1.2-0.8C114.3,160.1,114.3,160,114.4,159.9
				z"/>
			<path class="st4" d="M119.7,164.6C119.6,164.6,119.6,164.6,119.7,164.6c-0.2,0.1-0.2,0.2-0.2,0.2c0,0,0.1-0.1,0.1-0.1
				c0,0-0.1,0.1-0.1,0.1c-0.2,0.1-0.4,0.5-0.6,0.7c-0.6,0.9-0.6,2.1,0,2.9c0.5,0.8,1.7,1.4,2.7,1.2c0.7-0.2,1.2-0.4,1.8-0.8
				c0.9-0.7,1.3-2.3,0.7-3.3c-0.5-0.9-1.2-1.4-2.2-1.5C120.9,163.8,120.2,164.1,119.7,164.6z"/>
			<path class="st2" d="M103.8,174c1.7,0,2-2.7,0.2-2.7C102.4,171.4,102.1,174,103.8,174z"/>
			<path class="st0" d="M89.8,196.4c1.2,0,1.3-1.8,0.2-1.8C88.8,194.6,88.7,196.4,89.8,196.4z"/>
			<path class="st2" d="M103.9,208.6c0.5,0.4,1.2,0.5,1.8,0.4c1,0.1,2-0.8,2.2-1.7c0.2-1.1-0.3-2.1-1.4-2.6
				c-0.2-0.1-0.3-0.1-0.5-0.2c-0.4-0.2-0.9-0.2-1.4,0c-0.8,0.3-1.6,1.1-1.6,2C102.9,207.3,103.2,208.1,103.9,208.6z"/>
			<path class="st0" d="M97.6,191.6c1.4,0,1.7-2.3,0.2-2.3C96.3,189.3,96.1,191.6,97.6,191.6z"/>
			<path class="st2" d="M121.5,183.6c-1-1.1-2.4-1.1-3.5-0.3c-0.8,0.6-1,1.7-0.7,2.6c0,0,0,0,0,0.1c0.2,1.1,1.2,1.9,2.3,1.8
				c0.1,0,0.2,0,0.3,0c0.3,0,0.7,0,1-0.2c0.7-0.3,1.1-0.9,1.2-1.6C122.3,185.3,122,184.2,121.5,183.6z"/>
			<path class="st0" d="M129.1,197.9c-0.6,0.7-0.4,1.5,0.2,2.1c0.3,0.2,0.5,0.5,0.9,0.6c1.1,0.3,2-0.7,1.6-1.7
				c-0.1-0.4-0.4-0.6-0.6-0.9C130.6,197.3,129.6,197.2,129.1,197.9z"/>
			<path class="st0" d="M111.9,193c-1.7,0-2,2.6-0.2,2.6C113.3,195.7,113.6,193,111.9,193z"/>
			<path class="st0" d="M116.8,206.4c1.6,0,1.8-2.5,0.2-2.5S115.1,206.4,116.8,206.4z"/>
			<path class="st0" d="M110.7,221.2c0.2,0.1,0.3-0.4,0.1-0.4c-0.5-0.1-0.9,0-1.3,0.4c-0.3,0.3-0.3,0.8,0,1.1
				c0.6,0.5,2.1,0.1,1.6-0.8c-0.1-0.2-0.4-0.2-0.5,0c-0.1,0.2-0.3,0.4-0.6,0.4c-0.1,0-0.2-0.1-0.2-0.2
				C109.8,221.2,110.4,221.2,110.7,221.2z"/>
			<path class="st0" d="M122.6,223.2c0.2,0,0.4,0.1,0.6,0.2c0.4,0.1,0.6-0.4,0.2-0.6c-0.5-0.2-1.8-0.5-1.8,0.5
				c0,0.6,0.8,1.2,1.2,0.5c0.2-0.3-0.2-0.7-0.5-0.5c0,0,0,0,0-0.1C122.3,223.2,122.4,223.1,122.6,223.2z"/>
			<path class="st3" d="M264.5,98.9c0.3,2.1,3.6,1.2,2.8-0.9c0-0.1,0-0.1-0.1-0.2c0-0.1-0.1-0.3-0.2-0.4c-0.4-0.8-1.1-0.9-1.7-0.6
				c-0.5,0.1-0.9,0.4-0.9,1C264.3,98.3,264.3,98.6,264.5,98.9z"/>
			<path class="st0" d="M275.5,102.5c-1.2-0.8-2.7-0.7-3.7,0.4c-0.9,1-1,2.7-0.1,3.7c1.1,1.2,2.8,1.3,4,0.3c0.8-0.6,1.1-1.4,1-2.3
				C276.6,103.8,276.3,103,275.5,102.5z"/>
			<path class="st5" d="M295.3,102.4c-0.9,0.2-1.6,1.3-1.1,2.1c0.3,0.5,0.6,0.9,1.1,1.1c0.7,0.2,1.4-0.1,1.8-0.6
				c0.4-0.6,0.2-1.2-0.2-1.6C296.7,102.8,296.1,102.3,295.3,102.4z M296.5,103.2c-0.1,0-0.2-0.1-0.3-0.1
				C295.9,103.1,296.2,103.1,296.5,103.2z"/>
			<path class="st2" d="M255.3,65c-0.9,0.2-1.6,1.3-1.1,2.1c0.3,0.5,0.6,0.9,1.1,1.1c0.7,0.2,1.4-0.1,1.8-0.6
				c0.4-0.6,0.2-1.2-0.2-1.6C256.8,65.4,256.1,64.9,255.3,65z M256.5,65.8c-0.1,0-0.2-0.1-0.3-0.1C255.9,65.7,256.2,65.6,256.5,65.8
				z"/>
			<path class="st1" d="M277,93.9c-0.1,0.6-0.3,1.1-0.1,1.7c0.2,0.9,0.8,1.6,1.6,1.9c0.9,0.3,1.7,0.1,2.4-0.4
				c-0.1,0-0.1,0.1-0.2,0.1c1.7-0.9,2.1-3.1,0.6-4.4c-0.6-0.6-1.4-0.8-2.3-0.7C278.3,92.3,277.2,93,277,93.9z"/>
			<path class="st3" d="M281.1,97.1c0,0-0.1,0.1-0.1,0.1C281.5,96.8,281.3,97,281.1,97.1z"/>
			<path class="st0" d="M270.1,80.8c1.6,0,1.9-2.6,0.2-2.6C268.7,78.3,268.5,80.8,270.1,80.8z"/>
			<path class="st0" d="M284.6,81.5c0.2-0.6,0-1.2-0.5-1.6c-0.2-0.2-0.4-0.2-0.7-0.3c-1.3-0.6-2.5,0.9-2.2,2.1
				c0.4,1.3,2.2,1.6,3,0.5c0,0,0.1-0.1,0.1-0.1c-0.2,0.2-0.2,0.2,0.1-0.1C284.5,81.8,284.6,81.7,284.6,81.5z"/>
			<path class="st0" d="M288.6,94.5c0.7,0.4,1.5,0.7,2.3,0.5c0.8-0.1,1.5-0.6,1.9-1.2c0,0,0.1-0.1,0.1-0.1c0.4-0.4,0.5-1.3,0.4-1.8
				c-0.1-0.5-0.3-0.9-0.7-1.3c0,0,0,0,0-0.1s0,0-0.1-0.1c-0.2-0.4-0.6-0.8-1.1-1.1c-1.1-0.6-2.7-0.3-3.4,0.8
				c-0.5,0.7-0.7,1.6-0.5,2.4C287.6,93.4,288,94.2,288.6,94.5z"/>
			<path class="st1" d="M298.9,79.9c-0.4-0.7-0.7-1-1.2-1.5c-0.9-0.7-2.6-0.7-3.4,0.2c-0.7,0.7-1.1,1.6-0.9,2.6
				c0,0.8,0.6,1.4,1.2,1.9c0.2,0.2,0.4,0.2,0.5,0.3c0.2,0.1,0.3,0.2,0.5,0.2c1,0.4,2.2,0.1,2.9-0.7
				C299.1,82.1,299.4,80.9,298.9,79.9z"/>
			<path class="st5" d="M306.5,95.1c-1.8,0-2,2.7-0.3,2.7C308,97.8,308.2,95.1,306.5,95.1z"/>
			<path class="st2" d="M311.5,86.3c0,0.1,0,0.3,0,0.4c-0.1,0.7,0.1,1.4,0.5,1.9c0.6,0.7,1.6,1,2.5,0.7c0.8-0.2,1.4-0.9,1.6-1.7
				c0.1-0.5,0.1-1-0.1-1.4c-0.1-1.2-1.3-1.9-2.3-1.9C312.5,84.3,311.7,85.2,311.5,86.3z"/>
			<path class="st1" d="M359.8,80c-0.1-1.1-1.3-1.9-2.3-1.8c-1.2,0.1-2,0.9-2.1,2c0,0.1,0,0.3,0,0.4c-0.1,0.7,0.1,1.4,0.5,1.9
				c0.6,0.7,1.6,1,2.5,0.7c0.8-0.2,1.4-0.9,1.6-1.7C360.1,81,360,80.5,359.8,80C359.8,80,359.8,80,359.8,80z"/>
			<path class="st1" d="M325.3,99.3c1.5,0,1.7-2.3,0.2-2.3C324,97,323.8,99.3,325.3,99.3z"/>
			<path class="st2" d="M316.1,80.1c0,0,0.1,0,0.1-0.1c1.1-0.4,1.5-1.8,1.2-2.8c0-0.1-0.1-0.2-0.1-0.3c-0.1-0.7-0.6-1.3-1.3-1.5
				c-0.4-0.2-0.8-0.2-1.3-0.1c-0.6,0-1.1,0.2-1.5,0.7c-0.8,0.8-1.2,2-0.7,3.1C313.1,80.3,314.9,80.9,316.1,80.1z M316.9,79.1
				c0.1-0.1,0.1-0.2,0.2-0.4C317,78.9,316.9,79,316.9,79.1z"/>
			<path class="st3" d="M308.2,66.2c-0.3,0.2-0.5,0.5-0.7,0.8c-0.4,0.7-0.3,1.6,0.5,2c0.8,0.4,1.6,0,2-0.7c0.2-0.3,0.3-0.6,0.4-1
				C310.4,66.1,309.1,65.6,308.2,66.2z"/>
			<path class="st6" d="M325.6,84.7c1.7,0,2-2.7,0.2-2.7C324.1,82,323.9,84.7,325.6,84.7z"/>
			<path class="st6" d="M337.2,78.6c-1.6,0-1.9,2.5-0.2,2.5C338.6,81.2,338.8,78.6,337.2,78.6z"/>
			<path class="st3" d="M300.5,223.3c-0.6,0-1.2,0.5-1.2,1.2c0,0.3,0,0.6,0,0.9c0.1,1.5,2.4,1.3,2.6-0.1c0-0.3,0-0.6,0-0.9
				C301.8,223.7,301.1,223.3,300.5,223.3z"/>
			<path class="st2" d="M328.5,207.6c0.9-1,0.8-2.7-0.4-3.5c0,0-0.1-0.1-0.1-0.1c-1-0.6-2.2-0.5-3,0.4c-0.8,0.9-0.7,2.1-0.1,3
				c0,0.1,0.1,0.1,0.1,0.2C325.8,208.7,327.7,208.5,328.5,207.6z"/>
			<path class="st2" d="M348,203.6c0.1-0.2,0.3-0.5,0.4-0.8c0.4-0.8-0.4-1.7-1.2-1.7c-0.9,0-1.5,1-1.1,1.8c0.1,0.2,0.2,0.4,0.3,0.5
				C346.7,204.1,347.6,204.3,348,203.6z"/>
			<path class="st0" d="M335.1,185.2c0.1-1.1-0.6-2.1-1.7-2.3c-1.2-0.3-2.5,0.6-2.6,1.9c-0.1,1.2,0.8,2.2,2,2.4
				C333.9,187.3,334.9,186.3,335.1,185.2z"/>
			<path class="st3" d="M365.3,192.9c-1.1,0-1.3,1.8-0.2,1.8C366.3,194.7,366.5,192.9,365.3,192.9z"/>
			<path class="st3" d="M387.3,215.5c-1.2,0-1.4,1.9-0.2,1.9C388.4,217.4,388.6,215.5,387.3,215.5z"/>
			<path class="st3" d="M430.5,214.8c1.3,0,1.5-2,0.2-2C429.4,212.8,429.2,214.8,430.5,214.8z"/>
			<path class="st2" d="M428.3,234.5C428.3,234.4,428.3,234.3,428.3,234.5c0,0,0,0.1,0,0.2c0.1,0.8,0.8,1.3,1.6,1.3
				c0.8,0,1.4-0.6,1.5-1.4c0-0.1,0-0.1,0-0.1c0.4-1.1-0.2-2.3-1.4-2.4C428.9,231.9,427.6,233.3,428.3,234.5z"/>
			<path class="st0" d="M477.7,255.9c2.4,0,2.7-3.7,0.4-3.7C475.7,252.2,475.3,255.9,477.7,255.9z"/>
			<path class="st0" d="M443.7,240.9c-2.4,0-2.7,3.7-0.4,3.7C445.8,244.6,446.1,240.9,443.7,240.9z"/>
			<path class="st3" d="M462.4,274.4c0.4,0.6,1.3,0.4,1.6-0.1c0.1-0.1,0.2-0.3,0.3-0.5c0.4-0.5,0.3-1.2-0.1-1.7
				c-0.3-0.3-0.6-0.6-1.1-0.5c-0.5,0-1,0.3-1.2,0.8c-0.2,0.4-0.2,0.7-0.1,1c0.1,0.2,0.1,0.4,0.2,0.5
				C462.2,274.1,462.3,274.3,462.4,274.4z"/>
			<path class="st2" d="M584.3,434.8c-0.1,0-0.3,0-0.4,0.1c-1.8,0.3-1.6,2.9,0.1,3.2c0.1,0,0.3,0,0.4,0.1
				C586.7,438.5,586.8,434.3,584.3,434.8z"/>
			<path class="st2" d="M592.9,446.9c0.3,0,0.6-0.1,0.9-0.3c0.5-0.3,0.9-0.8,1-1.4c0-0.6-0.2-1.3-0.7-1.6c-0.4-0.2-0.8-0.4-1.3-0.4
				c-1.1-0.1-2.1,0.9-2,1.9C590.8,446.3,591.8,447.1,592.9,446.9z"/>
			<path class="st2" d="M588.6,399.1c-0.2,0.6,0,1.2,0.4,1.6c0.4,0.4,0.9,0.4,1.4,0.3c0.6-0.1,1-0.4,1.5-1c0.5-0.7,0.3-1.6-0.2-2.2
				c-0.6-0.6-1.5-0.6-2.2,0c-0.5,0.4-0.7,0.7-0.8,1.2C588.7,399,588.7,399.1,588.6,399.1z"/>
			<path class="st2" d="M566.7,381.3c-0.7,0.2-1.3,0.9-1.3,1.6c0,0.7,0.2,1.4,0.8,1.7c0.6,0.4,1.5,0.5,2.2,0
				c0.6-0.2,1.2-0.7,1.3-1.4c0-0.7-0.3-1.5-1.1-1.7c-0.1,0-0.2-0.1-0.4-0.1C567.7,381.2,567.2,381.1,566.7,381.3z"/>
			<path class="st2" d="M596.3,368.1c0-0.7-0.3-1.5-1.1-1.7c-0.1,0-0.2-0.1-0.4-0.1c-0.4-0.2-0.9-0.3-1.5-0.1
				c-0.7,0.2-1.3,0.9-1.3,1.6c0,0.7,0.2,1.4,0.8,1.7c0.6,0.4,1.5,0.5,2.2,0C595.7,369.3,596.3,368.8,596.3,368.1z"/>
			<path class="st1" d="M551.3,370.6c0.5-0.3,1-0.6,1.3-1.2c0,0,0,0,0-0.1c0.3-0.5,0.4-1.1,0.2-1.6c0-0.2,0.1-0.4,0.1-0.7
				c0-0.9-0.6-1.6-1.3-1.9c0,0,0,0,0,0c0.4,0.2,0.3,0.1-0.3-0.2c-0.1,0-0.2,0-0.3-0.1c-1.2-0.3-2.6,0.3-3.2,1.4c-0.5,0.9-0.6,2,0,3
				C548.4,370.5,550,371.4,551.3,370.6z M552.7,368.3C552.7,368.2,552.7,368.2,552.7,368.3c0,0,0,0.1,0,0.2
				C552.6,368.4,552.6,368.4,552.7,368.3z"/>
			<path class="st0" d="M509.1,297.7C509.1,297.7,509.1,297.7,509.1,297.7c0.4-0.5,0.4-1.1,0.3-1.6c0-0.2,0.1-0.4,0.1-0.7
				c0-0.9-0.6-1.6-1.4-1.9c0,0,0,0,0,0c0.4,0.2,0.3,0.1-0.4-0.2c-0.1,0-0.2,0-0.3-0.1c-1.2-0.3-2.6,0.3-3.1,1.4c-0.5,0.9-0.6,2,0,3
				c0.7,1.2,2.2,2,3.6,1.3C508.3,298.6,508.8,298.2,509.1,297.7z M509.2,296.6C509.2,296.5,509.2,296.5,509.2,296.6c0,0,0,0.1,0,0.2
				C509.1,296.7,509.1,296.6,509.2,296.6z"/>
			<path class="st1" d="M467.2,168.7c-0.5,0.9-0.6,2.1,0,3c0.7,1.2,2.2,2,3.6,1.3c0.5-0.3,1-0.6,1.3-1.2c0,0,0,0,0-0.1
				c0.3-0.5,0.4-1.1,0.2-1.6c0-0.2,0.1-0.4,0.1-0.7c0-0.9-0.6-1.6-1.4-1.9c0,0,0,0,0,0c0.4,0.2,0.3,0.1-0.4-0.2
				c-0.1,0-0.2,0-0.3-0.1C469.2,166.9,467.8,167.6,467.2,168.7z M472.1,170.6C472.1,170.5,472.1,170.5,472.1,170.6c0,0,0,0.1,0,0.2
				C472,170.7,472,170.6,472.1,170.6z"/>
			<path class="st3" d="M483.6,387.6c1.1,0,1.3-1.7,0.2-1.7C482.7,385.9,482.5,387.6,483.6,387.6z"/>
			<path class="st2" d="M572.5,367.5c1.4,0,1.6-2.1,0.2-2.1C571.3,365.4,571.1,367.5,572.5,367.5z"/>
			<path class="st3" d="M577.8,364.7c1.2,0,1.4-1.8,0.2-1.8C576.8,362.9,576.6,364.7,577.8,364.7z"/>
			<path class="st0" d="M474.6,329c-0.9-0.4-2.2-0.1-2.9,0.5c-0.9,0.7-1.2,1.8-1,2.9c0.2,1.1,1.3,2.3,2.5,2.3c0.1,0,0.3,0,0.4,0
				c1.3,0,2.4-0.7,2.7-1.9c0.1-0.3,0.1-0.6,0-0.8C476.5,330.7,475.9,329.6,474.6,329z M475,330C475.1,330,475.1,330.1,475,330
				c-0.1,0-0.2-0.1-0.4-0.2C474.8,329.9,474.9,329.9,475,330z"/>
			<path class="st0" d="M490.2,318.8c0.3-0.8,0-1.7-0.7-2.2c-0.7-0.6-2.2-0.4-2.7,0.5c0,0.1-0.1,0.2-0.1,0.2
				c-0.4,0.5-0.3,1.3,0.1,1.8c-0.1-0.1-0.1-0.1-0.1-0.2c0.1,0.1,0.4,0.5,0.4,0.5c0.3,0.3,0.6,0.5,1,0.6
				C488.8,320.1,489.9,319.7,490.2,318.8z"/>
			<path class="st3" d="M487,319.4C487,319.4,486.9,319.4,487,319.4C487,319.4,487,319.4,487,319.4z"/>
			<path class="st3" d="M486.6,318.9C486.6,318.8,486.6,318.8,486.6,318.9L486.6,318.9z"/>
			<path class="st0" d="M558,137.8c-1.6,0-1.9,2.5-0.2,2.5C559.4,140.4,559.6,137.8,558,137.8z"/>
			<path class="st4" d="M543.8,155.2c0.6-0.6,0.9-1.4,0.7-2.2c0-0.2-0.1-0.4-0.2-0.6c-0.1-0.5-0.3-0.9-0.6-1.2
				c-0.5-0.5-1.1-0.8-1.8-0.9c-1.4-0.2-2.9,0.8-3.4,2.1c-0.5,1.4,0,3,1.2,3.9C541.1,157,543,156.5,543.8,155.2z"/>
			<path class="st0" d="M567.9,106.1c-0.1,0.3-0.1,0.6-0.2,0.9c-0.1,0.9,0.7,1.7,1.6,1.7c1,0,1.5-0.9,1.4-1.8c0-0.2,0-0.3-0.1-0.5
				c-0.2-0.6-0.6-1.1-1.3-1.2C568.8,105.1,568.1,105.5,567.9,106.1z"/>
			<path class="st3" d="M573.8,138.5c1.8,0,2-2.7,0.3-2.7C572.3,135.7,572,138.5,573.8,138.5z"/>
			<path class="st3" d="M511.3,190.6c-1.5,0-1.7,2.3-0.2,2.3C512.6,192.9,512.8,190.6,511.3,190.6z"/>
			<path class="st3" d="M525.2,203c-0.7,0-1.4,0.6-1.4,1.3c0,0.6,0,1.1,0.3,1.6c0.1,0.2,0.2,0.4,0.3,0.6c0.4,0.6,1.3,0.4,1.7-0.1
				c0.1-0.2,0.2-0.4,0.3-0.6c0.3-0.5,0.3-1,0.3-1.6C526.6,203.4,525.8,202.9,525.2,203z"/>
			<path class="st2" d="M484.6,187.8c-0.2,0.6-0.2,1.3,0,1.9c0.1,0.1,0.1,0.2,0.2,0.3c0.3,0.4,0.8,0.7,1.5,0.7
				c2.8,0,3.2-4.4,0.4-4.4c-0.6,0-1.1,0.2-1.5,0.5C485,187,484.8,187.4,484.6,187.8z"/>
			<path class="st2" d="M470,147.2c-1.6,0-1.9,2.5-0.2,2.5C471.4,149.7,471.6,147.2,470,147.2z"/>
			<path class="st3" d="M459.3,140.6c-1.5,0-1.7,2.3-0.2,2.3C460.6,142.9,460.9,140.6,459.3,140.6z"/>
			<path class="st1" d="M446.7,120.8c0.8-0.1,1.4-1,1.4-1.7c0-0.8-0.7-1.6-1.5-1.6c-0.2,0-0.3,0-0.5,0c-0.9,0-1.8,0.5-1.9,1.5
				c0,0.9,0.6,1.8,1.5,1.9C446,120.8,446.4,120.8,446.7,120.8z"/>
			<path class="st3" d="M415.4,118.3c-1.8,0-2.1,2.8-0.3,2.8C416.9,121.2,417.2,118.3,415.4,118.3z"/>
			<path class="st1" d="M416.3,137.1c3,0,3.4-4.6,0.4-4.6C413.8,132.4,413.4,137.1,416.3,137.1z"/>
			<path class="st2" d="M381.7,116.4c-0.4-0.8-1.7-1.1-2.2-0.2c-0.2,0.4-0.3,0.7-0.4,1.1c-0.2,0.9,0.7,1.6,1.5,1.6
				c0.8,0,1.5-0.8,1.4-1.7C381.9,116.9,381.9,116.6,381.7,116.4z"/>
			<path class="st0" d="M397.2,78.2c-1.3,0.3-2.2,1.3-2.1,2.6c0.1,1.4,1,2.2,2.3,2.5c0.1,0,0.1,0,0.2,0c0.6,0.1,1.4-0.2,1.9-0.6
				c0,0,0,0,0,0c0.7-0.4,1-1.3,1-2.1c0-0.8-0.4-1.4-1-1.9c-0.6-0.5-1.3-0.8-2.1-0.6C397.3,78.2,397.2,78.2,397.2,78.2z"/>
			<path class="st2" d="M405.6,74.5c0,0,0.1,0,0.1,0c1.6,0.2,3.3-1.4,2.9-3.1c0-0.1,0-0.1,0-0.1c-0.2-1-0.8-1.8-1.8-2.1
				c-0.9-0.3-2.1-0.2-2.7,0.5c-0.2,0.2-0.3,0.3-0.5,0.5c-0.6,0.7-0.6,1.9-0.2,2.8C403.8,73.9,404.6,74.4,405.6,74.5z"/>
			<path class="st2" d="M364.7,9.7c-1.8,0-2.1,2.9-0.3,2.9C366.3,12.5,366.5,9.7,364.7,9.7z"/>
			<path class="st0" d="M412.1,19.3c-1.4,0.4-2.1,2-1.5,3.4c0.6,1.2,2,1.7,3.3,1.2c1.1-0.5,1.7-1.9,1.3-3
				C414.8,19.5,413.5,18.9,412.1,19.3z"/>
			<path class="st3" d="M416.7,3.1c-1.7,0-1.9,2.6-0.2,2.6C418.1,5.7,418.4,3.1,416.7,3.1z"/>
			<path class="st4" d="M384.8,29.4c0.2,0,0.4,0,0.6,0c0.4-0.1,1-0.3,1.3-0.6c0,0,0,0,0,0c0,0,0.1,0,0.1-0.1
				c0.5-0.4,0.9-1.1,0.9-1.8c0.1-1.5-0.9-2.6-2.4-2.9c-1-0.2-2,0.4-2.6,1.2c-0.5,0.8-0.6,1.8-0.2,2.6
				C383.1,28.8,383.9,29.2,384.8,29.4z"/>
			<path class="st0" d="M396.5,47.6c-0.2,0-0.3,0-0.5,0c-0.9,0-1.9,0.6-1.9,1.6c0,0.9,0.6,1.9,1.6,1.9c0.3,0,0.6,0,1-0.1
				c0.9-0.1,1.4-1,1.4-1.8C398,48.4,397.4,47.7,396.5,47.6z"/>
			<path class="st1" d="M562.9,33c0.1,0,0.1,0,0.2,0c0,0,0,0,0.1,0c1.7,0.3,2.5-2,1.3-3c-1.2-1.1-3.1,0-2.9,1.5
				C561.4,32.2,562,33.3,562.9,33z"/>
			<path class="st1" d="M194.8,197.8c-1.4,0.1-2.3,1.2-2.4,2.5c-0.1,1.5,1.1,2.8,2.6,2.7c1.6-0.1,2.4-1.4,2.3-2.9
				C197.2,198.8,196.1,197.7,194.8,197.8z"/>
			<path class="st2" d="M173.4,181.3c2,0,2.3-3.1,0.3-3.1C171.7,178.2,171.4,181.3,173.4,181.3z"/>
			<path class="st1" d="M180.4,150.8c-0.6,0.7-0.8,1.7-0.4,2.6c0.4,0.9,1.5,1.5,2.6,1.3c0.1,0,0.2,0,0.3-0.1
				c0.9-0.2,1.4-0.8,1.6-1.7c0-0.1,0.1-0.2,0.1-0.4c0.2-0.9-0.5-1.9-1.3-2.3C182.3,149.8,181.1,150,180.4,150.8z"/>
			<path class="st7" d="M198.6,116.4c0-0.5-0.3-1-0.8-1.2c-0.6-0.3-1.1-0.2-1.6,0.2c-0.1,0.1-0.3,0.2-0.4,0.3
				c-0.6,0.4-0.4,1.3,0.1,1.7c0.1,0.1,0.3,0.2,0.4,0.3C197.4,118.2,198.7,117.6,198.6,116.4z"/>
			<path class="st7" d="M189.3,103.3c-1.5,0-1.7,2.3-0.2,2.3C190.6,105.6,190.8,103.3,189.3,103.3z"/>
			<path class="st1" d="M159.4,107.7c-0.3,0.9-0.3,1.9,0.1,2.8c0.4,0.9,1.2,1.5,2.2,1.7c1.3,0.4,2.8,0,3.7-1c0.1-0.1,0.2-0.2,0,0
				c-0.3,0.3,0.2-0.2,0.3-0.3c0.2-0.2,0.3-0.5,0.4-0.7c0.1-0.3,0.1-0.6,0.1-0.9c0.3-0.5,0.3-1.2,0.1-1.8c-0.2-0.5-0.6-0.9-1-1.3
				c-0.2-0.2-0.5-0.3-0.7-0.4c-0.1,0-0.1,0-0.2-0.1c-0.2,0-0.4-0.1-0.5-0.1c0.4,0.1,0.4,0.1,0.1,0c-0.5-0.1-1-0.1-1.5,0
				c-0.3,0.1-0.6,0.2-0.9,0.3c0,0-0.1,0-0.1,0.1C160.5,106.3,159.7,106.8,159.4,107.7z M163.6,107.9c-0.1,0-0.1,0.1-0.1,0.1
				C163.5,107.9,163.5,107.9,163.6,107.9z M163.4,108.1c0,0-0.1,0-0.1,0.1C163.3,108.1,163.3,108.1,163.4,108.1
				C163.4,108.1,163.4,108.1,163.4,108.1z"/>
			<path class="st2" d="M274,184.3c-1.9,0-2.2,2.9-0.3,2.9C275.6,187.2,275.9,184.3,274,184.3z"/>
			<path class="st1" d="M232.6,196.1c0.5-0.4,0.9-1.1,0.9-1.7c0.1-1.3-0.9-2.8-2.3-2.8c-0.7,0-1.4,0.1-1.9,0.6
				c-0.5,0.4-0.9,1.1-0.9,1.7c-0.1,1.3,0.9,2.8,2.3,2.8C231.4,196.7,232,196.5,232.6,196.1z"/>
			<path class="st2" d="M225,178.7c-1.3,0-1.5,2.1-0.2,2.1C226.1,180.8,226.3,178.7,225,178.7z"/>
			<path class="st3" d="M245.7,196.6c-1.4,0-1.6,2.2-0.2,2.2C246.9,198.9,247.1,196.6,245.7,196.6z"/>
			<path class="st2" d="M220.8,189.9c1.1,0,1.3-1.7,0.2-1.7C219.9,188.2,219.7,189.9,220.8,189.9z"/>
			<path class="st2" d="M242.6,261.2c-1.1,0-2.1,0.4-2.6,1.4c-0.3,0.6-0.4,1.3-0.3,2c0.1,1,1.1,2,2.1,2.2c1,0.4,2.3,0,2.9-0.9
				c0.4-0.6,0.6-1.5,0.3-2.3c-0.1-0.3-0.2-0.7-0.4-0.9C244.3,261.9,243.5,261.2,242.6,261.2z"/>
			<path class="st0" d="M129.9,263.2c0.1,1.2,1.3,1.9,2.4,1.5c-0.3,0.1,0.2,0,0.2,0c0.8-0.1,1.3-0.8,1.2-1.6c0-0.8-0.6-1.3-1.4-1.5
				c-0.1,0-0.5-0.1-0.2,0C131,261.1,129.8,262,129.9,263.2z"/>
			<path class="st2" d="M117.9,255.1c0.7,0,1.3-0.1,1.8-0.6c0.4-0.4,0.8-1.1,0.9-1.6c0.1-1.2-0.8-2.7-2.2-2.7
				c-0.7,0-1.3,0.1-1.8,0.6c-0.4,0.4-0.8,1.1-0.9,1.6C115.6,253.6,116.5,255.1,117.9,255.1z"/>
			<path class="st0" d="M117.4,234.3c1.6,0,1.8-2.5,0.2-2.5C116.1,231.9,115.8,234.3,117.4,234.3z"/>
			<path class="st2" d="M100.6,240.8c0.1-0.1,0.2-0.1,0.3-0.2c1.1-0.7,0.8-2.5-0.2-3.1c-0.1-0.1-0.2-0.1-0.3-0.2
				C96.3,234.6,96,243.8,100.6,240.8z"/>
			<path class="st1" d="M79.6,229.2c1.1-0.7,0.8-2.5-0.2-3.1c-0.1-0.1-0.2-0.1-0.3-0.2c-4.1-2.7-4.4,6.5,0.2,3.5
				C79.4,229.3,79.5,229.2,79.6,229.2z"/>
			<path class="st0" d="M99.6,221.1c0.2,0,0.3,0,0.5,0c0.7,0,1.4-0.5,1.5-1.2c0.1-0.7-0.5-1.5-1.2-1.5c-0.3,0-0.6,0-0.9,0
				C97.9,218.6,98.1,220.9,99.6,221.1z"/>
			<path class="st2" d="M139.5,181c-0.4-1.2-1.7-2.1-3-1.8c-1.4,0.3-2.4,1.6-2.1,3.1c0.1,0.7,0.4,1.2,0.8,1.8
				c0.9,1.1,2.7,1.2,3.7,0.3C139.9,183.4,140.1,182.1,139.5,181z M139.4,180.9c-0.1-0.1-0.1-0.2-0.2-0.3
				C139.3,180.7,139.4,180.8,139.4,180.9z"/>
			<path class="st3" d="M154.6,142.2c-1.2,0-1.4,1.9-0.2,1.9C155.7,144,155.9,142.2,154.6,142.2z"/>
			<path class="st0" d="M151.4,62.3c-0.1,0.5,0.2,1.2,0.5,1.7c0.7,1,1.6,1.4,2.8,1c0.5-0.2,1.1-0.5,1.4-1c0.1-0.1,0.1-0.2,0.2-0.3
				c0.4-0.5,0.6-1.2,0.7-1.8c0.1-1.1-0.6-2.3-1.7-2.7c-1.1-0.4-2.4,0-3.1,1c-0.5,0.7-0.8,1.5-0.6,2.3
				C151.5,62.3,151.5,61.9,151.4,62.3z"/>
			<path class="st8" d="M153.1,37.1c1.8,0,2-2.7,0.3-2.7C151.6,34.4,151.3,37.1,153.1,37.1z"/>
			<path class="st2" d="M165.1,48.4c1.7,0,2-2.7,0.2-2.7C163.6,45.8,163.4,48.4,165.1,48.4z"/>
			<path class="st3" d="M157.2,79.4c-1.3-1.1-3.5-0.1-3.5,1.7c0,0.8,0.6,1.6,1.4,1.9c0.7,0.3,1.4,0.1,2-0.3c0.6-0.3,1.1-0.8,1.2-1.5
				C158.4,80.5,158,79.7,157.2,79.4z"/>
			<path class="st2" d="M164.3,18.3c-0.8,0-1.5,0.1-2.1,0.6c-0.5,0.4-0.9,1.2-1,1.9c-0.1,1.4,0.9,3,2.5,3c0.8,0,1.5-0.1,2.1-0.6
				c0.5-0.4,0.9-1.2,1-1.9C166.9,20,165.9,18.3,164.3,18.3z"/>
			<path class="st8" d="M155.1,13.1c1.8,0,2-2.7,0.3-2.7C153.6,10.4,153.3,13.1,155.1,13.1z"/>
			<path class="st2" d="M184.2,8.6c0.7,0.4,1.7,0.5,2.3-0.1c0.1-0.1,0.3-0.3,0.4-0.5c0.1-0.1,0.2-0.2,0.2-0.3c0,0,0-0.1,0-0.1
				c0.4-0.7,0.5-1.6,0-2.3c-0.5-0.8-1.2-1-2.1-0.9c0,0-0.1,0-0.1,0c-0.5,0-1.1,0.5-1.4,0.9c-0.1,0.2-0.2,0.4-0.3,0.6
				C183,6.7,183.2,8,184.2,8.6z"/>
			<path class="st3" d="M176.1,37.8c-0.5,0.5-0.7,1.2-0.5,1.8c0.2,0.6,0.8,1.2,1.5,1.2c0.6,0,1.2-0.2,1.6-0.7
				c0.4-0.6,0.4-1.6-0.1-2.1c-0.4-0.3-0.7-0.7-1.2-0.8c-0.2,0-0.5,0-0.7,0.1S176.2,37.6,176.1,37.8
				C176.2,37.7,176.2,37.7,176.1,37.8z"/>
			<path class="st2" d="M203.5,21.5c0.8-0.4,1.5-1.5,1.2-2.4c-0.1-0.5-0.3-0.9-0.6-1.3c-0.7-1.1-2.7-0.9-3.3,0.1
				c-0.1,0.2-0.3,0.5-0.4,0.8c-0.4,1.2,0.2,2.3,1.3,2.9C202.3,21.8,203,21.7,203.5,21.5z"/>
			<path class="st2" d="M213.8,266.6c1.9,0,2.2-3,0.3-3C212.1,263.6,211.8,266.6,213.8,266.6z"/>
			<path class="st2" d="M166.8,287.9c-0.6-0.4-1.5-0.7-2.3-0.5c-1.6,0.3-2.8,1.8-2.5,3.5c0.2,1.4,1.5,2.3,2.8,2.3
				c1.3,0.2,2.6-0.4,3.1-1.7c0.3-0.8,0.2-1.4-0.1-2.1C167.6,288.8,167.3,288.2,166.8,287.9z M163.5,292.5c0.1,0,0.1,0.1,0.1,0.1
				C163.6,292.5,163.5,292.5,163.5,292.5z"/>
			<path class="st3" d="M167.8,289.1c0,0.1,0,0.1,0.1,0.2c0.1,0.2,0.1,0.4,0.2,0.5C167.9,289.6,167.9,289.4,167.8,289.1z"/>
			<path class="st0" d="M101.4,269.7c2.4,0,2.8-3.8,0.4-3.8C99.3,265.9,98.9,269.7,101.4,269.7z"/>
			<path class="st2" d="M119,289.9c1,0.2,2-0.1,2.7-0.8c1.3-0.2,2.5-1.6,2.2-3c0,0.6,0,0.6,0,0.1c0-0.4-0.1-0.7-0.2-1.1
				c0-0.1-0.1-0.2-0.1-0.3c-0.4-0.9-1.1-1.3-1.9-1.7c-1-0.4-2.2-0.1-3,0.5c-1,0.8-1.6,2-1.7,3.3C116.8,288.3,117.6,289.5,119,289.9z
				"/>
			<path class="st0" d="M84.4,309c1,0.2,2-0.1,2.7-0.8c1.3-0.2,2.5-1.6,2.2-3c0,0.6,0,0.6,0,0.1c0-0.4-0.1-0.7-0.2-1.1
				c0-0.1-0.1-0.2-0.1-0.3c-0.4-0.9-1.1-1.3-1.9-1.7c-1-0.4-2.2-0.1-3,0.5c-1,0.8-1.6,2-1.7,3.3C82.2,307.4,83.1,308.6,84.4,309z"/>
			<path class="st3" d="M186,299.1c-1.7,0-1.9,2.6-0.2,2.6C187.4,301.7,187.7,299.1,186,299.1z"/>
			<path class="st3" d="M487.2,350.1c-1.6,0-1.9,2.5-0.2,2.5C488.6,352.7,488.8,350.1,487.2,350.1z"/>
			<path class="st0" d="M499.5,342.8c-0.1-0.4-0.2-0.8-0.4-1.1c-0.5-1-1.7-1.5-2.8-1.2c-1,0.3-1.8,1.5-1.6,2.6
				c0.1,0.4,0.2,0.8,0.4,1.1c0.2,0.4,0.4,0.6,0.7,0.8c0.5,0.8,1.4,1.2,2.3,1c0.9-0.3,1.5-1.2,1.3-2.2
				C499.6,343.5,499.6,343.2,499.5,342.8z"/>
			<path class="st2" d="M581.1,254.9c2.3,0,2.7-3.6,0.3-3.6C579.1,251.3,578.7,254.9,581.1,254.9z"/>
			<path class="st2" d="M577.4,206.6c0.2,0.6,0.5,1.1,1.2,1.1c0.7,0,1-0.6,1.2-1.2c0.3-0.9-0.3-1.8-1.3-1.7
				C577.5,204.9,577.1,205.8,577.4,206.6z"/>
			<path class="st2" d="M572.2,150.7c0.2,0.7,0.5,1.2,1.1,1.6c0.1,0.1,0.2,0.1,0.3,0.2c0,0,0.1,0.1,0.2,0.1c0.1,0,0.2,0,0.2,0.1
				c0,0,0,0,0.1,0c0.5,0.3,1.4,0.2,1.9-0.1c0.5-0.3,1.1-0.8,1.3-1.4c0.2-0.6,0.2-1.4-0.1-1.9c-0.3-0.6-0.8-1-1.4-1.3
				C574.1,147,571.6,148.7,572.2,150.7z"/>
			<path class="st0" d="M560.1,146.5c-0.7,0-1.4,0.1-2,0.6c-0.5,0.4-0.9,1.1-0.9,1.8c-0.1,1.3,0.9,2.9,2.4,2.9c0.7,0,1.4-0.1,2-0.6
				c0.5-0.4,0.9-1.1,0.9-1.8C562.6,148,561.6,146.5,560.1,146.5z"/>
			<path class="st4" d="M577,77.3c-0.2,0.3-0.5,0.5-0.7,0.8c-0.3,0.5-0.3,1.2,0.1,1.7c0.4,0.4,1.1,0.6,1.6,0.3
				c0.3-0.2,0.6-0.4,0.9-0.7c0.6-0.5,0.7-1.4,0.2-2C578.5,77,577.5,76.8,577,77.3z"/>
			<path class="st0" d="M547.1,62.9c-0.1,1.1,0.6,2.3,1.6,2.6s2.3,0.1,2.9-0.9c-0.3,0.3-0.3,0.3,0,0c0.2-0.2,0.4-0.5,0.5-0.8
				c0.2-0.5,0.2-1,0.1-1.5c-0.2-1.8-2.8-2.8-4.2-1.5c-0.3,0.4-0.7,0.7-0.9,1.2c0,0.2-0.1,0.4-0.2,0.7
				C547.2,63.4,547.2,63.5,547.1,62.9z"/>
			<path class="st1" d="M571.3,13.1c-1.7,0-2,2.7-0.2,2.7C572.8,15.8,573.1,13.1,571.3,13.1z"/>
			<path class="st8" d="M394,374.9c0.1-0.1,0.2-0.2,0.3-0.3c1.2-1.4-0.1-3.7-1.8-3.8c-0.9-0.1-2,0.2-2.7,0.9
				c-0.8,0.7-1.1,1.5-1.4,2.6c-0.1,0.6,0.2,1.6,0.6,2c0.4,0.4,0.9,0.7,1.5,0.9c1.3,0.3,2.8-0.4,3.2-1.7c0.1-0.2,0.3-0.6-0.1,0.1
				C393.9,375.2,394,374.9,394,374.9z"/>
			<path class="st0" d="M406.4,360c2,0,2.3-3.1,0.3-3.1C404.7,356.9,404.4,360,406.4,360z"/>
			<path class="st0" d="M406.2,336.4c0.5-0.7,0.6-1.6,0.3-2.4c-0.5-1.4-2.3-2.5-3.7-1.6c-0.2,0.1-0.5,0.3-0.7,0.5
				c-1,0.9-1.2,2.4-0.5,3.5c0.7,1.1,2.2,1.6,3.4,1c-0.2,0.1-0.4,0.1-0.6,0.2C405.2,337.2,405.8,337,406.2,336.4z"/>
			<path class="st8" d="M427.3,361c-0.4,0.2-0.7,0.5-1,0.8c-0.1,0.2-0.2,0.4-0.4,0.6c-0.2,0.4-0.4,0.7-0.5,1.1
				c-0.2,0.7-0.2,1.3,0.1,2c0.2,0.9,0.8,1.7,1.8,1.9c1,0.2,1.8-0.1,2.3-0.8c0.6-0.5,0.9-1.1,1.1-1.9c0-0.2,0-1.6,0-1
				c0,0.6,0-0.8,0-0.9c-0.1-0.4-0.3-0.8-0.5-1.2c-0.5-0.5-0.6-0.6-0.3-0.3c-0.5-0.7-1.5-0.8-2.3-0.5
				C428.1,360.8,428,360.8,427.3,361z"/>
			<path class="st0" d="M339.8,335.1c1.8,0,2.1-2.8,0.3-2.8C338.2,332.4,338,335.1,339.8,335.1z"/>
			<path class="st2" d="M179.3,330c-1.5,0-1.7,2.3-0.2,2.3C180.6,332.4,180.8,330,179.3,330z"/>
			<path class="st4" d="M298.4,388.6c1.9,0,2.2-2.9,0.3-2.9C296.8,385.6,296.5,388.6,298.4,388.6z"/>
			<path class="st2" d="M228.3,377.6c0-1-0.7-2-1.7-2.4c-0.9-0.3-1.9-0.1-2.6,0.5c-0.6,0.5-0.9,1.3-0.9,2c0,0.3,0,0.7,0.1,1
				c0.3,1.3,1.4,2.1,2.7,2c0.1,0,0.2,0,0.3,0c0.8,0,1.6-0.4,1.8-1.2c0.1-0.2,0.1-0.5,0.1-0.7c0,0,0-0.1,0-0.1
				C228.2,378.4,228.3,378,228.3,377.6z M228.1,378.3c0-0.2,0-0.3,0-0.5C228.1,378,228.1,378.1,228.1,378.3z"/>
			<path class="st0" d="M83.1,434.5c0-1-0.7-2-1.7-2.4c-0.9-0.3-1.9-0.1-2.6,0.5c-0.6,0.5-0.9,1.3-0.9,2c0,0.3,0,0.7,0.1,1
				c0.3,1.3,1.4,2.1,2.7,2c0.1,0,0.2,0,0.3,0c0.8,0,1.6-0.4,1.8-1.2c0.1-0.2,0.1-0.5,0.1-0.7c0,0,0-0.1,0-0.1
				C83.1,435.3,83.1,434.9,83.1,434.5z M82.9,435.2c0-0.2,0-0.3,0-0.5C82.9,434.9,82.9,435.1,82.9,435.2z"/>
			<path class="st2" d="M210.4,378.1c0.1-0.1,0.1-0.1,0.1-0.3c0.5-0.8,0.1-1.9-0.9-2c-0.9-0.1-1.8,1-1.3,1.8
				c0.1,0.2,0.2,0.3,0.3,0.5C209.1,378.9,210.1,378.8,210.4,378.1z"/>
			<path class="st2" d="M200.9,339.7c-0.8-0.2-1.4-0.2-2.1,0.2c-0.6,0.4-1,1-1.1,1.7c0,0,0,0.1,0,0.1c-0.2,2,2.1,3.3,3.8,2.3
				c0.7-0.5,1.1-1.3,1.1-2.1c0-0.9-0.6-2-1.6-2.2C201,339.8,201,339.8,200.9,339.7z"/>
			<path class="st2" d="M155.4,352c1.6,0,1.8-2.4,0.2-2.4S153.9,352,155.4,352z"/>
			<path class="st1" d="M103.3,433.6c0.8-1.3,0.4-3.2-1.2-3.8c-0.8-0.3-1.7-0.2-2.4,0.4c-1.1,0.9-1.2,2.5-0.3,3.5
				C100.4,434.9,102.5,434.9,103.3,433.6z"/>
			<path class="st8" d="M188.6,428.2c0.3,0.1,0.6,0.1,0.9,0.1c0.4-0.1,0.8-0.3,0.9-0.7c0.1-0.3,0.1-0.6,0-0.9
				c-0.1-0.3-0.2-0.5-0.3-0.9c-0.4-1.1-2-1.2-2.7-0.4c-0.8,0.8-0.5,2.3,0.6,2.7C188.2,428.1,188.4,428.1,188.6,428.2
				C188.4,428.1,188.4,428.2,188.6,428.2z"/>
			<path class="st2" d="M165.8,417.4c0.3,0.1,0.6,0.1,0.9,0.1c0.4-0.1,0.8-0.3,0.9-0.7c0.1-0.3,0.1-0.6,0-0.9
				c-0.1-0.3-0.2-0.5-0.3-0.9c-0.4-1.1-2-1.2-2.7-0.4c-0.8,0.8-0.5,2.3,0.6,2.7C165.4,417.3,165.6,417.3,165.8,417.4
				C165.6,417.4,165.6,417.4,165.8,417.4z"/>
			<path class="st3" d="M90.3,381.4c0.3,0.1,0.6,0.1,0.9,0.1c0.4-0.1,0.8-0.3,0.9-0.7c0.1-0.3,0.1-0.6,0-0.9
				c-0.1-0.3-0.2-0.5-0.3-0.9c-0.4-1.1-2-1.2-2.7-0.4c-0.8,0.8-0.5,2.3,0.6,2.7C89.9,381.3,90.1,381.3,90.3,381.4
				C90.2,381.4,90.2,381.4,90.3,381.4z"/>
			<path class="st8" d="M208.4,427.4c2.1,0,2.4-3.2,0.3-3.2C206.6,424.2,206.3,427.4,208.4,427.4z"/>
			<path class="st2" d="M165.6,324.8c0.3-0.5,0.5-0.9,0.5-1.5c0-0.6-0.3-1-0.6-1.5c-0.6-0.8-1.7-1-2.6-0.7c-1.1,0.3-1.7,1.3-1.7,2.4
				c0,1,0.6,1.9,1.6,2.2C163.7,326.1,164.9,325.7,165.6,324.8z"/>
			<path class="st1" d="M123.3,360.5c-0.6-0.6-1.4-1.2-2.2-1.2c-0.9,0-1.8,0.2-2.5,0.8c-0.6,0.5-1.1,1.4-1.2,2.2
				c0,0.9,0.2,1.8,0.8,2.5c0.6,0.6,1.4,1.2,2.2,1.2c0.9,0,1.8-0.2,2.5-0.8c0.6-0.5,1.1-1.4,1.2-2.2
				C124.1,362.1,123.9,361.2,123.3,360.5z"/>
			<path class="st3" d="M173.4,361.1c1.8,0,2.1-2.8,0.3-2.8C171.9,358.4,171.6,361.1,173.4,361.1z"/>
			<path class="st0" d="M94.5,355.1c0.6-0.5,1-1.3,1.1-2c0.1-1.5-1-3.3-2.8-3.3c-0.8,0-1.6,0.1-2.3,0.7c-0.6,0.5-1,1.3-1.1,2
				c-0.1,1.5,1,3.3,2.8,3.3C93.1,355.8,93.9,355.6,94.5,355.1z"/>
			<path class="st0" d="M225.1,431.2c1.9,0,2.2-3,0.3-3C223.5,428.3,223.2,431.2,225.1,431.2z"/>
			<path class="st2" d="M166.2,442.7C166.2,442.7,166.3,442.7,166.2,442.7c0.9,0.1,1.9-0.2,2.5-0.7c0.6-0.6,1-1.3,1.1-2.1
				c0-0.2,0-0.4,0-0.5c0-0.3,0-0.6,0-0.9c-0.3-1.4-1.3-2.2-2.6-2.4c-1.8-0.4-3.9,1.2-3.9,3.1c0,0.9,0.1,1.8,0.8,2.4
				C164.6,442.2,165.4,442.6,166.2,442.7z M168.3,441.5c0.1-0.1,0.3-0.2,0.4-0.3c0,0,0,0,0,0C168.5,441.4,168.4,441.5,168.3,441.5z"
				/>
			<path class="st2" d="M160.4,429.4c2.1,0,2.5-3.3,0.3-3.3C158.6,426.1,158.2,429.4,160.4,429.4z"/>
			<path class="st4" d="M282.2,439c1.1,0,2.1-0.2,2.9-0.9c0.7-0.6,1.3-1.7,1.4-2.6c0-1-0.2-2.1-0.9-2.9c-0.7-0.7-1.6-1.4-2.6-1.4
				c-1.1,0-2.1,0.2-2.9,0.9c-0.7,0.6-1.3,1.7-1.4,2.6c0,1,0.2,2.1,0.9,2.9C280.2,438.3,281.2,439,282.2,439z"/>
			<path class="st4" d="M220.3,402.1c-0.8,0.2-1.5,0.8-1.6,1.7c0,0.8,0.4,1.8,1.2,2c0.3,0.1,0.6,0.1,1,0.2c1.2,0.1,2.2-0.9,2.1-2
				c-0.1-1.3-1.1-2-2.3-1.9C220.6,402.1,220.4,402.1,220.3,402.1z"/>
			<path class="st2" d="M247.3,434.2c0.1,0.6,0.3,1.2,0.8,1.6c0.5,0.4,1,0.8,1.6,0.9c0.6,0,1.3-0.1,1.8-0.6c0.4-0.4,0.8-0.9,0.9-1.4
				c0.2-0.9,0.2-1.9-0.5-2.7c-0.5-0.5-1.1-0.9-1.8-0.9C248.5,431,246.8,432.5,247.3,434.2z"/>
			<path class="st2" d="M384.5,432.8c-1.2,0-2.3,0.2-3.2,1c-0.8,0.7-1.5,1.8-1.5,2.9c-0.1,1.1,0.2,2.4,1,3.2
				c0.7,0.8,1.8,1.5,2.9,1.5c1.2,0,2.3-0.2,3.2-1c0.8-0.7,1.5-1.8,1.5-2.9c0.1-1.1-0.2-2.4-1-3.2
				C386.6,433.5,385.6,432.8,384.5,432.8z"/>
			<path class="st0" d="M141,432c1.2,0,2.3-0.2,3.2-1c0.8-0.7,1.5-1.8,1.5-2.9c0.1-1.1-0.2-2.4-1-3.2c-0.7-0.8-1.8-1.5-2.9-1.5
				c-1.2,0-2.3,0.2-3.2,1c-0.8,0.7-1.5,1.8-1.5,2.9c-0.1,1.1,0.2,2.4,1,3.2C138.9,431.3,139.9,432,141,432z"/>
			<path class="st3" d="M436.7,426.5c-2.4,0-2.8,3.8-0.4,3.8C438.8,430.3,439.2,426.5,436.7,426.5z"/>
			<path class="st0" d="M363,104.6c-1.6-0.9-3.6-0.6-4.5,1.1c-0.9,1.6-0.1,3.6,1.6,4.3c0.2,0.1,0.5,0.2,0.7,0.2
				c0.2,0.1,0.5,0.1,0.7,0.1c0.5,0.1,1,0.1,1.5-0.2c0.6-0.3,1-0.7,1.3-1.3c0.7-1.3,0.2-2.8-0.9-3.7
				C364.4,105.8,363.3,104.8,363,104.6z"/>
			<path class="st1" d="M367.2,371.8c0.9,0,1-1.3,0.1-1.3C366.4,370.4,366.3,371.8,367.2,371.8z"/>
			<path class="st0" d="M364.4,400.1c0.6-0.1,1.1-0.5,1.3-1.1c0.1-0.1,0.2-0.2,0.4-0.3c0.5-0.4,0.6-1.2,0.2-1.7
				c-0.4-0.6-1-0.7-1.6-0.5c-0.1,0-0.1,0-0.2,0c-0.5-0.1-0.9-0.1-1.4,0.2c-0.7,0.5-1.1,1.5-0.6,2.3
				C362.8,399.8,363.6,400.2,364.4,400.1z"/>
			<path class="st0" d="M355,365.7c0.6,0.4,1.3,0.5,1.9,0.2c0.5-0.3,1.1-0.9,1.1-1.6c0-0.2,0-0.4,0-0.6c-0.1-0.7-0.6-1.3-1.3-1.5
				c-0.5-0.2-1-0.2-1.5,0c0,0,0,0-0.1,0c-0.9,0.4-1.5,1.8-0.9,2.6C354.5,365.2,354.7,365.5,355,365.7z"/>
			<path class="st1" d="M359.1,346.3c1.6,0,1.8-2.5,0.2-2.5C357.8,343.9,357.5,346.3,359.1,346.3z"/>
			<path class="st2" d="M349.2,334.1c1.1,0,2.1-0.2,3-0.9c0.7-0.6,1.3-1.7,1.4-2.7c0-1-0.2-2.2-0.9-3c-0.7-0.7-1.6-1.4-2.7-1.4
				c-1.1,0-2.1,0.2-3,0.9c-0.7,0.6-1.3,1.7-1.4,2.7c0,1,0.2,2.2,0.9,3C347.2,333.4,348.2,334.1,349.2,334.1z"/>
			<path class="st0" d="M361.4,319.7c-2.7,0-3.1,4.1-0.4,4.1C363.7,323.8,364.1,319.7,361.4,319.7z"/>
			<path class="st2" d="M311.4,288.2c4.9,0,5.6-7.6,0.7-7.6C307.2,280.6,306.5,288.2,311.4,288.2z"/>
			<path class="st2" d="M319,309c1,0,2.1-0.7,2.1-1.8c0-0.2,0-0.3,0-0.5c0-1-0.6-2.1-1.8-2.1c-1,0-2.1,0.7-2.1,1.8
				c0,0.2,0,0.3,0,0.5C317.3,307.9,317.9,309,319,309z"/>
			<path class="st7" d="M325.1,298.8c2.2,0,2.5-3.4,0.3-3.4C323.2,295.4,322.9,298.8,325.1,298.8z"/>
			<path class="st0" d="M279.5,263c-1.2,0-2.3,0.2-3.2,1c-0.8,0.7-1.5,1.8-1.5,2.9c-0.1,1.1,0.2,2.4,1,3.2c0.7,0.8,1.8,1.5,2.9,1.5
				c1.2,0,2.3-0.2,3.2-1c0.8-0.7,1.5-1.8,1.5-2.9c0.1-1.1-0.2-2.4-1-3.2C281.7,263.7,280.6,263,279.5,263z"/>
			<path class="st7" d="M257.7,278.9c2.3,0,2.7-3.6,0.3-3.6C255.7,275.3,255.4,278.9,257.7,278.9z"/>
			<path class="st2" d="M227.4,244.6c2.3,0,2.6-3.6,0.3-3.6C225.4,241,225.1,244.6,227.4,244.6z"/>
			<path class="st1" d="M204.4,268.1c-0.3-0.6-0.7-1-1.2-1.4c-0.5-0.4-1.1-0.6-1.7-0.6c-0.6-0.1-1.5,0.1-2.1,0.4
				c-1.1,0.6-2,1.7-2.1,3c-0.1,1.5,0.7,2.9,2,3.6c1.2,0.6,2.6,0.6,3.7-0.2c0.8-0.5,1.2-1.2,1.5-2c0-0.1,0-0.1,0.1-0.2
				c0.1-0.2,0.1-0.4,0.1-0.6C204.8,269.4,204.7,268.7,204.4,268.1z M204.7,270.1c0-0.1,0-0.3,0-0.4c0,0.1,0,0.2,0,0.3
				C204.7,270.1,204.7,270.1,204.7,270.1z"/>
			<path class="st0" d="M368.3,211.7c1,0.1,2-0.4,2.5-1.2c0.3-0.3,0.5-0.7,0.5-1.2c0-0.6-0.2-1.2-0.6-1.7c0-0.1-0.1-0.1-0.1-0.2
				c-0.4-0.5-1.1-0.9-1.7-0.9c-1.4-0.1-2.8,0.9-2.8,2.4C365.9,210.2,366.9,211.6,368.3,211.7z"/>
			<path class="st0" d="M365.2,124.6c-0.8-2-3.4-2.5-5.1-1.4c-1.6,1.1-2.1,3.2-1,4.8c0.5,0.8,1.2,1.3,2.2,1.5c0.1,0,0.2,0,0.3,0.1
				c0.7,0.3,1.5,0.3,2.1-0.1c0.7-0.4,1.2-0.9,1.4-1.7C365.7,126.9,365.7,125.6,365.2,124.6z M362.2,129.6c0.1,0,0.2,0,0.3,0
				C362.4,129.6,362.3,129.6,362.2,129.6C362.2,129.6,362.2,129.6,362.2,129.6z"/>
			<path class="st0" d="M301.4,156.4c0,0.1-0.1,0.2-0.1,0.2c-0.3,1.2-0.4,2.4,0.2,3.5c0.5,0.9,1.3,1.9,2.3,2.2
				c1.3,0.7,2.8,0.8,4.1-0.1c0.6-0.4,1-0.8,1.3-1.4c0-0.1,0.1-0.2,0.1-0.3c0.6-0.9,0.9-2.1,0.7-3.2c0-0.1,0-0.2,0-0.3
				c-0.3-1.9-2.1-3.6-4-3.7C303.9,153.4,302.1,154.6,301.4,156.4z M309.6,159.2c0-0.2,0-0.3,0-0.5
				C309.6,158.8,309.6,159,309.6,159.2L309.6,159.2z"/>
			<path class="st6" d="M303.6,131.2c0,0.9,0.9,1.7,1.9,1.5c0.4-0.1,0.7-0.1,1-0.3c0.4-0.3,0.7-0.8,0.7-1.3c0-0.5-0.3-0.9-0.6-1.2
				c-0.4-0.2-0.8-0.3-1.2-0.4C304.4,129.3,303.6,130.3,303.6,131.2z"/>
			<path class="st2" d="M511,265.9c2.4,0,2.7-3.7,0.4-3.7C509,262.3,508.6,265.9,511,265.9z"/>
			<path class="st2" d="M488.7,276.9c-2.4,0-2.7,3.7-0.4,3.7C490.7,280.6,491.1,276.9,488.7,276.9z"/>
			<path class="st0" d="M434.4,281c2.9,0,3.4-4.5,0.4-4.5C431.9,276.5,431.4,281,434.4,281z"/>
			<path class="st7" d="M424.9,298.6c4.5,0,5.2-7,0.7-7C421,291.6,420.4,298.6,424.9,298.6z"/>
			<path class="st0" d="M431.1,320.9c2.3,0,2.6-3.5,0.3-3.5C429.1,317.3,428.8,320.9,431.1,320.9z"/>
			<path class="st8" d="M395.1,273.4c2.1,0,2.4-3.2,0.3-3.2C393.3,270.1,393,273.4,395.1,273.4z"/>
			<path class="st8" d="M409.4,305.3c-2.3,0-2.6,3.6-0.3,3.6C411.4,308.9,411.7,305.3,409.4,305.3z"/>
			<path class="st7" d="M411.4,278.8c-2.1,0-2.4,3.3-0.3,3.3C413.2,282.1,413.5,278.8,411.4,278.8z"/>
			<path class="st0" d="M440.7,291.1c-1.6,0-1.9,2.5-0.2,2.5C442.1,293.7,442.3,291.1,440.7,291.1z"/>
			<path class="st2" d="M506.7,395.6c-1.9,0-2.2,3-0.3,3C508.4,398.6,508.6,395.6,506.7,395.6z"/>
			<path class="st0" d="M497.5,383c0.7,0,1.3-0.1,2-0.4c0.2-0.1,0.5-0.3,0.7-0.5c0.2-0.1,0.4-0.2,0.6-0.4c1.1-0.8,1.5-2.3,1.3-3.6
				c-0.1-0.7-0.4-1.3-0.9-1.8c-0.4-0.5-1-0.9-1.6-1.1c-0.6-0.3-1.5-0.3-2.1-0.2c-0.4,0.1-0.8,0.2-1.2,0.4c-1.2,0.5-2.1,1.8-2.2,3.2
				c0,0.5,0,0.9,0,1.4C494.5,381.5,495.8,383,497.5,383z"/>
			<path class="st3" d="M422.7,420c2.4,0,2.8-3.8,0.4-3.8C420.7,416.2,420.3,420,422.7,420z"/>
			<path class="st2" d="M545,438c2.5,0,2.8-3.8,0.4-3.8C542.9,434.2,542.6,438,545,438z"/>
			<path class="st2" d="M528,409.6c0.6,0.2,1.2,0.2,1.8,0.2c0.5-0.1,1-0.3,1.4-0.6c1.1-0.4,1.7-1.8,1.7-2.9c0-1.1-0.6-2-1.5-2.5
				c-0.9-0.7-2.1-0.9-3.2-0.6c-1.5,0.5-2.4,1.8-2.3,3.4C525.9,407.9,526.8,409.1,528,409.6z"/>
			<path class="st0" d="M522.7,363c0.6,0.2,1.2,0.2,1.8,0.2c0.5-0.1,1-0.3,1.4-0.6c1.1-0.4,1.7-1.8,1.7-2.9c0-1.1-0.6-2-1.5-2.5
				c-0.9-0.7-2.1-0.9-3.2-0.6c-1.5,0.5-2.4,1.8-2.3,3.4C520.6,361.2,521.4,362.5,522.7,363z"/>
			<path class="st1" d="M265.4,221.9c0-0.8-0.6-1.8-1.5-1.8c-0.2,0-0.3,0-0.5,0c-0.9,0-1.8,0.6-1.8,1.5c0,0.8,0.6,1.8,1.5,1.8
				c0.2,0,0.3,0,0.5,0C264.5,223.4,265.4,222.9,265.4,221.9z"/>
			<path class="st1" d="M157,201.8c-0.9,0.4-1.7,1.4-1.7,2.4c0,0.4,0,0.7,0.1,1c0.1,0.9,0.5,1.7,1.3,2.1c0.8,0.4,1.9,0.4,2.6-0.2
				c0.3-0.1,0.5-0.3,0.8-0.5c1.7-1.3,1.2-3.9-0.6-4.8C158.8,201.4,157.8,201.4,157,201.8z"/>
			<path class="st2" d="M254.3,190.1c-0.5,0.1-0.9,0.3-1.3,0.6c-0.8,0.5-0.6,1.8,0.1,2.3c0.4,0.3,0.8,0.4,1.3,0.5
				c1,0.2,1.9-0.8,1.9-1.8C256.2,190.7,255.3,189.9,254.3,190.1z"/>
			<path class="st3" d="M213.7,214.4c-1.8,0-2.1,2.8-0.3,2.8C215.2,217.1,215.5,214.4,213.7,214.4z"/>
			<path class="st2" d="M287.4,211.4c0-0.1,0-0.3,0-0.4c-0.3-2.5-4.1-2.2-4.4,0.2c0,0.1,0,0.3,0,0.4
				C282.6,214.7,287.8,214.7,287.4,211.4z"/>
			<path class="st5" d="M310.4,144.3c2.4,0,2.7-3.7,0.4-3.7C308.4,140.6,308,144.3,310.4,144.3z"/>
			<path class="st1" d="M353.3,174.8c-1.2,0.3-2,1-2.5,2.1c-0.6,1.3,0.2,3.2,1.5,3.8c0.8,0.5,1.9,0.5,2.8,0.1
				c0.7-0.3,1.2-0.9,1.4-1.6c0.4-0.7,0.5-1.5,0.2-2.3C356.2,175.5,354.8,174.5,353.3,174.8z M356.5,178.9c0-0.1,0-0.1,0-0.1
				c0-0.1,0.1-0.2,0.1-0.4C356.6,178.6,356.5,178.9,356.5,178.9z M356,176.6c0,0-0.1-0.1-0.1-0.1C355.9,176.5,355.9,176.5,356,176.6
				C355.9,176.6,356,176.6,356,176.6z"/>
			<path class="st2" d="M427.4,93.2c-2.4,0-2.8,3.8-0.4,3.8C429.5,97,429.8,93.2,427.4,93.2z"/>
			<path class="st2" d="M238,10.9c-2,0-2.3,3.1-0.3,3.1C239.7,14,240.1,10.9,238,10.9z"/>
			<path class="st2" d="M272.9,41.7c-1.6-0.1-3.2,1-3.3,2.8c0,0.7,0.2,1.4,0.5,2c0,0,0,0.1,0,0.1c0.1,0.4,0.6,0.8,0.9,1.1
				c0.5,0.3,1.1,0.5,1.7,0.5c1,0,2-0.7,2.4-1.7c0.3-0.4,0.5-0.9,0.5-1.4C275.7,43.5,274.5,41.8,272.9,41.7z"/>
			<path class="st2" d="M266.4,8.9c2.4,0,2.7-3.7,0.4-3.7C264.4,5.2,264,8.9,266.4,8.9z"/>
			<path class="st4" d="M330.7,7.3c-1.5,0-1.7,2.3-0.2,2.3C331.9,9.6,332.2,7.3,330.7,7.3z"/>
			<path class="st2" d="M320,24.4c-1.8,0-2,2.8-0.3,2.8C321.5,27.1,321.8,24.4,320,24.4z"/>
			<path class="st0" d="M399.2,214.4c0.4-0.3,0.8-0.6,0.8-1.1c0-0.5-0.2-1-0.6-1.3c-0.2-0.1-0.3-0.2-0.5-0.3
				c-1.2-0.8-2.8,0.1-2.8,1.5c0,0.6,0.4,1.2,0.9,1.5c0.7,0.4,1.3,0.2,1.9-0.2C399,214.5,399,214.4,399.2,214.4z"/>
			<path class="st2" d="M581.4,176.5c-2.5,0-2.9,3.9-0.4,3.9C583.5,180.4,583.9,176.5,581.4,176.5z"/>
			<path class="st0" d="M570.7,246.9c-2,0-2.3,3.1-0.3,3.1C572.4,250,572.7,246.9,570.7,246.9z"/>
			<path class="st2" d="M545.7,265.8c0-0.5-0.2-1.1-0.6-1.6c-0.1-0.1-0.2-0.2-0.3-0.3c-0.4-0.4-0.8-0.4-1.4-0.4
				c-0.8,0-1.5,1-1.6,1.8c-0.1,0.9,0.4,1.8,1.3,2.1C544.4,267.8,545.6,267.1,545.7,265.8z"/>
			<path class="st0" d="M544.7,288.5c0-0.5-0.2-1.1-0.6-1.6c-0.1-0.1-0.2-0.2-0.3-0.3c-0.4-0.4-0.8-0.4-1.4-0.4
				c-0.8,0-1.5,1-1.6,1.8c-0.1,0.9,0.4,1.8,1.3,2.1C543.3,290.4,544.5,289.7,544.7,288.5z"/>
			<path class="st2" d="M579.8,223.4c-0.1-0.1-0.2-0.2-0.3-0.3c-0.4-0.4-0.8-0.4-1.4-0.4c-0.8,0-1.5,1-1.6,1.8
				c-0.1,0.9,0.4,1.8,1.3,2.1c1.2,0.4,2.4-0.3,2.5-1.6C580.5,224.4,580.2,223.8,579.8,223.4z"/>
			<path class="st0" d="M587.7,88.2c-2.1,0-2.4,3.2-0.3,3.2C589.5,91.4,589.8,88.2,587.7,88.2z"/>
			<path class="st0" d="M551.4,235.5c2.2,0,2.6-3.4,0.3-3.4C549.5,232,549.2,235.5,551.4,235.5z"/>
			<path class="st0" d="M0.1,46.9c0.3-0.2,0.5-0.3,0.7-0.6c0.2,0,0.4-0.3,0.2-0.4c-0.3-0.2-0.6-0.5-0.9-0.7
				C0.1,45.2,0.1,46.9,0.1,46.9z"/>
			<path class="st3" d="M44.3,438c0.6-0.1,1-0.4,1.5-1c0.5-0.7,0.3-1.6-0.2-2.2c-0.6-0.6-1.5-0.6-2.2,0c-0.5,0.4-0.7,0.7-0.8,1.2
				c0,0,0,0.1-0.1,0.1c-0.2,0.6,0,1.2,0.4,1.6C43.3,438,43.8,438.1,44.3,438z"/>
			<path class="st0" d="M0.1,123.7v3.9c0.4-0.3,0.7-0.7,0.9-1.1c0.2-0.6,0.2-1.3-0.1-1.9C0.6,124.2,0.4,123.9,0.1,123.7z"/>
			<path class="st2" d="M22.8,58c0.2,0.7,0.5,1.2,1.1,1.6c0.1,0.1,0.2,0.1,0.3,0.2c0,0,0.1,0,0.2,0.1c0.1,0,0.2,0,0.2,0.1
				c0,0,0,0,0.1,0c0.5,0.3,1.4,0.2,1.9-0.1c0.5-0.3,1.1-0.8,1.3-1.4c0.2-0.6,0.2-1.3-0.1-1.9c-0.3-0.6-0.8-1-1.4-1.3
				C24.7,54.3,22.2,56,22.8,58z"/>
			<path class="st0" d="M15.9,72.2c0-0.3-0.1-0.5-0.2-0.8c-0.5-1.1-1.9-0.8-2.3,0.1c-0.1,0.3-0.2,0.5-0.2,0.8
				c-0.1,0.8,0.6,1.5,1.4,1.5C15.5,73.8,16,73,15.9,72.2z"/>
			<path class="st7" d="M48.8,45c0.9,0,1.4-0.8,1.3-1.6c0-0.3-0.1-0.5-0.2-0.8c-0.5-1-1.9-0.8-2.3,0.1c-0.1,0.3-0.2,0.5-0.2,0.8
				C47.3,44.3,48,45,48.8,45z"/>
			<path class="st3" d="M17.5,440c0.7,0,1.3-0.1,2-0.4c0.2-0.1,0.5-0.3,0.7-0.5c0.2-0.1,0.4-0.2,0.6-0.4c1.1-0.8,1.5-2.3,1.3-3.6
				c-0.1-0.7-0.4-1.3-0.9-1.8c-0.4-0.5-1-0.9-1.6-1.1c-0.6-0.3-1.5-0.3-2.1-0.2c-0.4,0.1-0.8,0.2-1.2,0.4c-1.2,0.5-2.1,1.8-2.2,3.2
				c0,0.5-0.1,0.9,0.1,1.4C14.5,438.5,15.8,439.9,17.5,440z"/>
			<path class="st0" d="M53.6,71.6c0-1.1-0.6-2-1.5-2.5c-0.9-0.7-2.1-0.9-3.2-0.6c-1.5,0.5-2.4,1.8-2.3,3.3c0.1,1.3,0.9,2.6,2.2,3.1
				c0.6,0.2,1.2,0.2,1.8,0.2c0.5-0.1,1-0.3,1.4-0.6C53,74.1,53.6,72.8,53.6,71.6z"/>
			<path class="st7" d="M64.6,18.7c-0.9-0.7-2.1-0.9-3.2-0.6c-1.5,0.5-2.4,1.8-2.3,3.4c0.1,1.4,0.9,2.6,2.2,3.1
				c0.6,0.2,1.2,0.2,1.8,0.2c0.5-0.1,1-0.3,1.4-0.6c1.1-0.4,1.7-1.8,1.7-2.9C66.1,20.2,65.5,19.2,64.6,18.7z"/>
			<path class="st2" d="M63.4,119.4c-1.5,0.5-2.4,1.8-2.3,3.3c0.1,1.3,0.9,2.6,2.2,3.1c0.6,0.2,1.2,0.2,1.8,0.2
				c0.5-0.1,1-0.3,1.4-0.6c1.1-0.4,1.7-1.8,1.7-2.8c0-1.1-0.6-2-1.5-2.5C65.7,119.3,64.5,119.1,63.4,119.4z"/>
			<path class="st2" d="M24.6,24.8c-0.9-0.7-2.1-0.9-3.1-0.6C20,24.7,19,26,19.1,27.6c0.1,1.4,0.9,2.6,2.2,3.1
				c0.6,0.2,1.2,0.2,1.8,0.2c0.5-0.1,1-0.3,1.4-0.6c1.1-0.4,1.7-1.8,1.7-2.9C26.1,26.2,25.5,25.3,24.6,24.8z"/>
			<path class="st0" d="M48,162c2.5,0,2.9-3.9,0.4-3.9C45.9,158.1,45.5,162,48,162z"/>
		</g>
	</g>
</g>
</svg>
