<?xml version="1.0" encoding="utf-8"?>
<!-- Generator: Adobe Illustrator 26.0.1, SVG Export Plug-In . SVG Version: 6.00 Build 0)  -->
<svg version="1.1" id="Layer_1" xmlns="http://www.w3.org/2000/svg" xmlns:xlink="http://www.w3.org/1999/xlink" x="0px" y="0px"
	 viewBox="0 0 637 450" style="enable-background:new 0 0 637 450;" xml:space="preserve">
<style type="text/css">
	.st0{clip-path:url(#SVGID_00000069390328990004893470000002954361054869403019_);}
	.st1{fill:#0A0A0A;}
	.st2{clip-path:url(#SVGID_00000069390328990004893470000002954361054869403019_);fill:#0A0A0A;}
</style>
<g>
	<defs>
		<rect id="SVGID_1_" width="637" height="450"/>
	</defs>
	<clipPath id="SVGID_00000064317062646750998090000007610770285484580244_">
		<use xlink:href="#SVGID_1_"  style="overflow:visible;"/>
	</clipPath>
	<g style="clip-path:url(#SVGID_00000064317062646750998090000007610770285484580244_);">
		<path class="st1" d="M546.5,169.4c-0.5,0-0.9-0.1-1.3-0.4c-0.5-0.4-0.9-1.1-1.3-1.8c-0.3-0.5-0.5-1-0.8-1.3
			c-0.6-0.8-0.9-1.9-0.2-2.5c0.5-0.6,0.6-1.1,0.7-1.6c0.1-0.7,0.2-1.2,1.1-1.4c1-0.3,1.8-0.4,2.4-0.4c1,0,1.4,0.3,2,0.8
			c0.4,0.4,0.9,0.7,1.7,1.1c0.3,0.1,0.5,0.5,0.7,0.9c0.2,0.4,0.5,0.8,0.9,1.2c0.7,0.6,0.8,1.8,0.4,3c-0.4,1.1-1.4,2.4-3,2.4l0,0
			c-0.3,0-0.7-0.1-1.1-0.2c-0.1,0-0.2-0.1-0.4-0.1c-0.3,0-0.5,0.1-0.8,0.1C547.2,169.3,546.9,169.4,546.5,169.4z"/>
		<path class="st1" d="M552.6,163.8c-0.8-0.6-0.9-1.8-1.6-2.1c-2.5-1.1-1.7-2.7-6.2-1.5c-1.6,0.4-0.8,1.9-1.8,3.1
			c-0.8,0.7-0.5,2,0.2,2.8c0.7,0.8,1.2,2.5,2.1,3.1c1.4,1,2.8-0.1,3.6,0.2C552.4,170.7,554.4,165.4,552.6,163.8z M552.2,167.3
			c0-0.2,0.5-1.2-1.4-1.1c-1.2,0.1-0.5-0.8-1.5-1c0.2-0.4,0.8-0.9,0.6-1.4c-0.2-0.5-1.2-0.6-1.9-0.5c-0.4,0.1-1,0.2-1.1,0.1
			c-0.3-0.3,0.5-1.4-1.8-1.4c0-0.3,0.4-1.1,0.4-1.5c3.5-0.7,2.3,0.5,5.1,1.7c0.5,0.2,0.7,1.4,1.5,2c0.5,0.4,0.7,1.7,0.3,2.8
			C552.3,167.2,552.2,167.2,552.2,167.3z"/>
	</g>
	<g style="clip-path:url(#SVGID_00000064317062646750998090000007610770285484580244_);">
		<path class="st1" d="M143.3,317.8c-0.5,0-0.9-0.1-1.3-0.4c-0.5-0.4-0.9-1.1-1.3-1.8c-0.3-0.5-0.5-1-0.8-1.3
			c-0.6-0.8-0.9-1.9-0.2-2.5c0.5-0.6,0.6-1.1,0.7-1.6c0.1-0.7,0.2-1.2,1.1-1.4c1-0.3,1.8-0.4,2.4-0.4c1,0,1.4,0.3,2,0.8
			c0.4,0.4,0.9,0.7,1.7,1.1c0.3,0.1,0.5,0.5,0.7,0.9c0.2,0.4,0.5,0.8,0.9,1.2c0.7,0.6,0.8,1.8,0.4,3c-0.4,1.1-1.4,2.4-3,2.4l0,0
			c-0.3,0-0.7-0.1-1.1-0.2c-0.1,0-0.2-0.1-0.4-0.1c-0.3,0-0.5,0.1-0.8,0.1C144,317.7,143.7,317.8,143.3,317.8z"/>
		<path class="st1" d="M149.4,312.2c-0.8-0.6-0.9-1.8-1.6-2.1c-2.5-1.1-1.7-2.7-6.2-1.5c-1.6,0.4-0.8,1.9-1.8,3.1
			c-0.8,0.7-0.5,2,0.2,2.8c0.7,0.8,1.2,2.5,2.1,3.1c1.4,1,2.8-0.1,3.6,0.2C149.2,319.1,151.2,313.8,149.4,312.2z M149,315.7
			c0-0.2,0.5-1.2-1.4-1.1c-1.2,0.1-0.5-0.8-1.5-1c0.2-0.4,0.8-0.9,0.6-1.4c-0.2-0.5-1.2-0.6-1.9-0.5c-0.4,0.1-1,0.2-1.1,0.1
			c-0.3-0.3,0.5-1.4-1.8-1.4c0-0.3,0.4-1.1,0.4-1.5c3.5-0.7,2.3,0.5,5.1,1.7c0.5,0.2,0.7,1.4,1.5,2c0.5,0.4,0.7,1.7,0.3,2.8
			C149.1,315.6,149,315.6,149,315.7z"/>
	</g>
	<path style="clip-path:url(#SVGID_00000064317062646750998090000007610770285484580244_);fill:#0A0A0A;" d="M142.8,216
		c-0.1-0.1-0.2-0.2,0-0.2C143.2,215.9,143.1,216.3,142.8,216z M143.6,216.6c-0.3,0-0.1,0.2,0,0.3c0.1,0.1,0.2,0.2,0.3,0.1
		C144,217,143.9,216.6,143.6,216.6z M141.8,222.8c-0.1-0.1-0.2-0.2-0.4-0.1c-0.2,0.1,0,0.6,0.4,0.5
		C142.2,223.3,141.9,222.9,141.8,222.8z M148.6,224.3c-1.1-0.3-1.6-1.1-2-1.3c-0.5-0.2-2.7-1.9-2.8-2c0,0,3.7,3.5,3.8,3.5
		c0.4,0.2,0.8,1.1,1.5,1C149.8,225.4,149.7,224.6,148.6,224.3z M174.1,236.5c0.8-0.1,0.1-0.7-0.2-0.9c-0.3-0.2-1.1-0.7-1.4-0.4
		C172.3,235.4,173.4,236.6,174.1,236.5z M156.5,234.2c-0.1-0.1-0.1-0.1-0.2-0.1C156.3,234.1,156.4,234.2,156.5,234.2z M156.8,225.9
		c0.4,0.2,0.7,1.1,1.4,1c0.7-0.1,0.6-0.9-0.4-1.3c-1-0.4-1.5-1.2-2-1.4c-0.4-0.1-2-1.5-2.5-2C154.2,223.2,156.4,225.6,156.8,225.9z
		 M167.2,232.3c0.7-0.1,0.6-0.9-0.5-1.2c-1.1-0.3-1.6-1-2.1-1.2c-0.5-0.1-2.8-1.8-2.9-1.9c0,0,3.9,3.3,4,3.4
		C166.1,231.6,166.5,232.4,167.2,232.3z M161.3,227.7c0.1,0,0-0.3-0.2-0.3c-0.2,0-0.1,0.2,0,0.2
		C161.1,227.6,161.2,227.7,161.3,227.7z M153.1,222.2c0,0,0.1,0.1,0.2,0.2C153.2,222.3,153.2,222.2,153.1,222.2z M161.3,237.1
		c-1.1-0.3-1.6-1-2.1-1.2c-0.4-0.1-2.1-1.3-2.7-1.7c1,0.8,3.4,3,3.8,3.2c0.4,0.2,0.8,1,1.5,0.9C162.4,238.2,162.3,237.4,161.3,237.1
		z M186.5,250.8c-2.1,2-0.4,3.8-3.2,3.3s-3.3,1.7-5.3,0c-2-1.7-3.5-2.7-3.1-3.6c0.4-1,0.9-0.7-0.5-1.8c-1.4-1.1-1.6-0.6-1.4-2.2
		c0.2-1.6-1.1-1.2,0.2-2.6c1.4-1.4,1-1.8,3.3-1.4c2.3,0.4,1-1,2.8-0.4c1.9-0.1,1.8-0.9,2.8-0.3c1,0.6,2.9,1.6,3.5,1.8
		C188.1,244.3,188.6,248.8,186.5,250.8z M175.1,245.9c-0.2-0.3-1.1,0.2-1,1c0.1,0.8,0.7,0.1,0.9-0.1
		C175.1,246.4,175.3,246.2,175.1,245.9z M176.6,243.5c0.1-0.4-1.5-0.6-2,0c-0.5,0.6,0.3,0.6,0.7,0.6
		C175.6,244,176.5,243.9,176.6,243.5z M179.4,243c-0.1-0.4-1.2-0.1-1.4,0.6c-0.2,0.7,0.4,0.5,0.6,0.3
		C178.9,243.8,179.5,243.4,179.4,243z M170.5,238.6c-0.8-0.7-1.6-1.5-2.1-1.9c-0.2-0.1-0.3-0.2-0.3-0.2c0-0.1,0-0.1,0-0.2
		c0-0.1,0.1-0.1,0.2,0c0.1,0,0.1,0.1,0.2,0.2c0.6,0.5,2.6,2,3,2.1c0.2,0.1,0.4,0.3,0.7,0.5c0.4,0.3,0.8,0.7,1.5,0.9
		c0.6-0.1,1.4-0.1,2.2,0.1c1.4,0.4,3.4-0.5,4-0.4c-3-1.7-7-1.5-8.1-3.4c-1.1-1.8-1-3.5-2.4-3.9c-1.4-0.4-1.3,2-4.6-0.4
		c-3.3-2.4-4.1-3.1-5.4-4c-1.2-0.9,0.2,1.8-2.4-0.4c-2.7-2.2-12.4-9.7-12.4-9.7s10.6,9.2,11.2,9.7c0,0-4.9-2.7-7.2-4.2
		c2.4,1.9,8.3,6.4,9,7.2c0.9,1,3.7,3.7,1.4,2.6c-2.3-1.1-8-5.4-8-5.4s7.4,6.1,8.6,6.7c1.2,0.6,6.6,5.1,7,5.7
		c0.4,0.6,0.8,2.4,1.8,2.9c1.1,0.5,1.9,3.1,1.9,3.1s-0.4-1.9-0.1-3.2c-0.6-0.5-1-1.2-1.4-1.5c-0.7-0.5-5-5.5-6.2-6.5c0,0,0,0,0,0
		c0-0.1,0-0.1,0-0.2c0.1,0,0.1,0,0.2,0c0.1,0.1,0.2,0.2,0.3,0.3c0.9,0.8,3.6,3.2,4.2,3.4c0.7,0.3,1.7,1.8,3.4,2.4
		c0.3,0.1,0.6,0.3,0.8,0.4c0.4-0.3,0.7-0.6,0.9-0.8C172.3,240.3,171.6,239.6,170.5,238.6z M166.4,240.9c-0.4,0-0.1,0.3,0,0.4
		c0.1,0.1,0.2,0.2,0.4,0.1C166.9,241.4,166.8,240.9,166.4,240.9z M164.9,239.3c-0.8-0.1-0.3,0.6-0.1,0.9c0.2,0.2,0.4,0.4,0.8,0.3
		C165.9,240.3,165.6,239.3,164.9,239.3z M148.8,223.3c-0.6-0.5-1-0.8-1-0.8C147.9,222.7,148.3,223,148.8,223.3z"/>
	<path style="clip-path:url(#SVGID_00000064317062646750998090000007610770285484580244_);fill:#0A0A0A;" d="M30.2,225.2
		c0,0-0.1-0.2,0-0.1C30.4,225.1,30.4,225.4,30.2,225.2z M30.7,225.6c-0.2,0-0.1,0.2,0,0.2c0.1,0.1,0.1,0.1,0.2,0.1
		C31,225.8,30.9,225.6,30.7,225.6z M29.5,229.7c-0.1-0.1-0.2-0.1-0.3-0.1c-0.1,0.1,0,0.4,0.3,0.4C29.8,229.9,29.6,229.7,29.5,229.7z
		 M34,230.6c-0.7-0.2-1-0.7-1.3-0.8c-0.3-0.1-1.8-1.3-1.8-1.3c0,0,2.4,2.3,2.5,2.3c0.3,0.2,0.5,0.7,1,0.6
		C34.8,231.4,34.7,230.8,34,230.6z M50.8,238.6c0.5-0.1,0.1-0.4-0.1-0.6c-0.2-0.1-0.7-0.4-0.9-0.3C49.6,237.9,50.3,238.7,50.8,238.6
		z M39.2,237.1c0,0-0.1-0.1-0.1-0.1C39.1,237.1,39.1,237.1,39.2,237.1z M39.4,231.6c0.3,0.2,0.5,0.7,0.9,0.7
		c0.4-0.1,0.4-0.6-0.3-0.8c-0.7-0.2-1-0.8-1.3-0.9c-0.2-0.1-1.3-1-1.7-1.3C37.7,229.9,39.1,231.5,39.4,231.6z M46.2,235.9
		c0.4-0.1,0.4-0.6-0.3-0.8c-0.7-0.2-1.1-0.7-1.4-0.8c-0.3-0.1-1.8-1.2-1.9-1.2c0,0,2.5,2.2,2.6,2.2
		C45.5,235.4,45.8,235.9,46.2,235.9z M42.3,232.8c0.1,0,0-0.2-0.1-0.2c-0.1,0,0,0.1,0,0.1C42.2,232.8,42.3,232.9,42.3,232.8z
		 M37,229.2c0,0,0,0,0.1,0.1C37,229.3,37,229.2,37,229.2z M42.3,239.1c-0.7-0.2-1.1-0.7-1.4-0.8c-0.2-0.1-1.4-0.9-1.8-1.1
		c0.6,0.5,2.2,2,2.5,2.1c0.3,0.1,0.5,0.7,1,0.6C43.1,239.8,43,239.2,42.3,239.1z M58.9,248.1c-1.4,1.3-0.3,2.5-2.1,2.2
		c-1.9-0.4-2.2,1.1-3.5,0c-1.3-1.1-2.3-1.7-2.1-2.4c0.2-0.6,0.6-0.5-0.3-1.2c-0.9-0.7-1.1-0.4-0.9-1.4c0.1-1.1-0.8-0.8,0.2-1.7
		c0.9-1,0.7-1.2,2.2-0.9c1.5,0.2,0.7-0.7,1.9-0.3c1.2-0.1,1.2-0.6,1.8-0.2c0.7,0.4,1.9,1.1,2.3,1.2C60,243.8,60.3,246.7,58.9,248.1z
		 M51.4,244.8c-0.1-0.2-0.7,0.1-0.6,0.6c0.1,0.5,0.4,0.1,0.6-0.1C51.4,245.1,51.5,245,51.4,244.8z M52.4,243.2c0.1-0.2-1-0.4-1.3,0
		c-0.3,0.4,0.2,0.4,0.4,0.4C51.8,243.6,52.4,243.5,52.4,243.2z M54.2,242.9c0-0.2-0.8-0.1-0.9,0.4c-0.1,0.5,0.3,0.3,0.4,0.2
		C53.9,243.4,54.3,243.2,54.2,242.9z M48.4,240c-0.5-0.5-1-1-1.4-1.3c-0.1-0.1-0.2-0.1-0.2-0.1c0,0,0-0.1,0-0.1c0,0,0.1,0,0.1,0
		c0,0,0.1,0.1,0.1,0.1c0.4,0.3,1.7,1.3,2,1.4c0.1,0,0.3,0.2,0.5,0.3c0.2,0.2,0.6,0.4,1,0.6c0.4-0.1,0.9-0.1,1.4,0.1
		c1,0.2,2.2-0.4,2.6-0.3c-2-1.1-4.6-1-5.3-2.2c-0.7-1.2-0.6-2.3-1.6-2.6c-0.9-0.3-0.8,1.3-3-0.3c-2.2-1.6-2.7-2-3.5-2.6
		c-0.8-0.6,0.2,1.2-1.6-0.3c-1.7-1.5-8.2-6.4-8.2-6.4s7,6,7.4,6.4c0,0-3.2-1.8-4.7-2.8c1.6,1.2,5.4,4.2,5.9,4.7
		c0.6,0.7,2.4,2.5,0.9,1.7c-1.5-0.7-5.3-3.5-5.3-3.5s4.9,4,5.7,4.4c0.8,0.4,4.3,3.4,4.6,3.8c0.3,0.4,0.5,1.6,1.2,1.9
		c0.7,0.3,1.2,2,1.2,2s-0.3-1.3-0.1-2.1c-0.4-0.3-0.6-0.8-0.9-1c-0.5-0.3-3.3-3.6-4.1-4.3c0,0,0,0,0,0c0,0,0-0.1,0-0.1
		c0,0,0.1,0,0.1,0c0.1,0.1,0.1,0.1,0.2,0.2c0.6,0.5,2.4,2.1,2.8,2.3c0.5,0.2,1.1,1.2,2.2,1.6c0.2,0.1,0.4,0.2,0.5,0.3
		c0.2-0.2,0.4-0.4,0.6-0.5C49.6,241.1,49.1,240.7,48.4,240z M45.7,241.5c-0.3,0-0.1,0.2,0,0.3c0.1,0.1,0.1,0.1,0.2,0.1
		C46,241.9,45.9,241.6,45.7,241.5z M44.7,240.5c-0.5,0-0.2,0.4,0,0.6c0.2,0.2,0.3,0.3,0.5,0.2C45.4,241.1,45.2,240.5,44.7,240.5z
		 M34.1,230c-0.4-0.3-0.7-0.5-0.7-0.5C33.5,229.6,33.8,229.8,34.1,230z"/>
	<g style="clip-path:url(#SVGID_00000064317062646750998090000007610770285484580244_);">
		<polygon class="st1" points="237.6,364.4 241.1,364.6 238.1,366.4 241.1,368.3 237.6,368.4 239.3,371.5 236.1,369.8 236,373.4 
			234.2,370.4 232.3,373.4 232.2,369.8 229.1,371.5 230.8,368.4 227.2,368.3 230.2,366.4 227.2,364.6 230.8,364.4 229.1,361.3 
			232.2,363 232.3,359.5 234.2,362.5 236,359.5 236.1,363 239.3,361.3 		"/>
		<polygon class="st1" points="258.5,357.2 257.3,358.3 257.8,359.9 256.2,359.4 255.1,360.6 254.8,359 253.1,358.7 254.4,357.5 
			253.9,356 255.4,356.5 256.6,355.2 256.9,356.9 		"/>
	</g>
	<polygon style="clip-path:url(#SVGID_00000064317062646750998090000007610770285484580244_);fill:#0A0A0A;" points="24.2,127.4 
		27.8,127.5 24.7,129.4 27.8,131.2 24.2,131.3 25.9,134.5 22.8,132.8 22.7,136.3 20.8,133.3 18.9,136.3 18.8,132.8 15.7,134.5 
		17.4,131.3 13.9,131.2 16.9,129.4 13.9,127.5 17.4,127.4 15.7,124.3 18.8,126 18.9,122.4 20.8,125.4 22.7,122.4 22.8,126 
		25.9,124.3 	"/>
	<polygon style="clip-path:url(#SVGID_00000064317062646750998090000007610770285484580244_);fill:#0A0A0A;" points="94.4,281.2 
		98,281.3 94.9,283.2 98,285 94.4,285.1 96.1,288.3 93,286.6 92.9,290.1 91,287.1 89.1,290.1 89,286.6 85.9,288.3 87.6,285.1 
		84,285 87.1,283.2 84,281.3 87.6,281.2 85.9,278.1 89,279.8 89.1,276.2 91,279.2 92.9,276.2 93,279.8 96.1,278.1 	"/>
	<polygon style="clip-path:url(#SVGID_00000064317062646750998090000007610770285484580244_);fill:#0A0A0A;" points="592.4,139.2 
		591.2,140.3 591.7,141.9 590.1,141.4 589,142.6 588.6,141 587,140.7 588.2,139.5 587.7,138 589.3,138.5 590.4,137.2 590.8,138.9 	
		"/>
	<polygon style="clip-path:url(#SVGID_00000064317062646750998090000007610770285484580244_);fill:#0A0A0A;" points="536.7,16.4 
		535.5,17.6 536,19.1 534.4,18.6 533.3,19.8 532.9,18.2 531.3,17.9 532.6,16.8 532.1,15.2 533.6,15.7 534.7,14.5 535.1,16.1 	"/>
	<polygon style="clip-path:url(#SVGID_00000064317062646750998090000007610770285484580244_);fill:#0A0A0A;" points="603.5,185.8 
		602.2,186.9 602.7,188.4 601.2,187.9 600,189.2 599.7,187.5 598.1,187.2 599.3,186.1 598.8,184.5 600.4,185 601.5,183.8 
		601.8,185.4 	"/>
	<polygon style="clip-path:url(#SVGID_00000064317062646750998090000007610770285484580244_);fill:#0A0A0A;" points="146.4,169 
		145.2,170.1 145.7,171.7 144.1,171.2 143,172.4 142.7,170.8 141.1,170.5 142.3,169.3 141.8,167.8 143.3,168.3 144.5,167 
		144.8,168.7 	"/>
	<polygon style="clip-path:url(#SVGID_00000064317062646750998090000007610770285484580244_);fill:#0A0A0A;" points="474.4,196.5 
		473.2,197.7 473.7,199.2 472.1,198.7 471,200 470.6,198.3 469,198 470.2,196.9 469.7,195.3 471.3,195.8 472.4,194.6 472.8,196.2 	
		"/>
	<polygon style="clip-path:url(#SVGID_00000064317062646750998090000007610770285484580244_);fill:#0A0A0A;" points="218.3,115.9 
		217.1,117 217.6,118.6 216,118.1 214.9,119.3 214.5,117.7 212.9,117.3 214.2,116.2 213.7,114.6 215.2,115.1 216.3,113.9 
		216.7,115.5 	"/>
	<polygon style="clip-path:url(#SVGID_00000064317062646750998090000007610770285484580244_);fill:#0A0A0A;" points="31.4,268.7 
		30.1,269.8 30.6,271.4 29.1,270.9 28,272.1 27.6,270.5 26,270.2 27.2,269.1 26.7,267.5 28.3,268 29.4,266.8 29.7,268.4 	"/>
	<polygon style="clip-path:url(#SVGID_00000064317062646750998090000007610770285484580244_);fill:#0A0A0A;" points="269.5,373.8 
		268.3,374.9 268.8,376.5 267.2,376 266.1,377.2 265.7,375.6 264.1,375.2 265.3,374.1 264.8,372.5 266.4,373 267.5,371.8 
		267.9,373.4 	"/>
	<polygon style="clip-path:url(#SVGID_00000064317062646750998090000007610770285484580244_);fill:#0A0A0A;" points="509.6,67.6 
		508.4,68.7 508.9,70.3 507.3,69.8 506.2,71 505.8,69.4 504.2,69 505.4,67.9 504.9,66.4 506.5,66.9 507.6,65.6 508,67.2 	"/>
	<g style="clip-path:url(#SVGID_00000064317062646750998090000007610770285484580244_);">
		<polygon class="st1" points="413.8,427.6 412.3,425.2 414.8,426.4 414.8,423.6 416.4,425.9 417.7,423.5 417.9,426.2 420.3,424.8 
			419.1,427.3 421.9,427.3 419.6,428.8 422,430.2 419.3,430.4 420.7,432.8 418.2,431.6 418.2,434.3 416.7,432.1 415.3,434.5 
			415.1,431.7 412.7,433.1 413.9,430.6 411.1,430.7 413.4,429.1 411,427.8 		"/>
		<polygon class="st1" points="400.1,416.8 401.4,417.1 402.2,416.1 402.6,417.4 403.8,417.6 402.9,418.5 403.4,419.7 402.1,419.4 
			401.3,420.4 401,419.1 399.7,418.9 400.6,418 		"/>
	</g>
	<polygon style="clip-path:url(#SVGID_00000064317062646750998090000007610770285484580244_);fill:#0A0A0A;" points="420.9,98.1 
		419.5,95.7 422,96.9 422,94.1 423.5,96.4 424.9,94 425.1,96.8 427.5,95.4 426.3,97.9 429.1,97.8 426.8,99.4 429.2,100.7 
		426.4,100.9 427.9,103.3 425.3,102.1 425.4,104.9 423.8,102.6 422.5,105 422.3,102.3 419.9,103.7 421.1,101.2 418.3,101.2 
		420.6,99.7 418.2,98.3 	"/>
	<polygon style="clip-path:url(#SVGID_00000064317062646750998090000007610770285484580244_);fill:#0A0A0A;" points="235.5,427.5 
		234,425.1 236.5,426.3 236.5,423.5 238.1,425.8 239.4,423.4 239.6,426.1 242,424.7 240.8,427.2 243.6,427.2 241.3,428.7 
		243.7,430.1 240.9,430.3 242.4,432.7 239.9,431.5 239.9,434.3 238.3,432 237,434.4 236.8,431.6 234.4,433 235.6,430.5 232.8,430.6 
		235.1,429 232.7,427.7 	"/>
	<polygon style="clip-path:url(#SVGID_00000064317062646750998090000007610770285484580244_);fill:#0A0A0A;" points="78.3,169.7 
		77.2,168 79.1,168.9 79.1,166.8 80.3,168.5 81.3,166.7 81.4,168.8 83.2,167.7 82.3,169.6 84.4,169.5 82.7,170.7 84.5,171.7 
		82.4,171.9 83.5,173.7 81.6,172.8 81.7,174.8 80.5,173.1 79.5,174.9 79.3,172.9 77.5,173.9 78.4,172.1 76.3,172.1 78.1,170.9 
		76.2,169.9 	"/>
	<polygon style="clip-path:url(#SVGID_00000064317062646750998090000007610770285484580244_);fill:#0A0A0A;" points="145,17.8 
		146.3,18.2 147.1,17.2 147.5,18.4 148.7,18.6 147.8,19.5 148.3,20.8 147,20.4 146.2,21.4 145.9,20.2 144.6,19.9 145.5,19 	"/>
	<polygon style="clip-path:url(#SVGID_00000064317062646750998090000007610770285484580244_);fill:#0A0A0A;" points="112.3,83.9 
		113.5,84.3 114.3,83.3 114.7,84.5 116,84.8 115,85.7 115.5,86.9 114.2,86.6 113.4,87.5 113.1,86.3 111.8,86.1 112.7,85.2 	"/>
	<polygon style="clip-path:url(#SVGID_00000064317062646750998090000007610770285484580244_);fill:#0A0A0A;" points="116.5,80.2 
		117.8,80.5 118.6,79.5 118.9,80.8 120.2,81 119.3,81.9 119.7,83.1 118.5,82.8 117.7,83.8 117.3,82.5 116,82.3 117,81.4 	"/>
	<polygon style="clip-path:url(#SVGID_00000064317062646750998090000007610770285484580244_);fill:#0A0A0A;" points="132.6,39.7 
		133.9,40 134.7,39 135,40.3 136.3,40.5 135.4,41.4 135.8,42.6 134.6,42.3 133.8,43.3 133.4,42 132.1,41.8 133.1,40.9 	"/>
	<path style="clip-path:url(#SVGID_00000064317062646750998090000007610770285484580244_);fill:#0A0A0A;" d="M148.4,123.7
		c-0.6,0.5-1.5,0.4-1.9-0.2c-0.5-0.6-0.4-1.5,0.2-1.9c0.6-0.5,1.5-0.4,1.9,0.2C149.1,122.4,149,123.3,148.4,123.7z M138.8,123.3
		c-0.3-0.3-0.7-0.4-1.1-0.1c-0.3,0.3-0.4,0.7-0.1,1.1c0.3,0.3,0.7,0.4,1.1,0.1C139,124.1,139.1,123.6,138.8,123.3z M154,126.5
		c0.1,0.7,0.8,1.1,1.5,1c0.7-0.1,1.1-0.8,1-1.5c-0.1-0.7-0.8-1.1-1.5-1C154.3,125.1,153.8,125.8,154,126.5z M162.4,129.3
		c0.1,0.4,0.4,0.6,0.8,0.5c0.4-0.1,0.6-0.4,0.5-0.8c-0.1-0.4-0.4-0.6-0.8-0.5C162.6,128.6,162.3,128.9,162.4,129.3z M175.8,123.5
		c-0.2-0.6-0.9-0.9-1.5-0.6c-0.6,0.2-0.9,0.9-0.6,1.5c0.2,0.6,0.9,0.9,1.5,0.6C175.8,124.8,176.1,124.1,175.8,123.5z M167.6,122.4
		c-0.1-0.3-0.5-0.5-0.8-0.3c-0.3,0.1-0.5,0.5-0.3,0.8c0.1,0.3,0.5,0.5,0.8,0.3C167.6,123.1,167.7,122.8,167.6,122.4z M186.7,130.5
		c-0.2-0.6-0.9-0.9-1.5-0.7c-0.6,0.2-0.9,0.9-0.7,1.5c0.2,0.6,0.9,0.9,1.5,0.7C186.6,131.8,186.9,131.2,186.7,130.5z M178.3,129.2
		c-0.1-0.3-0.5-0.5-0.8-0.4c-0.3,0.1-0.5,0.5-0.4,0.8s0.5,0.5,0.8,0.4C178.3,129.9,178.5,129.5,178.3,129.2z M186.3,134.3
		c-0.4,0.6-0.2,1.4,0.3,1.7c0.6,0.4,1.4,0.2,1.7-0.3c0.4-0.6,0.2-1.4-0.3-1.7C187.5,133.5,186.7,133.7,186.3,134.3z M190.2,142.3
		c-0.2,0.3-0.1,0.7,0.2,1c0.3,0.2,0.7,0.1,1-0.2c0.2-0.3,0.1-0.7-0.2-1C190.9,141.9,190.4,142,190.2,142.3z M195.5,149.4
		c0.5,0.3,1.2,0.2,1.5-0.4c0.3-0.5,0.2-1.2-0.4-1.5c-0.5-0.3-1.2-0.2-1.5,0.4C194.8,148.3,195,149,195.5,149.4z M202.5,145.5
		c0.3,0.2,0.7,0.1,0.9-0.2c0.2-0.3,0.1-0.7-0.2-0.9c-0.3-0.2-0.7-0.1-0.9,0.2C202.2,145,202.2,145.4,202.5,145.5z M201.4,156.5
		c-0.7,0.2-1,0.8-0.9,1.5c0.2,0.7,0.8,1,1.5,0.9c0.7-0.2,1-0.8,0.9-1.5C202.7,156.7,202,156.3,201.4,156.5z M199.1,164.9
		c-0.4,0.1-0.6,0.5-0.5,0.8c0.1,0.4,0.5,0.6,0.8,0.5c0.4-0.1,0.6-0.5,0.5-0.8C199.8,165,199.4,164.8,199.1,164.9z M193.2,169
		c-0.5,0.4-0.6,1.2-0.2,1.7c0.4,0.5,1.2,0.6,1.7,0.2c0.5-0.4,0.6-1.2,0.2-1.7C194.4,168.6,193.7,168.6,193.2,169z M194.6,177.4
		c-0.3,0.2-0.3,0.7-0.1,0.9c0.2,0.3,0.7,0.3,0.9,0.1c0.3-0.2,0.3-0.7,0.1-0.9S194.9,177.2,194.6,177.4z M193.9,184.8
		c-0.6-0.2-1.3,0.1-1.6,0.8c-0.2,0.6,0.1,1.3,0.8,1.6c0.6,0.2,1.3-0.1,1.6-0.8C194.9,185.7,194.6,185,193.9,184.8z M187.2,190.5
		c-0.4-0.1-0.7,0.1-0.9,0.4c-0.1,0.4,0.1,0.7,0.4,0.9c0.4,0.1,0.7-0.1,0.9-0.4C187.8,191,187.6,190.6,187.2,190.5z M171.9,188.1
		c0.1,0.7,0.8,1.2,1.5,1.1c0.7-0.1,1.2-0.8,1.1-1.5c-0.1-0.7-0.8-1.2-1.5-1.1C172.3,186.7,171.8,187.4,171.9,188.1z M180.7,191.5
		c0.1,0.4,0.4,0.7,0.8,0.6c0.4-0.1,0.7-0.4,0.6-0.8c-0.1-0.4-0.4-0.7-0.8-0.6C180.9,190.7,180.7,191.1,180.7,191.5z M168.6,192.9
		c-0.7,0.1-1.2,0.8-1,1.4c0.1,0.7,0.8,1.2,1.4,1c0.7-0.1,1.2-0.8,1-1.4C169.9,193.3,169.3,192.8,168.6,192.9z M165.4,201.3
		c-0.4,0.1-0.6,0.4-0.6,0.8c0.1,0.4,0.4,0.6,0.8,0.6c0.4-0.1,0.6-0.4,0.6-0.8C166.1,201.5,165.8,201.2,165.4,201.3z M150.8,203.1
		c0.7,0.3,1.4-0.1,1.7-0.7c0.3-0.7-0.1-1.4-0.7-1.7c-0.7-0.3-1.4,0.1-1.7,0.7C149.8,202.1,150.1,202.9,150.8,203.1z M158,197.4
		c0.4,0.1,0.8,0,0.9-0.4c0.1-0.4,0-0.8-0.4-0.9c-0.4-0.1-0.8,0-0.9,0.4C157.5,196.8,157.7,197.2,158,197.4z M137.1,194.4
		c0.1,0.7,0.7,1.2,1.4,1.2c0.7-0.1,1.2-0.7,1.2-1.4c-0.1-0.7-0.7-1.2-1.4-1.2S137,193.7,137.1,194.4z M145.4,198.3
		c0,0.4,0.4,0.7,0.8,0.6c0.4,0,0.7-0.4,0.6-0.8c0-0.4-0.4-0.7-0.8-0.6C145.6,197.6,145.3,197.9,145.4,198.3z M126.5,187.6
		c-0.1,0.8,0.4,1.5,1.1,1.6c0.8,0.1,1.5-0.4,1.6-1.1c0.1-0.8-0.4-1.5-1.1-1.6C127.3,186.4,126.6,186.9,126.5,187.6z M134.2,193.8
		c-0.1,0.4,0.2,0.8,0.6,0.9c0.4,0.1,0.8-0.2,0.9-0.6s-0.2-0.8-0.6-0.9C134.6,193.1,134.2,193.4,134.2,193.8z M116.4,183.6
		c-0.2,0.7,0.3,1.4,1,1.6c0.7,0.2,1.4-0.3,1.6-1c0.2-0.7-0.3-1.4-1-1.6C117.3,182.5,116.6,182.9,116.4,183.6z M123.2,190.2
		c-0.1,0.4,0.1,0.8,0.5,0.9c0.4,0.1,0.8-0.1,0.9-0.5c0.1-0.4-0.1-0.8-0.5-0.9C123.7,189.5,123.3,189.8,123.2,190.2z M115.2,174.4
		c-0.6-0.4-1.4-0.2-1.8,0.4c-0.4,0.6-0.2,1.4,0.4,1.8c0.6,0.4,1.4,0.2,1.8-0.4S115.8,174.8,115.2,174.4z M106.7,178.9
		c-0.3-0.2-0.8-0.1-1,0.2c-0.2,0.3-0.1,0.8,0.2,1c0.3,0.2,0.8,0.1,1-0.2C107.2,179.5,107.1,179.1,106.7,178.9z M109.2,159.6
		c-0.7,0-1.3,0.6-1.3,1.3c0,0.7,0.6,1.3,1.3,1.3c0.7,0,1.3-0.6,1.3-1.3C110.5,160.2,109.9,159.6,109.2,159.6z M104.8,167.8
		c-0.4,0-0.7,0.3-0.7,0.7c0,0.4,0.3,0.7,0.7,0.7c0.4,0,0.7-0.3,0.7-0.7C105.5,168.1,105.2,167.8,104.8,167.8z M108.1,154.9
		c0.5,0.3,1.3,0.1,1.6-0.4c0.3-0.6,0.1-1.3-0.4-1.6c-0.5-0.3-1.3-0.1-1.6,0.4C107.3,153.8,107.5,154.5,108.1,154.9z M115.3,150.8
		c0.3,0.2,0.7,0.1,0.9-0.2c0.2-0.3,0.1-0.7-0.2-0.9c-0.3-0.2-0.7-0.1-0.9,0.2C114.9,150.2,115,150.6,115.3,150.8z M108.9,143.8
		c0.7,0.4,1.5,0.2,1.9-0.5c0.4-0.7,0.2-1.5-0.5-1.9c-0.7-0.4-1.5-0.2-1.9,0.5C108,142.6,108.2,143.5,108.9,143.8z M117.4,138.9
		c0.4,0.2,0.8,0.1,1-0.3c0.2-0.4,0.1-0.8-0.3-1c-0.4-0.2-0.8-0.1-1,0.3S117.1,138.7,117.4,138.9z M115.8,126
		c-0.6-0.2-1.3,0.1-1.5,0.8c-0.2,0.6,0.1,1.3,0.8,1.5c0.6,0.2,1.3-0.1,1.5-0.8C116.8,126.9,116.4,126.3,115.8,126z M109.4,131.8
		c-0.3-0.1-0.7,0.1-0.8,0.4c-0.1,0.3,0.1,0.7,0.4,0.8c0.3,0.1,0.7-0.1,0.8-0.4C109.9,132.3,109.7,131.9,109.4,131.8z M97.4,130.2
		c0.6,0.2,1.3-0.1,1.5-0.7c0.2-0.6-0.1-1.3-0.7-1.5c-0.6-0.2-1.3,0.1-1.5,0.7C96.5,129.3,96.8,130,97.4,130.2z M104,124.9
		c0.3,0.1,0.7,0,0.9-0.4s0-0.7-0.4-0.9c-0.3-0.1-0.7,0-0.9,0.4C103.5,124.4,103.7,124.8,104,124.9z M90.6,121.4
		c0.1,0.7,0.8,1.2,1.6,1.1c0.7-0.1,1.2-0.8,1.1-1.6c-0.1-0.7-0.8-1.2-1.6-1.1C90.9,120,90.4,120.7,90.6,121.4z M99.6,124.5
		c0.1,0.4,0.5,0.7,0.9,0.6c0.4-0.1,0.7-0.5,0.6-0.9c-0.1-0.4-0.5-0.7-0.9-0.6C99.8,123.8,99.5,124.1,99.6,124.5z M81.9,111.5
		c0.2,0.7,1,1,1.7,0.8s1-1,0.8-1.7s-1-1-1.7-0.8C82,110.1,81.6,110.8,81.9,111.5z M91,113.3c0.1,0.4,0.5,0.6,0.9,0.4
		c0.4-0.1,0.6-0.5,0.4-0.9c-0.1-0.4-0.5-0.6-0.9-0.4C91.1,112.5,90.9,112.9,91,113.3z M65.3,161.3c-0.4-0.6-1.3-0.8-1.9-0.3
		c-0.6,0.4-0.8,1.3-0.3,1.9c0.4,0.6,1.3,0.8,1.9,0.3C65.6,162.8,65.7,161.9,65.3,161.3z M55.5,162.3c-0.2-0.3-0.7-0.4-1.1-0.2
		c-0.3,0.2-0.4,0.7-0.2,1.1c0.2,0.3,0.7,0.4,1.1,0.2C55.7,163.1,55.8,162.7,55.5,162.3z M44.5,169.4c0.1,0.7,0.8,1.2,1.6,1.1
		c0.7-0.1,1.2-0.8,1.1-1.6c-0.1-0.7-0.8-1.2-1.6-1.1C44.9,167.9,44.4,168.6,44.5,169.4z M53.6,172.8c0.1,0.4,0.5,0.7,0.9,0.6
		c0.4-0.1,0.7-0.5,0.6-0.9c-0.1-0.4-0.5-0.7-0.9-0.6C53.8,172,53.5,172.4,53.6,172.8z M44.9,161c-0.4-0.7-1.2-0.9-1.9-0.5
		c-0.7,0.4-0.9,1.2-0.5,1.9c0.4,0.7,1.2,0.9,1.9,0.5C45,162.5,45.3,161.7,44.9,161z M35.1,160.8c-0.2-0.4-0.7-0.5-1-0.3
		c-0.4,0.2-0.5,0.7-0.3,1c0.2,0.4,0.7,0.5,1,0.3C35.1,161.7,35.3,161.2,35.1,160.8z M37.1,167.8c-0.7-0.4-1.5-0.1-1.9,0.5
		c-0.4,0.7-0.1,1.5,0.5,1.9c0.7,0.4,1.5,0.1,1.9-0.5C38,169,37.8,168.2,37.1,167.8z M28.7,172.9c-0.4-0.2-0.8-0.1-1,0.3
		c-0.2,0.4-0.1,0.8,0.3,1c0.4,0.2,0.8,0.1,1-0.3C29.2,173.6,29.1,173.1,28.7,172.9z M17.6,175.8c0.3,0.6,1.1,0.7,1.7,0.4
		c0.6-0.3,0.7-1.1,0.4-1.7c-0.3-0.6-1.1-0.7-1.7-0.4C17.5,174.5,17.3,175.3,17.6,175.8z M26.3,175.6c0.2,0.3,0.6,0.4,0.9,0.2
		c0.3-0.2,0.4-0.6,0.2-0.9c-0.2-0.3-0.6-0.4-0.9-0.2S26.1,175.3,26.3,175.6z M22.7,180.7c-0.6,0.4-0.7,1.1-0.4,1.7
		c0.4,0.6,1.1,0.7,1.7,0.4c0.6-0.4,0.7-1.1,0.4-1.7C24,180.5,23.3,180.3,22.7,180.7z M23.2,189.5c-0.3,0.2-0.4,0.6-0.2,0.9
		c0.2,0.3,0.6,0.4,0.9,0.2c0.3-0.2,0.4-0.6,0.2-0.9C23.9,189.4,23.5,189.3,23.2,189.5z M17.3,196.2c0.3,0.7,1.1,1.1,1.8,0.8
		c0.7-0.3,1.1-1.1,0.8-1.8c-0.3-0.7-1.1-1.1-1.8-0.8C17.3,194.7,17,195.5,17.3,196.2z M27,197.6c0.2,0.4,0.6,0.6,1,0.4
		c0.4-0.2,0.6-0.6,0.4-1c-0.2-0.4-0.6-0.6-1-0.4C27.1,196.8,26.9,197.2,27,197.6z M20.4,205.9c0.1,0.7,0.7,1.1,1.3,1
		c0.7-0.1,1.1-0.7,1-1.3s-0.7-1.1-1.3-1S20.4,205.2,20.4,205.9z M28.3,209.2c0,0.4,0.4,0.6,0.7,0.6c0.4,0,0.6-0.4,0.6-0.7
		c0-0.4-0.4-0.6-0.7-0.6C28.5,208.5,28.2,208.9,28.3,209.2z M117.2,316.3c-0.7,0.4-0.9,1.2-0.6,1.8s1.2,0.9,1.8,0.6
		c0.7-0.4,0.9-1.2,0.6-1.8C118.7,316.2,117.8,315.9,117.2,316.3z M116.9,326c-0.4,0.2-0.5,0.7-0.3,1c0.2,0.4,0.7,0.5,1,0.3
		c0.4-0.2,0.5-0.7,0.3-1C117.7,326,117.2,325.8,116.9,326z M113.3,310.7c-0.6,0.1-1,0.7-1,1.3c0.1,0.6,0.7,1,1.3,1
		c0.6-0.1,1-0.7,1-1.3C114.5,311.1,113.9,310.7,113.3,310.7z M110.4,318.3c-0.3,0.1-0.6,0.4-0.5,0.7c0.1,0.3,0.4,0.6,0.7,0.5
		c0.3-0.1,0.6-0.4,0.5-0.7C111,318.5,110.7,318.2,110.4,318.3z M105.1,305.1c-0.3,0.7-0.1,1.5,0.6,1.8c0.7,0.3,1.5,0.1,1.8-0.6
		c0.3-0.7,0.1-1.5-0.6-1.8C106.3,304.2,105.4,304.5,105.1,305.1z M110.4,313.4c-0.2,0.4,0,0.8,0.3,1c0.4,0.2,0.8,0,1-0.3
		c0.2-0.4,0-0.8-0.3-1C111.1,312.8,110.6,313,110.4,313.4z M92.1,313c0.6,0.4,1.5,0.3,1.9-0.3c0.4-0.6,0.3-1.5-0.3-1.9
		c-0.6-0.4-1.5-0.3-1.9,0.3C91.3,311.8,91.5,312.6,92.1,313z M100.8,308.9c0.3,0.2,0.8,0.1,1-0.2c0.2-0.3,0.1-0.8-0.2-1
		c-0.3-0.2-0.8-0.1-1,0.2C100.4,308.2,100.5,308.6,100.8,308.9z M88.7,303.7c-0.6-0.2-1.2,0.1-1.4,0.7c-0.2,0.6,0.1,1.2,0.7,1.4
		c0.6,0.2,1.2-0.1,1.4-0.7C89.6,304.6,89.2,303.9,88.7,303.7z M82.7,309.1c-0.3-0.1-0.7,0.1-0.8,0.4c-0.1,0.3,0.1,0.7,0.4,0.8
		c0.3,0.1,0.7-0.1,0.8-0.4C83.2,309.6,83,309.2,82.7,309.1z M78.5,303c-0.6-0.4-1.4-0.1-1.8,0.5c-0.4,0.6-0.1,1.4,0.5,1.8
		c0.6,0.4,1.4,0.1,1.8-0.5C79.3,304.1,79.1,303.3,78.5,303z M70.3,307.7c-0.4-0.2-0.8-0.1-1,0.3c-0.2,0.4-0.1,0.8,0.3,1
		c0.4,0.2,0.8,0.1,1-0.3C70.8,308.4,70.7,307.9,70.3,307.7z M60.3,298.3c-0.6,0.3-0.8,1.1-0.5,1.7c0.3,0.6,1.1,0.8,1.7,0.5
		s0.8-1.1,0.5-1.7C61.6,298.2,60.9,298,60.3,298.3z M59.9,307c-0.3,0.2-0.5,0.6-0.3,0.9c0.2,0.3,0.6,0.5,0.9,0.3
		c0.3-0.2,0.5-0.6,0.3-0.9C60.7,307,60.3,306.9,59.9,307z M48.1,294.2c0.5,0.3,1.2,0.2,1.6-0.4c0.3-0.5,0.2-1.2-0.4-1.6
		c-0.5-0.3-1.2-0.2-1.6,0.4C47.4,293.2,47.6,293.9,48.1,294.2z M55.3,290.4c0.3,0.2,0.7,0.1,0.9-0.2c0.2-0.3,0.1-0.7-0.2-0.9
		c-0.3-0.2-0.7-0.1-0.9,0.2C54.9,289.8,55,290.2,55.3,290.4z M46.9,275.8c0.1,0.6,0.8,1,1.4,0.9s1-0.8,0.9-1.4
		c-0.1-0.6-0.8-1-1.4-0.9C47.2,274.6,46.8,275.2,46.9,275.8z M54.8,278.2c0.1,0.3,0.4,0.6,0.8,0.5c0.3-0.1,0.6-0.4,0.5-0.8
		c-0.1-0.3-0.4-0.6-0.8-0.5C55,277.5,54.7,277.9,54.8,278.2z M58.4,264.7c0.1,0.7,0.8,1.3,1.6,1.1c0.7-0.1,1.3-0.8,1.1-1.6
		c-0.1-0.7-0.8-1.3-1.6-1.1C58.7,263.2,58.2,263.9,58.4,264.7z M67.6,268.1c0.1,0.4,0.5,0.7,0.9,0.6c0.4-0.1,0.7-0.5,0.6-0.9
		c-0.1-0.4-0.5-0.7-0.9-0.6C67.8,267.3,67.5,267.7,67.6,268.1z M194.4,428c-0.4,0.6-0.2,1.4,0.4,1.9c0.6,0.4,1.4,0.2,1.9-0.4
		c0.4-0.6,0.2-1.4-0.4-1.9C195.6,427.3,194.8,427.4,194.4,428z M198.6,436.6c-0.2,0.3-0.1,0.8,0.2,1c0.3,0.2,0.8,0.1,1-0.2
		c0.2-0.3,0.1-0.8-0.2-1C199.3,436.1,198.9,436.2,198.6,436.6z M183.4,431.8c0.4,0.6,1.2,0.7,1.8,0.2c0.6-0.4,0.7-1.2,0.2-1.8
		c-0.4-0.6-1.2-0.7-1.8-0.2C183.1,430.4,183,431.2,183.4,431.8z M192.5,430.6c0.2,0.3,0.7,0.4,1,0.1c0.3-0.2,0.4-0.7,0.1-1
		c-0.2-0.3-0.7-0.4-1-0.1C192.3,429.9,192.2,430.3,192.5,430.6z M174.2,423.1c0.3,0.6,1.1,0.8,1.7,0.5c0.6-0.3,0.8-1.1,0.5-1.7
		c-0.3-0.6-1.1-0.8-1.7-0.5C174,421.7,173.8,422.5,174.2,423.1z M183.2,423.2c0.2,0.3,0.6,0.5,1,0.3c0.3-0.2,0.5-0.6,0.3-1
		c-0.2-0.3-0.6-0.5-1-0.3C183.2,422.4,183.1,422.8,183.2,423.2z M164.4,422c0,0.7,0.6,1.4,1.3,1.4c0.7,0,1.4-0.6,1.4-1.3
		c0-0.7-0.6-1.4-1.3-1.4C165.1,420.7,164.5,421.3,164.4,422z M172.6,427.1c0,0.4,0.3,0.8,0.7,0.8c0.4,0,0.8-0.3,0.8-0.7
		c0-0.4-0.3-0.8-0.7-0.8C173,426.4,172.7,426.7,172.6,427.1z M165.9,426.4c-0.6-0.4-1.5-0.3-1.9,0.3c-0.4,0.6-0.3,1.5,0.3,1.9
		c0.6,0.4,1.5,0.3,1.9-0.3C166.6,427.7,166.5,426.8,165.9,426.4z M157,430.4c-0.3-0.2-0.8-0.2-1.1,0.2c-0.2,0.3-0.2,0.8,0.2,1.1
		c0.3,0.2,0.8,0.2,1.1-0.2C157.5,431.1,157.4,430.6,157,430.4z M380.4,428.4c-0.2-0.6-0.8-0.9-1.4-0.8c-0.6,0.2-0.9,0.8-0.8,1.4
		c0.2,0.6,0.8,0.9,1.4,0.8C380.2,429.6,380.6,429,380.4,428.4z M372.7,426.5c-0.1-0.3-0.4-0.5-0.8-0.4c-0.3,0.1-0.5,0.4-0.4,0.8
		c0.1,0.3,0.4,0.5,0.8,0.4C372.6,427.1,372.7,426.8,372.7,426.5z M362.1,432.2c-0.3,0.6,0,1.4,0.6,1.6c0.6,0.3,1.4,0,1.6-0.6
		c0.3-0.6,0-1.4-0.6-1.6C363.1,431.3,362.4,431.6,362.1,432.2z M367.4,439.3c-0.1,0.3,0,0.7,0.4,0.9c0.3,0.1,0.7,0,0.9-0.4
		c0.1-0.3,0-0.7-0.4-0.9C367.9,438.8,367.5,439,367.4,439.3z M353.9,424.7c-0.7,0.3-1.1,1-0.8,1.7c0.3,0.7,1,1.1,1.7,0.8
		c0.7-0.3,1.1-1,0.8-1.7C355.4,424.8,354.6,424.4,353.9,424.7z M352.3,434.2c-0.4,0.1-0.6,0.6-0.4,1s0.6,0.6,1,0.4
		c0.4-0.1,0.6-0.6,0.4-1C353.1,434.3,352.7,434.1,352.3,434.2z M342.1,430.3c-0.7,0-1.3,0.6-1.4,1.3c0,0.7,0.6,1.3,1.3,1.4
		c0.7,0,1.3-0.6,1.4-1.3C343.4,431,342.9,430.4,342.1,430.3z M337.2,438.4c-0.4,0-0.7,0.3-0.8,0.7c0,0.4,0.3,0.7,0.7,0.8
		c0.4,0,0.7-0.3,0.8-0.7C337.9,438.8,337.6,438.4,337.2,438.4z M336,419.6c-0.7-0.3-1.5,0-1.8,0.7c-0.3,0.7,0,1.5,0.7,1.8
		c0.7,0.3,1.5,0,1.8-0.7C337.1,420.7,336.7,419.9,336,419.6z M328.4,425.5c-0.4-0.2-0.8,0-1,0.4c-0.2,0.4,0,0.8,0.4,1
		c0.4,0.2,0.8,0,1-0.4C329,426,328.8,425.6,328.4,425.5z M318.8,412.7c-0.4,0.7-0.1,1.5,0.6,1.9c0.7,0.4,1.5,0.1,1.9-0.6
		c0.4-0.7,0.1-1.5-0.6-1.9C320,411.7,319.1,412,318.8,412.7z M324,421.1c-0.2,0.4-0.1,0.8,0.3,1c0.4,0.2,0.8,0.1,1-0.3
		c0.2-0.4,0.1-0.8-0.3-1C324.7,420.6,324.2,420.7,324,421.1z M318.4,406c0.4,0.4,1.1,0.4,1.6,0c0.4-0.4,0.4-1.1,0-1.6
		c-0.4-0.4-1.1-0.4-1.6,0C318,404.8,318,405.5,318.4,406z M326.1,404c0.2,0.2,0.6,0.2,0.9,0c0.2-0.2,0.2-0.6,0-0.9
		c-0.2-0.2-0.6-0.2-0.9,0C325.9,403.3,325.9,403.7,326.1,404z M321.2,391.9c0.4,0.6,1.2,0.7,1.8,0.3c0.6-0.4,0.7-1.2,0.3-1.8
		c-0.4-0.6-1.2-0.7-1.8-0.3C320.9,390.5,320.8,391.3,321.2,391.9z M330.1,391.1c0.2,0.3,0.7,0.4,1,0.2c0.3-0.2,0.4-0.7,0.2-1
		c-0.2-0.3-0.7-0.4-1-0.2C330,390.4,329.9,390.8,330.1,391.1z M427.9,319.4c-0.7,0.3-1.1,1-0.8,1.7c0.3,0.7,1,1.1,1.7,0.8
		c0.7-0.3,1.1-1,0.8-1.7C429.4,319.5,428.6,319.1,427.9,319.4z M426.2,329c-0.4,0.1-0.6,0.6-0.5,1c0.1,0.4,0.6,0.6,1,0.5
		c0.4-0.1,0.6-0.6,0.5-1C427,329,426.6,328.8,426.2,329z M415.4,329.2c-0.5,0.4-0.6,1.1-0.2,1.6c0.4,0.5,1.1,0.6,1.6,0.2
		c0.5-0.4,0.6-1.1,0.2-1.6C416.6,328.9,415.9,328.8,415.4,329.2z M416.5,337.1c-0.3,0.2-0.3,0.6-0.1,0.9c0.2,0.3,0.6,0.3,0.9,0.1
		c0.3-0.2,0.3-0.6,0.1-0.9C417.2,337,416.8,336.9,416.5,337.1z M412.9,337.7c-0.2-0.7-0.9-1.1-1.6-0.9c-0.7,0.2-1.1,0.9-0.9,1.6
		c0.2,0.7,0.9,1.1,1.6,0.9C412.7,339.1,413.1,338.4,412.9,337.7z M404,335.2c-0.1-0.4-0.5-0.6-0.9-0.5c-0.4,0.1-0.6,0.5-0.5,0.9
		c0.1,0.4,0.5,0.6,0.9,0.5C403.8,336,404.1,335.6,404,335.2z M399.3,346.1c0.4,0.5,1.1,0.6,1.6,0.2c0.5-0.4,0.6-1.1,0.2-1.6
		s-1.1-0.6-1.6-0.2C399,344.9,398.9,345.6,399.3,346.1z M407.2,344.9c0.2,0.3,0.6,0.3,0.9,0.1c0.3-0.2,0.3-0.6,0.1-0.9
		c-0.2-0.3-0.6-0.3-0.9-0.1C407.1,344.3,407,344.7,407.2,344.9z M390.5,343.8c-0.7,0.4-0.9,1.2-0.5,1.9c0.4,0.7,1.2,0.9,1.9,0.5
		c0.7-0.4,0.9-1.2,0.5-1.9C392,343.7,391.2,343.4,390.5,343.8z M390.5,353.7c-0.4,0.2-0.5,0.7-0.3,1c0.2,0.4,0.7,0.5,1,0.3
		c0.4-0.2,0.5-0.7,0.3-1C391.3,353.6,390.8,353.5,390.5,353.7z M470.8,106.7c-0.5-0.5-1.3-0.5-1.9,0c-0.5,0.5-0.5,1.3,0,1.9
		c0.5,0.5,1.3,0.5,1.9,0C471.3,108,471.3,107.2,470.8,106.7z M461.7,108.9c-0.3-0.3-0.7-0.3-1,0c-0.3,0.3-0.3,0.7,0,1
		c0.3,0.3,0.7,0.3,1,0C461.9,109.7,461.9,109.2,461.7,108.9z M474.3,102c-0.3-0.6-1.1-0.8-1.6-0.4c-0.6,0.3-0.8,1.1-0.4,1.6
		c0.3,0.6,1.1,0.8,1.6,0.4C474.5,103.3,474.7,102.6,474.3,102z M465.8,102c-0.2-0.3-0.6-0.4-0.9-0.2c-0.3,0.2-0.4,0.6-0.2,0.9
		c0.2,0.3,0.6,0.4,0.9,0.2C465.9,102.8,466,102.4,465.8,102z M481,93.8c-0.7-0.2-1.4,0.3-1.5,1c-0.2,0.7,0.3,1.4,1,1.5
		c0.7,0.2,1.4-0.3,1.5-1C482.1,94.7,481.7,94,481,93.8z M474.7,100.5c-0.4-0.1-0.8,0.1-0.9,0.5c-0.1,0.4,0.1,0.8,0.5,0.9
		c0.4,0.1,0.8-0.1,0.9-0.5C475.3,101,475.1,100.6,474.7,100.5z M475.9,82.5c-0.6,0.2-1,0.9-0.7,1.6c0.2,0.6,0.9,1,1.6,0.7
		c0.6-0.2,1-0.9,0.7-1.6C477.2,82.6,476.5,82.3,475.9,82.5z M474.4,91.1c-0.4,0.1-0.5,0.5-0.4,0.9c0.1,0.4,0.5,0.5,0.9,0.4
		c0.4-0.1,0.5-0.5,0.4-0.9C475.1,91.2,474.7,91,474.4,91.1z M472.1,78.2c0.4,0.4,1.1,0.4,1.6,0c0.4-0.4,0.4-1.1,0-1.6
		c-0.4-0.4-1.1-0.4-1.6,0C471.7,77.1,471.7,77.8,472.1,78.2z M479.7,76c0.2,0.2,0.6,0.2,0.9,0c0.2-0.2,0.2-0.6,0-0.9
		c-0.2-0.2-0.6-0.2-0.9,0C479.4,75.4,479.4,75.7,479.7,76z M477.6,59.9c-0.6,0.3-0.9,1-0.6,1.6c0.3,0.6,1,0.9,1.6,0.6
		c0.6-0.3,0.9-1,0.6-1.6C479,59.8,478.2,59.6,477.6,59.9z M476.9,68.4c-0.3,0.2-0.5,0.6-0.3,0.9c0.2,0.3,0.6,0.5,0.9,0.3
		c0.3-0.2,0.5-0.6,0.3-0.9C477.7,68.4,477.3,68.3,476.9,68.4z M487,50c-0.7-0.1-1.3,0.3-1.4,1c-0.1,0.7,0.3,1.3,1,1.4
		c0.7,0.1,1.3-0.3,1.4-1C488.1,50.7,487.7,50.1,487,50z M481.5,56.8c-0.4-0.1-0.7,0.2-0.8,0.6c-0.1,0.4,0.2,0.7,0.6,0.8
		c0.4,0.1,0.7-0.2,0.8-0.6C482.1,57.2,481.8,56.8,481.5,56.8z M486,37.8c-0.6,0.3-0.9,1-0.6,1.6c0.3,0.6,1,0.9,1.6,0.6
		c0.6-0.3,0.9-1,0.6-1.6C487.3,37.8,486.6,37.5,486,37.8z M485.2,46.2c-0.3,0.1-0.5,0.5-0.3,0.9c0.1,0.3,0.5,0.5,0.9,0.3
		c0.3-0.1,0.5-0.5,0.3-0.9C485.9,46.2,485.5,46.1,485.2,46.2z M493.9,27.3c-0.5,0.4-0.5,1.1-0.1,1.6s1.2,0.5,1.6,0.1
		s0.5-1.2,0.1-1.6C495.1,26.9,494.4,26.9,493.9,27.3z M495.4,35.4c-0.3,0.2-0.3,0.6-0.1,0.9c0.2,0.3,0.6,0.3,0.9,0.1
		c0.3-0.2,0.3-0.6,0.1-0.9C496.1,35.2,495.7,35.2,495.4,35.4z M504.2,40.3c0.5,0.4,1.3,0.3,1.7-0.3c0.4-0.5,0.3-1.3-0.3-1.7
		c-0.5-0.4-1.3-0.3-1.7,0.3S503.6,39.9,504.2,40.3z M512,36.8c0.3,0.2,0.7,0.1,0.9-0.1c0.2-0.3,0.1-0.7-0.1-0.9
		c-0.3-0.2-0.7-0.1-0.9,0.1C511.6,36.2,511.7,36.6,512,36.8z M516.9,38.4c-0.6,0.3-0.9,1.1-0.5,1.8c0.3,0.6,1.1,0.9,1.8,0.5
		c0.6-0.3,0.9-1.1,0.5-1.8C518.3,38.3,517.5,38.1,516.9,38.4z M516.8,47.7c-0.3,0.2-0.5,0.6-0.3,1c0.2,0.3,0.6,0.5,1,0.3
		c0.3-0.2,0.5-0.6,0.3-1C517.6,47.6,517.1,47.5,516.8,47.7z M522.4,47.4c-0.3,0.6,0,1.2,0.5,1.5c0.6,0.3,1.2,0,1.5-0.5
		s0-1.2-0.5-1.5C523.4,46.6,522.7,46.9,522.4,47.4z M527,54.2c-0.2,0.3,0,0.7,0.3,0.8c0.3,0.2,0.7,0,0.8-0.3c0.2-0.3,0-0.7-0.3-0.8
		C527.5,53.7,527.1,53.8,527,54.2z M540.5,54.2c-0.7-0.3-1.5,0.1-1.8,0.8c-0.3,0.7,0.1,1.5,0.8,1.8c0.7,0.3,1.5-0.1,1.8-0.8
		C541.6,55.3,541.2,54.5,540.5,54.2z M532.9,60.6c-0.4-0.1-0.8,0.1-1,0.5c-0.1,0.4,0.1,0.8,0.5,1c0.4,0.1,0.8-0.1,1-0.5
		C533.5,61.2,533.3,60.7,532.9,60.6z M537.5,66.8c-0.5,0.5-0.5,1.3,0,1.8s1.3,0.5,1.8,0c0.5-0.5,0.5-1.3,0-1.8S538,66.3,537.5,66.8z
		 M539.7,75.7c-0.3,0.3-0.3,0.7,0,1c0.3,0.3,0.7,0.3,1,0c0.3-0.3,0.3-0.7,0-1C540.5,75.4,540,75.4,539.7,75.7z M454.2,140.7
		c-0.5-0.5-1.3-0.6-1.8-0.1c-0.5,0.5-0.6,1.3-0.1,1.8c0.5,0.5,1.3,0.6,1.8,0.1C454.6,142,454.7,141.2,454.2,140.7z M445.3,142.4
		c-0.3-0.3-0.7-0.3-1-0.1c-0.3,0.3-0.3,0.7-0.1,1c0.3,0.3,0.7,0.3,1,0.1C445.6,143.1,445.6,142.7,445.3,142.4z M442.7,132.5
		c0.2,0.7,0.9,1.1,1.5,0.9c0.7-0.2,1.1-0.9,0.9-1.5c-0.2-0.7-0.9-1.1-1.5-0.9C442.9,131.1,442.5,131.8,442.7,132.5z M451.4,134.9
		c0.1,0.4,0.5,0.6,0.9,0.5c0.4-0.1,0.6-0.5,0.5-0.9c-0.1-0.4-0.5-0.6-0.9-0.5C451.5,134.1,451.3,134.5,451.4,134.9z M441.7,127.4
		c-0.2-0.6-0.8-0.9-1.4-0.8c-0.6,0.2-0.9,0.8-0.8,1.4c0.2,0.6,0.8,0.9,1.4,0.8C441.5,128.6,441.9,128,441.7,127.4z M434.1,125.3
		c-0.1-0.3-0.4-0.5-0.7-0.4c-0.3,0.1-0.5,0.4-0.4,0.7c0.1,0.3,0.4,0.5,0.7,0.4C434,126,434.2,125.7,434.1,125.3z M432.3,109.2
		c-0.4,0.6-0.2,1.4,0.4,1.8c0.6,0.4,1.4,0.2,1.8-0.4c0.4-0.6,0.2-1.4-0.4-1.8C433.6,108.4,432.7,108.6,432.3,109.2z M436.7,117.6
		c-0.2,0.3-0.1,0.8,0.2,1c0.3,0.2,0.8,0.1,1-0.2c0.2-0.3,0.1-0.8-0.2-1C437.4,117.2,436.9,117.3,436.7,117.6z M438.1,96.6
		c-0.6,0-1.1,0.4-1.2,1.1c0,0.6,0.4,1.1,1.1,1.2c0.6,0,1.1-0.4,1.2-1.1C439.2,97.1,438.8,96.6,438.1,96.6z M433.9,103.2
		c-0.3,0-0.6,0.2-0.6,0.6c0,0.3,0.2,0.6,0.6,0.6c0.3,0,0.6-0.2,0.6-0.6C434.5,103.5,434.2,103.2,433.9,103.2z M447.4,87.2
		c-0.5,0.5-0.6,1.3-0.1,1.9c0.5,0.5,1.3,0.6,1.9,0.1c0.5-0.5,0.6-1.3,0.1-1.9C448.8,86.8,448,86.8,447.4,87.2z M449.3,96.5
		c-0.3,0.3-0.3,0.7-0.1,1c0.3,0.3,0.7,0.3,1,0.1c0.3-0.3,0.3-0.7,0.1-1C450.1,96.3,449.6,96.2,449.3,96.5z M451.2,80.9
		c-0.1,0.7,0.5,1.4,1.2,1.4c0.7,0.1,1.4-0.5,1.4-1.2c0.1-0.7-0.5-1.4-1.2-1.4C452,79.6,451.3,80.1,451.2,80.9z M458.9,86.3
		c0,0.4,0.3,0.8,0.7,0.8c0.4,0,0.8-0.3,0.8-0.7c0-0.4-0.3-0.8-0.7-0.8C459.3,85.6,459,85.9,458.9,86.3z M478.4,201.4
		c-0.7,0-1.2,0.6-1.2,1.2c0,0.7,0.6,1.2,1.2,1.2c0.7,0,1.2-0.6,1.2-1.2C479.6,201.9,479.1,201.4,478.4,201.4z M474.4,208.8
		c-0.4,0-0.6,0.3-0.6,0.7c0,0.4,0.3,0.6,0.7,0.6c0.4,0,0.6-0.3,0.6-0.7C475,209,474.7,208.8,474.4,208.8z M492.5,198.7
		c-0.6-0.2-1.2,0.2-1.4,0.8c-0.2,0.6,0.2,1.2,0.8,1.4c0.6,0.2,1.2-0.2,1.4-0.8C493.4,199.5,493.1,198.9,492.5,198.7z M486.7,204.3
		c-0.3-0.1-0.7,0.1-0.8,0.4c-0.1,0.3,0.1,0.7,0.4,0.8c0.3,0.1,0.7-0.1,0.8-0.4C487.2,204.8,487,204.4,486.7,204.3z M493,196.7
		c0.7,0.3,1.4-0.1,1.6-0.7s-0.1-1.4-0.7-1.6c-0.7-0.3-1.4,0.1-1.6,0.7C492,195.7,492.3,196.5,493,196.7z M500,191
		c0.4,0.1,0.8,0,0.9-0.4c0.1-0.4,0-0.8-0.4-0.9c-0.4-0.1-0.8,0-0.9,0.4C499.5,190.4,499.6,190.8,500,191z M506.8,183.8
		c-0.2-0.6-0.9-0.9-1.5-0.6c-0.6,0.2-0.9,0.9-0.6,1.5c0.2,0.6,0.9,0.9,1.5,0.6S507,184.4,506.8,183.8z M498.8,182.6
		c-0.1-0.3-0.5-0.5-0.8-0.4c-0.3,0.1-0.5,0.5-0.4,0.8c0.1,0.3,0.5,0.5,0.8,0.4C498.7,183.3,498.9,182.9,498.8,182.6z M516.1,171.4
		c-0.6-0.3-1.3-0.1-1.6,0.4c-0.3,0.6-0.1,1.3,0.4,1.6c0.6,0.3,1.3,0.1,1.6-0.4C516.9,172.4,516.7,171.7,516.1,171.4z M509,175.5
		c-0.3-0.2-0.7-0.1-0.9,0.2c-0.2,0.3-0.1,0.7,0.2,0.9c0.3,0.2,0.7,0.1,0.9-0.2C509.4,176,509.3,175.6,509,175.5z M528.9,179.8
		c-0.5-0.6-1.4-0.7-2-0.2c-0.6,0.5-0.7,1.4-0.2,2c0.5,0.6,1.4,0.7,2,0.2S529.4,180.4,528.9,179.8z M519.2,181.4
		c-0.3-0.3-0.8-0.4-1.1-0.1c-0.3,0.3-0.4,0.8-0.1,1.1c0.3,0.3,0.8,0.4,1.1,0.1C519.4,182.2,519.4,181.7,519.2,181.4z M529.4,184.7
		c0.3,0.6,1.1,0.9,1.7,0.6c0.6-0.3,0.9-1.1,0.6-1.7c-0.3-0.6-1.1-0.9-1.7-0.6C529.3,183.3,529.1,184.1,529.4,184.7z M538.3,185.3
		c0.2,0.3,0.6,0.5,0.9,0.3c0.3-0.2,0.5-0.6,0.3-0.9c-0.2-0.3-0.6-0.5-0.9-0.3C538.3,184.5,538.1,184.9,538.3,185.3z M540.7,181.3
		c0.5,0.5,1.3,0.6,1.8,0.1c0.5-0.5,0.6-1.3,0.1-1.8c-0.5-0.5-1.3-0.6-1.8-0.1C540.3,180,540.3,180.8,540.7,181.3z M549.6,179.5
		c0.3,0.3,0.7,0.3,1,0.1c0.3-0.3,0.3-0.7,0.1-1c-0.3-0.3-0.7-0.3-1-0.1C549.4,178.7,549.3,179.2,549.6,179.5z M560.5,186.3
		c-0.3-0.7-1.1-1-1.8-0.6c-0.7,0.3-1,1.1-0.6,1.8c0.3,0.7,1.1,1,1.8,0.6C560.5,187.8,560.8,186.9,560.5,186.3z M550.9,185.5
		c-0.2-0.4-0.6-0.5-1-0.4c-0.4,0.2-0.5,0.6-0.4,1c0.2,0.4,0.6,0.5,1,0.4C550.9,186.4,551,185.9,550.9,185.5z M559.6,178.7
		c0,0.7,0.4,1.2,1.1,1.3c0.7,0,1.2-0.4,1.3-1.1c0-0.7-0.4-1.2-1.1-1.3C560.2,177.6,559.7,178.1,559.6,178.7z M566.6,183.4
		c0,0.4,0.2,0.7,0.6,0.7c0.4,0,0.7-0.2,0.7-0.6c0-0.4-0.2-0.7-0.6-0.7C566.9,182.8,566.6,183.1,566.6,183.4z M578.4,172.4
		c-0.6-0.5-1.4-0.4-1.9,0.2c-0.5,0.6-0.4,1.4,0.2,1.9c0.6,0.5,1.4,0.4,1.9-0.2C579.1,173.7,579,172.8,578.4,172.4z M569.5,175.9
		c-0.3-0.3-0.8-0.2-1,0.1c-0.3,0.3-0.2,0.8,0.1,1c0.3,0.3,0.8,0.2,1-0.1C569.9,176.6,569.8,176.1,569.5,175.9z M577.1,156.5
		c-0.7,0.3-0.9,1.1-0.6,1.8c0.3,0.7,1.1,0.9,1.8,0.6c0.7-0.3,0.9-1.1,0.6-1.8C578.6,156.5,577.8,156.2,577.1,156.5z M576.6,166.1
		c-0.4,0.2-0.5,0.6-0.3,1c0.2,0.4,0.6,0.5,1,0.3c0.4-0.2,0.5-0.6,0.3-1C577.5,166,577,165.9,576.6,166.1z M592.2,152.8
		c-0.3-0.7-1.1-1-1.8-0.7c-0.7,0.3-1,1.1-0.7,1.8c0.3,0.7,1.1,1,1.8,0.7C592.2,154.4,592.5,153.5,592.2,152.8z M582.4,151.8
		c-0.2-0.4-0.6-0.6-1-0.4c-0.4,0.2-0.6,0.6-0.4,1c0.2,0.4,0.6,0.6,1,0.4C582.4,152.7,582.6,152.2,582.4,151.8z M603.1,151.8
		c-0.6,0-1.2,0.5-1.2,1.1c0,0.6,0.5,1.2,1.1,1.2c0.6,0,1.2-0.5,1.2-1.1C604.2,152.4,603.7,151.8,603.1,151.8z M599,159
		c-0.4,0-0.6,0.3-0.6,0.6c0,0.4,0.3,0.6,0.6,0.6c0.4,0,0.6-0.3,0.6-0.6C599.6,159.2,599.3,159,599,159z M616.8,146.3
		c-0.6-0.2-1.3,0.1-1.5,0.7c-0.2,0.6,0.1,1.3,0.7,1.5c0.6,0.2,1.3-0.1,1.5-0.7C617.7,147.2,617.4,146.6,616.8,146.3z M610.4,151.5
		c-0.3-0.1-0.7,0-0.8,0.4c-0.1,0.3,0,0.7,0.4,0.8c0.3,0.1,0.7,0,0.8-0.4C610.8,152,610.7,151.7,610.4,151.5z M628.7,154.4
		c-0.7,0-1.2,0.6-1.2,1.3c0,0.7,0.6,1.2,1.3,1.2c0.7,0,1.2-0.6,1.2-1.3C630,154.9,629.4,154.4,628.7,154.4z M624.4,162.1
		c-0.4,0-0.7,0.3-0.7,0.7c0,0.4,0.3,0.7,0.7,0.7c0.4,0,0.7-0.3,0.7-0.7S624.8,162.1,624.4,162.1z M146.9,93.2
		c-0.4-0.5-1.2-0.7-1.7-0.3c-0.5,0.4-0.7,1.2-0.3,1.7c0.4,0.5,1.2,0.7,1.7,0.3C147.1,94.5,147.2,93.7,146.9,93.2z M138.2,94.1
		c-0.2-0.3-0.6-0.4-0.9-0.2c-0.3,0.2-0.4,0.6-0.2,0.9c0.2,0.3,0.6,0.4,0.9,0.2C138.3,94.8,138.4,94.4,138.2,94.1z M125.6,97.9
		c-0.1,0.7,0.4,1.4,1.1,1.5c0.7,0.1,1.4-0.4,1.5-1.1c0.1-0.7-0.4-1.4-1.1-1.5C126.4,96.7,125.7,97.2,125.6,97.9z M133,103.9
		c-0.1,0.4,0.2,0.8,0.6,0.8c0.4,0.1,0.8-0.2,0.8-0.6c0.1-0.4-0.2-0.8-0.6-0.8C133.5,103.2,133.1,103.5,133,103.9z M116.7,111.6
		c0.6,0.2,1.3-0.1,1.5-0.7c0.2-0.6-0.1-1.3-0.7-1.5c-0.6-0.2-1.3,0.1-1.5,0.7C115.8,110.7,116.1,111.3,116.7,111.6z M123.2,106.2
		c0.3,0.1,0.7,0,0.8-0.4c0.1-0.3,0-0.7-0.4-0.8c-0.3-0.1-0.7,0-0.8,0.4C122.7,105.7,122.8,106.1,123.2,106.2z M401.8,118.1
		c-0.5-0.4-1.2-0.3-1.6,0.2c-0.4,0.5-0.3,1.2,0.2,1.6c0.5,0.4,1.2,0.3,1.6-0.2S402.2,118.5,401.8,118.1z M394.4,120.9
		c-0.3-0.2-0.6-0.2-0.9,0.1c-0.2,0.3-0.2,0.6,0.1,0.9c0.3,0.2,0.6,0.2,0.9-0.1C394.7,121.5,394.7,121.1,394.4,120.9z M382.1,115.3
		c0.4,0.5,1.2,0.5,1.7,0.1s0.5-1.2,0.1-1.7c-0.4-0.5-1.2-0.5-1.7-0.1C381.7,114.1,381.7,114.8,382.1,115.3z M390.5,113.5
		c0.2,0.3,0.7,0.3,0.9,0c0.3-0.2,0.3-0.7,0-0.9c-0.2-0.3-0.7-0.3-0.9,0C390.2,112.9,390.2,113.3,390.5,113.5z M378.5,103.1
		c0.4,0.5,1.1,0.6,1.6,0.2c0.5-0.4,0.6-1.1,0.2-1.6s-1.1-0.6-1.6-0.2C378.2,101.8,378.1,102.5,378.5,103.1z M386.7,102.1
		c0.2,0.3,0.6,0.3,0.9,0.1c0.3-0.2,0.3-0.6,0.1-0.9c-0.2-0.3-0.6-0.3-0.9-0.1C386.6,101.4,386.5,101.8,386.7,102.1z M367.5,99.9
		c-0.5,0.5-0.4,1.4,0.1,1.8s1.4,0.4,1.8-0.1c0.5-0.5,0.4-1.4-0.1-1.8C368.7,99.3,367.9,99.3,367.5,99.9z M370.6,108.6
		c-0.3,0.3-0.2,0.8,0.1,1c0.3,0.3,0.8,0.2,1-0.1c0.3-0.3,0.2-0.8-0.1-1C371.3,108.2,370.8,108.3,370.6,108.6z M356.4,95.7
		c0.2,0.7,0.9,1.1,1.6,0.9c0.7-0.2,1.1-0.9,0.9-1.6c-0.2-0.7-0.9-1.1-1.6-0.9C356.6,94.3,356.2,95,356.4,95.7z M365.3,97.9
		c0.1,0.4,0.5,0.6,0.9,0.5c0.4-0.1,0.6-0.5,0.5-0.9c-0.1-0.4-0.5-0.6-0.9-0.5C365.4,97.1,365.1,97.5,365.3,97.9z M355.6,97.7
		c-0.7-0.3-1.4,0-1.7,0.7c-0.3,0.7,0,1.4,0.7,1.7c0.7,0.3,1.4,0,1.7-0.7C356.6,98.8,356.3,98,355.6,97.7z M348.3,103.5
		c-0.4-0.2-0.8,0-0.9,0.4c-0.2,0.4,0,0.8,0.4,0.9c0.4,0.2,0.8,0,0.9-0.4C348.8,104,348.6,103.6,348.3,103.5z M343.5,95
		c-0.7-0.2-1.4,0.2-1.6,0.8s0.2,1.4,0.8,1.6c0.7,0.2,1.4-0.2,1.6-0.8S344.2,95.2,343.5,95z M336.9,101.2c-0.4-0.1-0.8,0.1-0.9,0.5
		c-0.1,0.4,0.1,0.8,0.5,0.9c0.4,0.1,0.8-0.1,0.9-0.5C337.5,101.7,337.3,101.3,336.9,101.2z M330.3,337.3c-0.2-0.6-0.8-1-1.5-0.9
		c-0.6,0.2-1,0.8-0.9,1.5c0.2,0.6,0.8,1,1.5,0.9C330.1,338.6,330.5,337.9,330.3,337.3z M322,334.9c-0.1-0.4-0.4-0.6-0.8-0.5
		c-0.4,0.1-0.6,0.4-0.5,0.8c0.1,0.4,0.4,0.6,0.8,0.5C321.9,335.6,322.1,335.2,322,334.9z M308.6,343.7c-0.6,0.3-0.8,1.1-0.4,1.7
		s1.1,0.8,1.7,0.4c0.6-0.3,0.8-1.1,0.4-1.7C309.9,343.6,309.2,343.4,308.6,343.7z M308.6,352.5c-0.3,0.2-0.4,0.6-0.2,0.9
		c0.2,0.3,0.6,0.4,0.9,0.2c0.3-0.2,0.4-0.6,0.2-0.9C309.4,352.5,309,352.3,308.6,352.5z M294.2,353.9c0.5,0.5,1.3,0.5,1.8,0
		c0.5-0.5,0.5-1.3,0-1.8c-0.5-0.5-1.3-0.5-1.8,0C293.7,352.6,293.7,353.4,294.2,353.9z M302.8,351.7c0.3,0.3,0.7,0.3,1,0
		c0.3-0.3,0.3-0.7,0-1c-0.3-0.3-0.7-0.3-1,0C302.5,351,302.5,351.4,302.8,351.7z M299.6,348.7c-0.5-0.3-1.2-0.2-1.6,0.3
		c-0.3,0.5-0.2,1.2,0.3,1.6c0.5,0.3,1.2,0.2,1.6-0.3C300.3,349.8,300.2,349.1,299.6,348.7z M292.4,352.4c-0.3-0.2-0.7-0.1-0.9,0.2
		c-0.2,0.3-0.1,0.7,0.2,0.9s0.7,0.1,0.9-0.2C292.8,353,292.7,352.6,292.4,352.4z"/>
</g>
</svg>
