<?xml version="1.0" encoding="utf-8"?>
<!-- Generator: Adobe Illustrator 26.0.1, SVG Export Plug-In . SVG Version: 6.00 Build 0)  -->
<svg version="1.1" id="BACKGROUND" xmlns="http://www.w3.org/2000/svg" xmlns:xlink="http://www.w3.org/1999/xlink" x="0px" y="0px"
	 viewBox="0 0 750 500" style="enable-background:new 0 0 750 500;" xml:space="preserve">
<style type="text/css">
	.st0{clip-path:url(#SVGID_00000065034834181964194910000007771660372811089062_);}
	.st1{fill:#00FFFF;}
	.st2{fill:none;stroke:#00FFFF;stroke-miterlimit:10;}
	.st3{fill:none;stroke:#000000;stroke-miterlimit:10;}
	.st4{fill:none;stroke:#000000;stroke-width:5;stroke-miterlimit:10;}
	.st5{fill:#BBB9BA;}
</style>
<g>
	<defs>
		<rect id="SVGID_1_" width="750" height="500"/>
	</defs>
	<clipPath id="SVGID_00000043453657773316208980000007995187882305585313_">
		<use xlink:href="#SVGID_1_"  style="overflow:visible;"/>
	</clipPath>
	<g style="clip-path:url(#SVGID_00000043453657773316208980000007995187882305585313_);">
	</g>
	<g style="clip-path:url(#SVGID_00000043453657773316208980000007995187882305585313_);">
		<rect x="520.31" y="277.7" class="st1" width="76.81" height="76.81"/>
	</g>
	<g style="clip-path:url(#SVGID_00000043453657773316208980000007995187882305585313_);">
		<rect x="243.94" y="120.34" class="st1" width="38.76" height="38.76"/>
		<rect x="609.06" y="186.74" width="38.76" height="38.76"/>
	</g>
	<g style="clip-path:url(#SVGID_00000043453657773316208980000007995187882305585313_);">
		<g>
			<line class="st2" x1="93.09" y1="210.09" x2="167.61" y2="210.09"/>
			<line class="st2" x1="93.09" y1="203.31" x2="167.61" y2="203.31"/>
			<line class="st2" x1="93.09" y1="196.54" x2="167.61" y2="196.54"/>
			<line class="st2" x1="93.09" y1="189.76" x2="167.61" y2="189.76"/>
			<line class="st2" x1="93.09" y1="182.99" x2="167.61" y2="182.99"/>
			<line class="st2" x1="93.09" y1="176.22" x2="167.61" y2="176.22"/>
			<line class="st2" x1="93.09" y1="169.44" x2="167.61" y2="169.44"/>
			<line class="st2" x1="93.09" y1="162.67" x2="167.61" y2="162.67"/>
			<line class="st2" x1="93.09" y1="155.89" x2="167.61" y2="155.89"/>
			<line class="st2" x1="93.09" y1="149.12" x2="167.61" y2="149.12"/>
			<line class="st2" x1="93.09" y1="142.34" x2="167.61" y2="142.34"/>
			<line class="st2" x1="93.09" y1="135.57" x2="167.61" y2="135.57"/>
		</g>
		
			<rect x="115.94" y="155.89" transform="matrix(6.123234e-17 -1 1 6.123234e-17 -39.9506 348.6437)" class="st3" width="76.81" height="76.81"/>
	</g>
	<g style="clip-path:url(#SVGID_00000043453657773316208980000007995187882305585313_);">
		<g>
			<line class="st4" x1="171.28" y1="316.43" x2="189" y2="334.15"/>
			<line class="st4" x1="189" y1="316.43" x2="171.28" y2="334.15"/>
		</g>
		<g>
			<line class="st4" x1="542.5" y1="140.26" x2="560.22" y2="157.98"/>
			<line class="st4" x1="560.22" y1="140.26" x2="542.5" y2="157.98"/>
		</g>
		<g>
			<line class="st4" x1="319.78" y1="437.56" x2="337.5" y2="455.28"/>
			<line class="st4" x1="337.5" y1="437.56" x2="319.78" y2="455.28"/>
		</g>
		<g>
			<line class="st4" x1="115.65" y1="27.19" x2="133.37" y2="44.91"/>
			<line class="st4" x1="133.37" y1="27.19" x2="115.65" y2="44.91"/>
		</g>
	</g>
	<g style="clip-path:url(#SVGID_00000043453657773316208980000007995187882305585313_);">
		<g>
			<circle class="st1" cx="447.51" cy="349.44" r="4.63"/>
			<circle class="st1" cx="447.51" cy="368.14" r="4.63"/>
			<circle class="st1" cx="447.51" cy="386.84" r="4.63"/>
			<path class="st1" d="M447.51,410.17c2.56,0,4.63-2.08,4.63-4.63c0-2.56-2.08-4.63-4.63-4.63s-4.63,2.08-4.63,4.63
				C442.87,408.1,444.95,410.17,447.51,410.17z"/>
			<path class="st1" d="M447.51,428.88c2.56,0,4.63-2.08,4.63-4.63c0-2.56-2.08-4.63-4.63-4.63s-4.63,2.08-4.63,4.63
				C442.87,426.8,444.95,428.88,447.51,428.88z"/>
		</g>
		<g>
			<ellipse transform="matrix(0.9869 -0.1616 0.1616 0.9869 -1.8627 114.7411)" cx="704.51" cy="68.82" rx="4.63" ry="4.63"/>
			<ellipse transform="matrix(0.9869 -0.1616 0.1616 0.9869 -4.8845 114.9869)" cx="704.51" cy="87.52" rx="4.63" ry="4.63"/>
			<path d="M704.51,110.86c2.56,0,4.63-2.08,4.63-4.63c0-2.56-2.08-4.63-4.63-4.63c-2.56,0-4.63,2.08-4.63,4.63
				C699.87,108.79,701.95,110.86,704.51,110.86z"/>
			<path d="M704.51,129.56c2.56,0,4.63-2.08,4.63-4.63c0-2.56-2.08-4.63-4.63-4.63c-2.56,0-4.63,2.08-4.63,4.63
				C699.87,127.49,701.95,129.56,704.51,129.56z"/>
			<ellipse transform="matrix(0.9869 -0.1616 0.1616 0.9869 -13.9502 115.7242)" cx="704.51" cy="143.63" rx="4.63" ry="4.63"/>
		</g>
		<g>
			<path class="st5" d="M45.49,222.8c2.56,0,4.63-2.08,4.63-4.63c0-2.56-2.08-4.63-4.63-4.63s-4.63,2.08-4.63,4.63
				C40.86,220.72,42.93,222.8,45.49,222.8z"/>
			
				<ellipse transform="matrix(0.0985 -0.9951 0.9951 0.0985 -194.6998 258.7971)" class="st5" cx="45.49" cy="236.86" rx="4.63" ry="4.63"/>
			
				<ellipse transform="matrix(0.0985 -0.9951 0.9951 0.0985 -213.3104 275.6559)" class="st5" cx="45.49" cy="255.57" rx="4.63" ry="4.63"/>
			
				<ellipse transform="matrix(0.0985 -0.9951 0.9951 0.0985 -231.921 292.5147)" class="st5" cx="45.49" cy="274.27" rx="4.63" ry="4.63"/>
			
				<ellipse transform="matrix(0.0985 -0.9951 0.9951 0.0985 -250.5315 309.3734)" class="st5" cx="45.49" cy="292.97" rx="4.63" ry="4.63"/>
		</g>
	</g>
</g>
</svg>
