<?xml version="1.0" encoding="utf-8"?>
<!-- Generator: Adobe Illustrator 26.0.1, SVG Export Plug-In . SVG Version: 6.00 Build 0)  -->
<svg version="1.1" xmlns="http://www.w3.org/2000/svg" xmlns:xlink="http://www.w3.org/1999/xlink" x="0px" y="0px"
	 viewBox="0 0 750 500" style="enable-background:new 0 0 750 500;" xml:space="preserve">
<style type="text/css">
	.st0{fill:#FFFFFF;}
	
		.st1{clip-path:url(#SVGID_00000167394187599964490910000002413986591126163341_);fill:url(#SVGID_00000034092113645789925940000017555280483107651737_);}
</style>
<g id="BACKGROUND">
	<rect class="st0" width="750" height="500"/>
</g>
<g id="OBJECTS">
	<g>
		<defs>
			<rect id="SVGID_1_" width="750" height="500"/>
		</defs>
		<clipPath id="SVGID_00000035498545743155960000000004169166431163190709_">
			<use xlink:href="#SVGID_1_"  style="overflow:visible;"/>
		</clipPath>
		
			<linearGradient id="SVGID_00000043456213021120077990000011038237577789663678_" gradientUnits="userSpaceOnUse" x1="131.1625" y1="609.306" x2="642.7209" y2="-128.9247">
			<stop  offset="0" style="stop-color:#C8CACC"/>
			<stop  offset="0.1387" style="stop-color:#D5D6D7"/>
			<stop  offset="0.3812" style="stop-color:#E4E5E6"/>
			<stop  offset="0.5713" style="stop-color:#EAEBEB"/>
			<stop  offset="0.7471" style="stop-color:#EEEFEF"/>
			<stop  offset="0.9274" style="stop-color:#FAFAFB"/>
			<stop  offset="0.976" style="stop-color:#FFFFFF"/>
		</linearGradient>
		
			<path style="clip-path:url(#SVGID_00000035498545743155960000000004169166431163190709_);fill:url(#SVGID_00000043456213021120077990000011038237577789663678_);" d="
			M391.9,473.9V443l-29.1-16.8v33.1l-27.1,15.7v-32.5L307,458.9l-27.6-16v-30.3c0.8-0.2,1.5-1,1.5-1.9c0-0.2,0-0.3-0.1-0.5
			l26.5-15.3l0.2-0.1v-33.6l-28.6,16.5l-28.1-16.2l-28.1,16.2l-27.6-16v-31.9l28.6-16.5l-28.6-16.5v-33.1L166,280.4l-0.2,0.1v31.9
			L140,297.6c0-0.2,0.1-0.3,0.1-0.5c0-0.9-0.6-1.7-1.5-1.9v-62.8l27.9-16.1l0.2-0.1v-33.6l-28.9,16.7l-0.2,0.1v32.5l-27.6,16
			l-27.1-15.7l27.4-15.8l0.2-0.1v-33.6l-28.9,16.7l-0.2,0.1v64.4l-25.7-14.9c0-0.2,0.1-0.3,0.1-0.5c0-0.9-0.6-1.7-1.5-1.9v-30.9
			l-27.6-16l27.1-15.7l0.5,0.3v-0.6l0.5-0.3l-0.5-0.3v-32.5l-26.7-15.4c0-0.2,0.1-0.3,0.1-0.5c0-1.1-0.9-2-2-2c-1.1,0-2,0.9-2,2
			c0,0.9,0.6,1.7,1.5,1.9v30.3l-28.6,16.5l28.1,16.2l-27.4,15.8l-0.2,0.1V248l-0.5,0.3l0.5,0.3v32.5l27.6,15.9l-27.4,15.8L-3,313
			v33.6L25.8,330l0.2-0.1v-31.9l0,0v-33.1l26.2-15.2c0.2,0.2,0.6,0.4,0.9,0.5v30.9l27.6,16l-27.4,15.8l-0.2,0.1v32.5L27,360.7
			c-0.4-0.4-0.8-0.6-1.4-0.6c-1.1,0-2,0.9-2,2c0,0.9,0.6,1.7,1.5,1.9v62.8l-27.9,16.1L-3,443v33.6l0,0v31.9l28.1,16.2v0.6l0.5-0.3
			l0.5,0.3v-0.6L54,508.7l0.2-0.1v-33.6L27,490.6c-0.4-0.4-0.8-0.6-1.4-0.6c-0.5,0-1,0.2-1.4,0.6l-25.8-14.9l26.7-15.4v0l28.6-16.5
			l28.6,16.5v-33.1l27.9-16.1l0.2-0.1v-30.9c0.8-0.2,1.5-1,1.5-1.9c0-1.1-0.9-2-2-2s-2,0.9-2,2c0,0.2,0,0.3,0.1,0.5l-26.5,15.3
			l-0.2,0.1v31.9l-27.1-15.7v-64.4l27.6-15.9l28.6,16.5v-33.1l26.2-15.2c0.2,0.2,0.6,0.4,0.9,0.5v30.9l26.7,15.4
			c0,0.2-0.1,0.3-0.1,0.5c0,0.2,0,0.3,0.1,0.5l-26.5,15.3l-0.2,0.1v64.9l-26.1,15.1c-0.4-0.5-0.9-0.8-1.6-0.8c-1.1,0-2,0.9-2,2
			c0,0.9,0.6,1.7,1.5,1.9v31.8l28.1-16.2v31.9l29.1,16.8v-33.6l-27.6-15.9l27.2-15.7l26.2,15.2c0,0.2-0.1,0.3-0.1,0.5
			c0,1.1,0.9,2,2,2c1.1,0,2-0.9,2-2c0-0.9-0.6-1.7-1.5-1.9v-62.8l27.6-16l27.1,15.7l-27.4,15.8l-0.2,0.1V443l-0.5,0.3l0.5,0.3v31.9
			l-27.9,16.1l-0.2,0.1v33.6l28.9-16.7l0.2-0.1v-31.9l27.1,15.7v0.6l0.5-0.3l28.6,16.5v-31.5c0.3-0.1,0.7-0.3,0.9-0.5l26.2,15.2
			v33.1l28.1-16.2v0l28.9-16.7l0.2-0.1v-31.9l25.7,14.9c0,0.2-0.1,0.3-0.1,0.5c0,1.1,0.9,2,2,2c1.1,0,2-0.9,2-2
			C393.3,474.8,392.7,474.1,391.9,473.9z M82.4,199.9l27.1-15.7v31.3l-27.1,15.7V199.9z M25.1,329.3L-2,344.9v-31.3l27.1-15.7V329.3
			z M53.3,476.6v31.3l-27.1,15.7v-29.7c0.8-0.2,1.5-1,1.5-1.9c0-0.2,0-0.3-0.1-0.5L53.3,476.6z M25.1,493.9v29.7L-2,507.9v-31.3
			l25.7,14.9c0,0.2-0.1,0.3-0.1,0.5C23.7,492.9,24.3,493.6,25.1,493.9z M334.6,475.4l-27.1,15.7v-31.3l27.1-15.7V475.4z
			 M278.3,473.9c-0.3,0.1-0.7,0.3-0.9,0.5l-25.7-14.9l26.6-15.4V473.9z M251.2,426.7v-31.3l25.7,14.9c0,0.2-0.1,0.3-0.1,0.5
			c0,0.9,0.6,1.7,1.5,1.9v29.7L251.2,426.7z M278.3,408.9c-0.3,0.1-0.7,0.3-0.9,0.5l-25.7-14.9l26.6-15.4V408.9z M250.7,427.6
			l27.1,15.7l-12.3,7.1l-14.8,8.5l-27.1-15.7l12.3-7.1L250.7,427.6z M251.2,460.4l25.7,14.9c0,0.2-0.1,0.3-0.1,0.5
			c0,0.2,0,0.3,0.1,0.5l-25.7,14.9V460.4z M306.5,394.2l-26.2,15.2c-0.2-0.2-0.6-0.4-0.9-0.5v-30.3l27.1-15.7V394.2z M166.8,343.9
			v-29.7l27.1,15.7v31.3l-25.7-14.9c0-0.2,0.1-0.3,0.1-0.5C168.3,344.9,167.6,344.1,166.8,343.9z M166.8,347.7
			c0.3-0.1,0.7-0.3,0.9-0.5l25.7,14.9l-26.6,15.4V347.7z M194.4,329l-27.1-15.7l13.3-7.7l13.8-8l27.1,15.7L194.4,329z M166.8,281.1
			l27.1-15.7v31.3l-27.1,15.7V281.1z M138.7,199.9l27.1-15.7v31.3l-27.1,15.7V199.9z M137.7,264.3l-8.9,5.1l-18.3,10.5v-31.3
			l27.1-15.7V264.3z M109.5,312.4L96,304.6l-13.6-7.8v-31.3l13.6,7.8l13.6,7.8V312.4z M82.4,233l27.1,15.7v31.3L96,272.1l-13.6-7.8
			V233z M53.2,246.4c-0.3,0.1-0.7,0.3-0.9,0.5l-26.2-15.2v-31.3l27.1,15.7V246.4z M53.2,151.2v31.3l-27.1-15.7v-30.3
			c0.3-0.1,0.7-0.3,0.9-0.5L53.2,151.2z M25.6,167.7l27.1,15.7l-26.6,15.4v0l-0.5,0.3l-0.5-0.3v0l-26.6-15.4L25.6,167.7z M-2,216.1
			l27.1-15.7v31.3L-2,247.5V216.1z M-2,249.2l27.1,15.7v31.3L-2,280.5V249.2z M25.6,264l-27.1-15.7l12.3-7.1l14.8-8.5l26.2,15.2
			c0,0.2-0.1,0.3-0.1,0.5c0,0.2,0,0.3,0.1,0.5L25.6,264z M54.2,250.2c0.3-0.1,0.7-0.3,0.9-0.5l26.2,15.2v31.3l-27.1-15.7V250.2z
			 M54.2,313.6l27.1-15.7v31.3l-27.1,15.7V313.6z M26.1,363.9c0.8-0.2,1.5-1,1.5-1.9c0-0.2,0-0.3-0.1-0.5l25.7-14.9V378l-27.1,15.7
			V363.9z M53.3,410.5l-27.1,15.7v-31.3l27.1-15.7V410.5z M25.1,459.2L-2,474.9v-31.3l27.1-15.7V459.2z M26.1,427.3l27.1-15.7V443
			l-27.1,15.7V427.3z M82.4,394.8l26.2-15.2c0.2,0.2,0.6,0.4,0.9,0.5v30.3l-27.1,15.7V394.8z M81.4,427.9v30.8L54.3,443v-31.3
			l27.1,15.7L81.4,427.9L81.4,427.9z M109.5,344.9l-27.1-15.7v-31.3l13.6,7.8l13.6,7.8V344.9z M110.5,312.4v-31.3l15.5-9l11.6-6.7
			v29.7c-0.8,0.2-1.5,1-1.5,1.9c0,0.2,0,0.3,0.1,0.5L110.5,312.4z M138.7,329.3v-30.3c0.3-0.1,0.7-0.3,0.9-0.5l26.2,15.2v30.3
			c-0.3,0.1-0.7,0.3-0.9,0.5L138.7,329.3z M138.7,362.3l26.2-15.2c0.2,0.2,0.6,0.4,0.9,0.5V378l-0.5,0.3l0,0l-26.6,15.4V362.3z
			 M138.7,427.3l27.1-15.7V443l-27.1,15.7V427.3z M165.8,410.5l-27.1,15.7v-31.3l27.1-15.7V410.5z M110.5,474.9v-30.1
			c0.8-0.2,1.5-1,1.5-1.9c0-0.1,0-0.1,0-0.2l25.7-14.8v31.3L110.5,474.9z M165.7,507.4l-27.1-15.7v-31.3l27.1,15.7V507.4z
			 M193.9,457.6c-0.3,0.1-0.7,0.3-0.9,0.5L166.8,443v-31.3l27.1,15.7V457.6z M166.8,410.5v-31.3l27.1,15.7v31.3L166.8,410.5z
			 M194.4,393.9l-27.1-15.7l27.1-15.7l0.5,0.3v0l26.6,15.4L194.4,393.9z M250.7,362.6l27.1,15.7l-26.6,15.4v0l-0.5,0.3l-0.5-0.3v0
			l-26.6-15.4L250.7,362.6z M223.1,411.1l27.1-15.7v31.3l-27.1,15.7V411.1z M222.1,507.9l-27.1,15.7v-31.3l27.1-15.7V507.9z
			 M223.1,475.5v-31.3l27.1,15.7v31.3L223.1,475.5z M251.7,492l25.7-14.9c0.2,0.2,0.6,0.4,0.9,0.5v29.7L251.7,492z M279.3,473.9
			v-29.7l27.1,15.7v31.3l-25.7-14.9c0-0.2,0.1-0.3,0.1-0.5C280.8,474.8,280.2,474.1,279.3,473.9z M307.5,523.6v-31.3l27.1-15.7v31.3
			L307.5,523.6z M362.7,491.7l-27.1,15.7V476l27.1-15.7V491.7z M363.7,459.2v-31.3l27.1,15.7v30.3c-0.3,0.1-0.6,0.3-0.9,0.5
			L363.7,459.2z M758.2,270.4L730,254.1l27.4-15.8l0.2-0.1v-32.5l0.5-0.3l-0.5-0.3v-32.5L730,156.7l27.4-15.8l0.2-0.1v-33.6
			l-28.9,16.7l-0.2,0.1v31.9l0,0v33.1L702.3,204c-0.2-0.2-0.6-0.4-0.9-0.5v-63.4l-28.1-16.2V91.4L646.5,76c0-0.2,0.1-0.3,0.1-0.5
			c0-0.2,0-0.3-0.1-0.5L673,59.6l0.2-0.1V27.6l27.1,15.7v65.6l27.2-15.7c0.4,0.4,0.8,0.6,1.4,0.6c1.1,0,2-0.9,2-2
			c0-0.9-0.6-1.7-1.5-1.9V27.1l27.9-16.1l0.2-0.1v-33.6L729.5-6.6v0L700.9,9.9L672.2-6.6v33.1l-27.9,16.1l-0.2,0.1v30.9
			c-0.8,0.2-1.5,1-1.5,1.9c0,0.9,0.6,1.7,1.5,1.9v30.9l28.1,16.2v31.9l-27.1,15.7v-31.9L617,123.9v-0.6l-0.5,0.3l-0.5-0.3v0.6
			L588.1,140l-0.2,0.1v33.6l27.2-15.7c0.4,0.4,0.8,0.6,1.4,0.6s1-0.2,1.4-0.6l26.2,15.1v65.6l28.6-16.5l27.6,16l0,0l27.6,16
			l-27.1,15.7l-0.5-0.3v0.6l-0.5,0.3l0.5,0.3v32.5l28.1,16.2v30.3c-0.8,0.2-1.5,1-1.5,1.9c0,1.1,0.9,2,2,2c1.1,0,2-0.9,2-2
			c0-0.2,0-0.3-0.1-0.5l26.5-15.3l0.2-0.1V302l-28.1,16.2v-31.3L758.2,270.4z M729.6,124.5l27.1-15.7v31.3l-27.1,15.7V124.5z
			 M756.7,237.6l-27.1,15.7v-31.3l27.1-15.7V237.6z M756.7,204.5l-27.1-15.7v-31.3l27.1,15.7V204.5z M729,189.7l27.1,15.7l-12.3,7.1
			l-14.8,8.5l-26.2-15.2c0-0.2,0.1-0.3,0.1-0.5c0-0.2,0-0.3-0.1-0.5L729,189.7z M700.4,173.2v30.3c-0.3,0.1-0.7,0.3-0.9,0.5
			l-12.7-7.3l-13.6-7.8v-31.3l13.6,7.8L700.4,173.2z M701.4,43.3l27.1-15.7v31.3l-27.1,15.7V43.3z M701.4,107.1V75.7l27.1-15.7v29.7
			c-0.8,0.2-1.5,1-1.5,1.9c0,0.2,0,0.3,0.1,0.5L701.4,107.1z M729.6-5.5l27.1-15.7v31.3l-27.1,15.7V-5.5z M728.5,26.4l-27.1,15.7
			V10.8l27.1-15.7V26.4z M673.2-4.9l27.1,15.7v31.3l-27.1-15.7v-0.6l0,0V-4.9z M672.3,27.6v31.3L646,74.1c-0.2-0.2-0.6-0.4-0.9-0.5
			V43.3L672.3,27.6z M645.1,107.7V77.3c0.3-0.1,0.6-0.3,0.9-0.5L672.3,92v31.3L645.1,107.7z M700.4,140.7v31.3l-13.6-7.8l-13.6-7.8
			v-31.3L700.4,140.7z M588.9,172.1v-31.3l27.1-15.7v29.7c-0.8,0.2-1.5,1-1.5,1.9c0,0.2,0,0.3,0.1,0.5L588.9,172.1z M617,154.8
			v-29.7l27.1,15.7v31.3l-25.7-14.9c0-0.2,0.1-0.3,0.1-0.5C618.5,155.8,617.8,155,617,154.8z M645.1,173.2l27.1-15.7v31.3
			l-27.1,15.7V173.2z M645.1,205.7l27.1-15.7v31.3L645.1,237V205.7z M673.3,221.4V190l13.6,7.8l12.2,7c0,0.2-0.1,0.3-0.1,0.5
			c0,0.9,0.6,1.7,1.5,1.9V237L673.3,221.4z M701.4,207.3c0.3-0.1,0.7-0.3,0.9-0.5l26.2,15.2v31.3l-27.1-15.7V207.3z M728.5,255
			L728.5,255l0.5-0.3l0.5,0.3v0l26.6,15.4L729,286.1l-27.1-15.7L728.5,255z M701.4,271.3l27.1,15.7v31.3l-27.1-15.7V271.3z
			 M756.7,303.7v31.3l-26.2,15.2c-0.2-0.2-0.6-0.4-0.9-0.5v-30.3L756.7,303.7z M590.3,107.9c0-0.2,0-0.3-0.1-0.5l26.5-15.3L617,92
			V27.1L643.1,12c0.4,0.5,0.9,0.8,1.6,0.8c1.1,0,2-0.9,2-2c0-0.9-0.6-1.7-1.5-1.9v-31.8L617-6.6v-31.9l-29.1-16.8v33.6l27.6,15.9
			L588.4,9.9L562.1-5.2c0-0.2,0.1-0.3,0.1-0.5c0-1.1-0.9-2-2-2c-1.1,0-2,0.9-2,2c0,0.9,0.6,1.7,1.5,1.9v29.7l0,0v33.1l-27.6,16
			l-27.1-15.7l27.4-15.8l0.2-0.1V10.8l0.5-0.3l-0.5-0.3v-31.9l27.9-16.1l0.2-0.1v-33.6l-28.9,16.7l-0.2,0.1v31.9l-27.1-15.7v-0.6
			l-0.5,0.3l-28.6-16.5v31.5c-0.3,0.1-0.7,0.3-0.9,0.5l-26.2-15.1v-33.1L420-55.3v0l-28.9,16.7l-0.2,0.1v31.9l-27.1-15.7v-0.6
			l-0.5,0.3l-0.5-0.3v0.6l-27.6,16l-28.6-16.5v33.1l-27.1,15.7V-6.1l-29.1-16.8v0l-28.1-16.2v33.1L195.8,9.1
			c-0.4-0.4-0.8-0.6-1.4-0.6c-1.1,0-2,0.9-2,2s0.9,2,2,2c0.5,0,1-0.2,1.4-0.6L222.1,27v33.1L251,43.4l0.2-0.1V11.3L278.4,27v33.1
			l27.2-15.7c0.2,0.2,0.6,0.4,0.9,0.5v30.9l29.1,16.8V60.1l28.1,16.2V42.7l-27.6-16l27.1-15.7l28.6,16.5V-5.5L419-21.1v63.8
			l-27.9,16.1l-0.2,0.1v33.6l27.2-15.7c0.4,0.4,0.8,0.6,1.4,0.6c1.1,0,2-0.9,2-2c0-0.9-0.6-1.7-1.5-1.9V43.3l27.9-16.1l0.2-0.1V-4.9
			l27.1,15.7v30.3c-0.8,0.2-1.5,1-1.5,1.9c0,0.2,0,0.3,0.1,0.5l-26.5,15.3l-0.2,0.1v33.6L475.8,76l28.1,16.2L532.1,76l28.1,16.2
			l27.6-16v29.7c-0.8,0.2-1.5,1-1.5,1.9c0,1.1,0.9,2,2,2C589.4,109.9,590.3,109,590.3,107.9z M616,91.4l-26.2,15.2
			c-0.2-0.2-0.6-0.4-0.9-0.5V75.7l0.5-0.3l0,0L616,60.1V91.4z M560.7,27.6l27.1,15.7v31.3l-27.1-15.7V27.6z M588.9,43.3L616,27.6
			v31.3l-27.1,15.7V43.3z M616,26.4l-27.1,15.7V10.8L616-4.9V26.4z M644.2-21.1V9c-0.8,0.2-1.5,1-1.5,1.9c0,0.1,0,0.1,0,0.2
			L617,25.9V-5.5L644.2-21.1z M588.9-53.6L616-38v31.3l-27.1-15.7V-53.6z M560.7-3.9c0.3-0.1,0.7-0.3,0.9-0.5l26.2,15.2v31.3
			l-27.1-15.7V-3.9z M503.9,26.1l-27.1-15.7l12.3-7.1l14.8-8.5l27.1,15.7l-12.3,7.1L503.9,26.1z M476.3-20.1
			c0.3-0.1,0.7-0.3,0.9-0.5l25.7,14.9L476.3,9.6V-20.1z M503.4-6.6l-25.7-14.9c0-0.2,0.1-0.3,0.1-0.5c0-0.2,0-0.3-0.1-0.5l25.7-14.9
			V-6.6z M503.4,27v31.3l-25.7-14.9c0-0.2,0.1-0.3,0.1-0.5c0-0.9-0.6-1.7-1.5-1.9V11.3L503.4,27z M476.3,44.9
			c0.3-0.1,0.7-0.3,0.9-0.5l25.7,14.9l-26.6,15.4V44.9z M531.6,42.7l-27.1,15.7V27l27.1-15.7V42.7z M532.6-54.2l27.1-15.7v31.3
			l-27.1,15.7V-54.2z M531.6-21.7V9.6L504.4-6.1v-31.3L531.6-21.7z M502.9-38.2l-25.7,14.9c-0.2-0.2-0.6-0.4-0.9-0.5v-29.7
			L502.9-38.2z M447.2-69.9v31.3L420-22.9v-31.3L447.2-69.9z M362.8-21.1v31.3l-27.1,15.7V-5.5L362.8-21.1z M307.5-21.1l27.1,15.7
			v31.3L321.1,18l-13.6-7.8V-21.1z M334.6,58.3l-13.6-7.8l-12.2-7c0-0.2,0.1-0.3,0.1-0.5c0-0.9-0.6-1.7-1.5-1.9V11.3l13.6,7.8
			l13.6,7.8V58.3z M278.4,25.9l-27.1-15.7v-31.3l27.1,15.7V25.9z M223.1-37.4l27.1,15.7V9.6L223.1-6.1V-37.4z M196.3,10l26.2-15.2
			l27.1,15.7l-12.3,7.1l-14.8,8.5L196.3,11c0-0.2,0.1-0.3,0.1-0.5C196.4,10.3,196.4,10.1,196.3,10z M250.2,42.7l-27.1,15.7V27
			l27.1-15.7V42.7z M279.4,58.3V27l27.1-15.7v29.7c-0.8,0.2-1.5,1-1.5,1.9c0,0.2,0,0.3,0.1,0.5L279.4,58.3z M334.6,90.8l-27.1-15.7
			V44.9c0.3-0.1,0.7-0.3,0.9-0.5l12.7,7.3l13.6,7.8V90.8z M362.8,74.6l-27.1-15.7V27.6l27.1,15.7V74.6z M390.9,25.9l-27.1-15.7
			v-31.3l27.1,15.7V25.9z M391.9-6.6V-38L419-53.6v31.3L391.9-6.6z M447.2-37.4V-6L420,9.6v-31.3L447.2-37.4z M391.9,90.8V59.5
			L419,43.8v29.7c-0.8,0.2-1.5,1-1.5,1.9c0,0.2,0,0.3,0.1,0.5L391.9,90.8z M447.2,26.4L420,42.1V10.8l27.1-15.7V26.4z M448.2-37.4
			l25.7,14.9c0,0.2-0.1,0.3-0.1,0.5c0,0.9,0.6,1.7,1.5,1.9V9.6L448.2-6V-37.4z M448.2,59.5l26.2-15.2c0.2,0.2,0.6,0.4,0.9,0.5v30.3
			l-27.1,15.7V59.5z M503.9,91.1l-27.1-15.7l26.6-15.4v0l0.5-0.3l0.5,0.3v0l26.6,15.4L503.9,91.1z M533.1,75.5l27.1-15.7l27.1,15.7
			l-27.1,15.7L533.1,75.5z"/>
	</g>
</g>
</svg>
